<svg xmlns="http://www.w3.org/2000/svg" width="136" height="136" viewBox="0 0 136 136">
  <g id="happy-face" transform="translate(15.536 26.845)">
    <g id="Ellipse_1340" data-name="Ellipse 1340" transform="translate(-15.536 -26.845)" fill="none" stroke="#000" stroke-width="6" opacity="0.03">
      <circle cx="68" cy="68" r="68" stroke="none"/>
      <circle cx="68" cy="68" r="65" fill="none"/>
    </g>
    <path id="Path_25892" data-name="Path 25892" d="M91.01,102.321a32.01,32.01,0,1,0,32.01,32.01A32.046,32.046,0,0,0,91.01,102.321Zm0,59.332a27.322,27.322,0,1,1,27.322-27.322A27.353,27.353,0,0,1,91.01,161.653Z" transform="translate(-42.592 -86.331)" fill="#30b3ff"/>
    <path id="Path_25893" data-name="Path 25893" d="M197.927,342.2a2.344,2.344,0,0,0-3.305.253,14.057,14.057,0,0,1-21.348,0,2.344,2.344,0,0,0-3.558,3.052,18.745,18.745,0,0,0,28.464,0A2.344,2.344,0,0,0,197.927,342.2Z" transform="translate(-135.529 -288.252)" fill="#30b3ff"/>
    <path id="Path_25894" data-name="Path 25894" d="M167.91,238.241a2.344,2.344,0,0,0,2.344-2.344,1.363,1.363,0,0,1,2.726,0,2.344,2.344,0,1,0,4.688,0,6.051,6.051,0,0,0-12.1,0A2.344,2.344,0,0,0,167.91,238.241Z" transform="translate(-132.505 -193.928)" fill="#30b3ff"/>
    <path id="Path_25895" data-name="Path 25895" d="M290.72,229.847a6.058,6.058,0,0,0-6.051,6.051,2.344,2.344,0,1,0,4.688,0,1.363,1.363,0,1,1,2.726,0,2.344,2.344,0,0,0,4.688,0A6.058,6.058,0,0,0,290.72,229.847Z" transform="translate(-232.996 -193.929)" fill="#30b3ff"/>
    <path id="Path_25896" data-name="Path 25896" d="M374.764,58.949h3.42a2.344,2.344,0,1,0,0-4.688h-3.42a2.344,2.344,0,0,0,0,4.688Z" transform="translate(-307.034 -45.782)" fill="#30b3ff"/>
    <path id="Path_25897" data-name="Path 25897" d="M429.554,94.746A2.344,2.344,0,0,0,431.9,92.4v-3.42a2.344,2.344,0,0,0-4.688,0V92.4A2.344,2.344,0,0,0,429.554,94.746Z" transform="translate(-353.262 -73.099)" fill="#30b3ff"/>
    <path id="Path_25898" data-name="Path 25898" d="M465.881,54.261h-3.42a2.344,2.344,0,1,0,0,4.688h3.42a2.344,2.344,0,1,0,0-4.688Z" transform="translate(-381.027 -45.782)" fill="#30b3ff"/>
    <path id="Path_25899" data-name="Path 25899" d="M429.554,8.108A2.344,2.344,0,0,0,431.9,5.764V2.344a2.344,2.344,0,0,0-4.688,0v3.42A2.344,2.344,0,0,0,429.554,8.108Z" transform="translate(-353.262)" fill="#30b3ff"/>
  </g>
</svg>
