<svg xmlns="http://www.w3.org/2000/svg" width="158.543" height="50.912" viewBox="0 0 158.543 50.912">
  <g id="paya" transform="translate(-0.391 -1.422)">
    <g id="Ellipse_1307" data-name="Ellipse 1307" transform="translate(108.021 1.422)" fill="none" stroke="#f07" stroke-width="9">
      <circle cx="25.456" cy="25.456" r="25.456" stroke="none"/>
      <circle cx="25.456" cy="25.456" r="20.956" fill="none"/>
    </g>
    <path id="Path_25803" data-name="Path 25803" d="M-7876.926,1131c-10.665,10.665-11.154,31.752,0,42.906" transform="translate(7982.223 -1125.575)" fill="none" stroke="#f07" stroke-width="9"/>
    <path id="Path_25933" data-name="Path 25933" d="M-32.844,0A8.562,8.562,0,0,1-37.4-.984a3.294,3.294,0,0,1-1.547-2.969,5.042,5.042,0,0,1,.438-2.07l.07-.141,1.508.578-.055.141a3.461,3.461,0,0,0-.25,1.281,1.954,1.954,0,0,0,.461,1.328,2.875,2.875,0,0,0,1.43.8,9.008,9.008,0,0,0,2.461.281q1,0,1.824-.066a12.04,12.04,0,0,0,1.434-.191,5.252,5.252,0,0,0,1.023-.3,1.71,1.71,0,0,0,.625-.406,1.213,1.213,0,0,0,.227-.844q0-.258-.008-.43l-.047-.641-.008-.148.148-.016,1.281-.156.164-.016.016.164.125,1.68a1.825,1.825,0,0,0,.352,1.008,1.185,1.185,0,0,0,.977.367h.1a.264.264,0,0,1,.133.031.269.269,0,0,1,.094.094.97.97,0,0,1,.047.125.536.536,0,0,1,.031.164q.008.109.008.168V-.8q0,.188-.008.289a1.141,1.141,0,0,1-.031.242.338.338,0,0,1-.094.2.26.26,0,0,1-.18.063h-.1a2.568,2.568,0,0,1-2.383-1.281Q-28.57,0-32.812,0Zm.568-7.419,1.137-1.137.058-.059.059.059,1.145,1.145.058.058-.058.059-1.137,1.137-.058.058-.058-.058L-32.276-7.3l-.058-.058Zm-2.541,0,1.137-1.137.059-.059.058.059,1.145,1.145.058.058-.058.059-1.137,1.137-.058.058-.058-.058L-34.817-7.3l-.058-.058ZM-19.9-5.414a3.53,3.53,0,0,1,1.039,2.523A2.407,2.407,0,0,1-20.1-.719,7.061,7.061,0,0,1-23.641,0h-1.117a.511.511,0,0,1-.457-.23,1.1,1.1,0,0,1-.152-.613V-.992a.892.892,0,0,1,.156-.551.533.533,0,0,1,.453-.207h1.109q3.07,0,3.078-1.336A2.016,2.016,0,0,0-21.328-4.5q-1.2-1.109-2.125-1.836a2.926,2.926,0,0,1-.711-.766,1.56,1.56,0,0,1-.242-.82,1.618,1.618,0,0,1,1.2-1.578l5.414-2.055.211-.078v1.742l-.1.039-5,1.867q.633.539,1.152,1t.93.852Q-20.2-5.742-19.9-5.414Zm8.023,5.148q-.609,3.4-4.992,4.234L-17,3.992l-.047-.125-.484-1.234-.07-.172.188-.039a7.124,7.124,0,0,0,2.227-.754A3.472,3.472,0,0,0-13.867.414a3.426,3.426,0,0,0,.438-1.758,6.253,6.253,0,0,0-.594-2.437l-.07-.156.156-.055,1.3-.461.156-.055.047.148.484,1.516a2.073,2.073,0,0,0,.313.617,1.192,1.192,0,0,0,.438.359,1.329,1.329,0,0,0,.57.117h.219a.246.246,0,0,1,.176.063.354.354,0,0,1,.094.188,1.732,1.732,0,0,1,.035.215q.008.09.008.254V-.8q0,.188-.008.289t-.031.242a.358.358,0,0,1-.094.207.251.251,0,0,1-.18.066h-.133A2.564,2.564,0,0,1-11.875-.266Zm5.2-9.4,1.112-1.112.058-.059.058.059,1.12,1.12.059.059-.059.058L-5.434-8.426l-.059.058-.058-.058-1.12-1.12L-6.729-9.6Zm1.287,2.1,1.112-1.112.058-.058.059.058,1.12,1.12.058.058-.058.059L-4.147-6.328l-.058.059-.058-.059-1.12-1.12-.059-.058Zm-2.541,0,1.112-1.112.059-.058.058.058,1.12,1.12.058.058-.058.059L-6.688-6.328l-.058.059L-6.8-6.328l-1.12-1.12-.059-.058Zm1.909,4.792a2.888,2.888,0,0,0,.039-.516q0-.344-.031-.711l-.047-.477-.008-.148.148-.016L-4.625-4.8l.164-.016.008.164.125,1.8a1.256,1.256,0,0,0,.3.824,1.043,1.043,0,0,0,.77.262.834.834,0,0,0,.512-.148.95.95,0,0,0,.309-.488,2.931,2.931,0,0,0,.109-.879,7.356,7.356,0,0,0-.336-1.953l-.047-.148.156-.047,1.336-.352.141-.039.047.141A7.607,7.607,0,0,1-.641-3.328v.047a3.463,3.463,0,0,1-1,2.719,2.319,2.319,0,0,1-1.586.555A2.048,2.048,0,0,1-5.164-.969,2.632,2.632,0,0,1-7.281,0,2.251,2.251,0,0,1-9.359-.953,2.965,2.965,0,0,1-11.867,0H-12.3a.511.511,0,0,1-.457-.23,1.1,1.1,0,0,1-.152-.613V-.992a.892.892,0,0,1,.156-.551A.533.533,0,0,1-12.3-1.75h.453a2.77,2.77,0,0,0,.867-.117,1.251,1.251,0,0,0,.551-.34,1.187,1.187,0,0,0,.27-.566,2.418,2.418,0,0,0,.047-.516q0-.328-.031-.711l-.047-.477-.008-.148.148-.016L-8.766-4.8l.156-.016.016.164.125,1.8a1.192,1.192,0,0,0,.328.828,1.256,1.256,0,0,0,.875.266,1.518,1.518,0,0,0,.609-.109.971.971,0,0,0,.41-.336A1.5,1.5,0,0,0-6.016-2.773Z" transform="translate(76.691 16)" fill="#454545"/>
    <path id="Path_25932" data-name="Path 25932" d="M-62.823-8l1.4-1.4,1.271,1.271L-58.878-9.4l1.413,1.413-1.4,1.4L-60.14-7.857-61.41-6.586Zm1.3-2.173,1.354-1.354,1.354,1.354-1.346,1.354ZM-62.969-.156a4.9,4.9,0,0,1-.437,1.586A4.367,4.367,0,0,1-65.285,3.4a6.212,6.212,0,0,1-2.973.66,5.64,5.64,0,0,1-3.98-1.281A4.816,4.816,0,0,1-73.609-.945a9.163,9.163,0,0,1,.75-3.531l.172-.43.438.172,1.234.516.43.172-.172.43A7.389,7.389,0,0,0-71.3-.961,3.221,3.221,0,0,0-70.98.566a1.968,1.968,0,0,0,1,.883,4.561,4.561,0,0,0,1.777.293,3.145,3.145,0,0,0,2.3-.719,3.156,3.156,0,0,0,.727-2.289,6.1,6.1,0,0,0-.656-2.68l-.234-.477.5-.172,1.344-.477.453-.156.148.453.469,1.453a2.1,2.1,0,0,0,.2.426A1.065,1.065,0,0,0-62.7-2.6a1,1,0,0,0,.355.168,1.894,1.894,0,0,0,.465.051,1.017,1.017,0,0,0,.73-.2,1.067,1.067,0,0,0,.191-.758q0-.437-.023-.766l-.039-.664-.031-.437.445-.055,1.289-.148.484-.062.031.492.125,1.8a2.221,2.221,0,0,0,.066.391.514.514,0,0,0,.133.234.5.5,0,0,0,.215.121,1.054,1.054,0,0,0,.32.027.728.728,0,0,0,.266-.043.465.465,0,0,0,.2-.164.905.905,0,0,0,.137-.363,2.958,2.958,0,0,0,.039-.609,4.277,4.277,0,0,0-.035-.52q-.035-.285-.105-.625t-.18-.723l-.133-.453.461-.125,1.336-.359.43-.117.141.43a8.125,8.125,0,0,1,.4,2.484A3.714,3.714,0,0,1-56.094-.641a2.609,2.609,0,0,1-1.789.633,2.454,2.454,0,0,1-1.969-.781,2.833,2.833,0,0,1-.93.59,3.03,3.03,0,0,1-1.1.2A3.481,3.481,0,0,1-62.969-.156ZM-49-.133a4.812,4.812,0,0,1-1.727,2.664,7.72,7.72,0,0,1-3.437,1.43l-.289.055-.141-.359-.484-1.234-.211-.531.555-.1a8.121,8.121,0,0,0,1.328-.367A4.6,4.6,0,0,0-52.383.9a3.128,3.128,0,0,0,.727-.691,2.6,2.6,0,0,0,.422-.855,3.469,3.469,0,0,0,.141-1.016,3.979,3.979,0,0,0-.141-1.047,7.512,7.512,0,0,0-.43-1.258l-.2-.461.469-.164,1.3-.469.453-.164.148.461.484,1.516a1.413,1.413,0,0,0,.4.68.964.964,0,0,0,.625.2h.219a.692.692,0,0,1,.234.039.6.6,0,0,1,.168.094.448.448,0,0,1,.113.148.863.863,0,0,1,.07.164q.016.07.031.18t.008.164V-1q.008.148.008.242a1.468,1.468,0,0,1-.031.258.69.69,0,0,1-.1.254.554.554,0,0,1-.191.168A.605.605,0,0,1-47.766,0H-47.9A3.858,3.858,0,0,1-49-.133Zm6.063-1.023,0,.152q0,.152,0,.246a1.405,1.405,0,0,1-.031.254.693.693,0,0,1-.1.258.58.58,0,0,1-.2.172A.608.608,0,0,1-43.562,0h-.078a2.8,2.8,0,0,1-2.172-.828,2.822,2.822,0,0,1-.426.309,3.277,3.277,0,0,1-.48.234,3.569,3.569,0,0,1-.535.16,5.26,5.26,0,0,1-.59.094A6.2,6.2,0,0,1-48.477,0h-.812a.854.854,0,0,1-.531-.172,1.17,1.17,0,0,1-.383-.984V-1.3a1.065,1.065,0,0,1,.344-.875.743.743,0,0,1,.266-.148,1.006,1.006,0,0,1,.3-.047h.773a3.389,3.389,0,0,0,.895-.1,1.089,1.089,0,0,0,.477-.23.636.636,0,0,0,.168-.32q.008-.07.02-.16t.016-.191q0-.1,0-.211v-.25q0-.062,0-.121t-.008-.113q0-.055,0-.109a.948.948,0,0,0-.008-.117L-47-4.93l-.031-.445.445-.055,1.281-.148.492-.062.031.492.125,1.8a1.129,1.129,0,0,0,.266.758,1.112,1.112,0,0,0,.766.211h.063a.608.608,0,0,1,.309.074.559.559,0,0,1,.191.168.749.749,0,0,1,.1.254,1.249,1.249,0,0,1,.035.25q0,.09,0,.238t0,.156ZM-49.59-8.142l1.429-1.429L-46.89-8.3l1.271-1.271,1.438,1.438L-45.611-6.7l-1.271-1.271L-48.152-6.7Zm14.2,4.963a1.42,1.42,0,0,0,.105.492.462.462,0,0,0,.238.238,1.126,1.126,0,0,0,.43.066.726.726,0,0,0,.258-.039.473.473,0,0,0,.191-.148.747.747,0,0,0,.133-.332A2.745,2.745,0,0,0-34-3.469q0-.594-.031-.977l-.047-.477-.039-.453.453-.055,1.289-.148.477-.055.047.477.125,1.477a2.517,2.517,0,0,0,.168.8.8.8,0,0,0,.32.4,1,1,0,0,0,.488.105h.141a.733.733,0,0,1,.273.047.387.387,0,0,1,.18.137,1.426,1.426,0,0,1,.105.176.653.653,0,0,1,.059.211q.016.125.02.2a1.524,1.524,0,0,1,0,.184q-.008.109-.008.117v.148q0,.023,0,.082t.008.121q0,.063,0,.145a1.5,1.5,0,0,1-.008.156A1.234,1.234,0,0,1-30-.5a1.165,1.165,0,0,1-.047.152.559.559,0,0,1-.078.137.466.466,0,0,1-.117.109.617.617,0,0,1-.156.07A.712.712,0,0,1-30.609,0h-.125a2.541,2.541,0,0,1-1.984-.727A2.509,2.509,0,0,1-34.609,0a2.951,2.951,0,0,1-1.1-.2,2.21,2.21,0,0,1-.852-.6q-.094.086-.191.164t-.2.148a2.294,2.294,0,0,1-.219.129q-.113.059-.227.109a2.294,2.294,0,0,1-.234.09q-.121.039-.242.066t-.25.047q-.129.02-.258.031t-.27.012a2.736,2.736,0,0,1-2.1-.773A3.559,3.559,0,0,1-43.242,0h-.437a.866.866,0,0,1-.539-.172,1.17,1.17,0,0,1-.383-.984V-1.3a1.536,1.536,0,0,1,.074-.488.853.853,0,0,1,.27-.387.873.873,0,0,1,.578-.2h.453a1.986,1.986,0,0,0,1-.191.842.842,0,0,0,.391-.582,1.086,1.086,0,0,0,.023-.18q.008-.117.008-.273,0-.312-.031-.68l-.047-.477-.039-.453.453-.055,1.289-.148.484-.062.039.492.125,1.8a.932.932,0,0,0,.219.633,1,1,0,0,0,.672.172,1.627,1.627,0,0,0,.316-.027.913.913,0,0,0,.242-.082.572.572,0,0,0,.18-.145.818.818,0,0,0,.125-.215,1.5,1.5,0,0,0,.082-.3,2.321,2.321,0,0,0,.031-.453q0-.117,0-.227t-.012-.223q-.008-.113-.016-.23l-.039-.477-.047-.453.453-.055,1.289-.148.492-.062.031.492Zm7.336-5.008a31.358,31.358,0,0,1,2.414,2.25A3.856,3.856,0,0,1-24.523-3.2a2.874,2.874,0,0,1-.375,1.43,2.721,2.721,0,0,1-1.031,1,5.225,5.225,0,0,1-1.594.578A10.563,10.563,0,0,1-29.617,0h-1.117a.866.866,0,0,1-.539-.172,1.17,1.17,0,0,1-.383-.984V-1.3a1.065,1.065,0,0,1,.344-.875.873.873,0,0,1,.578-.2h1.109q.4,0,.75-.023t.609-.062q.266-.047.477-.1a2.426,2.426,0,0,0,.367-.133,1.992,1.992,0,0,0,.266-.156.673.673,0,0,0,.172-.172.789.789,0,0,0,.094-.187.59.59,0,0,0,.031-.187,1.7,1.7,0,0,0-.664-1.18q-1.18-1.1-2.1-1.828A2.36,2.36,0,0,1-30.7-8.234a2.048,2.048,0,0,1,.047-.445,1.716,1.716,0,0,1,.453-.852,2.439,2.439,0,0,1,.9-.57l5.266-2,.633-.242V-9.93l-.3.109Zm4.47-4.844-6.244,2.407-.226.092v-1.362l.109-.042,6.244-2.407.226-.092v1.363Zm9.538,11.867q0,.016.008.141v.2a1.906,1.906,0,0,1-.016.211.717.717,0,0,1-.047.234q-.047.086-.109.188a.427.427,0,0,1-.187.141A.733.733,0,0,1-14.672,0h-.32Q-18.18,0-18.18-3.859V-11h2.3v7.125a1.991,1.991,0,0,0,.25,1.172.979.979,0,0,0,.82.328h.141a.71.71,0,0,1,.266.047.4.4,0,0,1,.18.133q.063.094.109.18a.731.731,0,0,1,.055.211,1.709,1.709,0,0,1,.016.2,1.023,1.023,0,0,1,0,.18v.258ZM-14.187,0h-.594a.866.866,0,0,1-.539-.172,1.17,1.17,0,0,1-.383-.984V-1.3a1.065,1.065,0,0,1,.344-.875.873.873,0,0,1,.578-.2h.594a6.415,6.415,0,0,0,.941-.059,1.883,1.883,0,0,0,.52-.129q.43-.258.43-1.227a8.016,8.016,0,0,0-.273-1.953L-12.68-6.2l.453-.117,1.273-.32.43-.109.133.422a8.471,8.471,0,0,1,.4,2.508A3.656,3.656,0,0,1-11.273-.7,4.869,4.869,0,0,1-14.187,0Zm-1,2.475,1.429-1.429,1.271,1.271,1.271-1.271,1.438,1.438-1.429,1.429-1.271-1.271-1.271,1.271ZM-4.57-1.164q0,.016.008.141v.2a1.906,1.906,0,0,1-.016.211.717.717,0,0,1-.047.234q-.047.086-.109.188a.427.427,0,0,1-.187.141A.733.733,0,0,1-5.2,0h-.32Q-8.7,0-8.7-3.859V-11h2.3v7.125A1.991,1.991,0,0,0-6.156-2.7a.979.979,0,0,0,.82.328H-5.2a.71.71,0,0,1,.266.047.4.4,0,0,1,.18.133q.062.094.109.18a.731.731,0,0,1,.055.211,1.709,1.709,0,0,1,.016.2,1.023,1.023,0,0,1,0,.18v.258ZM-4.711,0H-5.3a.866.866,0,0,1-.539-.172,1.17,1.17,0,0,1-.383-.984V-1.3a1.065,1.065,0,0,1,.344-.875.873.873,0,0,1,.578-.2h.594a6.415,6.415,0,0,0,.941-.059,1.883,1.883,0,0,0,.52-.129q.43-.258.43-1.227a8.016,8.016,0,0,0-.273-1.953L-3.2-6.2l.453-.117,1.273-.32.43-.109.133.422a8.471,8.471,0,0,1,.4,2.508A3.656,3.656,0,0,1-1.8-.7,4.869,4.869,0,0,1-4.711,0ZM-5.745,2.35-4.332.938l1.271,1.271L-1.791.938l1.4,1.4L-1.8,3.754-3.07,2.484-4.34,3.754Zm1.3,2.182,1.362-1.354,1.346,1.346L-3.087,5.878Z" transform="translate(74 41.598)" fill="#39303b"/>
  </g>
</svg>
