<svg xmlns="http://www.w3.org/2000/svg" width="115.692" height="55.314" viewBox="0 0 115.692 55.314">
  <g id="binesh" transform="translate(-0.497 6.204)">
    <path id="Path_25934" data-name="Path 25934" d="M-35-11.5l2.019-2.019,1.826,1.826,1.826-1.826,2.031,2.031-2.019,2.019-1.827-1.827-1.826,1.827Zm1.875-3.124,1.947-1.947,1.947,1.947-1.935,1.947Zm-.5,11.2a1.439,1.439,0,0,0,1.033-.286,1.543,1.543,0,0,0,.281-1.073q0-.865-.022-1.157l-.056-.91-.045-.64.64-.079,1.842-.213.708-.09.045.708.18,2.594a1.443,1.443,0,0,0,.281.91,1.141,1.141,0,0,0,.82.236,1.044,1.044,0,0,0,.371-.056.666.666,0,0,0,.275-.219,1.126,1.126,0,0,0,.191-.489,5.218,5.218,0,0,0,.073-.831q0-.348-.017-.691t-.039-.679l-.067-.685-.056-.651.651-.079,1.853-.213L-24-8.1l.067.685.18,2.123a3.619,3.619,0,0,0,.241,1.151,1.148,1.148,0,0,0,.46.573,1.444,1.444,0,0,0,.7.152h.2a1.054,1.054,0,0,1,.393.067.556.556,0,0,1,.258.2,2.05,2.05,0,0,1,.152.253.938.938,0,0,1,.084.3q.022.18.028.286t0,.264q-.006.157-.006.168v.213a.528.528,0,0,0,0,.157q.056,1.112-.427,1.393A1.021,1.021,0,0,1-22.146,0h-.18a3.637,3.637,0,0,1-2.841-1.044A3.5,3.5,0,0,1-27.818,0a3.655,3.655,0,0,1-2.9-1.123A4.11,4.11,0,0,1-33.646,0a5,5,0,0,1-1.561-.225,7.041,7.041,0,0,1-.629,2.28,6.277,6.277,0,0,1-2.7,2.836,8.929,8.929,0,0,1-4.273.949A8.107,8.107,0,0,1-48.532,4,6.923,6.923,0,0,1-50.5-1.359a13.172,13.172,0,0,1,1.078-5.076l.247-.618.629.247,1.774.741.618.247L-46.4-5.2a10.622,10.622,0,0,0-.775,3.818,4.631,4.631,0,0,0,.455,2.2,2.828,2.828,0,0,0,1.438,1.269,6.556,6.556,0,0,0,2.555.421,4.521,4.521,0,0,0,3.3-1.033,4.537,4.537,0,0,0,1.044-3.291,8.763,8.763,0,0,0-.943-3.852l-.337-.685.719-.247,1.932-.685.651-.225.213.651.674,2.089a2.419,2.419,0,0,0,.4.781,1.4,1.4,0,0,0,.59.432A2.411,2.411,0,0,0-33.624-3.425Zm19.878,1.763.006.219q.006.219.006.354a2.02,2.02,0,0,1-.045.365,1,1,0,0,1-.14.371.834.834,0,0,1-.281.247A.875.875,0,0,1-14.645,0h-.112a4.024,4.024,0,0,1-3.111-1.179A4.626,4.626,0,0,1-21.147,0h-1.168a1.228,1.228,0,0,1-.764-.247,1.682,1.682,0,0,1-.55-1.415v-.213a1.531,1.531,0,0,1,.494-1.258,1.068,1.068,0,0,1,.382-.213,1.446,1.446,0,0,1,.438-.067H-21.2a3.044,3.044,0,0,0,.938-.118,1.015,1.015,0,0,0,.5-.309,1.257,1.257,0,0,0,.213-.505,4.874,4.874,0,0,0,.056-.809v-.219q0-.107-.006-.208t-.006-.2q0-.1-.006-.2t-.017-.2l-.056-.91-.045-.64.64-.079,1.842-.213.708-.09.045.708.18,2.594a1.623,1.623,0,0,0,.382,1.089,1.6,1.6,0,0,0,1.1.3h.09a.875.875,0,0,1,.444.107.8.8,0,0,1,.275.241,1.077,1.077,0,0,1,.14.365,1.8,1.8,0,0,1,.051.359q0,.129-.006.343t-.006.225Zm-7.027-10.02,2.139-2.139,2.151,2.151-2.139,2.139Zm5.37,15.24L-13.348,1.5l1.826,1.827L-9.7,1.5-7.629,3.57-9.683,5.625-11.51,3.8l-1.826,1.827Zm9.709-5.22.006.219q.006.219.006.354a2.02,2.02,0,0,1-.045.365,1,1,0,0,1-.14.371.834.834,0,0,1-.281.247A.875.875,0,0,1-6.592,0H-6.7A4.019,4.019,0,0,1-9.827-1.19a4.057,4.057,0,0,1-.612.444,4.711,4.711,0,0,1-.691.337,5.131,5.131,0,0,1-.769.23,7.562,7.562,0,0,1-.848.135,8.917,8.917,0,0,1-.91.045h-1.168a1.228,1.228,0,0,1-.764-.247,1.682,1.682,0,0,1-.55-1.415v-.213a1.531,1.531,0,0,1,.494-1.258,1.068,1.068,0,0,1,.382-.213,1.446,1.446,0,0,1,.438-.067h1.112a4.872,4.872,0,0,0,1.286-.14,1.565,1.565,0,0,0,.685-.331.915.915,0,0,0,.241-.46q.011-.1.028-.23t.022-.275q.006-.146.006-.3v-.359q0-.09-.006-.174t-.011-.163q-.006-.079-.006-.157a1.362,1.362,0,0,0-.011-.168l-.056-.91-.045-.64.64-.079L-9.1-8.019l.708-.09.045.708.18,2.594a1.623,1.623,0,0,0,.382,1.089,1.6,1.6,0,0,0,1.1.3h.09a.875.875,0,0,1,.444.107.8.8,0,0,1,.275.241,1.077,1.077,0,0,1,.14.365,1.8,1.8,0,0,1,.051.359q0,.129-.006.343t-.006.225ZM-5.907,0h-.854a1.245,1.245,0,0,1-.775-.247,1.682,1.682,0,0,1-.55-1.415v-.213a1.531,1.531,0,0,1,.494-1.258,1.255,1.255,0,0,1,.831-.281h.854a3.3,3.3,0,0,0,1.539-.27q.618-.371.618-1.763,0-.2-.011-.421T-3.8-6.312q-.022-.225-.051-.455t-.073-.477q-.045-.247-.1-.5t-.124-.511L-4.3-8.906l.651-.168,1.831-.46.618-.157.191.606a12.178,12.178,0,0,1,.573,3.6A5.256,5.256,0,0,1-2.28-1,5.9,5.9,0,0,1-5.907,0Zm-.469,3.558,2.139-2.139L-2.086,3.57-4.225,5.709Z" transform="translate(51 32.227)" fill="#69788b"/>
    <path id="Path_25804" data-name="Path 25804" d="M-8141.537,1197.906-8168.48,1155" transform="translate(8222.757 -1155)" fill="none" stroke="#69788b" stroke-linecap="round" stroke-width="9"/>
    <path id="Path_25805" data-name="Path 25805" d="M-8141.537,1197.906-8168.48,1155" transform="translate(8237.14 -1155)" fill="none" stroke="#69788b" stroke-linecap="round" stroke-width="9"/>
    <path id="Path_25806" data-name="Path 25806" d="M-8141.537,1197.906-8168.48,1155" transform="translate(8251.521 -1155)" fill="none" stroke="#69788b" stroke-linecap="round" stroke-width="9"/>
  </g>
</svg>
