<svg xmlns="http://www.w3.org/2000/svg" width="79.384" height="57.373" viewBox="0 0 79.384 57.373">
  <g id="ava" transform="translate(0)">
    <path id="Path_25935" data-name="Path 25935" d="M-59.483.938a4.64,4.64,0,0,1-2,2.1,6.6,6.6,0,0,1-3.158.7,5.992,5.992,0,0,1-4.229-1.361,5.117,5.117,0,0,1-1.457-3.959,9.736,9.736,0,0,1,.8-3.752l.183-.457.465.183,1.312.548.457.183-.183.457A7.851,7.851,0,0,0-67.867-1.6,3.423,3.423,0,0,0-67.531.021a2.091,2.091,0,0,0,1.063.938,4.846,4.846,0,0,0,1.888.311A3.342,3.342,0,0,0-62.14.506a3.354,3.354,0,0,0,.772-2.432,6.477,6.477,0,0,0-.7-2.847l-.249-.506.531-.183,1.428-.506.457-.158.174.448a10.9,10.9,0,0,1,.813,4A5.869,5.869,0,0,1-59.483.938ZM-66.313-6.2l1.581-1.581,1.59,1.59-1.581,1.581Zm8.971-5.485h1.934V-.008H-57.84V-11.687Zm8.7,11.546a5.113,5.113,0,0,1-1.834,2.831,8.2,8.2,0,0,1-3.652,1.519l-.307.058-.149-.382L-55.1,2.573l-.224-.564.589-.108a8.628,8.628,0,0,0,1.411-.39A4.883,4.883,0,0,0-52.237.955,3.323,3.323,0,0,0-51.465.22a2.763,2.763,0,0,0,.448-.909,3.686,3.686,0,0,0,.149-1.079,4.228,4.228,0,0,0-.149-1.112,7.982,7.982,0,0,0-.457-1.336l-.208-.49.5-.174,1.378-.5.481-.174.158.49.515,1.61a1.5,1.5,0,0,0,.423.722,1.025,1.025,0,0,0,.664.208h.232a.735.735,0,0,1,.249.042.641.641,0,0,1,.178.1.476.476,0,0,1,.12.158.917.917,0,0,1,.075.174q.017.075.033.191t.008.174v.623q.008.158.008.257a1.559,1.559,0,0,1-.033.274.733.733,0,0,1-.1.27.588.588,0,0,1-.2.178A.643.643,0,0,1-47.331,0h-.141A4.1,4.1,0,0,1-48.643-.141Zm6.732-1.087,0,.162q0,.162,0,.261a1.493,1.493,0,0,1-.033.27.736.736,0,0,1-.1.274.616.616,0,0,1-.208.183A.646.646,0,0,1-42.575,0h-.083a2.97,2.97,0,0,1-2.308-.88,3,3,0,0,1-.452.328,3.482,3.482,0,0,1-.51.249,3.792,3.792,0,0,1-.569.17,5.589,5.589,0,0,1-.627.1A6.591,6.591,0,0,1-47.8,0h-.863a.908.908,0,0,1-.564-.183,1.243,1.243,0,0,1-.407-1.046v-.158a1.131,1.131,0,0,1,.365-.93.789.789,0,0,1,.282-.158,1.069,1.069,0,0,1,.324-.05h.822a3.6,3.6,0,0,0,.95-.1,1.157,1.157,0,0,0,.506-.245.676.676,0,0,0,.178-.34q.008-.075.021-.17t.017-.2q0-.108,0-.224v-.266q0-.066,0-.129t-.008-.12q0-.058,0-.116a1.007,1.007,0,0,0-.008-.125l-.042-.672-.033-.473.473-.058,1.361-.158.523-.066.033.523.133,1.917a1.2,1.2,0,0,0,.282.805,1.182,1.182,0,0,0,.813.224h.066a.646.646,0,0,1,.328.079.594.594,0,0,1,.2.178.8.8,0,0,1,.1.27,1.327,1.327,0,0,1,.037.266q0,.1,0,.253t0,.166Zm-7.069-7.423,1.519-1.519,1.35,1.35,1.35-1.35,1.528,1.528-1.519,1.519-1.35-1.35-1.35,1.35Zm15.087,5.273a1.508,1.508,0,0,0,.112.523.491.491,0,0,0,.253.253,1.2,1.2,0,0,0,.457.071.771.771,0,0,0,.274-.042.5.5,0,0,0,.2-.158.793.793,0,0,0,.141-.353,2.917,2.917,0,0,0,.037-.6q0-.631-.033-1.038l-.05-.506-.042-.481.481-.058,1.37-.158.506-.058.05.506L-30-3.91a2.675,2.675,0,0,0,.178.851.849.849,0,0,0,.34.423,1.067,1.067,0,0,0,.519.112h.149a.779.779,0,0,1,.291.05.411.411,0,0,1,.191.145,1.515,1.515,0,0,1,.112.187.694.694,0,0,1,.062.224q.017.133.021.212a1.62,1.62,0,0,1,0,.2q-.008.116-.008.125v.158q0,.025,0,.087t.008.129q0,.066,0,.154a1.588,1.588,0,0,1-.008.166,1.311,1.311,0,0,1-.029.166,1.237,1.237,0,0,1-.05.162A.594.594,0,0,1-28.3-.22a.5.5,0,0,1-.125.116.655.655,0,0,1-.166.075.757.757,0,0,1-.22.029h-.133a2.7,2.7,0,0,1-2.108-.772A2.666,2.666,0,0,1-33.062,0a3.135,3.135,0,0,1-1.17-.212,2.348,2.348,0,0,1-.9-.635q-.1.091-.2.174t-.216.158a2.437,2.437,0,0,1-.232.137q-.12.062-.241.116a2.438,2.438,0,0,1-.249.1q-.129.042-.257.071t-.266.05q-.137.021-.274.033T-37.362,0a2.907,2.907,0,0,1-2.233-.822A3.781,3.781,0,0,1-42.234,0H-42.7a.92.92,0,0,1-.573-.183,1.243,1.243,0,0,1-.407-1.046v-.158a1.632,1.632,0,0,1,.079-.519.906.906,0,0,1,.286-.411.927.927,0,0,1,.614-.208h.481a2.11,2.11,0,0,0,1.063-.2.894.894,0,0,0,.415-.618,1.154,1.154,0,0,0,.025-.191q.008-.125.008-.291,0-.332-.033-.722l-.05-.506-.042-.481.481-.058,1.37-.158.515-.066.042.523.133,1.917a.991.991,0,0,0,.232.672,1.065,1.065,0,0,0,.714.183,1.729,1.729,0,0,0,.336-.029.97.97,0,0,0,.257-.087.608.608,0,0,0,.191-.154.869.869,0,0,0,.133-.228,1.6,1.6,0,0,0,.087-.324,2.466,2.466,0,0,0,.033-.481q0-.125,0-.241t-.012-.237q-.008-.12-.017-.245l-.042-.506-.05-.481.481-.058,1.37-.158.523-.066.033.523ZM-26.1-8.7a33.319,33.319,0,0,1,2.565,2.391A4.1,4.1,0,0,1-22.346-3.4a3.053,3.053,0,0,1-.4,1.519,2.891,2.891,0,0,1-1.1,1.063A5.552,5.552,0,0,1-25.533-.2a11.223,11.223,0,0,1-2.225.2h-1.187a.92.92,0,0,1-.573-.183,1.243,1.243,0,0,1-.407-1.046v-.158a1.131,1.131,0,0,1,.365-.93.927.927,0,0,1,.614-.208h1.179q.423,0,.8-.025t.647-.066q.282-.05.506-.108a2.578,2.578,0,0,0,.39-.141,2.117,2.117,0,0,0,.282-.166.715.715,0,0,0,.183-.183.838.838,0,0,0,.1-.2.627.627,0,0,0,.033-.2,1.807,1.807,0,0,0-.706-1.253q-1.253-1.17-2.233-1.942A2.508,2.508,0,0,1-28.9-8.749a2.176,2.176,0,0,1,.05-.473,1.823,1.823,0,0,1,.481-.9,2.591,2.591,0,0,1,.955-.606l5.595-2.125.672-.257v2.565l-.324.116Zm4.749-5.147-6.634,2.558-.24.1v-1.448l.116-.044,6.634-2.558.24-.1v1.448Zm6.249,2.158h1.934V-.008H-15.6V-11.687Zm3.461,13.6q2.673-.5,3.528-1.934-.324.033-.473.033a3.954,3.954,0,0,1-2.6-.76,2.719,2.719,0,0,1-.934-2.229,4.8,4.8,0,0,1,.481-2.117,4.249,4.249,0,0,1,.394-.668,3.33,3.33,0,0,1,.481-.535,2.778,2.778,0,0,1,.564-.39,2.834,2.834,0,0,1,.647-.241,3.055,3.055,0,0,1,.718-.083,2.778,2.778,0,0,1,1.756.577A3.678,3.678,0,0,1-5.927-4.79a7.951,7.951,0,0,1,.515,2.9A5.774,5.774,0,0,1-6.823,2.154,7.16,7.16,0,0,1-10.94,4.208l-.407.075L-11.5,3.9l-.515-1.312-.224-.564Zm3.785-4.466a5.976,5.976,0,0,0-.178-.942,1.92,1.92,0,0,0-.257-.585.941.941,0,0,0-.3-.282.713.713,0,0,0-.344-.083q-.44,0-.664.656A2.192,2.192,0,0,0-9.72-3.1a.737.737,0,0,0,.042.27.494.494,0,0,0,.154.2.758.758,0,0,0,.344.133,3.45,3.45,0,0,0,.589.042A3.9,3.9,0,0,0-7.853-2.548Zm4.59-7.961h1.934v10.5H-3.76v-10.5Zm.091-1.436a1.389,1.389,0,0,0-.8.12,2.3,2.3,0,0,0-.747.6l-.116.141-.125-.133-.93-1.3-.091-.091.075-.116a2.607,2.607,0,0,1,2.64-1.336l1.237.2A2.61,2.61,0,0,0-.39-14.145l.149-.075.075.158.631,1.544.058.133L.4-12.3a3.484,3.484,0,0,1-2.407.515Z" transform="translate(73.751 53.089)" fill="#69788b"/>
    <path id="Path_25807" data-name="Path 25807" d="M-8937.411,1269.543l-16.84,28.779h33.3Z" transform="translate(8954.251 -1269.543)" fill="#3f98ee"/>
    <path id="Path_25809" data-name="Path 25809" d="M-8937.411,1269.543l-16.84,28.779h33.3Z" transform="translate(9000.335 -1269.543)" fill="#3f98ee"/>
    <path id="Path_25808" data-name="Path 25808" d="M-8937.791,1298.322l16.84-28.779h-33.3Z" transform="translate(8977.658 -1269.543)" fill="#3f98ee"/>
  </g>
</svg>
