<svg xmlns="http://www.w3.org/2000/svg" width="108.745" height="55" viewBox="0 0 108.745 55">
  <g id="sako" transform="translate(-28.255 9.909)">
    <path id="Path_25936" data-name="Path 25936" d="M-33.164,0h-.64a5.418,5.418,0,0,1-3.515-1.033,3.629,3.629,0,0,1-1.269-2.987,6.5,6.5,0,0,1,.651-2.864,5.368,5.368,0,0,1,.685-1.1,4.241,4.241,0,0,1,.87-.814A3.748,3.748,0,0,1-35.337-9.3a4.054,4.054,0,0,1,1.2-.174,3.836,3.836,0,0,1,1.819.421,3.748,3.748,0,0,1,1.348,1.224,7.04,7.04,0,0,1,.893,1.909A12.585,12.585,0,0,1-29.6-3.4h.539a.982.982,0,0,1,.393.073.631.631,0,0,1,.264.2,1.4,1.4,0,0,1,.157.27,1.04,1.04,0,0,1,.079.326q.017.185.022.3a2.351,2.351,0,0,1-.006.275q-.011.157-.011.18v.112q0,.034.006.1t.006.236A3.113,3.113,0,0,1-28.172-1a2,2,0,0,1-.073.348A1.174,1.174,0,0,1-28.4-.32a.712.712,0,0,1-.27.23.883.883,0,0,1-.41.09l-.741-.011a6.679,6.679,0,0,1-2.409,3.717,10.966,10.966,0,0,1-4.767,1.988l-.55.1-.2-.517-.7-1.774-.3-.764.809-.146Q-34.264,1.909-33.164,0Zm.326-3.414A7.941,7.941,0,0,0-33.085-4.7a2.765,2.765,0,0,0-.354-.809,1.283,1.283,0,0,0-.4-.387.887.887,0,0,0-.438-.112q-.584-.011-.9.9a2.757,2.757,0,0,0-.129.477,2.636,2.636,0,0,0-.039.444.923.923,0,0,0,.045.32.6.6,0,0,0,.185.236.922.922,0,0,0,.438.168,4.667,4.667,0,0,0,.758.051Zm7.457-8.355a45.078,45.078,0,0,1,3.47,3.234,7.863,7.863,0,0,1,1.595,2.751,4.147,4.147,0,0,0,1.078,1.819,2.224,2.224,0,0,0,1.516.55h.18a1.054,1.054,0,0,1,.393.067.666.666,0,0,1,.258.191q.09.135.157.258a1.051,1.051,0,0,1,.079.3,2.457,2.457,0,0,1,.022.292,1.471,1.471,0,0,1,0,.258,1.575,1.575,0,0,0-.011.168v.213a.292.292,0,0,1,.011.09,1.663,1.663,0,0,1,.011.236,2.3,2.3,0,0,1-.022.326,2.5,2.5,0,0,1-.079.348,1,1,0,0,1-.157.337.793.793,0,0,1-.258.236.892.892,0,0,1-.4.09h-.18a5.243,5.243,0,0,1-3.919-1.617A5.385,5.385,0,0,1-24.033-.382,14.6,14.6,0,0,1-27.627,0h-1.606a1.245,1.245,0,0,1-.775-.247,1.682,1.682,0,0,1-.55-1.415v-.213a1.531,1.531,0,0,1,.494-1.258,1.255,1.255,0,0,1,.831-.281h1.595q.573,0,1.078-.034t.876-.09Q-25.3-3.6-25-3.684a3.488,3.488,0,0,0,.528-.191,2.864,2.864,0,0,0,.382-.225.967.967,0,0,0,.247-.247,1.134,1.134,0,0,0,.135-.27.848.848,0,0,0,.045-.27,2.444,2.444,0,0,0-.955-1.7q-1.7-1.583-3.021-2.628a3.393,3.393,0,0,1-1.539-2.628,2.944,2.944,0,0,1,.067-.64,2.492,2.492,0,0,1,.663-1.235,3.6,3.6,0,0,1,1.28-.809L-19.6-17.4l.91-.348v3.47l-.438.157ZM-9.1-4.526a3.143,3.143,0,0,0,.056-.651q0-.483-.045-.977l-.056-.685-.067-.651.651-.079L-6.7-7.783-6-7.873l.045.708.18,2.594a1.443,1.443,0,0,0,.281.91,1.122,1.122,0,0,0,.809.236,1.118,1.118,0,0,0,.292-.034A.6.6,0,0,0-4.15-3.6a.762.762,0,0,0,.191-.292A2.3,2.3,0,0,0-3.841-4.4,5.539,5.539,0,0,0-3.8-5.155a9.971,9.971,0,0,0-.472-2.684l-.191-.651.663-.18,1.92-.517.629-.168.191.618A14.1,14.1,0,0,1-.612-6.929a9.2,9.2,0,0,1,.14,1.7v.067A5.39,5.39,0,0,1-2.066-.921a3.751,3.751,0,0,1-2.572.91A4.99,4.99,0,0,1-5.75-.129,3.5,3.5,0,0,1-6.71-.5a2.708,2.708,0,0,1-.758-.635,4.249,4.249,0,0,1-3,1.134,3.933,3.933,0,0,1-3.021-1.112A5.116,5.116,0,0,1-17.059,0h-.629a1.245,1.245,0,0,1-.775-.247,1.682,1.682,0,0,1-.55-1.415v-.213a2.208,2.208,0,0,1,.107-.7,1.225,1.225,0,0,1,.387-.556,1.255,1.255,0,0,1,.831-.281h.651A2.821,2.821,0,0,0-15.6-3.689a1.215,1.215,0,0,0,.556-.837,3.143,3.143,0,0,0,.056-.651q0-.236-.011-.472t-.034-.505l-.067-.685-.056-.651.651-.079,1.853-.213.7-.09.056.708.18,2.594a1.34,1.34,0,0,0,.314.91,1.441,1.441,0,0,0,.966.247A2.252,2.252,0,0,0-10-3.453a1.318,1.318,0,0,0,.343-.118.822.822,0,0,0,.258-.208,1.176,1.176,0,0,0,.18-.309A2.157,2.157,0,0,0-9.1-4.526Z" transform="translate(67 24.227)" fill="#69788b"/>
    <g id="Ellipse_1345" data-name="Ellipse 1345" transform="translate(79 13.091)" fill="#fff" stroke="#0ef" stroke-width="5">
      <circle cx="16" cy="16" r="16" stroke="none"/>
      <circle cx="16" cy="16" r="13.5" fill="none"/>
    </g>
    <circle id="Ellipse_1346" data-name="Ellipse 1346" cx="24" cy="24" r="24" transform="translate(89 -9.909)" fill="#376599"/>
  </g>
</svg>
