<svg xmlns="http://www.w3.org/2000/svg" width="65.871" height="63.23" viewBox="0 0 65.871 63.23">
  <g id="clock" transform="translate(0 -10.262)">
    <g id="XMLID_386_" transform="translate(0 10.262)">
      <path id="XMLID_389_" d="M65.744,44.92A25.967,25.967,0,0,0,45.551,22.15V18.881A4.374,4.374,0,0,0,44.5,10.262H35.232a4.374,4.374,0,0,0-1.056,8.619v3.278a25.833,25.833,0,0,0-12.67,6.969,26.113,26.113,0,0,0-2.184,2.479c-.032,0-.065,0-.1,0H10.057a1.287,1.287,0,0,0,0,2.573h7.515a25.791,25.791,0,0,0-2.283,4.945h-14a1.287,1.287,0,0,0,0,2.573H14.562a26.159,26.159,0,0,0-.639,4.945H8.234a1.287,1.287,0,1,0,0,2.573h5.73a26.12,26.12,0,0,0,.8,4.945H6.433a1.287,1.287,0,0,0,0,2.573h9.156A25.985,25.985,0,0,0,37.314,73.367q1.275.126,2.55.125A26.051,26.051,0,0,0,54.047,69.3a1.287,1.287,0,0,0-1.4-2.156,23.415,23.415,0,1,1,6.9-6.905,1.287,1.287,0,1,0,2.158,1.4A26.071,26.071,0,0,0,65.744,44.92ZM33.431,14.636a1.8,1.8,0,0,1,1.8-1.8H44.5a1.8,1.8,0,1,1,0,3.6H35.232A1.8,1.8,0,0,1,33.431,14.636Zm3.318,7.08V19.011h6.229v2.7A26.214,26.214,0,0,0,36.75,21.717Z" transform="translate(0 -10.262)" fill="#868686"/>
      <path id="XMLID_391_" d="M437.057,425.5a1.287,1.287,0,1,0,.91.377A1.294,1.294,0,0,0,437.057,425.5Z" transform="translate(-379.706 -372.077)" fill="#868686"/>
      <path id="XMLID_394_" d="M174.83,144.609a19.958,19.958,0,1,0,19.958,19.958A19.981,19.981,0,0,0,174.83,144.609Zm0,37.343a17.385,17.385,0,1,1,17.385-17.385A17.4,17.4,0,0,1,174.83,181.952Z" transform="translate(-134.947 -127.324)" fill="#868686"/>
      <path id="XMLID_397_" d="M271.989,219.788l-6.372,6.372a3.988,3.988,0,0,0-3.532,0l-2.852-2.852a1.287,1.287,0,0,0-1.82,1.819l2.852,2.852a4,4,0,1,0,7.171,0l6.185-6.185h0l.187-.187a1.287,1.287,0,0,0-1.819-1.819ZM263.85,231.17a1.425,1.425,0,1,1,1.425-1.425A1.426,1.426,0,0,1,263.85,231.17Z" transform="translate(-223.967 -192.503)" fill="#868686"/>
      <path id="XMLID_425_" d="M1.287,351.44a1.287,1.287,0,1,0,.909,2.2,1.287,1.287,0,0,0-.909-2.2Z" transform="translate(0 -307.545)" fill="#868686"/>
    </g>
  </g>
</svg>
