<svg xmlns="http://www.w3.org/2000/svg" width="30.504" height="30.809" viewBox="0 0 30.504 30.809">
  <g id="wallet" transform="translate(-1.431 0.25)">
    <path id="Path_25912" data-name="Path 25912" d="M31.685,14.119H30.231V7.43a2.912,2.912,0,0,0-2.908-2.908H25.353L23.338.9A1.745,1.745,0,0,0,20.964.22l-7.735,4.3H4.589A2.912,2.912,0,0,0,1.681,7.43V27.4a2.912,2.912,0,0,0,2.908,2.908H27.323A2.912,2.912,0,0,0,30.231,27.4V21.535h1.454ZM27.323,5.685a1.742,1.742,0,0,1,1.726,1.551H26.862L26,5.685ZM21.53,1.237a.593.593,0,0,1,.79.226l3.211,5.773H10.742ZM29.068,27.4a1.747,1.747,0,0,1-1.745,1.745H4.589A1.747,1.747,0,0,1,2.844,27.4V7.43A1.747,1.747,0,0,1,4.589,5.685h6.548L8.348,7.236h-3.4a.582.582,0,0,0,0,1.163H29.068v5.72H24.814A3.588,3.588,0,0,0,21.231,17.7v.25a3.588,3.588,0,0,0,3.583,3.583h4.254V27.4Zm1.454-7.028H24.814a2.422,2.422,0,0,1-2.42-2.42V17.7a2.422,2.422,0,0,1,2.42-2.42h5.708Zm-3.926-2.5a1.284,1.284,0,1,1-1.284-1.284A1.284,1.284,0,0,1,26.6,17.875Z" transform="translate(0 0)" fill="#0dc8d0" stroke="#0dc8d0" stroke-width="0.5"/>
  </g>
</svg>
