<svg xmlns="http://www.w3.org/2000/svg" width="49" height="44.971" viewBox="0 0 49 44.971">
  <path id="group" d="M48.757,65.624a1.1,1.1,0,0,1-.853.408H41.533a1.1,1.1,0,0,1-1.017-1.506l1.343-3.335a1.1,1.1,0,1,1,2.034.819l-.737,1.829h3.389l-.131-.606c-.32-1.48-1.7-6.309-6.1-6.309H38.436c-4.4,0-5.782,4.829-6.1,6.309l-.131.606h3.389l-.736-1.829a1.1,1.1,0,0,1,2.034-.819l1.343,3.335a1.1,1.1,0,0,1-1.017,1.506H30.845A1.1,1.1,0,0,1,29.773,64.7l.417-1.934c1.07-4.959,4.23-8.039,8.245-8.039h1.876c4.015,0,7.174,3.08,8.245,8.039l.418,1.934A1.1,1.1,0,0,1,48.757,65.624Zm-28.971-39.2a5.556,5.556,0,0,1,3.882-5.313,1.1,1.1,0,0,1,.665,0,5.577,5.577,0,0,1,0,10.626,1.1,1.1,0,0,1-.666,0A5.556,5.556,0,0,1,19.786,26.425Zm2.193,0A3.37,3.37,0,0,0,24,29.523a3.385,3.385,0,0,0,0-6.2A3.369,3.369,0,0,0,21.979,26.425ZM35.16,47.131a5.556,5.556,0,0,1,3.882-5.313,1.1,1.1,0,0,1,.666,0,5.577,5.577,0,0,1,0,10.626,1.1,1.1,0,0,1-.666,0A5.556,5.556,0,0,1,35.16,47.131Zm2.193,0a3.37,3.37,0,0,0,2.022,3.1,3.385,3.385,0,0,0,0-6.2A3.369,3.369,0,0,0,37.353,47.131Zm-31.942,0a5.556,5.556,0,0,1,3.882-5.313,1.1,1.1,0,0,1,.666,0,5.577,5.577,0,0,1,0,10.626,1.1,1.1,0,0,1-.666,0A5.556,5.556,0,0,1,5.411,47.131Zm2.193,0a3.37,3.37,0,0,0,2.022,3.1,3.385,3.385,0,0,0,0-6.2A3.369,3.369,0,0,0,7.6,47.131Zm13.912-6.647a1.1,1.1,0,0,0-2.034.819l.736,1.829H19.205a1.1,1.1,0,0,0,0,2.193h2.636a1.1,1.1,0,0,0,1.017-1.506ZM18.809,62.77c-1.071-4.959-4.23-8.039-8.245-8.039H8.688c-4.016,0-7.175,3.08-8.245,8.039L.025,64.7A1.1,1.1,0,0,0,1.1,66.031H7.467a1.1,1.1,0,0,0,1.017-1.506L7.142,61.19a1.1,1.1,0,1,0-2.034.819l.736,1.829H2.455l.131-.606c.319-1.48,1.7-6.309,6.1-6.309h1.876c4.4,0,5.782,4.829,6.1,6.309l.131.606H13.408l.737-1.829a1.1,1.1,0,0,0-2.034-.819l-1.343,3.335a1.1,1.1,0,0,0,1.017,1.506h6.371A1.1,1.1,0,0,0,19.226,64.7Zm11.875-21.55a1.1,1.1,0,0,0,2.081-.693c-1.377-4.132-4.229-6.5-7.826-6.5H23.062c-3.6,0-6.451,2.37-7.827,6.5a1.1,1.1,0,1,0,2.081.693c.622-1.868,2.2-5,5.746-5h1.876C28.487,36.217,30.062,39.351,30.684,41.219Zm-.417,3.009a1.1,1.1,0,0,0-1.1-1.1H27.782l.736-1.829a1.1,1.1,0,0,0-2.034-.819l-1.343,3.335a1.1,1.1,0,0,0,1.017,1.506H29.17A1.1,1.1,0,0,0,30.266,44.228Z" transform="translate(0 -21.06)" fill="#fff"/>
</svg>
