<svg id="instagram-logo2" xmlns="http://www.w3.org/2000/svg" width="44.53" height="44.53" viewBox="0 0 44.53 44.53">
  <path id="Path_26147" data-name="Path 26147" d="M32.241,0H12.288A12.3,12.3,0,0,0,0,12.289V32.241A12.3,12.3,0,0,0,12.288,44.53H32.241A12.3,12.3,0,0,0,44.53,32.241V12.289A12.3,12.3,0,0,0,32.241,0Zm8.338,32.241a8.347,8.347,0,0,1-8.338,8.338H12.288a8.347,8.347,0,0,1-8.337-8.338V12.289a8.347,8.347,0,0,1,8.337-8.338H32.241a8.347,8.347,0,0,1,8.338,8.338V32.241Z" fill="#ff4751"/>
  <path id="Path_26148" data-name="Path 26148" d="M52.442,40.97A11.474,11.474,0,1,0,63.916,52.444,11.487,11.487,0,0,0,52.442,40.97Zm0,19a7.523,7.523,0,1,1,7.523-7.523A7.532,7.532,0,0,1,52.442,59.967Z" transform="translate(-30.177 -30.179)" fill="#ff4751"/>
  <path id="Path_26149" data-name="Path 26149" d="M121.818,28.251a2.9,2.9,0,1,0,2.049.848A2.909,2.909,0,0,0,121.818,28.251Z" transform="translate(-87.598 -20.81)" fill="#ff4751"/>
</svg>
