<svg xmlns="http://www.w3.org/2000/svg" width="42.4" height="42.381" viewBox="0 0 42.4 42.381">
  <g id="whatsapp" transform="translate(0.269 0.25)">
    <path id="Path_26070" data-name="Path 26070" d="M35.932,5.949A20.175,20.175,0,0,0,21.571,0h0A20.313,20.313,0,0,0,3.521,29.624L.107,39.377a1.883,1.883,0,0,0,1.769,2.5,1.9,1.9,0,0,0,.627-.107l9.752-3.413A20.311,20.311,0,0,0,35.932,5.949ZM34.195,32.934A17.86,17.86,0,0,1,13.19,36.076a1.892,1.892,0,0,0-1.509-.117l-8.86,3.1,3.1-8.86A1.892,1.892,0,0,0,5.8,28.691,17.855,17.855,0,0,1,21.569,2.456h0A17.853,17.853,0,0,1,34.195,32.934Zm0,0" transform="translate(0)" fill="#ff4751" stroke="#ff4751" stroke-width="0.5"/>
    <path id="Path_26071" data-name="Path 26071" d="M146.05,126.6a2.4,2.4,0,0,0-3.389,0l-1.022,1.022a14.874,14.874,0,0,1-5.973-5.973l1.022-1.022a2.4,2.4,0,0,0,0-3.389l-2.754-2.754a2.4,2.4,0,0,0-3.389,0l-2.2,2.2c-1.262,1.262-1.325,3.431-.177,6.108a26.811,26.811,0,0,0,12.327,12.328,8.893,8.893,0,0,0,3.429.817,3.652,3.652,0,0,0,2.68-.994l2.2-2.2h0a2.4,2.4,0,0,0,0-3.389Zm-1.186,6.609c-.36.36-1.468.486-3.4-.343a24.42,24.42,0,0,1-11.038-11.038c-.83-1.936-.7-3.044-.343-3.4l2.161-2.161,2.669,2.669-1.279,1.279a1.875,1.875,0,0,0-.347,2.183,17.328,17.328,0,0,0,7.611,7.611,1.874,1.874,0,0,0,2.183-.347l1.279-1.279,2.669,2.669Zm0,0" transform="translate(-116.931 -104.478)" fill="#ff4751" stroke="#ff4751" stroke-width="0.5"/>
  </g>
</svg>
