<!-- <?xml version="1.0" encoding="UTF-8"?>
<svg width="16px" height="16px" viewBox="0 0 16 16" version="1.1" xmlns="http://www.w3.org/2000/svg" xmlns:xlink="http://www.w3.org/1999/xlink">
    <g id="Page-1" stroke="none" stroke-width="1" fill="none" fill-rule="evenodd">
        <g id="trash" fill-rule="nonzero" fill="#FFFFFF">
            <path d="M5,2 L5,1.0093689 C5,0.451909848 5.45097518,0 5.99077797,0 L10.009222,0 C10.5564136,0 11,0.443353176 11,1.0093689 L11,2 L15,2 L15,4 L14,4 L14,14.8304478 C14,15.4763737 13.4532027,16 12.8055229,16 L3.19447708,16 C2.53478561,16 2,15.4682789 2,14.8304478 L2,4 L1,4 L1,2 L5,2 Z M4,4 L4,14 L12,14 L12,4 L4,4 Z M6,6 L8,6 L8,12 L6,12 L6,6 Z" id="Bin"></path>
        </g>
    </g>
</svg> -->
<svg xmlns="http://www.w3.org/2000/svg" width="16" height="16" fill="#fff" class="bi bi-trash" viewBox="0 0 16 16"> <path d="M5.5 5.5A.5.5 0 0 1 6 6v6a.5.5 0 0 1-1 0V6a.5.5 0 0 1 .5-.5zm2.5 0a.5.5 0 0 1 .5.5v6a.5.5 0 0 1-1 0V6a.5.5 0 0 1 .5-.5zm3 .5a.5.5 0 0 0-1 0v6a.5.5 0 0 0 1 0V6z"/> <path fill-rule="evenodd" d="M14.5 3a1 1 0 0 1-1 1H13v9a2 2 0 0 1-2 2H5a2 2 0 0 1-2-2V4h-.5a1 1 0 0 1-1-1V2a1 1 0 0 1 1-1H6a1 1 0 0 1 1-1h2a1 1 0 0 1 1 1h3.5a1 1 0 0 1 1 1v1zM4.118 4 4 4.059V13a1 1 0 0 0 1 1h6a1 1 0 0 0 1-1V4.059L11.882 4H4.118zM2.5 3V2h11v1h-11z"/> </svg>