<svg xmlns="http://www.w3.org/2000/svg" width="796.5" height="447.5" viewBox="0 0 796.5 447.5">
  <g id="Group_13485" data-name="Group 13485" transform="translate(-318.5 -1021.5)">
    <g id="Group_36" data-name="Group 36" transform="translate(1738 1135) rotate(90)">
      <circle id="Ellipse_76" data-name="Ellipse 76" cx="10" cy="10" r="10" transform="translate(175 1358)" fill="#fff" opacity="0.2"/>
      <circle id="Ellipse_46" data-name="Ellipse 46" cx="10" cy="10" r="10" transform="translate(219 1323)" fill="#fff" opacity="0.2"/>
      <circle id="Ellipse_49" data-name="Ellipse 49" cx="10" cy="10" r="10" transform="translate(219 1358)" fill="#fff" opacity="0.2"/>
      <circle id="Ellipse_51" data-name="Ellipse 51" cx="10" cy="10" r="10" transform="translate(219 1393)" fill="#fff" opacity="0.2"/>
    </g>
    <g id="Group_35" data-name="Group 35" transform="translate(2438 -87) rotate(90)">
      <circle id="Ellipse_77" data-name="Ellipse 77" cx="10" cy="10" r="10" transform="translate(1242 1378) rotate(180)" fill="#fff" opacity="0.2"/>
      <circle id="Ellipse_46-2" data-name="Ellipse 46" cx="10" cy="10" r="10" transform="translate(1198 1413) rotate(180)" fill="#fff" opacity="0.2"/>
      <circle id="Ellipse_49-2" data-name="Ellipse 49" cx="10" cy="10" r="10" transform="translate(1198 1378) rotate(180)" fill="#fff" opacity="0.2"/>
      <circle id="Ellipse_51-2" data-name="Ellipse 51" cx="10" cy="10" r="10" transform="translate(1198 1343) rotate(180)" fill="#fff" opacity="0.2"/>
    </g>
    <rect id="Rectangle_21" data-name="Rectangle 21" width="190" height="97" rx="48.5" transform="translate(1096 1279) rotate(90)" fill="#476daf"/>
    <rect id="Rectangle_22" data-name="Rectangle 22" width="190" height="97" rx="48.5" transform="translate(318.5 1021.5)" fill="#476daf"/>
  </g>
</svg>
