<svg xmlns="http://www.w3.org/2000/svg" width="14" height="19.014" viewBox="0 0 14 19.014">
  <g id="placeholder-filled-point" transform="translate(-12.883)">
    <path id="Path_26123" data-name="Path 26123" d="M19.883,0a7.008,7.008,0,0,0-7,7A6.828,6.828,0,0,0,13.5,9.857a44.135,44.135,0,0,0,6.093,9.021.39.39,0,0,0,.59,0,44.158,44.158,0,0,0,6.093-9.021A6.825,6.825,0,0,0,26.883,7,7.009,7.009,0,0,0,19.883,0Zm0,10.636A3.636,3.636,0,1,1,23.519,7,3.64,3.64,0,0,1,19.883,10.636Z" transform="translate(0)" fill="#fff"/>
  </g>
</svg>
