<svg xmlns="http://www.w3.org/2000/svg" width="20.63" height="18.214" viewBox="0 0 20.63 18.214">
  <g id="wallet" transform="translate(0 -20.015)">
    <g id="Group_13986" data-name="Group 13986" transform="translate(0 20.014)">
      <path id="Path_26125" data-name="Path 26125" d="M330.138,86.46a1.158,1.158,0,0,0-.306.042l-1.932.528L322,88.64h9.616l-.361-1.325A1.156,1.156,0,0,0,330.138,86.46Z" transform="translate(-314.54 -86.46)" fill="#fff"/>
      <path id="Path_26126" data-name="Path 26126" d="M18.283,215.56H1.161a1.16,1.16,0,0,0-1.119.855,1.2,1.2,0,0,0-.042.3v12.906a1.159,1.159,0,0,0,1.158,1.158H18.281a1.159,1.159,0,0,0,1.158-1.158v-3.232H12.566a1.97,1.97,0,0,1-1.969-1.969v-2.576a1.966,1.966,0,0,1,1.967-1.967h6.876v-3.162A1.155,1.155,0,0,0,18.283,215.56Z" transform="translate(0 -212.569)" fill="#fff"/>
      <path id="Path_26127" data-name="Path 26127" d="M501.245,437.064a1.156,1.156,0,0,0-.405-.241,1.181,1.181,0,0,0-.375-.063h-6.906a1.159,1.159,0,0,0-1.158,1.158V440.5a1.159,1.159,0,0,0,1.158,1.158h6.906a1.181,1.181,0,0,0,.375-.063,1.123,1.123,0,0,0,.405-.241,1.154,1.154,0,0,0,.378-.855v-2.578A1.154,1.154,0,0,0,501.245,437.064Zm-5.268,2.375a.579.579,0,0,1-.579.579h-.385a.579.579,0,0,1-.579-.579v-.385a.568.568,0,0,1,.222-.454.585.585,0,0,1,.357-.125h.385a.579.579,0,0,1,.579.579v.385Z" transform="translate(-480.993 -428.646)" fill="#fff"/>
    </g>
  </g>
</svg>
