<svg xmlns="http://www.w3.org/2000/svg" width="21.664" height="20.701" viewBox="0 0 21.664 20.701">
  <g id="cup" transform="translate(0 -0.481)">
    <g id="Group_13987" data-name="Group 13987">
      <path id="Path_26128" data-name="Path 26128" d="M2.756,20.725h2.95a.533.533,0,0,0,.523.458h6.707a.532.532,0,0,0,.523-.458h2.95a.9.9,0,0,0,.9-.9H1.854A.9.9,0,0,0,2.756,20.725Z" fill="#fff"/>
      <path id="Path_26129" data-name="Path 26129" d="M20.865,11.444a3.444,3.444,0,0,0-2.508-.542c.02-.486.031-.983.031-1.5H0c0,4.97.752,8.556,5.511,9.894h7.366a6.826,6.826,0,0,0,3.964-2.6c1.806-.035,4.711-.746,4.82-3.24A2.31,2.31,0,0,0,20.865,11.444ZM17.6,15.27a11.474,11.474,0,0,0,.664-2.988,2.5,2.5,0,0,1,1.754.215c.078.064.321.262.293.9C20.252,14.69,18.648,15.124,17.6,15.27Z" fill="#fff"/>
      <path id="Path_26130" data-name="Path 26130" d="M7.491,8.7s3.5-.257,1.9-3.208C8.1,3.127,8.393,1.737,10.041.481c0,0-5.4,1.375-2.25,5.63C8.946,7.965,7.491,8.7,7.491,8.7Z" fill="#fff"/>
      <path id="Path_26131" data-name="Path 26131" d="M9.85,8.468s2.8-.591,1.278-2.846c-.554-.978.21-1.327.21-1.327S9.533,4.352,10.3,5.9C10.9,7.15,10.724,7.858,9.85,8.468Z" fill="#fff"/>
    </g>
  </g>
</svg>
