<svg xmlns="http://www.w3.org/2000/svg" width="22.828" height="21.379" viewBox="0 0 22.828 21.379">
  <g id="clothes" transform="translate(0 -18.217)">
    <g id="Layer_2_2_" transform="translate(0 18.217)">
      <path id="Path_26132" data-name="Path 26132" d="M183.332,18.9l4.287,6.955,4.2-6.82-1.523-.824a3.566,3.566,0,0,1-2.68,1.45,4.723,4.723,0,0,1-3.015-1.45Z" transform="translate(-176.038 -18.217)" fill="#fff"/>
      <path id="Path_26134" data-name="Path 26134" d="M21.017,76.344a1.8,1.8,0,0,0-1.218.478l.493-.84-1.854-1L11.6,86.448,4.155,75.106l-1.619.875.531.872a1.809,1.809,0,1,0,.556,1.3,1.791,1.791,0,0,0-.09-.536L5.9,81.513a1.848,1.848,0,1,0,.56.92l1.916,3.148a1.81,1.81,0,1,0,1.034,1.7l1.96,3.219a1.813,1.813,0,1,0,.408,0l2-3.411c0,.044-.013.086-.013.13A1.818,1.818,0,1,0,14.6,85.7l1.721-2.935c0,.035-.011.068-.011.1a1.822,1.822,0,1,0,.845-1.528l2.1-3.586a1.81,1.81,0,1,0,1.764-1.408ZM1.812,78.88a.725.725,0,1,1,.725-.725A.726.726,0,0,1,1.812,78.88Zm2.9,4.711a.725.725,0,1,1,.725-.725A.726.726,0,0,1,4.711,83.591Zm2.9,4.348a.725.725,0,1,1,.725-.725A.726.726,0,0,1,7.609,87.939Zm4.711,4.348a.725.725,0,1,1-.725-.725A.726.726,0,0,1,12.32,92.288Zm3.261-5.8a.725.725,0,1,1-.725.725A.726.726,0,0,1,15.581,86.49Zm2.537-4.348a.725.725,0,1,1-.725.725A.726.726,0,0,1,18.118,82.142Zm2.9-3.261a.725.725,0,1,1,.725-.725A.726.726,0,0,1,21.017,78.88Z" transform="translate(0 -72.721)" fill="#fff"/>
    </g>
  </g>
</svg>
