<svg width="32" height="32" viewBox="0 0 32 32" fill="none" xmlns="http://www.w3.org/2000/svg">
<path d="M28.1072 13.4971L26.8402 18.9011C25.7543 23.5682 23.6082 25.4557 19.5746 25.0679C18.9282 25.0161 18.23 24.8998 17.4802 24.7188L15.3082 24.2017C9.91717 22.9218 8.24943 20.2586 9.51639 14.8546L10.7834 9.43762C11.0419 8.33872 11.3522 7.38203 11.7401 6.59341C13.2527 3.46477 15.8254 2.62444 20.1434 3.64577L22.3024 4.14997C27.7194 5.41694 29.3742 8.09308 28.1072 13.4971Z" stroke="" stroke-width="1.5" stroke-linecap="round" stroke-linejoin="round"/>
<path d="M16.4459 11.0278L22.7161 12.618M15.1789 16.031L18.9281 16.9877M19.5745 25.0679C18.773 25.6108 17.7646 26.0633 16.5364 26.4641L14.4937 27.1364C9.36121 28.7912 6.65921 27.4079 4.99146 22.2754L3.33665 17.1687C1.68183 12.0362 3.05223 9.32126 8.18474 7.66644L10.2274 6.99417C10.7575 6.82611 11.2617 6.6839 11.74 6.5934C11.3522 7.38202 11.0419 8.33871 10.7833 9.43761L9.51635 14.8545C8.24938 20.2585 9.91712 22.9218 15.3082 24.2017L17.4801 24.7188C18.23 24.8998 18.9281 25.0161 19.5745 25.0679Z" stroke="" stroke-width="1.5" stroke-linecap="round" stroke-linejoin="round"/>
</svg>
