<svg width="25" height="24" viewBox="0 0 25 24" fill="none" xmlns="http://www.w3.org/2000/svg">
<path d="M3.21585 10.3096L20.987 10.3096C22.6741 10.3096 23.349 9.59728 23.349 7.79767L23.349 3.26115C23.349 1.46154 22.6741 0.749191 20.987 0.749191L3.21585 0.74919C1.52871 0.74919 0.853859 1.46154 0.853859 3.26115L0.853859 7.79767C0.853859 9.59728 1.52871 10.3096 3.21585 10.3096ZM3.21585 23.2443L20.987 23.2443C22.6741 23.2443 23.349 22.532 23.349 20.7324L23.349 16.1959C23.349 14.4087 22.6741 13.6839 20.987 13.6839L3.21585 13.6839C1.52871 13.6839 0.853859 14.3962 0.853859 16.1959L0.853858 20.7324C0.853858 22.532 1.52871 23.2443 3.21585 23.2443Z" stroke="" stroke-width="1.5" stroke-linecap="round" stroke-linejoin="round"/>
</svg>
