<svg width="146" height="60" viewBox="0 0 146 60" fill="none" xmlns="http://www.w3.org/2000/svg">
<rect width="146" height="60" fill="#1E1E1E"/>
<g clip-path="url(#clip0_0_1)">
<rect width="1728" height="1117" transform="translate(-1555 -49)" fill="white"/>
<rect x="-145" y="-49" width="318" height="1117" fill="#F8F8F8"/>
<path d="M145.274 45.3402C145.274 45.3402 145.293 45.2954 145.306 45.2699C145.312 45.2571 145.319 45.2443 145.325 45.2315C145.344 45.1868 145.363 45.1357 145.376 45.091C145.395 45.0334 145.408 44.9759 145.421 44.912C145.434 44.8545 145.44 44.7906 145.453 44.7331C145.453 44.7203 145.453 44.7139 145.453 44.7011C145.453 44.65 145.459 44.5989 145.459 44.5478C145.459 44.5478 145.459 44.5478 145.459 44.5414V44.5222L145.664 26.8846C145.664 26.8846 145.664 26.8718 145.664 26.8654C145.664 26.8207 145.664 26.7823 145.664 26.7376C145.664 26.7184 145.664 26.6993 145.664 26.6801C145.664 26.6737 145.664 26.6673 145.664 26.6545C145.664 26.6098 145.651 26.5587 145.645 26.5139V26.5012C145.638 26.45 145.625 26.3989 145.606 26.3542C145.606 26.335 145.6 26.3158 145.594 26.2967C145.581 26.2583 145.568 26.22 145.555 26.1816C145.523 26.105 145.491 26.0283 145.447 25.9516C145.427 25.9196 145.408 25.8877 145.389 25.8493C145.389 25.8366 145.376 25.8302 145.37 25.8174C145.351 25.7918 145.338 25.7663 145.319 25.7407C145.306 25.7215 145.287 25.696 145.268 25.6768C145.223 25.6257 145.178 25.5682 145.127 25.5234L144.923 25.3189L128.889 9.28531L120.16 0.555968C119.418 -0.185323 118.223 -0.185323 117.482 0.555968L113.015 5.02289C112.657 5.38075 112.459 5.86004 112.459 6.36488V9.83489C112.459 11.5539 112.459 13.1324 112.459 15.2923C112.459 15.7908 112.657 16.2765 113.015 16.6279L126.007 29.6197L131.975 35.5884L125.521 42.0427L118.901 35.4222C118.166 34.6873 116.964 34.6873 116.223 35.4222L111.756 39.8891C111.405 40.2406 111.207 40.7263 111.207 41.2247V44.6948C111.207 46.4074 111.207 47.9858 111.207 50.1522C111.207 50.6506 111.411 51.1363 111.763 51.4878L115.258 54.9834L119.725 59.4503C120.076 59.8018 120.556 60.0062 121.061 59.9999H124.409C126.173 59.9999 127.777 59.9999 129.988 59.9999C130.487 59.9999 130.972 59.8018 131.324 59.4503L144.923 45.8514M116.249 9.81572V7.13173L118.824 4.55638L125.649 11.3814L125.508 23.7469L116.249 14.4871V9.80933V9.81572ZM129.253 27.4917L129.394 15.1262L140.909 26.6418L134.659 32.8916L129.253 27.4853V27.4917ZM114.99 42.0044L117.565 39.429L122.844 44.7075L116.594 50.9574L114.996 49.3598V42.0044H114.99ZM129.202 56.2167C127.381 56.2167 125.956 56.2167 124.409 56.2167H121.847L119.271 53.6414L134.659 38.2532L140.909 44.503L129.202 56.2103V56.2167Z" fill="#0E3B96"/>
<path d="M23.8235 27.1083H27.7025C27.9709 27.1083 28.1051 26.9741 28.1051 26.6993V23.1909C28.1051 22.9225 27.9709 22.782 27.7025 22.782H23.8235C23.5551 22.782 23.4209 22.9162 23.4209 23.1909V26.6993C23.4209 26.9741 23.5551 27.1083 23.8235 27.1083Z" fill="#0E3B96"/>
<path d="M39.8764 46.695C40.5985 45.8706 40.9563 44.5861 40.9563 42.8351V31.556C40.9563 31.2876 40.8221 31.1534 40.5537 31.1534H36.8281C36.5597 31.1534 36.4255 31.2876 36.4255 31.556V41.7488C36.4255 42.5539 36.2722 43.1099 35.959 43.423C35.6459 43.7298 35.1538 43.8832 34.4828 43.8832H31.3323C30.3099 43.8832 29.4919 43.6659 28.8848 43.2377C28.2777 42.8096 27.9774 42.1897 27.9774 41.3845V31.5496C27.9774 31.2812 27.8432 31.147 27.5748 31.147H23.8491C23.5807 31.147 23.4465 31.2812 23.4465 31.5496V40.0936C23.4465 40.7902 23.4338 41.3845 23.4082 41.8638C23.3826 42.3495 23.3059 42.7393 23.1845 43.0332C23.0631 43.3272 22.865 43.5445 22.5966 43.6787C22.3282 43.8129 21.964 43.8832 21.5038 43.8832H19.5611C19.5611 43.8832 19.51 43.8832 19.4845 43.8832C19.4461 43.8832 19.4014 43.8832 19.3567 43.8832H16.5704V39.3268C16.5704 37.6908 16.3659 36.3041 15.9633 35.173C15.5607 34.0419 14.992 33.128 14.2635 32.4315C13.535 31.7349 12.6659 31.2237 11.6498 30.8978C10.6337 30.5719 9.52176 30.4121 8.30758 30.4121C7.20203 30.4121 6.14761 30.5783 5.14431 30.917C4.1474 31.2556 3.26552 31.7924 2.51144 32.5337C1.75737 33.275 1.15028 34.2336 0.690168 35.403C0.230056 36.5725 0 37.9848 0 39.6271C0 41.1608 0.178932 42.4581 0.543188 43.5061C0.907443 44.5542 1.42507 45.4105 2.10246 46.0751C2.77345 46.7333 3.60421 47.2062 4.58834 47.4874C5.57247 47.7685 6.69718 47.9091 7.96249 47.9091H12.046C12.046 48.7463 11.9629 49.4301 11.8031 49.9732C11.6434 50.51 11.4133 50.9318 11.113 51.2258C10.819 51.5197 10.442 51.7306 9.98187 51.852C9.52176 51.9735 8.98496 52.031 8.36509 52.031H3.63616C3.36776 52.031 3.23356 52.1652 3.23356 52.4336V55.6671C3.23356 55.9355 3.36776 56.0697 3.63616 56.0697H9.0936C11.522 56.0697 13.3752 55.4882 14.6533 54.3315C15.9314 53.1749 16.5704 51.328 16.5704 48.791V47.9027H19.3567C19.3567 47.9027 19.4014 47.9027 19.4269 47.9027C19.4589 47.9027 19.4909 47.9027 19.5228 47.9027H22.718C24.0025 47.9027 25.0122 47.7558 25.7471 47.4554C26.482 47.1551 27.038 46.6119 27.4086 45.8195C27.8623 46.6886 28.4822 47.2573 29.2618 47.5129C29.9584 47.743 30.77 47.8708 31.6838 47.8964C31.7349 47.8964 31.7925 47.8964 31.85 47.8964H36.253C37.9337 47.8964 39.1415 47.4874 39.8572 46.663L39.8764 46.695ZM12.0588 43.8832H8.46095C7.17008 43.8832 6.17956 43.5764 5.48939 42.9565C4.79922 42.3367 4.46053 41.1864 4.46053 39.4929C4.46053 37.9656 4.80561 36.745 5.48939 35.8312C6.17317 34.9174 7.12534 34.4636 8.33953 34.4636C9.6304 34.4636 10.5762 34.8726 11.1705 35.6906C11.7648 36.5086 12.0588 37.71 12.0588 39.2948V43.8832Z" fill="#0E3B96"/>
<path d="M36.7962 51.36H33.4028C33.1344 51.36 33.0002 51.4942 33.0002 51.769V55.2773C33.0002 55.5521 33.1344 55.6863 33.4028 55.6863H36.7962C37.0646 55.6863 37.1988 55.5521 37.1988 55.2773V51.769C37.1988 51.4942 37.0646 51.36 36.7962 51.36Z" fill="#0E3B96"/>
<path d="M42.0489 51.36H38.6555C38.3871 51.36 38.2529 51.4942 38.2529 51.769V55.2773C38.2529 55.5521 38.3871 55.6863 38.6555 55.6863H42.0489C42.3172 55.6863 42.4515 55.5521 42.4515 55.2773V51.769C42.4515 51.4942 42.3172 51.36 42.0489 51.36Z" fill="#0E3B96"/>
<path d="M74.0268 22.782H70.1478C69.8794 22.782 69.7452 22.9162 69.7452 23.1909V26.6993C69.7452 26.9741 69.8794 27.1083 70.1478 27.1083H74.0268C74.2952 27.1083 74.4294 26.9741 74.4294 26.6993V23.1909C74.4294 22.9225 74.2952 22.782 74.0268 22.782Z" fill="#0E3B96"/>
<path d="M73.9053 31.1534H70.1797C69.9113 31.1534 69.7771 31.2876 69.7771 31.556V41.7488C69.7771 42.554 69.6237 43.1099 69.3106 43.4231C68.9975 43.7298 68.5054 43.8832 67.8344 43.8832H65.8534C65.8534 43.8832 65.7958 43.8832 65.7639 43.8832C65.7128 43.8832 65.6616 43.8832 65.6105 43.8832H64.9203C63.8979 43.8832 63.0863 43.6659 62.492 43.2377C61.8977 42.8096 61.6037 42.2025 61.6037 41.4229V37.6333C61.6037 35.0835 60.9455 33.2431 59.6227 32.112C58.2999 30.9873 56.5105 30.4185 54.2483 30.4185H48.1071C47.8387 30.4185 47.7045 30.5527 47.7045 30.8211V34.0547C47.7045 34.3231 47.8387 34.4573 48.1071 34.4573H52.9574C54.3314 34.4573 55.3603 34.7385 56.0504 35.3008C56.7406 35.8632 57.0793 36.7642 57.0793 37.9976V40.6943C57.0793 41.2823 57.0473 41.7807 56.977 42.1833C56.9067 42.5859 56.7598 42.9118 56.5297 43.1675C56.2996 43.4231 55.9673 43.602 55.5392 43.7106C55.111 43.8193 54.5295 43.8704 53.801 43.8704H46.2794C46.011 43.8704 45.8768 44.0046 45.8768 44.2794V47.5066C45.8768 47.7813 46.011 47.9156 46.2794 47.9156H55.3347C56.7086 47.9156 57.827 47.7622 58.6961 47.449C59.5652 47.1359 60.2489 46.516 60.7602 45.5894C61.2139 46.5416 61.8529 47.1679 62.6709 47.4682C63.4889 47.7686 64.4666 47.9156 65.5977 47.9156C65.6297 47.9156 65.6616 47.9156 65.6936 47.9156C65.7383 47.9156 65.7895 47.9156 65.8406 47.9156H69.5982C71.2788 47.9156 72.4866 47.5066 73.2024 46.6822C73.9245 45.8578 74.2823 44.5733 74.2823 42.8224V31.5432C74.2823 31.2748 74.1481 31.1406 73.8797 31.1406L73.9053 31.1534Z" fill="#0E3B96"/>
<path d="M100.221 20.4431H96.4956C96.2272 20.4431 96.093 20.5773 96.093 20.8457V41.7488C96.093 42.554 95.9397 43.1163 95.6265 43.4231C95.3134 43.7298 94.8213 43.8896 94.144 43.8896H89.9135V26.5076C89.9135 26.2392 89.7793 26.105 89.5109 26.105H85.7853C85.5169 26.105 85.3827 26.2392 85.3827 26.5076V43.8896H78.187C77.9186 43.8896 77.7844 44.0238 77.7844 44.2986V47.5258C77.7844 47.8005 77.9186 47.9347 78.187 47.9347H95.9333C97.614 47.9347 98.8218 47.5258 99.5375 46.7014C100.26 45.877 100.617 44.5925 100.617 42.8416V20.852C100.617 20.5836 100.483 20.4494 100.215 20.4494L100.221 20.4431Z" fill="#0E3B96"/>
</g>
<defs>
<clipPath id="clip0_0_1">
<rect width="1728" height="1117" fill="white" transform="translate(-1555 -49)"/>
</clipPath>
</defs>
</svg>
