<svg xmlns="http://www.w3.org/2000/svg" width="50" height="50" viewBox="0 0 50 50">
  <g id="Group_14224" data-name="Group 14224" transform="translate(-1042 -611)">
    <circle id="Ellipse_29" data-name="Ellipse 29" cx="25" cy="25" r="25" transform="translate(1042 611)" fill="#ebebeb"/>
    <g id="telegram-logo_1_" data-name="telegram-logo (1)" transform="translate(1056.705 627)">
      <path id="Path_26076" data-name="Path 26076" d="M18.61.981A1.636,1.636,0,0,0,17.3.346a2.254,2.254,0,0,0-1.047.281L1.133,8.552a1.781,1.781,0,0,0,.177,3.377l1.932.764a3.294,3.294,0,0,0,1.217.22c.07,0,.137-.009.206-.013-.026.034-.058.06-.083.1a2.152,2.152,0,0,0-.052,2.055c0,.014.01.025.015.036.571,1.266,1.207,2.694,1.284,2.893a1.3,1.3,0,0,0,1.2.834c.815,0,1.057-.393,2.391-2.564a2.193,2.193,0,0,0,.374-1l.428.172,2.14.872,1,.411a1.331,1.331,0,0,0,.194.1,1.285,1.285,0,0,0,.473.09c.973,0,1.207-.843,1.332-1.295.062-.223.147-.533.239-.874L18.868,2.729A1.942,1.942,0,0,0,18.61.981ZM8.344,15.567a21.807,21.807,0,0,1-1.314,1.972s0,0-.006,0c-.119-.319-1.316-2.971-1.316-2.971-.221-.531-.181-.987.2-.987a.8.8,0,0,1,.3.07l.929.483a2.565,2.565,0,0,0,.511.271l.047.018.088.044C8.5,14.842,8.727,14.98,8.344,15.567ZM17.637,2.394,14.374,14.388c-.184.676-.338,1.229-.341,1.229s-.006-.014-.006-.016-.532-.222-1.182-.488L10.7,14.24c-.65-.263-1.717-.689-2.371-.941l-.108-.043-.4-.208a.78.78,0,0,1-.033-1.229l6.625-7.094c.266-.284.366-.43.309-.43a1.526,1.526,0,0,0-.439.287L5.9,11.193a2.444,2.444,0,0,1-1.444.445,2.059,2.059,0,0,1-.748-.13l-1.93-.763c-.652-.258-.677-.735-.056-1.062L16.842,1.755a1.012,1.012,0,0,1,.454-.134C17.621,1.622,17.769,1.906,17.637,2.394Z" transform="translate(0 -0.346)" fill="#959595"/>
    </g>
  </g>
</svg>
