<svg xmlns="http://www.w3.org/2000/svg" width="60" height="60" viewBox="0 0 60 60">
  <g id="Group_14226" data-name="Group 14226" transform="translate(-916 -4637)">
    <circle id="Ellipse_31" data-name="Ellipse 31" cx="30" cy="30" r="30" transform="translate(916 4637)" fill="#bebebe" opacity="0.2"/>
    <g id="linkedin" transform="translate(936 4654)">
      <path id="Path_26073" data-name="Path 26073" d="M5.765,151.625H1.39a.891.891,0,0,0-.89.89v16.491a.891.891,0,0,0,.89.889H5.765a.89.89,0,0,0,.889-.889V152.515A.891.891,0,0,0,5.765,151.625Zm-.634,16.747H2.023V153.148H5.132Zm0,0" transform="translate(-0.475 -143.938)" fill="#898989"/>
      <path id="Path_26074" data-name="Path 26074" d="M3.1,0a3.1,3.1,0,1,0,3.1,3.1A3.106,3.106,0,0,0,3.1,0Zm0,4.682A1.58,1.58,0,1,1,4.682,3.1,1.581,1.581,0,0,1,3.1,4.682Zm0,0" fill="#898989"/>
      <path id="Path_26075" data-name="Path 26075" d="M170.2,153.562a5.677,5.677,0,0,0-3.743-1.315,5.738,5.738,0,0,0-2.431.591v-.36a.85.85,0,0,0-.85-.85h-4.455a.85.85,0,0,0-.85.85v16.571a.85.85,0,0,0,.85.85h4.543a.762.762,0,0,0,.762-.761v-9.88a1.576,1.576,0,0,1,1.507-1.587,1.556,1.556,0,0,1,1.6,1.554v9.929a.746.746,0,0,0,.746.746h4.367a.746.746,0,0,0,.746-.746v-9.627A7.75,7.75,0,0,0,170.2,153.562Zm1.269,14.814h-2.811v-9.151a3.077,3.077,0,0,0-6.155,0v9.151H159.39V153.152H162.5v1.107h0a.761.761,0,0,0,1.265.57,4.219,4.219,0,0,1,2.716-1.059,4.15,4.15,0,0,1,2.739.961,6.23,6.23,0,0,1,2.245,4.8Zm0,0" transform="translate(-149.864 -143.942)" fill="#898989"/>
    </g>
  </g>
</svg>
