<svg xmlns="http://www.w3.org/2000/svg" width="60" height="60" viewBox="0 0 60 60">
  <g id="Group_14228" data-name="Group 14228" transform="translate(-464 -4637)">
    <circle id="Ellipse_27" data-name="Ellipse 27" cx="30" cy="30" r="30" transform="translate(464 4637)" fill="#bebebe" opacity="0.2"/>
    <path id="github" d="M13,0A13,13,0,1,0,26,13.051,13.089,13.089,0,0,0,13,0Zm2.285,24.248a11.54,11.54,0,0,1-4.57,0V20.683a2.166,2.166,0,0,1,.533-1.569,16.66,16.66,0,0,0,.944-1.386l-1.173-.183C8,17.1,6.815,15.534,6.342,14.315A5.181,5.181,0,0,1,7.15,9.349a.919.919,0,0,0,.183-.884,4.488,4.488,0,0,1-.046-2.24A6.95,6.95,0,0,1,9.618,7.338a1.1,1.1,0,0,0,.64.152,11.071,11.071,0,0,1,2.757-.4,9.335,9.335,0,0,1,2.544.366,1.1,1.1,0,0,0,.823-.122,6.767,6.767,0,0,1,2.331-1.112,4.49,4.49,0,0,1-.046,2.24.918.918,0,0,0,.183.884,5.181,5.181,0,0,1,.807,4.966C19.185,15.534,18,17.1,14.98,17.545l-1.173.183a16.291,16.291,0,0,0,.945,1.386,2.167,2.167,0,0,1,.533,1.569Zm1.523-.442V20.683a3.653,3.653,0,0,0-.427-1.874,6.515,6.515,0,0,0,4.692-3.961A6.7,6.7,0,0,0,20.206,8.6a5.049,5.049,0,0,0-.32-3.412,1.189,1.189,0,0,0-1.006-.518h-.015a6.675,6.675,0,0,0-3.108,1.264,10.744,10.744,0,0,0-2.773-.366,10.523,10.523,0,0,0-2.727.366A6.73,6.73,0,0,0,7.074,4.672a1.168,1.168,0,0,0-.96.518A5.052,5.052,0,0,0,5.794,8.6a6.7,6.7,0,0,0-.868,6.246,6.515,6.515,0,0,0,4.692,3.961,3.312,3.312,0,0,0-.4,1.335,2.031,2.031,0,0,1-1.251.1,1.686,1.686,0,0,1-.977-.836,3.132,3.132,0,0,0-2.809-1.738l.134,1.517c.543-.05,1.084.525,1.365,1a3.136,3.136,0,0,0,3.509,1.563v2.054a11.477,11.477,0,1,1,7.617,0Zm0,0" transform="translate(481 4654)" fill="#898989"/>
  </g>
</svg>
