<svg xmlns="http://www.w3.org/2000/svg" xmlns:xlink="http://www.w3.org/1999/xlink" width="268.166" height="244.008" viewBox="0 0 268.166 244.008"><defs><linearGradient id="a" x1="0.739" y1="0.21" x2="-1.768" y2="3.59" gradientUnits="objectBoundingBox"><stop offset="0" stop-color="#fff"/><stop offset="1" stop-color="#e9ecf0"/></linearGradient><filter id="b" x="0" y="0" width="268.166" height="244.008" filterUnits="userSpaceOnUse"><feOffset dx="-22" dy="22" input="SourceAlpha"/><feGaussianBlur stdDeviation="27.5" result="c"/><feFlood flood-color="#515d6b" flood-opacity="0.09"/><feComposite operator="in" in2="c"/><feComposite in="SourceGraphic"/></filter></defs><g transform="translate(-1018.002 -871.997)"><g transform="translate(543.792 564.057)"><g transform="matrix(1, 0, 0, 1, 474.21, 307.94)" filter="url(#b)"><path d="M8.171,0H95c4.513,0,8.171,2.8,8.171,6.258V72.75c0,3.456-3.658,6.258-8.171,6.258H8.171C3.658,79.008,0,76.206,0,72.75V6.258C0,2.8,3.658,0,8.171,0Z" transform="translate(104.5 60.5)" fill="url(#a)"/></g><path d="M5,0H26.723a5,5,0,0,1,5,5v.209a5,5,0,0,1-5,5H5a5,5,0,0,1-5-5V5A5,5,0,0,1,5,0Z" transform="translate(637.99 424.603)" fill="#c2cbd5"/><rect width="46" height="3" transform="translate(624 402)" fill="#c2cbd5" opacity="0.6"/><rect width="34" height="3" transform="translate(636 409)" fill="#c2cbd5" opacity="0.6"/><rect width="46" height="3" transform="translate(624 395)" fill="#c2cbd5" opacity="0.6"/><rect width="34" height="5" transform="translate(636 383)" fill="#c2cbd5"/><g transform="translate(1.939 20.939)"><circle cx="28.061" cy="28.061" r="28.061" transform="translate(550.06 359.06)" fill="#3081e9"/><g transform="translate(560.061 369.061)"><path d="M18.025,3A15.025,15.025,0,0,0,7.4,28.649,15.025,15.025,0,0,0,28.649,7.4,14.927,14.927,0,0,0,18.025,3m0-3A18.025,18.025,0,1,1,0,18.025,18.025,18.025,0,0,1,18.025,0Z" transform="translate(0 0)" fill="#fff"/><path d="M.961,7.108l-1.923-2.3A26.649,26.649,0,0,1,7.463.092,29.051,29.051,0,0,1,16.88-1.5,26.839,26.839,0,0,1,26.118.057a21.927,21.927,0,0,1,7.855,4.821L31.889,7.036C24.27-.321,9.818-.288.961,7.108Z" transform="translate(24.13 1.537) rotate(90)" fill="#fff"/><path d="M16.973,7.341h-.092a29.548,29.548,0,0,1-9.409-1.56A26.793,26.793,0,0,1-.95,1.161L.95-1.161C9.814,6.1,24.276,6.129,31.9-1.089l2.063,2.178a22,22,0,0,1-7.854,4.726A27.27,27.27,0,0,1,16.973,7.341Z" transform="translate(17.823 1.537) rotate(90)" fill="#fff"/><path d="M-4635.492,1112.68h-34.248v-3h34.248Z" transform="translate(4670.654 -1093.248)" fill="#fff"/></g></g><g transform="translate(0 19)"><rect width="103" height="14" rx="7" transform="translate(579 330)" fill="#fff"/><rect width="15" height="3" transform="translate(594 336)" fill="#c2cbd5" opacity="0.6"/><rect width="38" height="3" transform="translate(613 336)" fill="#c2cbd5" opacity="0.6"/><circle cx="3" cy="3" r="3" transform="translate(584 334)" fill="#dae0e6"/></g></g></g></svg>