<svg xmlns="http://www.w3.org/2000/svg" width="23.632" height="18.892" viewBox="0 0 23.632 18.892"><g transform="translate(-558 -2324.1)"><path d="M3.655-.9A4.555,4.555,0,1,1-.9,3.655,4.56,4.56,0,0,1,3.655-.9Zm0,7.31A2.755,2.755,0,1,0,.9,3.655,2.758,2.758,0,0,0,3.655,6.41Z" transform="translate(569.134 2328.003)" fill="#8794a2"/><path d="M1.28,11.714a2.373,2.373,0,0,1-1.519-.421A2.237,2.237,0,0,1-1,9.414,5.594,5.594,0,0,1,1.442,4.7,8.729,8.729,0,0,1,6.468,3.231,9.092,9.092,0,0,1,11.617,4.72a5.6,5.6,0,0,1,2.52,4.694,2.218,2.218,0,0,1-.787,1.9,2.46,2.46,0,0,1-1.527.4ZM1.023,9.7a2.162,2.162,0,0,0,.258.012H11.823a2.346,2.346,0,0,0,.292-.014,1.5,1.5,0,0,0,.022-.286,3.563,3.563,0,0,0-1.66-3.051A7.184,7.184,0,0,0,6.468,5.231,6.726,6.726,0,0,0,2.6,6.328,3.619,3.619,0,0,0,1,9.417,1.486,1.486,0,0,0,1.023,9.7Z" transform="translate(567.495 2331.271)" fill="#8794a2"/><circle cx="4.672" cy="4.672" r="4.672" transform="translate(562.823 2325)" fill="#fff"/><path d="M4.672-.9A5.572,5.572,0,1,1-.9,4.672,5.578,5.578,0,0,1,4.672-.9Zm0,9.344A3.772,3.772,0,1,0,.9,4.672,3.776,3.776,0,0,0,4.672,8.444Z" transform="translate(562.823 2325)" fill="#8794a2"/><path d="M16.99,10.2c0,1.362-.761,1.5-1.7,1.5H1.7c-.938,0-1.7-.14-1.7-1.5C.027,2.068,16.99,2.418,16.99,10.2Z" transform="translate(559 2330.292)" fill="#fff"/><path d="M15.29,12.7H1.7a3.062,3.062,0,0,1-1.756-.408A2.336,2.336,0,0,1-1,10.2,5.987,5.987,0,0,1-.131,7.05a6.8,6.8,0,0,1,2.21-2.187A11.905,11.905,0,0,1,8.365,3.232,12.424,12.424,0,0,1,14.812,4.89,6.168,6.168,0,0,1,17.99,10.2a2.336,2.336,0,0,1-.944,2.093A3.066,3.066,0,0,1,15.29,12.7ZM1.061,10.633A1.664,1.664,0,0,0,1.7,10.7H15.29a1.675,1.675,0,0,0,.639-.066,1.049,1.049,0,0,0,.061-.434c0-3.262-3.836-4.968-7.625-4.968A9.9,9.9,0,0,0,3.148,6.553,4.175,4.175,0,0,0,1,10.2,1.029,1.029,0,0,0,1.061,10.633Z" transform="translate(559 2330.292)" fill="#8794a2"/></g></svg>