<svg xmlns="http://www.w3.org/2000/svg" width="22.677" height="22.686" viewBox="0 0 22.677 22.686"><g transform="translate(0.006)"><g transform="translate(0.675)"><path d="M-4721.883,926.9H-4741v-1.8h19.117Z" transform="translate(4741 -913.678)"/><path d="M-4718.1,935.408h-1.8V926h1.8Z" transform="translate(4728.69 -913.644)"/><path d="M-4738.284,924.353a3.108,3.108,0,0,1-2.243-.957,3.109,3.109,0,0,1-.858-2.372V906.881a3.072,3.072,0,0,1,.875-2.351,3.071,3.071,0,0,1,2.19-.919c.051,0,.1,0,.153,0h7.775v1.8l-7.853,0-.075,0a1.273,1.273,0,0,0-.908.381,1.272,1.272,0,0,0-.361.99l0,.069V921.1l0,.038a1.307,1.307,0,0,0,.36,1.016,1.312,1.312,0,0,0,1,.4h14.442a1.355,1.355,0,0,0,.973-.412,1.355,1.355,0,0,0,.377-1.024v-8.056h1.8v7.974a3.161,3.161,0,0,1-.88,2.357,3.159,3.159,0,0,1-2.268.962h-14.386Z" transform="translate(4740.712 -901.667)"/><path d="M-4731.663,905.415h-9.137v-1.8h9.137Z" transform="translate(4753.659 -899.97)"/><path d="M9,.9H0V-.9H9Z" transform="translate(17.425) rotate(90)"/></g></g></svg>