<svg xmlns="http://www.w3.org/2000/svg" width="24.096" height="24.765" viewBox="0 0 24.096 24.765"><g transform="translate(-1072.904 104.144)"><g transform="translate(1072.909 -104.541)"><g transform="translate(-303.225 -62.038)"><path d="M-4737.834,927.264a3.663,3.663,0,0,1-2.5-.988,3.658,3.658,0,0,1-1.156-2.766V906.187a3.625,3.625,0,0,1,1.178-2.738,3.625,3.625,0,0,1,2.446-.95q.169,0,.338.016h11.15v2h-11.255l-.055-.006a1.623,1.623,0,0,0-.178-.01,1.626,1.626,0,0,0-1.1.426,1.625,1.625,0,0,0-.528,1.232v17.4a1.656,1.656,0,0,0,.523,1.261,1.659,1.659,0,0,0,1.293.44l.048,0h14.457l.04,0a1.718,1.718,0,0,0,1.3-.453,1.713,1.713,0,0,0,.545-1.269v-4.527h2v4.513a3.718,3.718,0,0,1-1.183,2.746,3.72,3.72,0,0,1-2.785.986h-14.288C-4737.636,927.26-4737.735,927.264-4737.834,927.264Z" transform="translate(5044.713 -840.064)" fill="#8794a2"/></g></g><g transform="translate(1078 -106)"><path d="M19,6.4,17.6,5,12,10.6,6.4,5,5,6.4,10.6,12,5,17.6,6.4,19,12,13.4,17.6,19,19,17.6,13.4,12Z" fill="#8794a2"/></g></g></svg>