<svg xmlns="http://www.w3.org/2000/svg" width="768" height="800" viewBox="0 0 768 800"><path d="M360,184h-8a8.024,8.024,0,0,0,8-8v8H664v-8a8.024,8.024,0,0,0,8,8h-8v72h72V176a64.059,64.059,0,0,0-64-64H352a64.059,64.059,0,0,0-64,64v80h72Zm504,72H160a31.966,31.966,0,0,0-32,32v32a8.024,8.024,0,0,0,8,8h60.4l24.7,523A64.056,64.056,0,0,0,285,912H739a63.917,63.917,0,0,0,63.9-61l24.7-523H888a8.024,8.024,0,0,0,8-8V288A31.966,31.966,0,0,0,864,256ZM731.3,840H292.7L268.5,328h487Z" transform="translate(-128 -112)" fill="#d0021b"/></svg>