<svg xmlns="http://www.w3.org/2000/svg" width="21.468" height="22.114" viewBox="0 0 21.468 22.114"><g transform="translate(-0.01 0)"><g transform="translate(-279.262 -38.943)"><path d="M294,49.223c.01.3,0,.6-.01.89h-1.82c.01-.3.01-.6,0-.89Z"/><path d="M289.6,38.943a10.332,10.332,0,0,0-4.48,19.64c.15.07.31.14.46.21a10.256,10.256,0,0,0,4.02.81,10.136,10.136,0,0,0,2.22-.24l-.17-1.61-.01-.06-.01-.14-.34-3.09a10.856,10.856,0,0,1-1.71,2.98,12.489,12.489,0,0,1-2.5-7.32h11.01a7.938,7.938,0,0,1-.26,1.39l1.61.88a.076.076,0,0,0,.02-.04,10.123,10.123,0,0,0,.47-3.08,10.343,10.343,0,0,0-10.33-10.33Zm-2.05,2.05a16.557,16.557,0,0,0-2.28,7.33h-4.15a8.534,8.534,0,0,1,6.432-7.33Zm-.11,16.53a8.525,8.525,0,0,1-6.33-7.4h4.13a14.644,14.644,0,0,0,2.2,7.4Zm-.33-9.2a14.42,14.42,0,0,1,2.48-7.14,14.162,14.162,0,0,1,2.53,7.14Zm6.84,0a16.142,16.142,0,0,0-2.34-7.34,8.519,8.519,0,0,1,6.46,7.34Z"/><path d="M299.837,61.057a.9.9,0,0,1-.727-.367l-2.126-2.89a.9.9,0,0,1,.184-1.253l1.042-.786-3.7-2.135.59,4.358.017-.011a.9.9,0,1,1,1,1.5l-1.216.812a.9.9,0,0,1-1.392-.628l-1.031-7.606a.9.9,0,0,1,1.343-.9l6.462,3.734a.9.9,0,0,1,.092,1.5l-1.417,1.069,1.6,2.173a.9.9,0,0,1-.192,1.259.89.89,0,0,1-.534.171Z"/></g></g></svg>