<svg xmlns="http://www.w3.org/2000/svg" width="800" height="800" viewBox="0 0 800 800"><path d="M257.7,752a40.475,40.475,0,0,0,6-.5L431.9,722a9.794,9.794,0,0,0,5.3-2.8L861.1,295.3a9.96,9.96,0,0,0,0-14.1L694.9,114.9a10.141,10.141,0,0,0-14.2,0L256.8,538.8a10.155,10.155,0,0,0-2.8,5.3L224.5,712.3a33.5,33.5,0,0,0,9.4,29.8,33.878,33.878,0,0,0,23.8,9.9Zm67.4-174.4L687.8,215l73.3,73.3L398.4,650.9l-88.9,15.7,15.6-89ZM880,836H144a31.966,31.966,0,0,0-32,32v36a8.024,8.024,0,0,0,8,8H904a8.023,8.023,0,0,0,8-8V868A31.966,31.966,0,0,0,880,836Z" transform="translate(-112 -112)" fill="rgba(0,0,0,0.65)"/></svg>