<svg xmlns="http://www.w3.org/2000/svg" width="26.419" height="25.162" viewBox="0 0 26.419 25.162"><g transform="translate(0.005 0)"><g transform="translate(-303.225 -62.038)"><path d="M-4737.834,927.264a3.663,3.663,0,0,1-2.5-.988,3.658,3.658,0,0,1-1.156-2.766V906.187a3.625,3.625,0,0,1,1.178-2.738,3.625,3.625,0,0,1,2.446-.95q.169,0,.338.016h11.15v2h-11.255l-.055-.006a1.623,1.623,0,0,0-.178-.01,1.626,1.626,0,0,0-1.1.426,1.625,1.625,0,0,0-.528,1.232v17.4a1.656,1.656,0,0,0,.523,1.261,1.659,1.659,0,0,0,1.293.44l.048,0h14.457l.04,0a1.718,1.718,0,0,0,1.3-.453,1.713,1.713,0,0,0,.545-1.269v-4.527h2v4.513a3.718,3.718,0,0,1-1.183,2.746,3.72,3.72,0,0,1-2.785.986h-14.288C-4737.636,927.26-4737.735,927.264-4737.834,927.264Z" transform="translate(5044.713 -840.064)" fill="#8794a2"/><path d="M2.476-1.908,5.952,3.739v14.53a2.307,2.307,0,0,1-2.043,2.54H1.043A2.307,2.307,0,0,1-1,18.269V3.739ZM3.952,4.305l-1.476-2.4L1,4.305V18.269a.961.961,0,0,0,.141.54h2.67a.961.961,0,0,0,.141-.54Z" transform="translate(314.217 80.961) rotate(-135)" fill="#8794a2"/></g></g></svg>