<svg xmlns="http://www.w3.org/2000/svg" width="3.2" height="19.226" viewBox="0 0 3.2 19.226"><g transform="translate(-10.4 -2.4)"><path d="M12,2.4a1.606,1.606,0,0,1,1.1.5A1.606,1.606,0,0,1,13.6,4a1.606,1.606,0,0,1-.5,1.1,1.19,1.19,0,0,1-1.1.4,2.1,2.1,0,0,1-1.1-.4A1.606,1.606,0,0,1,10.4,4a1.284,1.284,0,0,1,.4-1,2.651,2.651,0,0,1,.6-.5A1.268,1.268,0,0,1,12,2.4Zm0,8.1a1.557,1.557,0,0,1,1.1,2.7,1.19,1.19,0,0,1-1.1.4A1.721,1.721,0,0,1,10.4,12a1.284,1.284,0,0,1,.4-1,2.651,2.651,0,0,1,.6-.5Zm0,8a1.557,1.557,0,0,1,1.1,2.7,1.19,1.19,0,0,1-1.1.4,2.1,2.1,0,0,1-1.1-.4,1.606,1.606,0,0,1-.5-1.1,1.284,1.284,0,0,1,.4-1,2.651,2.651,0,0,1,.6-.5C11.6,18.6,11.8,18.5,12,18.5Z" fill="#8794a2"/></g></svg>