<svg xmlns="http://www.w3.org/2000/svg" width="22.717" height="20.542" viewBox="0 0 22.717 20.542"><g transform="translate(0 0)"><g transform="translate(0 0.004)"><path d="M-4738.524,923.157h-.706v-1.8h.706c.813,0,.877-1,.877-1.31V905.673c0-.378-.085-1.258-.877-1.258h-.706v-1.8h.706a2.761,2.761,0,0,1,2.677,3.058v14.374C-4735.847,921.878-4736.948,923.157-4738.524,923.157Z" transform="translate(4754.14 -902.619)"/><path d="M-4738.524,923.157h-.706v-1.8h.706c.813,0,.877-1,.877-1.31V905.673c0-.378-.085-1.258-.877-1.258h-.706v-1.8h.706a2.761,2.761,0,0,1,2.677,3.058v14.374C-4735.847,921.878-4736.948,923.157-4738.524,923.157Z" transform="translate(4758.564 -902.619)"/><path d="M3,1.8A1.2,1.2,0,0,0,1.8,3V17.473a1.2,1.2,0,0,0,1.2,1.2h7.882a1.2,1.2,0,0,0,1.2-1.2V3a1.2,1.2,0,0,0-1.2-1.2H3M3,0h7.882a3,3,0,0,1,3,3V17.473a3,3,0,0,1-3,3H3a3,3,0,0,1-3-3V3A3,3,0,0,1,3,0Z"/></g></g></svg>