<svg xmlns="http://www.w3.org/2000/svg" width="688.203" height="726.933" viewBox="0 0 688.203 726.933"><path d="M766.913,519.716l-53.144-45.437a290.273,290.273,0,0,0,0-93.794l53.144-45.436a25.988,25.988,0,0,0,7.546-28.56l-.73-2.11a360.035,360.035,0,0,0-64.666-111.887l-1.46-1.7a26.061,26.061,0,0,0-28.479-7.708l-65.964,23.448a285.9,285.9,0,0,0-80.893-46.735L519.527,90.828a26,26,0,0,0-20.933-20.852L496.4,69.57a366.551,366.551,0,0,0-129.007,0l-2.191.406a26,26,0,0,0-20.933,20.852l-12.82,69.291a285.488,285.488,0,0,0-80.325,46.572L184.677,183.08a25.964,25.964,0,0,0-28.479,7.708l-1.46,1.7A361.887,361.887,0,0,0,90.072,304.379l-.73,2.11a26.058,26.058,0,0,0,7.546,28.56l53.794,45.923a289.408,289.408,0,0,0,0,92.658L96.887,519.554a25.988,25.988,0,0,0-7.546,28.56l.73,2.109a360.958,360.958,0,0,0,64.666,111.887l1.46,1.7a26.061,26.061,0,0,0,28.479,7.708l66.451-23.611a283.55,283.55,0,0,0,80.325,46.572l12.82,69.291a26,26,0,0,0,20.933,20.852l2.191.406a364.625,364.625,0,0,0,129.007,0l2.191-.406a26,26,0,0,0,20.933-20.852l12.738-68.966a283.979,283.979,0,0,0,80.893-46.735l65.964,23.448a25.964,25.964,0,0,0,28.479-7.708l1.46-1.7a361.889,361.889,0,0,0,64.666-111.887l.73-2.11A25.878,25.878,0,0,0,766.913,519.716ZM656.161,390.06a228.426,228.426,0,0,1,0,74.808L650.806,497.4l60.609,51.846a300.225,300.225,0,0,1-34.564,59.717l-75.295-26.694L576.08,603.205a226.739,226.739,0,0,1-64.341,37.161l-30.913,11.6-14.523,78.7a306.291,306.291,0,0,1-68.966,0l-14.523-78.865-30.67-11.765a227,227,0,0,1-63.854-37.079l-25.477-21.014L187.03,608.885a306.594,306.594,0,0,1-34.564-59.716l61.258-52.333-5.274-32.455a233.611,233.611,0,0,1-3-36.917,223.666,223.666,0,0,1,3-36.917l5.274-32.455-61.258-52.333a300.225,300.225,0,0,1,34.564-59.717l75.782,26.937,25.477-21.014a227,227,0,0,1,63.854-37.079l30.751-11.6,14.523-78.865a306.292,306.292,0,0,1,68.966,0l14.523,78.7,30.913,11.6a227.856,227.856,0,0,1,64.341,37.161l25.477,20.933,75.295-26.694A306.591,306.591,0,0,1,711.5,305.84l-60.609,51.846ZM431.981,276.55a142.8,142.8,0,1,0,142.8,142.8A142.8,142.8,0,0,0,431.981,276.55Zm64.26,207.061a90.889,90.889,0,1,1,26.613-64.26A90.548,90.548,0,0,1,496.241,483.61Z" transform="translate(-87.798 -63.85)" fill="#999"/></svg>