<svg xmlns="http://www.w3.org/2000/svg" width="736" height="736" viewBox="0 0 736 736"><path d="M464,144H160a16.047,16.047,0,0,0-16,16V464a16.047,16.047,0,0,0,16,16H464a16.047,16.047,0,0,0,16-16V160A16.047,16.047,0,0,0,464,144ZM412,412H212V212H412ZM864,144H560a16.047,16.047,0,0,0-16,16V464a16.047,16.047,0,0,0,16,16H864a16.047,16.047,0,0,0,16-16V160A16.047,16.047,0,0,0,864,144ZM812,412H612V212H812ZM464,544H160a16.047,16.047,0,0,0-16,16V864a16.047,16.047,0,0,0,16,16H464a16.047,16.047,0,0,0,16-16V560A16.047,16.047,0,0,0,464,544ZM412,812H212V612H412ZM864,544H560a16.047,16.047,0,0,0-16,16V864a16.047,16.047,0,0,0,16,16H864a16.047,16.047,0,0,0,16-16V560A16.047,16.047,0,0,0,864,544ZM812,812H612V612H812Z" transform="translate(-144 -144)" fill="#999"/></svg>