<svg xmlns="http://www.w3.org/2000/svg" width="23.28" height="23.711" viewBox="0 0 23.28 23.711"><g transform="translate(0 -0.011)"><g transform="translate(-157.5 -37.768)"><path d="M0-1H18.28a4,4,0,0,1,4,4v8.51a4,4,0,0,1-4,4H3a4,4,0,0,1-4-4V0A1,1,0,0,1,0-1ZM18.28,13.51a2,2,0,0,0,2-2V3a2,2,0,0,0-2-2H1V11.51a2,2,0,0,0,2,2Z" transform="translate(158.5 45.98)" fill="#8794a2"/><g transform="translate(180.744 56.132) rotate(180)"><path d="M0,0H5.806A2.9,2.9,0,0,1,8.7,2.9h0A2.9,2.9,0,0,1,5.8,5.8H0Z" fill="none"/><path d="M1.951,0H5.806A2.9,2.9,0,0,1,5.8,5.8H1.951A1.951,1.951,0,0,1,0,3.843v-1.9s0,0,0-.005A1.955,1.955,0,0,1,1.951,0ZM5.8,3.8A.9.9,0,0,0,5.8,2H2V3.8Z" fill="#8794a2"/></g><path d="M178.116,46.559l-1.734-1,.575-1a.926.926,0,0,0-.335-1.265L170.745,39.9a.926.926,0,0,0-1.265.336l-3.6,6.241-1.733-1,3.6-6.243a2.929,2.929,0,0,1,4-1.066l5.878,3.394a2.928,2.928,0,0,1,1.065,4Z" transform="translate(-0.214)" fill="#8794a2"/><path d="M162.5,46.359l-1.879-.684,1.771-4.863a2.924,2.924,0,0,1,3.747-1.752l2.063.75-.683,1.88-2.063-.75a.924.924,0,0,0-1.184.554Z" transform="translate(-0.1 -0.037)" fill="#8794a2"/><path d="M159.5,46.1h-2v-.97a3.9,3.9,0,0,1,3.9-3.9h1.465v2H161.4a1.9,1.9,0,0,0-1.9,1.9Z" transform="translate(0 -0.113)" fill="#8794a2"/></g></g></svg>