<svg xmlns="http://www.w3.org/2000/svg" width="24.993" height="25" viewBox="0 0 24.993 25"><g transform="translate(0.001 0.001)"><g transform="translate(14550 22642)"><path d="M17.918,28h-4.8a1.557,1.557,0,0,1-1.541-1.289L11.2,24.157a9.778,9.778,0,0,1-1.258-.709l-2.467.966a1.584,1.584,0,0,1-1.9-.659l-2.375-4a1.559,1.559,0,0,1,.369-1.972L5.667,16.2a7.552,7.552,0,0,1,.007-1.4L3.615,13.24a1.513,1.513,0,0,1-.386-2.007L5.6,7.246a1.567,1.567,0,0,1,1.9-.664l2.478.971a9.958,9.958,0,0,1,1.257-.708L11.6,4.312A1.547,1.547,0,0,1,13.127,3h4.651A1.6,1.6,0,0,1,19.33,4.306l.37,2.581a9.8,9.8,0,0,1,1.283.727l2.5-.982a1.592,1.592,0,0,1,1.911.661l2.4,4.048a1.567,1.567,0,0,1-.37,1.98l-2.148,1.633c.018.428.019.962.008,1.383l2,1.563a1.5,1.5,0,0,1,.371,1.986L25.331,23.81a1.552,1.552,0,0,1-1.884.661l-2.435-.954a9.976,9.976,0,0,1-1.226.691l-.363,2.486A1.5,1.5,0,0,1,17.918,28Zm-.4-1.582v.025Zm.365-.341Zm-4.452,0H17.57l.468-3.22.512-.206a7.921,7.921,0,0,0,1.757-.989l.429-.319,3.1,1.215L25.829,19.2l-2.547-2,.069-.542a16.127,16.127,0,0,0-.011-2l-.09-.568,2.72-2.071L23.9,8.536,20.7,9.79l-.429-.325a7.932,7.932,0,0,0-1.806-1.02l-.513-.207L17.47,4.923H13.454L12.977,8.2l-.512.207a7.983,7.983,0,0,0-1.787,1l-.429.32L7.1,8.491,5.059,11.919,7.752,13.96l-.1.579a5.671,5.671,0,0,0-.01,1.929l.1.573-2.7,2.045,2.034,3.423,3.154-1.237.429.322a7.86,7.86,0,0,0,1.782,1l.515.207ZM23.674,22.83l-.01.016Zm2.43-3.413.025.02Zm-.091-.525-.006.012ZM4.881,12.217l-.007.011Zm-.12-.523.014.01Zm2.5-3.482-.008.013Zm10.52-3.289ZM13.5,4.588Z" transform="translate(-14553.005 -22645)" fill="#8794a2"/><path d="M15.674,20.392h-.006A4.7,4.7,0,0,1,15.695,11h.028a4.7,4.7,0,0,1-.049,9.392Zm.021-7.513a2.81,2.81,0,1,0,.018,0Z" transform="translate(-14553.196 -22645.195)" fill="#8794a2"/></g></g></svg>