<svg xmlns="http://www.w3.org/2000/svg" width="23" height="24.5" viewBox="0 0 23 24.5"><g transform="translate(-411.42 -38.34)"><path d="M434.42,41.34V52.3a2.968,2.968,0,0,1-2,2.82V41.34a1,1,0,0,0-1-1H414.6a3,3,0,0,1,2.82-2h14a3,3,0,0,1,3,3Z" fill="#8794a2"/><path d="M428.42,41.34h-14a3.009,3.009,0,0,0-3,3v18.5l5.8-3.54,1.57-.96h9.63a3,3,0,0,0,3-3v-11a3,3,0,0,0-3-3Zm1,14a1,1,0,0,1-1,1H418.23l-.48.29-4.33,2.64V44.34a1,1,0,0,1,1-1h14a1,1,0,0,1,1,1Z" fill="#8794a2"/><path d="M0,0H7.24V1.8H0Z" transform="translate(419.89 47.48)" fill="#8794a2"/><path d="M427.14,50.95v1.8H416.53a.966.966,0,0,1-.11-.45V50.95Z" fill="#8794a2"/></g></svg>