<svg xmlns="http://www.w3.org/2000/svg" width="22" height="18.97" viewBox="0 0 22 18.97"><g transform="translate(0 0)"><g transform="translate(-535.05 -38.71)"><path d="M539.23,46.63v6.88h6.96V46.63Zm5.16,5.08h-3.36V48.43h3.36Z"/><path d="M554.05,38.71h-16a3.009,3.009,0,0,0-3,3V54.68a3.009,3.009,0,0,0,3,3h16a3,3,0,0,0,3-3V41.71A3,3,0,0,0,554.05,38.71Zm1.2,15.97a1.2,1.2,0,0,1-1.2,1.2h-16a1.2,1.2,0,0,1-1.19-1.2V41.71a1.2,1.2,0,0,1,1.19-1.2h16a1.2,1.2,0,0,1,1.2,1.2Z"/><rect width="13.53" height="1.8" transform="translate(539.23 42.859)"/><rect width="5.08" height="1.8" transform="translate(547.69 47.32)"/><rect width="5.08" height="1.8" transform="translate(547.69 50.91)"/></g></g></svg>