<svg xmlns="http://www.w3.org/2000/svg" width="19.154" height="22.045" viewBox="0 0 19.154 22.045"><g transform="translate(-0.003)"><g transform="translate(0.901)"><g transform="translate(2.492)"><path d="M5.917,0A5.917,5.917,0,1,1,0,5.917,5.917,5.917,0,0,1,5.917,0Z" fill="none"/><path d="M5.917,1.8a4.117,4.117,0,1,0,4.117,4.117A4.122,4.122,0,0,0,5.917,1.8m0-1.8A5.917,5.917,0,1,1,0,5.917,5.917,5.917,0,0,1,5.917,0Z"/></g><path d="M-1849.806-14514.5v-1.139a6.22,6.22,0,0,0-6.175-5.8c-.08,0-.159,0-.24,0h-2.715l-.026,0c-.114-.007-.228-.01-.342-.01a6.093,6.093,0,0,0-4.074,1.57,6.09,6.09,0,0,0-1.983,4.225v1.147h-1.8v-1.2a7.9,7.9,0,0,1,2.573-5.5,7.91,7.91,0,0,1,5.7-2.025h2.612c.1,0,.2,0,.3,0a7.938,7.938,0,0,1,5.359,2.07,7.941,7.941,0,0,1,2.607,5.448l0,.053v1.166Z" transform="translate(1866.262 14536.545)"/><path d="M-1749.3-14445.2h-17.353v-1.8h17.353Z" transform="translate(1766.654 14467.227)"/></g></g></svg>