<svg xmlns="http://www.w3.org/2000/svg" width="14.477" height="21.316" viewBox="0 0 14.477 21.316">
  <g id="vase" transform="translate(-105.561 -35)">
    <path id="Path_26135" data-name="Path 26135" d="M146.4,113.421a.337.337,0,0,1-.166-.29V112h-6.592v1.131a.337.337,0,0,1-.164.289,7.277,7.277,0,0,0-2.18,2.045h11.341A7.523,7.523,0,0,0,146.4,113.421Z" transform="translate(-30.212 -73.295)" fill="#fff"/>
    <path id="Path_26136" data-name="Path 26136" d="M118.816,262.916a1.593,1.593,0,0,1-1.238-.628.881.881,0,0,0-1.5,0,1.534,1.534,0,0,1-2.476,0,.881.881,0,0,0-1.5,0,1.534,1.534,0,0,1-2.476,0,.881.881,0,0,0-1.5,0,1.534,1.534,0,0,1-2.476,0l-.057-.06q-.034.384-.035.772a8.307,8.307,0,0,0,.371,2.437H119.7a8.869,8.869,0,0,0,.336-2.417c0-.229-.011-.457-.03-.684A1.543,1.543,0,0,1,118.816,262.916Z" transform="translate(0 -215.953)" fill="#fff"/>
    <path id="Path_26137" data-name="Path 26137" d="M157.444,36.973v1.059h6.592V36.973a.337.337,0,0,1,.337-.337h1.107V35H156v1.636h1.107A.337.337,0,0,1,157.444,36.973Z" transform="translate(-48.012)" fill="#fff"/>
    <path id="Path_26138" data-name="Path 26138" d="M108.971,201.028a.881.881,0,0,0,1.5,0,1.534,1.534,0,0,1,2.476,0,.881.881,0,0,0,1.5,0,1.534,1.534,0,0,1,2.476,0,.881.881,0,0,0,1.5,0,1.534,1.534,0,0,1,2.476,0,.881.881,0,0,0,1.5,0,3.165,3.165,0,0,1,.33-.314A8.385,8.385,0,0,0,121.7,198H109.49c-.024.042-.048.083-.071.126a8.429,8.429,0,0,0-.885,2.511A2.593,2.593,0,0,1,108.971,201.028Z" transform="translate(-2.83 -155.157)" fill="#fff"/>
    <path id="Path_26139" data-name="Path 26139" d="M121.353,353.8a.337.337,0,0,1,.162.286l.008,2.07h6.684V354.09a.337.337,0,0,1,.329-.337A7.363,7.363,0,0,0,131.52,350H118.208A7.881,7.881,0,0,0,121.353,353.8Z" transform="translate(-12.038 -299.843)" fill="#fff"/>
  </g>
</svg>
