<svg xmlns="http://www.w3.org/2000/svg" xmlns:xlink="http://www.w3.org/1999/xlink" width="110" height="110" viewBox="0 0 110 110">
  <defs>
    <filter id="Path_25776" x="0" y="0" width="110" height="110" filterUnits="userSpaceOnUse">
      <feOffset dy="5" input="SourceAlpha"/>
      <feGaussianBlur stdDeviation="5" result="blur"/>
      <feFlood flood-color="#1658bb" flood-opacity="0.102"/>
      <feComposite operator="in" in2="blur"/>
      <feComposite in="SourceGraphic"/>
    </filter>
  </defs>
  <g id="sell" transform="translate(-1071 -394)">
    <g transform="matrix(1, 0, 0, 1, 1071, 394)" filter="url(#Path_25776)">
      <path id="Path_25776-2" data-name="Path 25776" d="M40,0A40,40,0,1,1,0,40,40,40,0,0,1,40,0Z" transform="translate(15 10)" fill="#fff"/>
    </g>
    <g id="Path_26393" data-name="Path 26393" transform="translate(1107 427)" fill="none" stroke-linecap="round">
      <path d="M5.5,0H27.515a5.415,5.415,0,0,1,5.5,5.323V29.276a5.415,5.415,0,0,1-5.5,5.323H5.5A5.415,5.415,0,0,1,0,29.276V5.323A5.415,5.415,0,0,1,5.5,0Z" stroke="none"/>
      <path d="M 5.502996444702148 3 C 4.122835159301758 3 2.999996185302734 4.042079925537109 2.999996185302734 5.322969436645508 L 2.999996185302734 29.27632904052734 C 2.999996185302734 30.55722045898438 4.122835159301758 31.59930038452148 5.502996444702148 31.59930038452148 L 27.51497650146484 31.59930038452148 C 28.89512634277344 31.59930038452148 30.01796531677246 30.55722045898438 30.01796531677246 29.27632904052734 L 30.01796531677246 20.640380859375 L 30.01796531677246 8.192249298095703 L 30.01796531677246 5.322969436645508 C 30.01796531677246 4.042079925537109 28.89512634277344 3 27.51497650146484 3 L 5.502996444702148 3 M 5.502996444702148 0 L 27.51497650146484 0 C 30.55419540405273 0 33.01796722412109 2.383171081542969 33.01796722412109 5.322969436645508 L 33.01796722412109 8.192249298095703 L 33.01796722412109 20.640380859375 L 33.01796722412109 29.27632904052734 C 33.01796722412109 32.21612167358398 30.55419540405273 34.59930038452148 27.51497650146484 34.59930038452148 L 5.502996444702148 34.59930038452148 C 2.463775634765625 34.59930038452148 -3.814697265625e-06 32.21612167358398 -3.814697265625e-06 29.27632904052734 L -3.814697265625e-06 5.322969436645508 C -3.814697265625e-06 2.383171081542969 2.463775634765625 0 5.502996444702148 0 Z" stroke="none" fill="#3081e9"/>
    </g>
    <path id="Path_31363" data-name="Path 31363" d="M0,0H5.5V16.509H0Z" transform="translate(1135.891 432.169)" fill="#fff"/>
    <path id="Path_26392" data-name="Path 26392" d="M7.329,27.284l2.178-2.889a2.626,2.626,0,0,1,1.84-.921,2.817,2.817,0,0,1,2.02.6l.394.326a2.836,2.836,0,0,0,2.173.583,2.518,2.518,0,0,0,1.84-1.127L21.1,18.31A2.488,2.488,0,0,1,22.806,17.2a2.9,2.9,0,0,1,2.1.41l1.756,1.167a2.88,2.88,0,0,0,1.93.436,2.613,2.613,0,0,0,1.7-.88l6.053-7.712" transform="translate(1106.969 426.033)" fill="none" stroke="#3081e9" stroke-linecap="round" stroke-linejoin="round" stroke-width="3"/>
    <line id="Line_2003" data-name="Line 2003" x2="8.254" transform="translate(1135.891 436.02)" fill="none" stroke="#3081e9" stroke-linecap="round" stroke-width="3"/>
    <line id="Line_2004" data-name="Line 2004" x2="8.254" transform="translate(1144.145 436.02) rotate(90)" fill="none" stroke="#3081e9" stroke-linecap="round" stroke-width="3"/>
  </g>
</svg>
