<svg xmlns="http://www.w3.org/2000/svg" xmlns:xlink="http://www.w3.org/1999/xlink" width="110" height="110" viewBox="0 0 110 110">
  <defs>
    <filter id="Path_26387" x="0" y="0" width="110" height="110" filterUnits="userSpaceOnUse">
      <feOffset dy="5" input="SourceAlpha"/>
      <feGaussianBlur stdDeviation="5" result="blur"/>
      <feFlood flood-color="#1658bb" flood-opacity="0.2"/>
      <feComposite operator="in" in2="blur"/>
      <feComposite in="SourceGraphic"/>
    </filter>
  </defs>
  <g id="server" transform="translate(-245 -394)">
    <g transform="matrix(1, 0, 0, 1, 245, 394)" filter="url(#Path_26387)">
      <path id="Path_26387-2" data-name="Path 26387" d="M40.658.4C62.907.4,80,17.492,80,39.741S62.907,80.4,40.658,80.4A40.921,40.921,0,0,1,0,39.741C0,17.492,18.409.4,40.658.4Z" transform="translate(15 9.6)" fill="#fff"/>
    </g>
    <g id="server-2" data-name="server" transform="translate(282 427)">
      <path id="Path_26423" data-name="Path 26423" d="M35.193,14.729,28.551,2.17A2.67,2.67,0,0,0,26.372.5H9.271A2.667,2.667,0,0,0,7.092,2.168L.425,14.729" transform="translate(0.182 -0.5)" fill="none" stroke="#3081e9" stroke-linecap="round" stroke-linejoin="round" stroke-width="3"/>
      <path id="Path_26424" data-name="Path 26424" d="M36.508,11.359a3.29,3.29,0,0,1-3.131,3.429H3.631A3.29,3.29,0,0,1,.5,11.359V7.929A3.29,3.29,0,0,1,3.631,4.5H33.376a3.29,3.29,0,0,1,3.131,3.429Z" transform="translate(-0.5 8.36)" fill="none" stroke="#3081e9" stroke-linecap="round" stroke-linejoin="round" stroke-width="3"/>
      <path id="Path_26425" data-name="Path 26425" d="M36.508,17.359a3.29,3.29,0,0,1-3.131,3.429H3.631A3.29,3.29,0,0,1,.5,17.359V13.929A3.29,3.29,0,0,1,3.631,10.5H33.376a3.29,3.29,0,0,1,3.131,3.429Z" transform="translate(-0.5 12.647)" fill="none" stroke="#3081e9" stroke-linecap="round" stroke-linejoin="round" stroke-width="3"/>
      <path id="Path_26426" data-name="Path 26426" d="M4.886,7.25a.386.386,0,1,0,.386.386.386.386,0,0,0-.386-.386h0" transform="translate(3.216 10.368)" fill="none" stroke="#3081e9" stroke-linecap="round" stroke-linejoin="round" stroke-width="3"/>
      <path id="Path_26427" data-name="Path 26427" d="M8.386,7.25a.386.386,0,1,0,.386.386.386.386,0,0,0-.386-.386h0" transform="translate(4.966 10.368)" fill="none" stroke="#3081e9" stroke-linecap="round" stroke-linejoin="round" stroke-width="3"/>
      <path id="Path_26428" data-name="Path 26428" d="M4.905,13.25a.405.405,0,1,0,.405.405.405.405,0,0,0-.405-.405h0" transform="translate(3.216 14.656)" fill="none" stroke="#3081e9" stroke-linecap="round" stroke-linejoin="round" stroke-width="3"/>
      <path id="Path_26429" data-name="Path 26429" d="M8.405,13.25a.405.405,0,1,0,.405.405.405.405,0,0,0-.405-.405h0" transform="translate(4.966 14.656)" fill="none" stroke="#3081e9" stroke-linecap="round" stroke-linejoin="round" stroke-width="3"/>
    </g>
  </g>
</svg>
