<svg xmlns="http://www.w3.org/2000/svg" width="48" height="43.828" viewBox="0 0 48 43.828">
  <path id="tree" d="M39.9,53.764h.844l-2.952-7.155a1.154,1.154,0,1,1,2.133-.88l3.609,8.749a1.154,1.154,0,0,1-1.066,1.594H39.9a1.154,1.154,0,0,1,0-2.308Zm-10.091,0H27.96a1.154,1.154,0,0,0,0,2.308h2.568a1.154,1.154,0,0,0,1.034-.643l6.431-13.011a1.153,1.153,0,0,0,.119-.511V31.371a1.154,1.154,0,0,0-1.154-1.154H34.394a1.154,1.154,0,0,0-.983.55l-5.586,9.086H26.151a1.154,1.154,0,0,0,0,2.308H28.47a1.154,1.154,0,0,0,.983-.55l5.586-9.086H35.8v9.112Zm2.883-31.18a5.6,5.6,0,0,1,3.914-5.357,1.154,1.154,0,0,1,.7,0,5.623,5.623,0,0,1,0,10.714,1.153,1.153,0,0,1-.7,0A5.6,5.6,0,0,1,32.694,22.584Zm2.308,0a3.3,3.3,0,0,0,1.957,3.025,3.316,3.316,0,0,0,0-6.05A3.3,3.3,0,0,0,35,22.584ZM9.375,46.171a9.333,9.333,0,0,0,4.554-1.177v8.779a1.154,1.154,0,0,0,.147,2.3H16.09a1.154,1.154,0,0,0,.147-2.3V44.994a9.4,9.4,0,0,0,8.222.432,1.154,1.154,0,0,0-.9-2.124,7.077,7.077,0,0,1-7.319-1.1V29.662a1.154,1.154,0,1,0-2.308,0V42.2A7.068,7.068,0,1,1,6.086,30.54a1.154,1.154,0,0,0,.566-1.356,4.625,4.625,0,0,1,3.062-5.759,1.154,1.154,0,0,0,.8-.929,4.621,4.621,0,0,1,9.134,0,1.154,1.154,0,0,0,.8.929,4.626,4.626,0,0,1,3.062,5.759,1.154,1.154,0,0,0,.566,1.356,7.106,7.106,0,0,1,2.709,2.517,1.154,1.154,0,0,0,1.956-1.223,9.422,9.422,0,0,0-2.816-2.879,6.962,6.962,0,0,0,.089-1.114,6.888,6.888,0,0,0-4.23-6.383,6.929,6.929,0,0,0-13.413,0,6.936,6.936,0,0,0-4.14,7.5A9.376,9.376,0,0,0,9.375,46.171Zm38.4-6.9L41.5,30.69a1.154,1.154,0,0,0-1.863,1.362l6.055,8.281V42.3A1.154,1.154,0,0,0,48,42.3v-2.34A1.153,1.153,0,0,0,47.778,39.275ZM46.752,57.792H1.248a1.154,1.154,0,0,0,0,2.308h45.5a1.154,1.154,0,0,0,0-2.308Z" transform="translate(0 -16.271)" fill="#fff"/>
</svg>
