<svg xmlns="http://www.w3.org/2000/svg" width="48" height="45.701" viewBox="0 0 48 45.701">
  <path id="meditation" d="M4.1,33.658a1.071,1.071,0,0,1-1.071,1.071H1.071a1.071,1.071,0,1,1,0-2.143H3.027A1.071,1.071,0,0,1,4.1,33.658Zm10.2,9.4a1.071,1.071,0,0,0,1.067,1.165h2.064a1.071,1.071,0,0,0,0-2.143h-.767c.828-2.679,3.63-4.95,7.382-5.884,3.752.934,6.555,3.2,7.382,5.884h-.767a1.071,1.071,0,0,0,0,2.143h2.064a1.071,1.071,0,0,0,1.067-1.165,8.832,8.832,0,0,0-3.008-5.729,14.359,14.359,0,0,0-6.5-3.278,1.072,1.072,0,0,0-.482,0,14.361,14.361,0,0,0-6.5,3.278A8.83,8.83,0,0,0,14.3,43.053ZM38.83,19.9a1.068,1.068,0,0,0,.758-.314L40.97,18.2a1.071,1.071,0,0,0-1.515-1.515L38.073,18.07A1.071,1.071,0,0,0,38.83,19.9ZM24,13.756a1.071,1.071,0,0,0,1.071-1.071V10.729a1.071,1.071,0,1,0-2.143,0v1.955A1.071,1.071,0,0,0,24,13.756ZM8.412,19.585A1.071,1.071,0,1,0,9.927,18.07L8.544,16.687A1.071,1.071,0,1,0,7.029,18.2ZM21.567,51.152A1.071,1.071,0,0,0,20.5,52.223v.993H12.784a2.532,2.532,0,0,1,0-5.064H20.44a1.071,1.071,0,1,0,0-2.143H12.784a4.675,4.675,0,0,0,0,9.349h8.783a1.071,1.071,0,0,0,1.071-1.071V52.223A1.071,1.071,0,0,0,21.567,51.152ZM46.929,32.586H44.974a1.071,1.071,0,1,0,0,2.143h1.955a1.071,1.071,0,1,0,0-2.143ZM24,16.432A17.51,17.51,0,0,0,9.26,43.387a1.071,1.071,0,1,0,1.8-1.158,15.364,15.364,0,1,1,25.874,0,1.071,1.071,0,0,0,1.8,1.158A17.509,17.509,0,0,0,24,16.432Zm-.281,15.473a5.221,5.221,0,0,1,0-9.948,1.073,1.073,0,0,1,.65,0,5.221,5.221,0,0,1,0,9.948,1.071,1.071,0,0,1-.651,0Zm.325-2.165a3.079,3.079,0,0,0,0-5.617,3.079,3.079,0,0,0,0,5.617ZM35.3,46.01H27.647a1.071,1.071,0,1,0,0,2.143H35.3a2.532,2.532,0,0,1,0,5.064H27.592v-.993a1.071,1.071,0,1,0-2.143,0v2.064a1.071,1.071,0,0,0,1.071,1.071H35.3a4.675,4.675,0,0,0,0-9.349Zm-11.26-7.58A1.071,1.071,0,0,0,22.972,39.5v7.58a1.071,1.071,0,0,0,2.143,0V39.5A1.071,1.071,0,0,0,24.044,38.43Z" transform="translate(0 -9.658)" fill="#fff"/>
</svg>
