<svg id="calendar_1_" data-name="calendar (1)" xmlns="http://www.w3.org/2000/svg" width="78.091" height="82" viewBox="0 0 78.091 82">
  <path id="Path_25975" data-name="Path 25975" d="M23.957,51.08H68.951c0-3.855-3.123-11.98-6.979-11.979H16.979A6.977,6.977,0,0,0,10,46.08V93.342a6.977,6.977,0,0,0,6.979,6.979V58.059A6.977,6.977,0,0,1,23.957,51.08Zm0,0" transform="translate(-8.255 -32.28)" fill="#d4e1f4"/>
  <path id="Path_25976" data-name="Path 25976" d="M242.835,280.948a17.457,17.457,0,0,1,24.338-16.033,17.448,17.448,0,1,0-19.017,28.577A17.411,17.411,0,0,1,242.835,280.948Zm0,0" transform="translate(-196.148 -214.651)" fill="#d4e1f4"/>
  <g id="Group_13296" data-name="Group 13296" transform="translate(14.219)">
    <path id="Path_25977" data-name="Path 25977" d="M110.287,209.1H83.245a1.745,1.745,0,1,0,0,3.489h27.042a1.745,1.745,0,1,0,0-3.489Zm0,0" transform="translate(-81.5 -172.621)" fill="#1ae5be"/>
    <path id="Path_25978" data-name="Path 25978" d="M99.435,274.1H83.245a1.745,1.745,0,1,0,0,3.489h16.19a1.745,1.745,0,1,0,0-3.489Zm0,0" transform="translate(-81.5 -226.281)" fill="#1ae5be"/>
    <path id="Path_25980" data-name="Path 25980" d="M248.745,0A1.75,1.75,0,0,0,247,1.745V11.881a1.745,1.745,0,0,0,3.489,0V1.745A1.75,1.75,0,0,0,248.745,0Zm0,0" transform="translate(-218.126)" fill="#1ae5be"/>
    <path id="Path_25981" data-name="Path 25981" d="M295.469,321.8l-10.363,9.892-5.356-5.374a1.74,1.74,0,1,0-2.46,2.46l6.577,6.577a1.717,1.717,0,0,0,1.239.506,1.688,1.688,0,0,0,1.2-.489l11.585-11.078a1.738,1.738,0,0,0,.052-2.46A1.775,1.775,0,0,0,295.469,321.8Zm0,0" transform="translate(-242.712 -265.254)" fill="#1ae5be"/>
    <path id="Path_25987" data-name="Path 25987" d="M92.745,13.626a1.75,1.75,0,0,0,1.745-1.745V1.745a1.745,1.745,0,1,0-3.489,0V11.881A1.75,1.75,0,0,0,92.745,13.626Zm0,0" transform="translate(-89.343)" fill="#1ae5be"/>
  </g>
  <path id="Path_25982" data-name="Path 25982" d="M62.44,67.972V37.825A8.725,8.725,0,0,0,53.717,29.1H8.723A8.726,8.726,0,0,0,0,37.825V85.087A8.727,8.727,0,0,0,8.723,93.81H41.017A19.193,19.193,0,1,0,62.44,67.972ZM8.723,32.591H53.717a5.248,5.248,0,0,1,5.234,5.234v4.222H3.489V37.825A5.237,5.237,0,0,1,8.723,32.591Zm0,57.73a5.249,5.249,0,0,1-5.234-5.234V45.518H58.951V67.64H58.9a19.22,19.22,0,0,0-18.878,22.68ZM58.9,102.533a15.7,15.7,0,1,1,15.7-15.7A15.7,15.7,0,0,1,58.9,102.533Zm0,0" transform="translate(0 -24.024)" fill="#0635c9"/>
</svg>
