<svg xmlns="http://www.w3.org/2000/svg" width="73.672" height="81.999" viewBox="0 0 73.672 81.999">
  <g id="Group_13307" data-name="Group 13307" transform="translate(-587 -1742)">
    <path id="Path_26008" data-name="Path 26008" d="M-10060.767,7084.571v-21.06l2.521-3.62,3.85-3.74,6.36-1.535,6.684-1.838,5.309-2.478,4.6-2.6-1.581-1.853-3.018-3.174-2.752-5.065v-7.681l-.692-12.451,1.411-5.467,4.054-3.132,5.545-2.055V7047.7h0l-13.784,5.075v31.793Z" transform="translate(10649 -5263)" fill="#d4e1f4"/>
    <g id="doctor_2_" data-name="doctor (2)" transform="translate(587 1742)">
      <path id="Subtraction_3" data-name="Subtraction 3" d="M10134.069-6923h-16.527a1.6,1.6,0,0,1-1.6-1.6,1.6,1.6,0,0,1,1.6-1.6h14.927v-17.045a10.545,10.545,0,0,0-7.88-10.2l-4.9-1.279a13.939,13.939,0,0,1,1.249,5.8v2.213a7.721,7.721,0,0,1,4.347,2.652,7.692,7.692,0,0,1,1.74,4.865v5.945a1.6,1.6,0,0,1-1.6,1.6h-2.492a1.6,1.6,0,0,1-1.6-1.6,1.6,1.6,0,0,1,1.6-1.6h.893v-4.345a4.49,4.49,0,0,0-4.484-4.484,4.49,4.49,0,0,0-4.484,4.484v4.345h.821a1.6,1.6,0,0,1,1.6,1.6,1.6,1.6,0,0,1-1.6,1.6h-2.424a1.6,1.6,0,0,1-1.6-1.6v-5.945a7.694,7.694,0,0,1,1.74-4.865,7.716,7.716,0,0,1,4.345-2.652v-2.213a10.9,10.9,0,0,0-2.534-6.975l-3.045-.793-8.631,30.491h8.605a1.6,1.6,0,0,1,1.6,1.6,1.6,1.6,0,0,1-1.6,1.6H10063.6a1.6,1.6,0,0,1-1.6-1.6v-18.638a13.752,13.752,0,0,1,10.284-13.3l10.669-2.775a12.555,12.555,0,0,1,6.664-3.492,15.908,15.908,0,0,1-4.722-5.472,15.725,15.725,0,0,1-1.772-7.244v-8.812c0-.013,0-.026,0-.039v-.02l0-.022,0-.018v-.019c0-.014,0-.028,0-.042v-6.83A13.687,13.687,0,0,1,10096.8-7005h19.638a1.6,1.6,0,0,1,1.6,1.6v9.748a10.644,10.644,0,0,1-.94,4.4,10.743,10.743,0,0,1-2.55,3.522v10.205a15.523,15.523,0,0,1-1.717,7.141,15.9,15.9,0,0,1-4.589,5.438,14.1,14.1,0,0,1,8.689,4.19l8.468,2.21a13.752,13.752,0,0,1,10.274,13.3v18.646A1.6,1.6,0,0,1,10134.069-6923Zm-35.184-28.7h0l-7.227,4.583,5.919,20.917h2.617l5.92-20.917-7.229-4.583Zm-18.645-3.6-7.15,1.86a10.544,10.544,0,0,0-7.888,10.2v17.038h29.049l-8.633-30.5-.949.247a9.437,9.437,0,0,0-2.224,6.075v5.947h-3.2v-5.947a12.5,12.5,0,0,1,1-4.92Zm11.6-3.019-3.118.811,2.029,7.176,5.561-3.528-4.472-4.459Zm14.019-.018h0l-4.448,4.441,5.619,3.564,2.027-7.168Zm-11.693-2.185h0l4.678,4.662,4.673-4.665a15.634,15.634,0,0,1-4.678.712A15.667,15.667,0,0,1,10094.163-6960.525Zm-7.835-22.372v7.369a12.471,12.471,0,0,0,5.77,10.531,1.591,1.591,0,0,1,1.043.6,12.347,12.347,0,0,0,5.7,1.376,12.512,12.512,0,0,0,5.853-1.458,1.581,1.581,0,0,1,.853-.5,12.641,12.641,0,0,0,4.208-4.448,12.486,12.486,0,0,0,1.595-6.1v-8.17a10.661,10.661,0,0,1-4.062.8Zm10.468-18.9a10.48,10.48,0,0,0-10.468,10.468v5.227h20.953a7.559,7.559,0,0,0,7.552-7.55v-8.145Z" transform="translate(-10062 7005)" fill="#0635c9"/>
      <path id="Path_26005" data-name="Path 26005" d="M208.715,205.872a5.149,5.149,0,0,0,3.652-1.51A1.6,1.6,0,1,0,210.1,202.1a1.963,1.963,0,0,1-2.774,0,1.6,1.6,0,1,0-2.265,2.265A5.149,5.149,0,0,0,208.715,205.872Zm0,0" transform="translate(-171.827 -169.336)" fill="#1ae5be"/>
      <path id="Path_26006" data-name="Path 26006" d="M112.762,421.524a5.089,5.089,0,1,0-3.606-1.492A5.135,5.135,0,0,0,112.762,421.524Zm0,0" transform="translate(-93.424 -351.443)" fill="#1ae5be"/>
    </g>
  </g>
</svg>
