<svg width="60" height="61" viewBox="0 0 60 61" fill="none" xmlns="http://www.w3.org/2000/svg">
<g clip-path="url(#clip0_110_2)">
<path d="M24.9861 5.20728H56.7413C58.135 5.20728 59.23 4.11228 59.23 2.71863C59.23 1.32499 58.135 0.22998 56.7413 0.22998H24.9861C23.5925 0.22998 22.4975 1.32499 22.4975 2.71863C22.4975 4.11228 23.5925 5.20728 24.9861 5.20728Z" fill="#212121"/>
<path d="M56.7413 18.6464H2.48865C1.09501 18.6464 0 19.7414 0 21.135C0 22.5287 1.09501 23.6237 2.48865 23.6237H56.7413C58.1349 23.6237 59.2299 22.5287 59.2299 21.135C59.2299 19.7414 58.1349 18.6464 56.7413 18.6464Z" fill="#212121"/>
<path d="M56.7413 37.0621H24.9861C23.5925 37.0621 22.4975 38.1571 22.4975 39.5508C22.4975 40.9444 23.5925 42.0394 24.9861 42.0394H56.7413C58.135 42.0394 59.23 40.9444 59.23 39.5508C59.23 38.1571 58.135 37.0621 56.7413 37.0621Z" fill="#212121"/>
<path d="M56.7413 55.3789H2.48865C1.09501 55.3789 0 56.4739 0 57.8676C0 59.2612 1.09501 60.3562 2.48865 60.3562H56.7413C58.1349 60.3562 59.2299 59.2612 59.2299 57.8676C59.2299 56.4739 58.1349 55.3789 56.7413 55.3789Z" fill="#212121"/>
</g>
<defs>
<clipPath id="clip0_110_2">
<rect width="60" height="61" fill="white"/>
</clipPath>
</defs>
</svg>
