<svg width="60" height="61" viewBox="0 0 60 61" fill="none" xmlns="http://www.w3.org/2000/svg">
<g clip-path="url(#clip0_111_7)">
<path d="M2.48866 5.20729H34.2439C35.6375 5.20729 36.7326 4.11228 36.7326 2.71864C36.7326 1.32499 35.6375 0.22998 34.2439 0.22998H2.48866C1.09501 0.22998 0 1.32499 0 2.71864C0 4.11228 1.09501 5.20729 2.48866 5.20729Z" fill="#212121"/>
<path d="M2.48866 23.6237H56.7413C58.135 23.6237 59.23 22.5287 59.23 21.1351C59.23 19.7414 58.135 18.6464 56.7413 18.6464H2.48866C1.09501 18.6464 0 19.7414 0 21.1351C0 22.5287 1.09501 23.6237 2.48866 23.6237Z" fill="#212121"/>
<path d="M2.48866 42.0395H34.2439C35.6375 42.0395 36.7326 40.9445 36.7326 39.5509C36.7326 38.1572 35.6375 37.0622 34.2439 37.0622H2.48866C1.09501 37.0622 0 38.1572 0 39.5509C0 40.9445 1.09501 42.0395 2.48866 42.0395Z" fill="#212121"/>
<path d="M56.7413 55.379H2.48866C1.09501 55.379 0 56.474 0 57.8676C0 59.2613 1.09501 60.3563 2.48866 60.3563H56.7413C58.135 60.3563 59.23 59.2613 59.23 57.8676C59.23 56.474 58.135 55.379 56.7413 55.379Z" fill="#212121"/>
</g>
<defs>
<clipPath id="clip0_111_7">
<rect width="60" height="61" fill="white"/>
</clipPath>
</defs>
</svg>
