<svg width="61" height="61" viewBox="0 0 61 61" fill="none" xmlns="http://www.w3.org/2000/svg">
<path d="M14.2074 5.26058H46.3027C47.7112 5.26058 48.818 4.15385 48.818 2.74528C48.818 1.33671 47.7112 0.22998 46.3027 0.22998H14.2074C12.7989 0.22998 11.6921 1.33671 11.6921 2.74528C11.6921 4.15385 12.7989 5.26058 14.2074 5.26058Z" fill="white"/>
<path d="M2.83824 23.8742H57.6717C59.0803 23.8742 60.187 22.7674 60.187 21.3589C60.187 19.9503 59.0803 18.8436 57.6717 18.8436H2.83824C1.42967 18.8436 0.322937 19.9503 0.322937 21.3589C0.322937 22.7674 1.42967 23.8742 2.83824 23.8742Z" fill="white"/>
<path d="M14.2074 37.4565C12.7989 37.4565 11.6921 38.5633 11.6921 39.9718C11.6921 41.3804 12.7989 42.4871 14.2074 42.4871H46.3027C47.7112 42.4871 48.818 41.3804 48.818 39.9718C48.818 38.5633 47.7112 37.4565 46.3027 37.4565H14.2074Z" fill="white"/>
<path d="M57.6717 55.9694H2.83824C1.42967 55.9694 0.322937 57.0762 0.322937 58.4847C0.322937 59.8933 1.42967 61 2.83824 61H57.6717C59.0803 61 60.187 59.8933 60.187 58.4847C60.187 57.0762 59.0803 55.9694 57.6717 55.9694Z" fill="white"/>
</svg>
