<svg width="60" height="61" viewBox="0 0 60 61" fill="none" xmlns="http://www.w3.org/2000/svg">
<g clip-path="url(#clip0_110_2)">
<path d="M3.99721 5H55.0026C57.2412 5 59 3.90001 59 2.5C59 1.1 57.2412 0 55.0026 0H3.99721C1.7588 0 0 1.1 0 2.5C0 3.90001 1.7588 5 3.99721 5Z" fill="#212121"/>
<path d="M56.7413 18.6464H2.48865C1.09501 18.6464 0 19.7414 0 21.135C0 22.5287 1.09501 23.6237 2.48865 23.6237H56.7413C58.1349 23.6237 59.2299 22.5287 59.2299 21.135C59.2299 19.7414 58.1349 18.6464 56.7413 18.6464Z" fill="#212121"/>
<path d="M55.0026 37H3.99721C1.7588 37 0 38.1 0 39.5001C0 40.9 1.7588 42 3.99721 42H55.0026C57.2412 42 59 40.9 59 39.5001C59 38.1 57.2412 37 55.0026 37Z" fill="#212121"/>
<path d="M56.7413 55.3789H2.48865C1.09501 55.3789 0 56.4739 0 57.8676C0 59.2612 1.09501 60.3562 2.48865 60.3562H56.7413C58.1349 60.3562 59.2299 59.2612 59.2299 57.8676C59.2299 56.4739 58.1349 55.3789 56.7413 55.3789Z" fill="#212121"/>
</g>
<defs>
<clipPath id="clip0_110_2">
<rect width="60" height="61" fill="white"/>
</clipPath>
</defs>
</svg>
