<svg width="60" height="60" viewBox="0 0 60 60" fill="none" xmlns="http://www.w3.org/2000/svg">
<path d="M59.9259 22C59.9259 9.85185 50.0741 0 37.9259 0C27.7778 0 19.2593 6.96297 16.7407 16.3704C6.88889 18.8889 0 27.6296 0 37.8519C0 50.0741 10 60 22.2963 60C32.4444 60 41.2593 53.037 43.8519 43.037C53.1111 40.4444 60 32.0741 60 22H59.9259ZM22.2963 56.3704C12.0741 56.3704 3.7037 48.0741 3.7037 37.9259C3.7037 29.9259 8.66667 23.1111 16.0741 20.5185C16.0741 21.037 15.9259 21.5556 15.9259 22.0741C15.9259 34.2222 25.7778 44.0741 37.9259 44.0741C38.5926 44.0741 39.1852 43.9259 39.8519 43.8519C37.3333 51.2593 30.2963 56.4444 22.2963 56.4444V56.3704ZM47.8519 23.1111L33.5556 31.4074C32.6667 31.9259 31.5556 31.2593 31.5556 30.2963V13.7778C31.5556 12.7407 32.5926 12.1481 33.5556 12.5926L47.8519 20.8889C48.7407 21.4074 48.7407 22.7407 47.8519 23.1852V23.1111Z" fill="white"/>
</svg>
