<svg width="58" height="60" viewBox="0 0 58 60" fill="none" xmlns="http://www.w3.org/2000/svg">
<path d="M57.2415 23.6496L36.0938 2.89051C34.1308 0.963505 31.5431 0 28.9554 0C26.3677 0 23.78 0.963505 21.8169 2.89051L0.669231 23.6496C-0.223077 24.5255 -0.223077 25.927 0.669231 26.7153C1.56154 27.5036 2.98923 27.5912 3.79231 26.7153L24.94 5.9562C25.4754 5.43066 26.1 5.08029 26.7246 4.81752V57.8102C26.7246 59.0365 27.7062 60 28.9554 60C30.2046 60 31.1862 59.0365 31.1862 57.8102V4.81752C31.8108 5.08029 32.4354 5.43066 32.9708 5.9562L54.1185 26.7153C54.1185 26.7153 55.1 27.3285 55.7246 27.3285C56.3492 27.3285 56.8846 27.1533 57.3308 26.7153C58.2231 25.8394 58.2231 24.438 57.3308 23.6496H57.2415Z" fill="white"/>
</svg>
