<svg width="57" height="60" viewBox="0 0 57 60" fill="none" xmlns="http://www.w3.org/2000/svg">
<path d="M56.3409 33.3723C55.4621 32.4964 54.0561 32.4964 53.2652 33.3723L32.4382 54.1314C31.911 54.6569 31.3837 55.0073 30.6807 55.2701V2.18978C30.6807 0.963506 29.714 0 28.4837 0C27.2535 0 26.2868 0.963506 26.2868 2.18978V55.1825C25.6717 54.9197 25.0565 54.5693 24.5293 54.0438L3.70227 33.2847C2.8235 32.4088 1.41746 32.4088 0.62656 33.2847C-0.164337 34.1606 -0.252215 35.562 0.62656 36.3504L21.4535 57.1095C23.299 58.9489 25.8474 60 28.4837 60C31.1201 60 33.6685 58.9489 35.5139 57.1095L56.3409 36.3504C57.2197 35.4744 57.2197 34.073 56.3409 33.2847V33.3723Z" fill="white"/>
</svg>
