<svg width="82" height="82" viewBox="0 0 82 82" fill="none" xmlns="http://www.w3.org/2000/svg">
<path d="M27.9931 2.98413H11.246C6.62146 2.98413 2.8725 6.73309 2.8725 11.3577V28.1047C2.8725 32.7293 6.62146 36.4783 11.246 36.4783H27.9931C32.6177 36.4783 36.3666 32.7293 36.3666 28.1047V11.3577C36.3666 6.73309 32.6177 2.98413 27.9931 2.98413Z" stroke="#3758F5" stroke-width="5" stroke-linecap="round" stroke-linejoin="round"/>
<path d="M70.754 2.98413H54.0069C49.3823 2.98413 45.6334 6.73309 45.6334 11.3577V28.1047C45.6334 32.7293 49.3823 36.4783 54.0069 36.4783H70.754C75.3785 36.4783 79.1275 32.7293 79.1275 28.1047V11.3577C79.1275 6.73309 75.3785 2.98413 70.754 2.98413Z" stroke="#3758F5" stroke-width="5" stroke-linecap="round" stroke-linejoin="round"/>
<path d="M27.9931 45.5217H11.246C6.62146 45.5217 2.8725 49.2707 2.8725 53.8953V70.6423C2.8725 75.2669 6.62146 79.0159 11.246 79.0159H27.9931C32.6177 79.0159 36.3666 75.2669 36.3666 70.6423V53.8953C36.3666 49.2707 32.6177 45.5217 27.9931 45.5217Z" stroke="#3758F5" stroke-width="5" stroke-linecap="round" stroke-linejoin="round"/>
<path d="M70.754 45.5217H54.0069C49.3823 45.5217 45.6334 49.2707 45.6334 53.8953V70.6423C45.6334 75.2669 49.3823 79.0159 54.0069 79.0159H70.754C75.3785 79.0159 79.1275 75.2669 79.1275 70.6423V53.8953C79.1275 49.2707 75.3785 45.5217 70.754 45.5217Z" stroke="#3758F5" stroke-width="5" stroke-linecap="round" stroke-linejoin="round"/>
</svg>
