<svg width="43" height="60" viewBox="0 0 43 60" fill="none" xmlns="http://www.w3.org/2000/svg">
<path d="M0 0H18.6159C30.939 0 39.8537 3.79913 39.8537 14.8035C39.8537 20.4367 36.5762 25.9389 29.4969 27.7729V28.1659C38.1494 29.607 43 34.3231 43 42.4454C43 54.4978 33.4299 60 20.189 60H0V0ZM17.6982 24.6288C26.0884 24.6288 29.4969 21.6157 29.4969 15.9825C29.4969 10.3493 25.6951 8.51529 17.9604 8.51529H10.6189V24.6288H17.6982ZM19.1402 51.4847C27.9238 51.4847 32.6433 48.4716 32.6433 41.6594C32.6433 35.3712 28.0549 32.7511 19.1402 32.7511H10.6189V51.4847H19.1402Z" fill="white"/>
</svg>
