<svg width="98" height="98" viewBox="0 0 98 98" fill="none" xmlns="http://www.w3.org/2000/svg">
<path d="M83.6747 14.838H14.4535C9.14378 14.838 4.83942 19.1424 4.83942 24.4521V83.5465C4.83942 88.8562 9.14378 93.1605 14.4535 93.1605H83.6747C88.9844 93.1605 93.2888 88.8562 93.2888 83.5465V24.4521C93.2888 19.1424 88.9844 14.838 83.6747 14.838Z" stroke="#3758F5" stroke-width="8" stroke-linecap="round" stroke-linejoin="round"/>
<path d="M83.6747 14.838H14.4535C9.14378 14.838 4.83942 19.1424 4.83942 24.4521V35.8608C4.83942 41.1705 9.14378 45.4748 14.4535 45.4748H83.6747C88.9844 45.4748 93.2888 41.1705 93.2888 35.8608V24.4521C93.2888 19.1424 88.9844 14.838 83.6747 14.838Z" stroke="#3758F5" stroke-width="8" stroke-linecap="round" stroke-linejoin="round"/>
<path d="M70.215 4.83948V24.8367" stroke="#3758F5" stroke-width="8" stroke-linecap="round" stroke-linejoin="round"/>
<path d="M27.2722 4.83948V24.8367" stroke="#3758F5" stroke-width="8" stroke-linecap="round" stroke-linejoin="round"/>
<path d="M63.6775 45.4749V93.1606" stroke="#3758F5" stroke-width="8" stroke-linecap="round" stroke-linejoin="round"/>
<path d="M91.4941 69.3177H6.37769" stroke="#3758F5" stroke-width="8" stroke-linecap="round" stroke-linejoin="round"/>
<path d="M34.1943 45.4749V93.1606" stroke="#3758F5" stroke-width="8" stroke-linecap="round" stroke-linejoin="round"/>
</svg>
