<svg width="74" height="62" viewBox="0 0 74 62" fill="none" xmlns="http://www.w3.org/2000/svg">
<path d="M27.5234 4.56567C28.4036 3.68543 28.4036 2.27706 27.5234 1.48484C26.6432 0.692628 25.2348 0.604604 24.4426 1.48484L3.757 22.1704C1.38035 24.5471 0.0599976 27.7159 0.0599976 31.0608C0.0599976 34.4057 1.38035 37.3985 3.66897 39.6871L24.3546 60.4607C24.3546 60.4607 25.3228 61.0769 25.939 61.0769C26.5551 61.0769 27.0833 60.9009 27.5234 60.4607C28.4036 59.5805 28.4036 58.1721 27.5234 57.3799L6.83783 36.5183C5.34142 35.1099 4.54921 33.0854 4.46118 30.9728C4.46118 28.7722 5.2534 26.7477 6.83783 25.1632L27.5234 4.47765V4.56567Z" fill="white"/>
<path d="M70.215 22.1708L49.5294 1.48519C48.6492 0.604953 47.2408 0.604953 46.4486 1.48519C45.6564 2.36543 45.5683 3.77381 46.4486 4.56602L67.1342 25.2516C68.7186 26.836 69.5108 28.8606 69.5108 31.0612C69.5108 33.1737 68.6306 35.1103 67.1342 36.6067L46.4486 57.3803C45.5683 58.2605 45.5683 59.6689 46.4486 60.4611C46.8887 60.9012 47.4168 61.0773 48.033 61.0773C48.6492 61.0773 49.1773 60.9012 49.6174 60.4611L70.303 39.6875C72.6796 37.3989 74 34.318 74 31.0612C74 27.7163 72.7677 24.5474 70.303 22.1708H70.215Z" fill="white"/>
</svg>
