<svg width="82" height="82" viewBox="0 0 82 82" fill="none" xmlns="http://www.w3.org/2000/svg">
<path d="M72.5403 55.4583C74.7732 50.8808 76.113 45.745 76.113 40.2743C76.113 20.5127 60.1475 4.54718 40.3859 4.54718C20.6244 4.54718 4.43555 20.5127 4.43555 40.2743C4.43555 60.0358 20.4011 76.2247 40.3859 76.2247C44.9635 76.2247 49.3177 75.3315 53.4486 73.7684" stroke="white" stroke-width="8" stroke-linecap="round" stroke-linejoin="round"/>
<path d="M72.5403 55.4583L72.7636 55.5699L77.4528 77.4527L53.337 73.6567" stroke="white" stroke-width="8" stroke-linecap="round" stroke-linejoin="round"/>
<path d="M25.3136 43.5121C26.7318 43.5121 27.8814 42.3624 27.8814 40.9442C27.8814 39.526 26.7318 38.3763 25.3136 38.3763C23.8953 38.3763 22.7457 39.526 22.7457 40.9442C22.7457 42.3624 23.8953 43.5121 25.3136 43.5121Z" stroke="white" stroke-width="8" stroke-linecap="round" stroke-linejoin="round"/>
<path d="M40.9442 43.5121C42.3624 43.5121 43.5121 42.3624 43.5121 40.9442C43.5121 39.526 42.3624 38.3763 40.9442 38.3763C39.526 38.3763 38.3763 39.526 38.3763 40.9442C38.3763 42.3624 39.526 43.5121 40.9442 43.5121Z" stroke="white" stroke-width="8" stroke-linecap="round" stroke-linejoin="round"/>
<path d="M56.5748 43.5121C57.993 43.5121 59.1427 42.3624 59.1427 40.9442C59.1427 39.526 57.993 38.3763 56.5748 38.3763C55.1566 38.3763 54.0069 39.526 54.0069 40.9442C54.0069 42.3624 55.1566 43.5121 56.5748 43.5121Z" stroke="white" stroke-width="8" stroke-linecap="round" stroke-linejoin="round"/>
</svg>
