<svg width="86" height="86" viewBox="0 0 86 86" fill="none" xmlns="http://www.w3.org/2000/svg">
<path d="M29.9931 4.98413H13.246C8.62146 4.98413 4.8725 8.73309 4.8725 13.3577V30.1047C4.8725 34.7293 8.62146 38.4783 13.246 38.4783H29.9931C34.6177 38.4783 38.3666 34.7293 38.3666 30.1047V13.3577C38.3666 8.73309 34.6177 4.98413 29.9931 4.98413Z" stroke="#3758F5" stroke-width="8" stroke-linecap="round" stroke-linejoin="round"/>
<path d="M72.754 4.98413H56.0069C51.3823 4.98413 47.6334 8.73309 47.6334 13.3577V30.1047C47.6334 34.7293 51.3823 38.4783 56.0069 38.4783H72.754C77.3785 38.4783 81.1275 34.7293 81.1275 30.1047V13.3577C81.1275 8.73309 77.3785 4.98413 72.754 4.98413Z" stroke="#3758F5" stroke-width="8" stroke-linecap="round" stroke-linejoin="round"/>
<path d="M29.9931 47.5217H13.246C8.62146 47.5217 4.8725 51.2707 4.8725 55.8953V72.6423C4.8725 77.2669 8.62146 81.0159 13.246 81.0159H29.9931C34.6177 81.0159 38.3666 77.2669 38.3666 72.6423V55.8953C38.3666 51.2707 34.6177 47.5217 29.9931 47.5217Z" stroke="#3758F5" stroke-width="8" stroke-linecap="round" stroke-linejoin="round"/>
<path d="M72.754 47.5217H56.0069C51.3823 47.5217 47.6334 51.2707 47.6334 55.8953V72.6423C47.6334 77.2669 51.3823 81.0159 56.0069 81.0159H72.754C77.3785 81.0159 81.1275 77.2669 81.1275 72.6423V55.8953C81.1275 51.2707 77.3785 47.5217 72.754 47.5217Z" stroke="#3758F5" stroke-width="8" stroke-linecap="round" stroke-linejoin="round"/>
</svg>
