<svg width="60" height="60" viewBox="0 0 60 60" fill="none" xmlns="http://www.w3.org/2000/svg">
<path d="M58.2701 26.7073L50.8407 19.2439C50.1123 18.5122 48.9469 18.5122 48.2914 19.2439C47.6358 19.9756 47.563 21.1463 48.2914 21.8049L54.6282 28.1707C54.6282 28.1707 54.5554 28.1707 54.4826 28.1707H31.5387V5.12195C31.5387 5.12195 31.5387 5.04878 31.5387 4.97561L37.8756 11.3415C38.6039 12.0732 39.7693 12.0732 40.4249 11.3415C41.1533 10.6098 41.1533 9.43903 40.4249 8.78049L32.9954 1.31707C31.2473 -0.439024 28.261 -0.439024 26.5129 1.31707L19.0835 8.78049C18.3551 9.5122 18.3551 10.6829 19.0835 11.3415C19.4477 11.7073 19.8847 11.8537 20.3945 11.8537C20.9044 11.8537 21.3414 11.7073 21.7056 11.3415L28.0425 4.97561C28.0425 4.97561 28.0425 5.04878 28.0425 5.12195V28.1707H5.0258L11.2898 21.8781C12.0182 21.1463 12.0182 19.9756 11.2898 19.3171C10.5615 18.6585 9.39606 18.5854 8.74052 19.3171L1.31108 26.7805C0.437025 27.6585 0 28.8293 0 30C0 31.1707 0.437025 32.3415 1.31108 33.2195L8.74052 40.6829C8.74052 40.6829 9.54173 41.1951 10.0516 41.1951C10.5615 41.1951 10.9985 41.0488 11.3627 40.6829C12.091 39.9512 12.091 38.7805 11.3627 38.122L5.09864 31.8293H28.1153V54.9512L21.8513 48.6585C21.1229 47.9268 20.0303 47.9268 19.302 48.6585C18.5736 49.3902 18.5736 50.561 19.302 51.2195L26.7314 58.6829C27.6055 59.561 28.7709 60 30.0091 60C31.2473 60 32.4127 59.4878 33.214 58.6829L40.6434 51.2195C41.3718 50.4878 41.3718 49.3171 40.6434 48.6585C39.915 47.9268 38.8225 47.9268 38.0941 48.6585L31.83 54.9512V31.8293H54.7739C54.7739 31.8293 54.8467 31.8293 54.9196 31.8293L48.5827 38.1951C47.8543 38.9268 47.8543 40.0976 48.5827 40.7561C48.9469 41.1219 49.3839 41.2683 49.8938 41.2683C50.4036 41.2683 50.8407 41.1219 51.2049 40.7561L58.6343 33.2927C60.4552 31.4634 60.4552 28.6098 58.6343 26.7805L58.2701 26.7073Z" fill="white"/>
</svg>
