<svg width="60" height="61" viewBox="0 0 60 61" fill="none" xmlns="http://www.w3.org/2000/svg">
<path d="M52.5 14.64H45.525V9.6075C45.525 4.27 41.25 0 36.075 0H9.375C4.2 0 0 4.34625 0 9.6075V36.7525C0 42.0137 4.2 46.2837 9.375 46.2837H14.4V53.375C14.4 57.5688 17.775 61 21.9 61H52.5C56.625 61 60 57.5688 60 53.375V22.265C60 18.0712 56.625 14.64 52.5 14.64ZM14.475 22.265V42.4712H9.45C6.375 42.4712 3.825 39.8787 3.825 36.7525V9.6075C3.825 6.405 6.375 3.8125 9.45 3.8125H36.15C39.225 3.8125 41.85 6.48125 41.85 9.6075V14.64H21.975C17.85 14.64 14.475 18.0712 14.475 22.265ZM56.25 53.375C56.25 55.4338 54.6 57.1875 52.5 57.1875H21.9C19.875 57.1875 18.15 55.51 18.15 53.375V22.265C18.15 20.2062 19.8 18.4525 21.9 18.4525H52.5C54.525 18.4525 56.25 20.13 56.25 22.265V53.375Z" fill="white"/>
</svg>
