<svg width="61" height="68" viewBox="0 0 61 68" fill="none" xmlns="http://www.w3.org/2000/svg">
<path d="M10.2459 2.71997H4.35876C2.4375 2.71997 0.880005 4.27747 0.880005 6.19873V12.0859C0.880005 14.0071 2.4375 15.5646 4.35876 15.5646H10.2459C12.1672 15.5646 13.7247 14.0071 13.7247 12.0859V6.19873C13.7247 4.27747 12.1672 2.71997 10.2459 2.71997Z" fill="#3758F9"/>
<path d="M30.94 21.3625C32.1888 21.3625 33.17 20.3814 33.17 19.1326V2.71996C33.17 1.47118 32.1888 0.48999 30.94 0.48999C29.6912 0.48999 28.71 1.47118 28.71 2.71996V19.1326C28.71 20.3814 29.6912 21.3625 30.94 21.3625Z" fill="#3758F9"/>
<path d="M30.94 46.7843C29.6912 46.7843 28.71 47.7655 28.71 49.0143V65.4269C28.71 66.6757 29.6912 67.6569 30.94 67.6569C32.1888 67.6569 33.17 66.6757 33.17 65.4269V49.0143C33.17 47.7655 32.1888 46.7843 30.94 46.7843Z" fill="#3758F9"/>
<path d="M33.8836 27.6068H27.9964C26.0752 27.6068 24.5177 29.1643 24.5177 31.0856V36.9727C24.5177 38.894 26.0752 40.4515 27.9964 40.4515H33.8836C35.8048 40.4515 37.3623 38.894 37.3623 36.9727V31.0856C37.3623 29.1643 35.8048 27.6068 33.8836 27.6068Z" fill="#3758F9"/>
<path d="M54.5777 45.8031C55.8265 45.8031 56.8077 44.8219 56.8077 43.5731V2.71996C56.8077 1.47118 55.8265 0.48999 54.5777 0.48999C53.3289 0.48999 52.3477 1.47118 52.3477 2.71996V43.5731C52.3477 44.8219 53.3289 45.8031 54.5777 45.8031Z" fill="#3758F9"/>
<path d="M57.5212 52.5825H51.6341C49.7128 52.5825 48.1553 54.14 48.1553 56.0612V61.9484C48.1553 63.8696 49.7128 65.4271 51.6341 65.4271H57.5212C59.4425 65.4271 61 63.8696 61 61.9484V56.0612C61 54.14 59.4425 52.5825 57.5212 52.5825Z" fill="#3758F9"/>
<path d="M7.30235 22.3439C6.05356 22.3439 5.07237 23.3251 5.07237 24.5738V65.427C5.07237 66.6758 6.05356 67.657 7.30235 67.657C8.55113 67.657 9.53232 66.6758 9.53232 65.427V24.5738C9.53232 23.3251 8.55113 22.3439 7.30235 22.3439Z" fill="#3758F9"/>
</svg>
