<svg width="48" height="61" viewBox="0 0 48 61" fill="none" xmlns="http://www.w3.org/2000/svg">
<path d="M11.6059 14.3528H32.8703C33.805 14.3528 34.5839 13.5739 34.5839 12.6392C34.5839 11.7045 33.805 10.9256 32.8703 10.9256H11.6059C10.6712 10.9256 9.89233 11.7045 9.89233 12.6392C9.89233 13.5739 10.6712 14.3528 11.6059 14.3528Z" fill="white"/>
<path d="M11.6059 23.8553H29.2094C30.1441 23.8553 30.923 23.0764 30.923 22.1417C30.923 21.207 30.1441 20.4281 29.2094 20.4281H11.6059C10.6712 20.4281 9.89233 21.207 9.89233 22.1417C9.89233 23.0764 10.6712 23.8553 11.6059 23.8553Z" fill="white"/>
<path d="M23.9905 31.6447C23.9905 30.71 23.2116 29.9311 22.2769 29.9311H11.6837C10.749 29.9311 9.97006 30.71 9.97006 31.6447C9.97006 32.5794 10.749 33.3583 11.6837 33.3583H22.2769C23.2116 33.3583 23.9905 32.5794 23.9905 31.6447Z" fill="white"/>
<path d="M44.398 38.7325V6.71916C44.398 3.21406 41.5939 0.409973 38.0888 0.409973H6.30919C2.88198 0.409973 0 3.21406 0 6.71916V47.6121C0 51.1172 2.80408 53.9213 6.30919 53.9213H22.4327C24.7694 57.8158 28.9756 60.4641 33.8827 60.4641C41.2824 60.4641 47.28 54.4665 47.28 47.0668C47.28 43.9512 46.1895 41.1471 44.398 38.8104V38.7325ZM6.30919 50.4162C4.75137 50.4162 3.42722 49.092 3.42722 47.5342V6.64127C3.42722 5.08345 4.75137 3.7593 6.30919 3.7593H38.0888C39.6467 3.7593 40.9708 5.08345 40.9708 6.64127V35.6168C38.9456 34.2927 36.531 33.5138 33.8827 33.5138C26.483 33.5138 20.4854 39.5114 20.4854 46.9111C20.4854 48.0794 20.7191 49.2478 21.0306 50.3383H6.30919V50.4162ZM33.8827 56.959C28.3524 56.959 23.9126 52.5192 23.9126 46.989C23.9126 41.4587 28.3524 37.0189 33.8827 37.0189C39.413 37.0189 43.8528 41.4587 43.8528 46.989C43.8528 52.5192 39.413 56.959 33.8827 56.959Z" fill="white"/>
<path d="M36.6088 44.0293L33.2595 47.3786L31.8575 45.9766C31.1565 45.2756 30.1439 45.2756 29.4428 45.9766C28.7418 46.6776 28.7418 47.6902 29.4428 48.3912L32.0912 51.0395C32.0912 51.0395 32.8701 51.5069 33.3374 51.5069C33.8048 51.5069 34.1942 51.3511 34.5837 51.0395L39.1793 46.4439C39.8803 45.7429 39.8803 44.7303 39.1793 44.0293C38.4782 43.3283 37.4657 43.3283 36.7646 44.0293H36.6088Z" fill="white"/>
</svg>
