<svg width="111" height="66" viewBox="0 0 111 66" fill="none" xmlns="http://www.w3.org/2000/svg">
<path d="M42.6582 28.4783H12.5134V0.901428H0.790497V65.8801H12.5134V38.3032H42.6582V65.8801H54.4928V0.901428H42.6582V28.4783Z" fill="white"/>
<path d="M82.8511 56.0552V55.6086L94.0158 44.2206C98.2584 40.2013 101.496 36.7402 103.841 33.8374C106.185 30.9346 107.86 28.3667 108.753 26.0221C109.646 23.6775 110.093 21.3329 110.093 18.8767C110.093 15.1923 109.2 11.9545 107.302 9.16336C105.516 6.37218 102.948 4.13924 99.5982 2.46454C96.2488 0.789828 92.4528 0.00830078 88.0986 0.00830078C83.7443 0.00830078 79.9483 0.901476 76.7105 2.46454C73.3611 4.13924 70.7932 6.48383 68.8952 9.49831C66.9972 12.5128 66.1041 16.0855 66.1041 20.2164H77.2688C77.2688 17.9835 77.7154 16.0855 78.6085 14.5224C79.5017 12.9594 80.7298 11.6196 82.2929 10.8381C83.856 9.94489 85.754 9.49831 87.8753 9.49831C89.9966 9.49831 91.7829 9.9449 93.4576 10.7264C95.1323 11.508 96.3604 12.6244 97.2536 14.1875C98.1468 15.7505 98.5934 17.4253 98.5934 19.4349C98.5934 21.2213 98.2584 22.896 97.4769 24.5707C96.807 26.1337 95.6906 27.8084 94.2391 29.4831C92.7877 31.1579 91.0014 33.1675 88.8801 35.2888L66.3274 57.3949V65.8801H110.875V56.0552H82.5162H82.8511Z" fill="white"/>
</svg>
