<svg width="114" height="68" viewBox="0 0 114 68" fill="none" xmlns="http://www.w3.org/2000/svg">
<path d="M42.3184 29.0317H12.1736V1.45483H0.33905V66.4335H12.1736V38.8566H42.3184V66.4335H54.0413V1.45483H42.3184V29.0317Z" fill="white"/>
<path d="M109.865 38.1868C107.409 35.3956 103.948 33.7209 99.3701 33.1627V32.6044C102.831 31.8229 105.734 30.2598 107.855 27.8036C109.977 25.3474 111.093 22.2212 111.093 18.6485C111.093 15.2991 110.2 12.2846 108.413 9.60511C106.627 6.92558 104.171 4.69263 100.933 3.12957C97.6954 1.56651 94.011 0.67334 89.6568 0.67334C85.3025 0.67334 81.6182 1.45487 78.2688 3.01793C74.9194 4.58099 72.1282 6.70228 70.1185 9.49346C68.1089 12.2846 66.9924 15.4108 66.9924 19.0951H78.3804C78.3804 17.3088 78.9387 15.7457 80.0551 14.4059C81.06 13.0662 82.3997 12.0613 84.1861 11.3915C85.8608 10.7216 87.7588 10.275 89.7684 10.275C91.7781 10.275 93.5644 10.6099 95.1275 11.3915C96.6906 12.173 97.807 13.1778 98.7002 14.6292C99.5934 15.969 99.9283 17.6437 99.9283 19.4301C99.9283 21.3281 99.4817 23.0028 98.4769 24.3425C97.4721 25.7939 96.1323 26.9104 94.4576 27.6919C92.7829 28.4735 90.7733 28.8084 88.5403 28.8084H82.8463V37.8518H88.5403C91.3315 37.8518 93.6761 38.2984 95.5741 39.08C97.5837 39.9731 99.0351 41.0896 100.04 42.6527C101.045 44.1041 101.603 45.8904 101.603 47.9001C101.603 49.7981 101.156 51.4728 100.152 52.9242C99.1468 54.3756 97.6954 55.4921 95.909 56.3853C94.1227 57.1668 92.0014 57.6134 89.7684 57.6134C87.5355 57.6134 85.6375 57.2784 83.8511 56.4969C82.0648 55.7154 80.725 54.7106 79.6085 53.4824C78.6037 52.1427 77.9338 50.6913 77.8222 48.9049H65.8759C65.9876 52.5893 67.1041 55.827 69.1137 58.6182C71.1234 61.4094 73.9145 63.6423 77.4872 65.2054C81.06 66.7684 85.0793 67.55 89.6568 67.55C94.2343 67.55 98.4769 66.7684 102.05 65.0937C105.622 63.419 108.525 61.1861 110.535 58.3949C112.544 55.6037 113.661 52.2543 113.661 48.6816C113.661 44.6623 112.433 41.2012 109.977 38.5217L109.865 38.1868Z" fill="white"/>
</svg>
