<svg width="61" height="61" viewBox="0 0 61 61" fill="none" xmlns="http://www.w3.org/2000/svg">
<path d="M30.5645 18.4107H30.3636C29.4596 22.1272 28.4552 25.9442 27.4507 29.4598L26.3458 33.5781H34.7833L33.5779 29.4598C32.5735 25.9442 31.569 22.1272 30.5645 18.4107Z" fill="white"/>
<path d="M50.9554 0.22998H10.2746C4.75009 0.22998 0.230011 4.64961 0.230011 10.1742V50.8549C0.230011 56.3795 4.75009 60.8995 10.2746 60.8995H50.9554C56.4799 60.8995 61 56.3795 61 50.8549V10.1742C61 4.64961 56.4799 0.22998 50.9554 0.22998ZM38.6005 47.2388L36.0893 38.1987H24.9398L22.3282 47.2388H16.3014L27.1496 13.7902H34.0804L44.9286 47.2388H38.6005Z" fill="white"/>
</svg>
