<svg width="42" height="61" viewBox="0 0 42 61" fill="none" xmlns="http://www.w3.org/2000/svg">
<path d="M39.222 31.8207C37.793 31.9228 36.7722 33.1476 36.8743 34.5767C36.9764 36.414 36.3639 38.2514 35.037 39.4762L20.7466 53.7666C18.2968 56.2164 14.2138 56.2164 11.7641 53.7666L7.17072 49.1733C4.72094 46.7235 4.72094 42.6405 7.17072 40.1908L21.4611 25.9004C22.7881 24.5734 24.7275 23.961 26.4627 24.063C28.198 24.3693 29.1167 23.1444 29.2188 21.7153C29.3208 20.2863 28.3001 19.0614 26.871 18.9593C23.5026 18.6531 20.2362 19.878 17.8885 22.3278L3.59812 36.6182C-0.893141 41.1094 -0.893141 48.3567 3.59812 52.848L8.19146 57.4413C10.4371 59.6869 13.3973 60.8098 16.2553 60.8098C19.1134 60.8098 22.1756 59.6869 24.3192 57.4413L38.6096 43.1509C40.9573 40.8032 42.1822 37.5368 41.978 34.1684C41.876 32.7393 40.6511 31.6165 39.222 31.8207Z" fill="white"/>
<path d="M2.98584 29.3712C4.41488 29.2691 5.43563 28.0442 5.33355 26.6152C5.23148 24.7778 5.84392 22.9405 7.17089 21.6135L21.4613 7.32315C22.6862 6.09826 24.2173 5.48581 25.9525 5.48581C27.6878 5.48581 29.2189 6.09826 30.4438 7.32315L35.0371 11.9165C37.4869 14.3663 37.4869 18.4492 35.0371 20.899L20.7468 35.1894C19.4198 36.5164 17.5825 37.1288 15.7451 37.0267C14.4182 37.0267 13.0912 37.9454 12.9891 39.3744C12.887 40.8035 13.9078 42.0284 15.3368 42.1305C15.643 42.1305 15.9493 42.1305 16.2555 42.1305C19.3177 42.1305 22.1758 40.9056 24.3194 38.762L38.6097 24.4716C43.101 19.9804 43.101 12.7331 38.6097 8.24182L34.0164 3.64848C31.8729 1.50492 29.0148 0.280029 25.9525 0.280029C22.8903 0.280029 20.0322 1.50492 17.8887 3.64848L3.59829 17.9389C1.25058 20.2866 0.0256928 23.5529 0.229841 26.9214C0.229841 28.3504 1.55681 29.3712 2.98584 29.2691V29.3712Z" fill="white"/>
</svg>
