<svg width="62" height="61" viewBox="0 0 62 61" fill="none" xmlns="http://www.w3.org/2000/svg">
<path d="M45.0469 0.289978H14.7113C13.2909 0.289978 12.1749 1.406 12.1749 2.8264C12.1749 4.2468 13.2909 5.36282 14.7113 5.36282H26.8861V57.9175C26.8861 59.3379 28.0021 60.4539 29.4225 60.4539C30.8429 60.4539 31.959 59.3379 31.959 57.9175V5.36282H37.0318V57.9175C37.0318 59.3379 38.1478 60.4539 39.5682 60.4539C40.9886 60.4539 42.1047 59.3379 42.1047 57.9175V32.7562H45.0469C53.9751 32.7562 61.28 25.4513 61.28 16.5231C61.28 7.59487 53.9751 0.289978 45.0469 0.289978Z" fill="white"/>
<path d="M19.0739 31.8434L7.81218 25.3501C6.18887 24.437 4.26119 24.437 2.63788 25.3501C1.01457 26.2632 0 27.988 0 29.9157V42.9022C0 44.8298 1.01457 46.4531 2.63788 47.4677C3.44954 47.975 4.36265 48.1779 5.27576 48.1779C6.18887 48.1779 7.10198 47.975 7.91364 47.4677L19.1754 40.9745C20.7987 40.0614 21.8132 38.3366 21.8132 36.4089C21.8132 34.4812 20.7987 32.8579 19.1754 31.8434H19.0739Z" fill="white"/>
</svg>
