<svg width="83" height="82" viewBox="0 0 83 82" fill="none" xmlns="http://www.w3.org/2000/svg">
<path d="M51.2157 29.2212C51.2157 29.2212 50.4342 30.0028 49.876 30.1144C49.876 30.1144 49.7643 30.1144 49.6527 30.1144C49.2061 30.1144 48.7595 29.8911 48.3129 29.6678C48.3129 29.6678 44.7402 26.5417 44.2936 26.0951C41.7257 22.7457 42.6189 18.2798 44.6286 15.377L44.9635 14.9304C47.7547 10.6878 52.8904 3.31911 55.6816 1.42111C58.9194 -0.476891 62.4921 -0.0303029 64.725 1.42111C65.3949 1.75605 66.2881 2.53758 67.0696 3.54241C67.6279 4.21229 67.6279 5.21711 67.0696 5.887L51.1041 29.4445L51.2157 29.2212Z" fill="black"/>
<path d="M8.11991 70.7539C8.11991 70.7539 7.33838 71.5355 7.33838 71.9821C7.33838 72.5403 7.33838 72.9869 7.67332 73.4335C7.89662 73.7684 13.7023 81.9187 24.867 81.9187C32.9056 81.9187 42.5072 79.3508 47.9779 77.0062C58.9194 72.317 72.5403 58.6961 77.2295 47.7546C81.0255 39.0462 84.3749 22.969 80.244 14.7071C79.0158 11.6926 74.3267 8.11991 73.7684 7.67332C73.3218 7.33838 72.7636 7.22673 72.317 7.33838C71.7588 7.33838 71.3122 7.67332 70.9772 8.11991L54.6768 31.5658C54.1185 32.3473 54.2302 33.3522 54.9001 34.022L58.8077 37.9297C57.468 40.6092 54.0069 46.9731 50.5458 50.4342C47.0848 53.8952 40.6092 57.3563 38.0413 58.6961C36.8132 57.5796 35.0269 55.7932 34.357 54.9001C33.6871 54.1185 32.5706 54.0069 31.7891 54.5651L8.3432 70.6423L8.11991 70.7539ZM12.1392 72.7636L32.459 58.8077C34.022 60.4824 36.255 62.4921 36.3666 62.6037C36.9249 63.1619 37.8181 63.2736 38.4879 62.9387C38.9345 62.7154 48.3129 58.2495 53.337 53.337C58.2495 48.4245 62.7154 38.9345 62.9387 38.4879C63.2736 37.7064 63.1619 36.8132 62.6037 36.255L58.9194 32.459L73.0985 12.0276C74.6616 13.3673 76.3363 15.042 76.7829 16.2701C80.4673 23.5272 77.1178 38.3763 73.7684 46.1916C69.5258 56.2398 56.5748 69.1909 46.6382 73.4335C41.3908 75.6664 32.2357 78.011 25.0903 78.011C18.6147 78.011 14.3721 74.7732 12.4741 72.7636H12.1392Z" fill="black"/>
<path d="M1.19782 56.2399C2.64923 54.0069 7.45006 50.6575 12.5858 47.1964L13.479 46.6382C14.0372 46.1916 14.7071 45.745 15.1537 45.4101C16.9401 44.182 19.173 43.5121 21.1827 43.5121C22.969 43.5121 24.5321 43.9587 26.2068 45.2984C26.5417 45.6334 27.8815 47.0848 29.4445 48.9828C29.7795 49.4294 30.0028 49.9876 29.8911 50.5459C29.8911 51.1041 29.5562 51.5507 29.1096 51.8856L5.44041 68.1861C5.44041 68.1861 4.65888 68.521 4.32394 68.521C3.7657 68.521 3.20746 68.2977 2.87252 67.8512C2.31429 67.0696 1.75605 66.623 1.42111 66.2881C1.30946 66.1765 1.19782 65.9532 1.08617 65.7299C-0.365242 62.6037 -0.253595 58.9194 1.30946 56.4632L1.19782 56.2399Z" fill="black"/>
</svg>
