<svg width="61" height="62" viewBox="0 0 61 62" fill="none" xmlns="http://www.w3.org/2000/svg">
<path d="M52.7222 0.559998H8.15546C3.62465 0.559998 0 4.26702 0 8.79784V53.2822C0 57.813 3.70703 61.52 8.15546 61.52H52.7222C57.253 61.52 60.96 57.813 60.96 53.2822V8.79784C60.96 4.26702 57.253 0.559998 52.7222 0.559998ZM4.11892 53.2822V8.79784C4.11892 6.57362 5.93125 4.67892 8.15546 4.67892H52.7222C54.9464 4.67892 56.8411 6.49124 56.8411 8.79784V36.1475L43.5782 29.2277C42.7544 28.8158 41.7658 28.9805 41.1068 29.6396L14.8281 57.4011H8.15546C5.93125 57.4011 4.11892 55.5888 4.11892 53.2822ZM52.7222 57.4011H20.5122L43.0015 33.5937L56.7587 40.7606V53.2822C56.7587 55.5064 54.9464 57.4011 52.6398 57.4011H52.7222Z" fill="white"/>
<path d="M21.0889 28.8981C24.9607 28.8981 28.0911 25.7677 28.0911 21.8959C28.0911 18.0241 24.9607 14.8937 21.0889 14.8937C17.2171 14.8937 14.0868 18.0241 14.0868 21.8959C14.0868 25.7677 17.2171 28.8981 21.0889 28.8981Z" fill="white"/>
</svg>
