<svg width="63" height="61" viewBox="0 0 63 61" fill="none" xmlns="http://www.w3.org/2000/svg">
<path d="M47.2404 5.40887C48.6737 5.40887 49.7999 4.28271 49.7999 2.84942C49.7999 1.41613 48.6737 0.289978 47.2404 0.289978H16.6295C7.62022 0.289978 0.249023 7.66118 0.249023 16.6704C0.249023 25.6797 7.62022 33.0509 16.6295 33.0509H19.5984V58.4406C19.5984 59.8738 20.7246 61 22.1579 61C23.5912 61 24.7173 59.8738 24.7173 58.4406V5.40887H29.8362V58.4406C29.8362 59.8738 30.9624 61 32.3956 61C33.8289 61 34.9551 59.8738 34.9551 58.4406V5.40887H47.2404Z" fill="white"/>
<path d="M59.5258 25.5776C57.8878 24.6562 55.9426 24.6562 54.3045 25.5776L42.9406 32.1298C41.3025 33.0512 40.2788 34.7916 40.2788 36.7368C40.2788 38.6819 41.3025 40.32 42.9406 41.3438L54.3045 47.8959C55.1236 48.4078 56.045 48.6126 56.9664 48.6126C57.8878 48.6126 58.8091 48.4078 59.6282 47.8959C61.2662 46.9745 62.29 45.2341 62.29 43.2889V30.1846C62.29 28.2394 61.2662 26.6014 59.6282 25.5776H59.5258Z" fill="white"/>
</svg>
