<svg width="72" height="90" viewBox="0 0 72 90" fill="none" xmlns="http://www.w3.org/2000/svg">
<path d="M63.1861 9.32876C62.4045 8.54723 61.1764 8.54723 60.3949 9.32876L56.4873 13.2364L52.5796 9.32876C51.7981 8.54723 50.5699 8.54723 49.7884 9.32876C49.0069 10.1103 49.0069 11.3384 49.7884 12.1199L53.6961 16.0276L49.7884 19.9352C49.0069 20.7168 49.0069 21.9449 49.7884 22.7264C50.1234 23.0614 50.6816 23.2847 51.1282 23.2847C51.5748 23.2847 52.133 23.0614 52.4679 22.7264L56.3756 18.8188L60.2833 22.7264C60.2833 22.7264 61.1764 23.2847 61.623 23.2847C62.0696 23.2847 62.6278 23.0614 62.9628 22.7264C63.7443 21.9449 63.7443 20.7168 62.9628 19.9352L59.0551 16.0276L62.9628 12.1199C63.7443 11.3384 63.7443 10.1103 62.9628 9.32876H63.1861Z" fill="white"/>
<path d="M32.8181 65.3756H12.4983C11.3818 65.3756 10.6003 66.2688 10.6003 67.2736C10.6003 68.2784 11.4935 69.1716 12.4983 69.1716H32.8181C33.9345 69.1716 34.7161 68.2784 34.7161 67.2736C34.7161 66.2688 33.8229 65.3756 32.8181 65.3756Z" fill="white"/>
<path d="M32.8181 75.2006H12.4983C11.3818 75.2006 10.6003 76.0937 10.6003 77.0986C10.6003 78.1034 11.4935 78.9966 12.4983 78.9966H32.8181C33.9345 78.9966 34.7161 78.1034 34.7161 77.0986C34.7161 76.0937 33.8229 75.2006 32.8181 75.2006Z" fill="white"/>
<path d="M60.06 65.3756H39.7402C38.6237 65.3756 37.8422 66.2688 37.8422 67.2736C37.8422 68.2784 38.7354 69.1716 39.7402 69.1716H60.06C61.1764 69.1716 61.958 68.2784 61.958 67.2736C61.958 66.2688 61.0648 65.3756 60.06 65.3756Z" fill="white"/>
<path d="M60.06 75.2006H39.7402C38.6237 75.2006 37.8422 76.0937 37.8422 77.0986C37.8422 78.1034 38.7354 78.9966 39.7402 78.9966H60.06C61.1764 78.9966 61.958 78.1034 61.958 77.0986C61.958 76.0937 61.0648 75.2006 60.06 75.2006Z" fill="white"/>
<path d="M61.623 35.2309H44.7643C40.9683 35.2309 37.9538 32.1048 37.9538 28.4204V10.7802C37.9538 5.30947 33.4879 0.731934 27.9056 0.731934H11.0469C5.12956 0.731934 0.328735 5.53276 0.328735 11.4501V78.4383C0.328735 84.3556 5.12956 89.1565 11.0469 89.1565H60.9531C66.8704 89.0448 71.6713 84.244 71.6713 78.215V45.0559C71.6713 39.5851 67.2054 35.0076 61.623 35.0076V35.2309ZM67.7636 78.3267C67.7636 82.1227 64.6375 85.1372 60.9531 85.1372H11.0469C7.25086 85.2488 4.23638 82.2343 4.23638 78.4383V11.4501C4.23638 7.65406 7.36251 4.63959 11.0469 4.63959H27.9056C31.255 4.63959 34.0462 7.43076 34.0462 10.7802V28.4204C34.0462 34.3377 38.847 39.1385 44.7643 39.1385H61.623C64.9724 39.1385 67.7636 41.9297 67.7636 45.2791V78.4383V78.3267Z" fill="white"/>
<path d="M61.8463 0.843567H51.1282C45.7691 0.843567 41.3032 5.19781 41.3032 10.5569V21.7216C41.3032 27.0806 45.6575 31.5465 51.1282 31.5465H61.8463C67.2054 31.5465 71.6713 27.1923 71.6713 21.7216V10.5569C71.6713 5.19781 67.317 0.843567 61.8463 0.843567ZM67.7636 21.7216C67.7636 24.8477 65.0841 27.6389 61.8463 27.6389H51.1282C47.8904 27.6389 45.2109 25.071 45.2109 21.7216V10.5569C45.2109 7.3191 47.7788 4.75122 51.1282 4.75122H61.8463C65.0841 4.75122 67.7636 7.3191 67.7636 10.5569V21.7216Z" fill="white"/>
<path d="M56.8222 45.6141H15.8477C12.9449 45.6141 10.6003 47.9587 10.6003 50.9731V54.2109C10.6003 57.1137 12.9449 59.57 15.8477 59.57H56.8222C59.725 59.57 62.0696 57.2254 62.0696 54.2109V50.9731C62.0696 48.0703 59.725 45.6141 56.8222 45.6141ZM58.162 54.0993C58.162 54.8808 57.6037 55.5507 56.8222 55.5507H15.8477C15.0662 55.5507 14.5079 54.8808 14.5079 54.0993V50.8615C14.5079 50.08 15.0662 49.4101 15.8477 49.4101H56.8222C57.6037 49.4101 58.162 50.08 58.162 50.8615V54.0993Z" fill="white"/>
<path d="M15.8477 39.8084H24.3329C27.2357 39.8084 29.5803 37.4638 29.5803 34.561V21.4983C29.5803 18.5955 27.2357 16.1392 24.3329 16.1392H15.8477C12.9449 16.1392 10.6003 18.4838 10.6003 21.4983V34.561C10.6003 37.4638 12.9449 39.8084 15.8477 39.8084ZM14.5079 21.4983C14.5079 20.7168 15.0662 20.0469 15.8477 20.0469H24.3329C25.1144 20.0469 25.6726 20.7168 25.6726 21.4983V34.561C25.6726 35.3425 25.1144 35.9008 24.3329 35.9008H15.8477C15.0662 35.9008 14.5079 35.2309 14.5079 34.561V21.4983Z" fill="white"/>
</svg>
