<svg width="63" height="61" viewBox="0 0 63 61" fill="none" xmlns="http://www.w3.org/2000/svg">
<path d="M5.51132 61H16.4688L20.0468 48.7007H9.53654L5.51132 61Z" fill="white"/>
<path d="M25.7492 28.7983C27.65 22.4251 29.3271 15.6046 31.0043 8.78406H31.4516C33.1287 15.4927 35.0295 22.4251 36.9303 28.7983L38.1602 32.9353H48.4469L37.8248 0.51001H25.0783L14.568 32.9353H24.5192L25.7492 28.7983Z" fill="white"/>
<path d="M42.6328 48.7007L46.099 61H57.6156L53.5903 48.7007H42.6328Z" fill="white"/>
<path d="M59.7401 37.9666H3.2753C1.70994 37.9666 0.480011 39.1965 0.480011 40.7618C0.480011 42.3272 1.70994 43.5571 3.2753 43.5571H59.7401C61.3055 43.5571 62.5354 42.3272 62.5354 40.7618C62.5354 39.1965 61.3055 37.9666 59.7401 37.9666Z" fill="white"/>
</svg>
