<svg width="62" height="60" viewBox="0 0 62 60" fill="none" xmlns="http://www.w3.org/2000/svg">
<path d="M54.5628 9.55503C45.0807 -1.67182 27.7094 -1.82354 16.3308 4.62432C6.24183 10.3136 -0.0543141 21.237 0.249114 32.4639C0.476686 42.4012 5.78668 51.8833 13.7517 56.6623C14.8895 57.345 19.5927 60 23.6131 60C25.1302 60 26.5715 59.6207 27.7094 58.6346C30.2885 56.3589 29.3024 52.7936 28.3921 49.6834C27.6335 46.8767 26.7991 43.9942 28.0128 42.0219C29.7575 39.1393 34.9158 39.4427 40.4534 39.6703C46.9012 39.9737 54.3352 40.353 58.3557 35.4223C63.6657 29.0503 60.6314 16.9132 54.4869 9.63089L54.5628 9.55503ZM55.5489 32.9949C52.7422 36.4843 46.5978 36.1809 40.7568 35.8774C34.3848 35.574 27.7852 35.2706 24.9027 40.0496C22.8545 43.4632 23.9165 47.4836 24.9027 50.6696C25.5095 52.8694 26.1164 55.0693 25.3578 55.8279C23.9165 57.1174 18.91 55.2969 15.8757 53.4763C9.1244 49.4559 4.42126 41.0357 4.19368 32.4639C3.96611 22.6025 9.50368 13.0445 18.3031 7.96203C22.5511 5.5346 27.8611 4.16918 33.1711 4.16918C40.15 4.16918 47.1288 6.52075 51.7561 11.9825C56.8385 17.9752 59.4935 28.2159 55.6248 32.919L55.5489 32.9949Z" fill="white"/>
<path d="M14.0551 36.6361C16.5269 36.6361 18.5307 34.6324 18.5307 32.1606C18.5307 29.6888 16.5269 27.685 14.0551 27.685C11.5833 27.685 9.57953 29.6888 9.57953 32.1606C9.57953 34.6324 11.5833 36.6361 14.0551 36.6361Z" fill="white"/>
<path d="M20.1236 24.0441C22.5954 24.0441 24.5991 22.0403 24.5991 19.5685C24.5991 17.0967 22.5954 15.093 20.1236 15.093C17.6518 15.093 15.648 17.0967 15.648 19.5685C15.648 22.0403 17.6518 24.0441 20.1236 24.0441Z" fill="white"/>
<path d="M34.5366 18.3548C37.0084 18.3548 39.0122 16.351 39.0122 13.8793C39.0122 11.4075 37.0084 9.40369 34.5366 9.40369C32.0648 9.40369 30.0611 11.4075 30.0611 13.8793C30.0611 16.351 32.0648 18.3548 34.5366 18.3548Z" fill="white"/>
<path d="M46.446 26.547C48.9178 26.547 50.9216 24.5432 50.9216 22.0715C50.9216 19.5997 48.9178 17.5959 46.446 17.5959C43.9742 17.5959 41.9704 19.5997 41.9704 22.0715C41.9704 24.5432 43.9742 26.547 46.446 26.547Z" fill="white"/>
</svg>
