<svg width="91" height="91" viewBox="0 0 91 91" fill="none" xmlns="http://www.w3.org/2000/svg">
<path d="M18.7409 37.4521V32.683H41.5134V37.4521H33.0483V60.3439H27.3253V37.4521H18.8601H18.7409Z" fill="white"/>
<path d="M81.5741 22.1909H9.56031C6.72885 22.1909 4.4335 24.4863 4.4335 27.3177V63.6823C4.4335 66.5138 6.72885 68.8091 9.56031 68.8091H81.5741C84.4055 68.8091 86.7009 66.5138 86.7009 63.6823V27.3177C86.7009 24.4863 84.4055 22.1909 81.5741 22.1909Z" stroke="white" stroke-width="8" stroke-linecap="round" stroke-linejoin="round"/>
<path d="M66.5513 17.6602V73.3397" stroke="white" stroke-width="8" stroke-linecap="round" stroke-linejoin="round"/>
<path d="M66.5513 20.9986C66.5513 11.8181 74.0627 4.3067 83.2433 4.3067" stroke="white" stroke-width="8" stroke-linecap="round" stroke-linejoin="round"/>
<path d="M49.9786 4.4259C59.1592 4.4259 66.6706 11.9373 66.6706 21.1178" stroke="white" stroke-width="8" stroke-linecap="round" stroke-linejoin="round"/>
<path d="M83.2433 86.5741C74.0627 86.5741 66.5513 79.0627 66.5513 69.8821" stroke="white" stroke-width="8" stroke-linecap="round" stroke-linejoin="round"/>
<path d="M66.5513 69.8821C66.5513 79.0627 59.04 86.5741 49.8594 86.5741" stroke="white" stroke-width="8" stroke-linecap="round" stroke-linejoin="round"/>
</svg>
