<svg width="87" height="87" viewBox="0 0 87 87" fill="none" xmlns="http://www.w3.org/2000/svg">
<path d="M61.7512 35.8243H59.2495C59.2495 29.1151 55.6106 25.7037 48.5603 25.7037H46.6271V57.0889C46.6271 60.7278 48.4466 62.5472 51.9717 62.6609V64.3667H34.8008V62.6609C36.8477 62.6609 38.2123 62.2061 39.0083 61.4101C39.8043 60.6141 40.1454 59.1358 40.1454 57.0889V25.7037H37.7574C31.2757 25.7037 27.8642 29.1151 27.7505 35.8243H25.2488V22.5197H26.8408C27.1819 23.5431 27.6368 24.1117 28.2054 24.1117H58.9083C59.7043 24.1117 60.0455 23.5431 60.0455 22.5197H61.7512V35.8243Z" fill="black"/>
<path d="M74.2598 4.32532H12.8539C8.1437 4.32532 4.32532 8.1437 4.32532 12.8539V74.2598C4.32532 78.9701 8.1437 82.7884 12.8539 82.7884H74.2598C78.9701 82.7884 82.7884 78.9701 82.7884 74.2598V12.8539C82.7884 8.1437 78.9701 4.32532 74.2598 4.32532Z" stroke="black" stroke-width="8" stroke-linecap="round" stroke-linejoin="round"/>
</svg>
