<svg width="50" height="61" viewBox="0 0 50 61" fill="none" xmlns="http://www.w3.org/2000/svg">
<path d="M47.6751 10.575H35.2811V6.0888C35.2811 2.97129 32.6198 0.309998 29.5023 0.309998H20.0737C16.9562 0.309998 14.2949 2.97129 14.2949 6.0888V10.575H1.90092C0.836404 10.575 0 11.4114 0 12.4759C0 13.5404 0.836404 14.3768 1.90092 14.3768H3.49769V51.1026C3.49769 56.1971 7.67972 60.3791 12.7742 60.3791H36.7258C41.8203 60.3791 46.0023 56.1971 46.0023 51.1026V14.3768H47.5991C48.6636 14.3768 49.5 13.5404 49.5 12.4759C49.5 11.4114 48.6636 10.575 47.5991 10.575H47.6751ZM18.0968 6.0888C18.0968 5.02428 19.0092 4.11184 20.0737 4.11184H29.5023C30.5668 4.11184 31.4793 5.02428 31.4793 6.0888V10.575H18.0968V6.0888ZM42.2765 51.1026C42.2765 54.1441 39.8433 56.5773 36.8018 56.5773H12.8502C9.80875 56.5773 7.37558 54.1441 7.37558 51.1026V14.3768H16.1958H33.2281H42.0484V51.1026H42.2765Z" fill="white"/>
<path d="M18.0207 23.2733C16.9562 23.2733 16.1198 24.1097 16.1198 25.1742V44.8677C16.1198 45.9322 16.9562 46.7686 18.0207 46.7686C19.0852 46.7686 19.9216 45.9322 19.9216 44.8677V25.1742C19.9216 24.1097 19.0852 23.2733 18.0207 23.2733Z" fill="white"/>
<path d="M31.5555 23.2733C30.4909 23.2733 29.6545 24.1097 29.6545 25.1742V44.8677C29.6545 45.9322 30.4909 46.7686 31.5555 46.7686C32.62 46.7686 33.4564 45.9322 33.4564 44.8677V25.1742C33.4564 24.1097 32.62 23.2733 31.5555 23.2733Z" fill="white"/>
</svg>
