<svg width="51" height="61" viewBox="0 0 51 61" fill="none" xmlns="http://www.w3.org/2000/svg">
<path d="M47.9709 55.4349H2.65914C1.17002 55.4349 0 56.605 0 58.0941C0 59.5832 1.17002 60.7532 2.65914 60.7532H47.9709C49.46 60.7532 50.63 59.5832 50.63 58.0941C50.63 56.605 49.46 55.4349 47.9709 55.4349Z" fill="white"/>
<path d="M17.1248 36.0761H33.2923L37.0151 49.2654H46.2689L30.5268 0.549988H20.3157L4.57364 49.2654H13.402L17.1248 36.0761ZM20.7412 23.3122C22.2303 18.2067 23.6131 12.6757 24.9958 7.25101H25.3149C26.5913 12.6757 28.1868 18.2067 29.6759 23.3122L31.3778 29.1623H19.0393L20.7412 23.3122Z" fill="white"/>
</svg>
