<svg width="78" height="50" viewBox="0 0 78 50" fill="none" xmlns="http://www.w3.org/2000/svg">
<path d="M15.8799 0L0 49.1418H8.9056L12.661 35.837H28.97L32.7254 49.1418H42.0602L26.1803 0H15.8799ZM14.6996 28.97L16.4163 23.0687C17.9185 17.9185 19.3134 12.3391 20.7082 6.86697H21.0301C22.3177 12.3391 23.9271 17.9185 25.4293 23.0687L27.146 28.97H14.6996Z" fill="white"/>
<path d="M61.481 11.3733C55.1506 11.3733 49.0347 13.8411 44.6355 16.5235L47.8544 22.3175C51.6098 20.1716 55.7943 18.3476 59.8716 18.3476C65.8802 18.3476 68.348 21.4592 68.6699 25.5364C50.4295 26.824 43.1334 30.9012 43.1334 39.1631C43.1334 45.6008 48.2836 50 55.4724 50C60.4081 50 65.3437 47.5322 69.2064 44.5279H69.421L70.0648 49.1416H77.2536V27.2532C77.2536 16.9527 71.6742 11.266 61.3737 11.266L61.481 11.3733ZM68.6699 38.7339C65.2364 41.5236 61.8029 43.2403 58.1549 43.2403C54.5068 43.2403 51.6098 41.8455 51.6098 38.6266C51.6098 34.6566 55.4724 31.9742 68.6699 31.0085V38.7339Z" fill="white"/>
</svg>
