<svg xmlns="http://www.w3.org/2000/svg" width="50" height="50" viewBox="0 0 50 50">
  <g id="Group_14223" data-name="Group 14223" transform="translate(-967 -611)">
    <circle id="Ellipse_41" data-name="Ellipse 41" cx="25" cy="25" r="25" transform="translate(967 611)" fill="#ebebeb"/>
    <path id="twitter_2_" data-name="twitter (2)" d="M8.2,17.8c-3.6,0-6.441-.629-7.8-1.724L.374,16.05.35,16.026a1.107,1.107,0,0,1-.29-1.164l.013-.035A1.127,1.127,0,0,1,1.1,14.121a9.289,9.289,0,0,0,2.456-.339A4.662,4.662,0,0,1,1.1,10.943,1.006,1.006,0,0,1,1.451,9.77a1.027,1.027,0,0,1,.306-.157,6.8,6.8,0,0,1-1.394-2.5L.355,7.087.35,7.059A1.048,1.048,0,0,1,.835,5.934a1.044,1.044,0,0,1,.5-.14,5.256,5.256,0,0,1-.4-1.212,5.068,5.068,0,0,1,.539-3.377L1.608.938A.745.745,0,0,1,2.8.744l.244.244A11.493,11.493,0,0,0,9.673,4.617,5.28,5.28,0,0,1,11.1,1.573,5,5,0,0,1,14.668,0h.009a7.152,7.152,0,0,1,2.951.961c.635-.208,1.4-.53,2.194-.87a1,1,0,0,1,1.122.2.985.985,0,0,1,.214,1.082q-.087.241-.2.473a1,1,0,0,1,.292.2,1.084,1.084,0,0,1,.27,1.013l-.01.034a4.135,4.135,0,0,1-1.662,2.28C19.723,12.247,14.547,17.8,8.2,17.8ZM1.613,15.368A14.89,14.89,0,0,0,8.2,16.532,9.87,9.87,0,0,0,15.519,13.2a11.927,11.927,0,0,0,3.072-8.093V5.075a.745.745,0,0,1,.4-.659A2.684,2.684,0,0,0,20.15,3.131a.745.745,0,0,1-.718-1.174,4.1,4.1,0,0,0,.282-.446c-.686.288-1.337.546-1.9.718a.809.809,0,0,1-.622-.067,6.159,6.159,0,0,0-2.509-.9A3.93,3.93,0,0,0,10.9,5.247a.746.746,0,0,1-.89.731A13.068,13.068,0,0,1,2.422,2.159a3.732,3.732,0,0,0-.246,2.182A4.612,4.612,0,0,0,3.27,6.464a.745.745,0,0,1-.752,1.212,3.414,3.414,0,0,1-.695-.267,6.3,6.3,0,0,0,2.159,2.5.745.745,0,0,1-.477,1.358,3.351,3.351,0,0,1-.989-.214,3.4,3.4,0,0,0,2.713,1.922.746.746,0,0,1,.222,1.393A8.957,8.957,0,0,1,1.613,15.368Zm0,0" transform="translate(982.097 627.208)" fill="#959595"/>
  </g>
</svg>
