<svg xmlns="http://www.w3.org/2000/svg" width="60" height="60" viewBox="0 0 60 60">
  <g id="Group_14227" data-name="Group 14227" transform="translate(-690 -4637)">
    <circle id="Ellipse_29" data-name="Ellipse 29" cx="30" cy="30" r="30" transform="translate(690 4637)" fill="#ffa20d"/>
    <g id="instagram_1_" data-name="instagram (1)" transform="translate(710.531 4658.061)">
      <path id="Path_26064" data-name="Path 26064" d="M13.425,0H4.983A4.988,4.988,0,0,0,0,4.983v8.442a4.988,4.988,0,0,0,4.983,4.983h8.442a4.988,4.988,0,0,0,4.983-4.983V4.983A4.988,4.988,0,0,0,13.425,0Zm3.9,13.425a3.908,3.908,0,0,1-3.9,3.9H4.983a3.908,3.908,0,0,1-3.9-3.9V4.983a3.908,3.908,0,0,1,3.9-3.9h8.442a3.908,3.908,0,0,1,3.9,3.9Zm0,0" fill="#fff" stroke="#fff" stroke-width="0.25"/>
      <path id="Path_26065" data-name="Path 26065" d="M121.189,116a5.185,5.185,0,1,0,5.185,5.185A5.191,5.191,0,0,0,121.189,116Zm0,9.259a4.074,4.074,0,1,1,4.074-4.074A4.078,4.078,0,0,1,121.189,125.263Zm0,0" transform="translate(-111.986 -111.986)" fill="#fff" stroke="#fff" stroke-width="0.25"/>
      <path id="Path_26066" data-name="Path 26066" d="M359.409,66.285a1.433,1.433,0,1,0,1.433,1.433A1.435,1.435,0,0,0,359.409,66.285Zm0,1.826a.393.393,0,1,1,.393-.393A.394.394,0,0,1,359.409,68.111Zm0,0" transform="translate(-344.904 -63.989)" fill="#fff" stroke="#fff" stroke-width="0.25"/>
    </g>
  </g>
</svg>
