<svg width="7" height="7" viewBox="0 0 7 7" fill="none" xmlns="http://www.w3.org/2000/svg">
<path d="M5.77 1.54999C5.90808 1.54999 6.02 1.43806 6.02 1.29999C6.02 1.16192 5.90808 1.04999 5.77 1.04999C5.63193 1.04999 5.52 1.16192 5.52 1.29999C5.52 1.43806 5.63193 1.54999 5.77 1.54999Z" fill="#1239F8"/>
<path d="M5.94001 0.350006H1.06001C0.667884 0.350006 0.350006 0.667884 0.350006 1.06001V5.94001C0.350006 6.33213 0.667884 6.65001 1.06001 6.65001H5.94001C6.33213 6.65001 6.65001 6.33213 6.65001 5.94001V1.06001C6.65001 0.667884 6.33213 0.350006 5.94001 0.350006Z" stroke="#1239F8" stroke-width="0.5" stroke-miterlimit="10" stroke-linecap="round"/>
<path d="M6.65001 2.23001H0.350006" stroke="#1239F8" stroke-width="0.5" stroke-miterlimit="10" stroke-linecap="round"/>
<path d="M3.37 3.38V5.53" stroke="#1239F8" stroke-width="0.5" stroke-miterlimit="10" stroke-linecap="round"/>
<path d="M4.43999 4.45999H2.28999" stroke="#1239F8" stroke-width="0.5" stroke-miterlimit="10" stroke-linecap="round"/>
<path d="M5.11 1.54999C5.24807 1.54999 5.36 1.43806 5.36 1.29999C5.36 1.16192 5.24807 1.04999 5.11 1.04999C4.97193 1.04999 4.86 1.16192 4.86 1.29999C4.86 1.43806 4.97193 1.54999 5.11 1.54999Z" fill="#1239F8"/>
<path d="M4.45 1.54999C4.58807 1.54999 4.7 1.43806 4.7 1.29999C4.7 1.16192 4.58807 1.04999 4.45 1.04999C4.31193 1.04999 4.2 1.16192 4.2 1.29999C4.2 1.43806 4.31193 1.54999 4.45 1.54999Z" fill="#1239F8"/>
</svg>
