<?xml version="1.0" encoding="UTF-8"?>
<svg id="Layer_1" data-name="Layer 1" xmlns="http://www.w3.org/2000/svg" viewBox="0 0 15 15">
  <defs>
    <style>
      .cls-1 {
        fill: #1239f8;
      }
    </style>
  </defs>
  <path class="cls-1" d="m8.27,8.46c-.07.07-.07.07-.07.61,0,.31,0,.51-.01.54-.02.07-.09.15-.15.16-.03,0-.24.01-.51.01h-.47v-4.57h.98l.05.03c.1.07.1.06.11.65v.52s.05.05.05.05c.09.12.25.13.35.01.06-.07.07-.1.06-.66v-.51s-.04-.09-.04-.09c-.02-.05-.05-.12-.07-.15-.06-.09-.18-.19-.27-.24-.14-.07-.21-.08-.75-.08h-.49l-.02-.07c-.07-.18-.23-.34-.42-.41-.07-.02-.11-.03-.21-.03h-.12s-.66.22-.66.22c-.71.24-.75.25-.87.38-.07.08-.13.18-.15.28-.03.09-.03,4.61,0,4.71.04.16.16.33.3.41.07.04,1.11.4,1.32.46h0c.17.06.34.04.49-.04.11-.06.24-.19.29-.3.02-.05.04-.1.04-.11,0-.01.13-.02.54-.02h.54s.09-.04.09-.04c.16-.06.29-.18.37-.32.08-.14.08-.17.08-.76,0-.35,0-.55-.01-.57-.06-.15-.24-.19-.36-.08Zm-1.68,1.65c-.02.07-.09.14-.15.16-.03,0-.06.01-.08.01-.05,0-1.23-.4-1.27-.43-.02-.01-.04-.04-.06-.06l-.03-.03v-4.54l.03-.03s.04-.05.06-.06c.04-.03,1.22-.43,1.28-.43h0c.09,0,.19.08.22.17.02.07.02,5.17,0,5.24Z"/>
  <path class="cls-1" d="m10.46,7.5c0-.06-.03-.13-.07-.17l-.91-.91s-.11-.07-.17-.07-.13.03-.17.07c-.09.09-.09.25,0,.34,0,0,0,0,0,0l.49.49h-1.85c-.13,0-.24.11-.24.24,0,.13.11.24.24.24h1.85l-.49.49c-.09.09-.09.25,0,.34,0,0,0,0,0,0,.09.09.25.09.34,0,0,0,0,0,0,0l.91-.91s0,0,0,0h0s.07-.11.07-.17Z"/>
</svg>