<svg width="7" height="7" viewBox="0 0 7 7" fill="none" xmlns="http://www.w3.org/2000/svg">
<path d="M6.17 1.61999L5.37 0.819985C5.09 0.539985 4.63 0.539985 4.36 0.819985L3.7 1.47999L5.51 3.28999L6.17 2.62999C6.31 2.48999 6.38 2.30999 6.38 2.11999C6.38 1.92999 6.31 1.74999 6.17 1.60999V1.61999Z" stroke="#1239F8" stroke-width="0.5" stroke-miterlimit="10"/>
<path d="M0.840008 4.43999L0.630008 6.05999C0.620008 6.14999 0.650008 6.23999 0.710008 6.29999C0.760008 6.34999 0.840008 6.37999 0.910008 6.37999C0.920008 6.37999 0.930007 6.37999 0.950007 6.37999L2.57001 6.16999C2.63001 6.16999 2.69001 6.12999 2.73001 6.08999L5.52001 3.29999L3.71001 1.48999L0.920008 4.27999C0.920008 4.27999 0.850008 4.37999 0.840008 4.43999Z" stroke="#1239F8" stroke-width="0.5" stroke-miterlimit="10"/>
</svg>
