<svg width="7" height="7" viewBox="0 0 7 7" fill="none" xmlns="http://www.w3.org/2000/svg">
<path d="M1.12 0.92C0.98 0.92 0.87 1.03 0.87 1.17C0.87 1.31 0.98 1.42 1.12 1.42C1.26 1.42 1.37 1.31 1.37 1.17C1.37 1.03 1.26 0.92 1.12 0.92ZM4.65 0.00999975H0.96C0.43 0.00999975 0 0.44 0 0.97V5.84C0 6.37 0.43 6.8 0.96 6.8H5.83C6.36 6.8 6.79 6.37 6.79 5.84V2.15L4.64 0L4.65 0.00999975ZM6.1 2.16L5.42 2.83L3.97 1.38L4.65 0.7L6.11 2.16H6.1ZM5.07 3.19L4.8 3.46L3.14 3.67V3.64L3.35 1.99L3.61 1.73L5.06 3.18L5.07 3.19ZM0.5 0.97C0.5 0.71 0.71 0.51 0.96 0.51H4.13L3.43 1.21L2.99 1.65C2.94 1.7 2.92 1.78 2.89 1.85H0.49V0.98L0.5 0.97ZM6.3 5.84C6.3 6.1 6.09 6.3 5.84 6.3H0.97C0.71 6.3 0.51 6.09 0.51 5.84V2.34H2.81L2.66 3.55C2.62 3.72 2.68 3.91 2.79 4C2.89 4.12 3.03 4.18 3.18 4.18L4.88 3.96C4.99 3.94 5.1 3.89 5.18 3.81L5.62 3.37L6.32 2.67V5.84H6.3ZM2.45 0.91C2.31 0.91 2.2 1.02 2.2 1.16C2.2 1.3 2.31 1.41 2.45 1.41C2.59 1.41 2.7 1.3 2.7 1.16C2.7 1.02 2.59 0.91 2.45 0.91ZM1.79 0.91C1.65 0.91 1.54 1.02 1.54 1.16C1.54 1.3 1.65 1.41 1.79 1.41C1.93 1.41 2.04 1.3 2.04 1.16C2.04 1.02 1.93 0.91 1.79 0.91Z" fill="#1239F8"/>
</svg>
