<svg width="157" height="272" viewBox="0 0 157 272" fill="none" xmlns="http://www.w3.org/2000/svg">
<path d="M156.31 121.61C156.31 121.42 156.31 121.23 156.29 121.04C156.29 120.96 156.28 120.87 156.27 120.78C156.27 120.74 156.27 120.71 156.26 120.68C156.24 120.46 156.21 120.25 156.17 120.04C156.17 120.01 156.17 119.99 156.16 119.97C156.12 119.75 156.07 119.51 156 119.3C155.99 119.21 155.96 119.13 155.93 119.04C155.88 118.86 155.82 118.69 155.75 118.52C155.62 118.17 155.46 117.82 155.27 117.49C155.18 117.34 155.1 117.19 155 117.04C154.97 116.99 154.94 116.94 154.91 116.9C154.83 116.78 154.75 116.66 154.67 116.55C154.6 116.45 154.53 116.35 154.44 116.26C154.25 116.02 154.04 115.78 153.82 115.56L152.9 114.64L80.51 42.25L41.11 2.85C37.77 -0.489999 32.36 -0.489999 29.02 2.85L8.85001 23.02C7.25001 24.62 6.34001 26.79 6.35001 29.06V44.71C6.35001 52.47 6.35001 59.59 6.35001 69.36C6.35001 71.62 7.24999 73.8 8.85999 75.4L67.52 134.06L94.46 161L65.31 190.15L35.42 160.26C32.09 156.93 26.67 156.93 23.33 160.27L3.17001 180.43C1.57001 182.03 0.680013 184.21 0.670013 186.47V202.14C0.660013 209.88 0.660004 217 0.660004 226.79C0.660004 229.05 1.57001 231.22 3.17001 232.82L18.94 248.59L39.12 268.77C40.72 270.37 42.88 271.28 45.16 271.27H60.27C68.25 271.28 75.47 271.28 85.47 271.27C87.73 271.27 89.91 270.37 91.51 268.77L152.89 207.39C152.89 207.39 152.91 207.37 152.92 207.37C153.6 206.69 154.16 205.9 154.58 205.03C154.63 204.93 154.68 204.83 154.72 204.72C154.75 204.66 154.78 204.6 154.8 204.54C154.89 204.32 154.96 204.11 155.03 203.89C155.11 203.63 155.18 203.36 155.24 203.09C155.3 202.82 155.34 202.55 155.38 202.27C155.38 202.22 155.39 202.18 155.39 202.14C155.41 201.91 155.42 201.68 155.42 201.44C155.42 201.44 155.42 201.42 155.42 201.41V201.32L156.34 121.69C156.34 121.69 156.34 121.62 156.34 121.59L156.31 121.61ZM23.44 44.73V32.61L35.06 20.99L65.87 51.8L65.23 107.61L23.44 65.82V44.72V44.73ZM82.14 124.53L82.78 68.72L134.76 120.7L106.53 148.93L82.14 124.54V124.53ZM17.76 190.04L29.38 178.42L53.21 202.25L24.99 230.47L17.76 223.24V190.03V190.04ZM81.91 254.19C73.68 254.19 67.27 254.19 60.27 254.2H48.69L37.07 242.57L106.53 173.11L134.75 201.33L81.89 254.19H81.91ZM141.8 208.23C141.73 208.19 141.66 208.12 141.6 208.08C141.49 208 141.4 207.9 141.29 207.82C141.39 207.91 141.49 208 141.6 208.07C141.67 208.12 141.74 208.18 141.81 208.23C141.99 208.37 142.17 208.48 142.35 208.6C142.51 208.7 142.67 208.79 142.83 208.88C142.67 208.8 142.51 208.69 142.35 208.61C142.17 208.49 141.98 208.38 141.8 208.23ZM143.37 209.15C143.37 209.15 143.4 209.16 143.42 209.17C143.47 209.19 143.52 209.21 143.56 209.23C143.51 209.21 143.46 209.2 143.42 209.18C143.4 209.18 143.39 209.16 143.37 209.15ZM144.02 209.42C144.02 209.42 143.98 209.4 143.96 209.39C143.98 209.39 144 209.4 144.02 209.41C144.2 209.48 144.37 209.53 144.56 209.58C144.6 209.58 144.63 209.6 144.67 209.61C144.64 209.61 144.6 209.6 144.57 209.59C144.38 209.54 144.2 209.47 144.02 209.43V209.42ZM145.64 209.81C145.64 209.81 145.73 209.83 145.78 209.83C145.78 209.83 145.79 209.83 145.8 209.83C145.8 209.83 145.78 209.83 145.77 209.83C145.73 209.83 145.69 209.81 145.64 209.81ZM147.06 209.9C147.06 209.9 146.98 209.9 146.94 209.9C146.98 209.9 147.03 209.9 147.07 209.9C147.21 209.9 147.36 209.88 147.51 209.87C147.65 209.86 147.79 209.84 147.92 209.82C147.78 209.84 147.64 209.86 147.52 209.87C147.34 209.88 147.21 209.88 147.06 209.9ZM148.14 209.8C148.22 209.79 148.3 209.78 148.37 209.76C148.52 209.73 148.67 209.7 148.82 209.66C148.68 209.7 148.52 209.74 148.37 209.76C148.29 209.77 148.22 209.78 148.14 209.79V209.8ZM150 209.3C150 209.3 150.04 209.29 150.06 209.28C150.06 209.28 150.02 209.29 150 209.3ZM150.82 208.92C150.82 208.92 150.73 208.96 150.68 208.98C150.73 208.96 150.78 208.94 150.82 208.92Z" fill="#fff"/>
</svg>
