<svg id="scene-3" width="1920" height="1080" viewBox="0 0 1920 1080" fill="none" xmlns="http://www.w3.org/2000/svg">

    <g id="bg-scene3">
        <path id="Vector_49" d="M1836.77 50.41H83.23C66.6615 50.41 53.23 63.8415 53.23 80.41V999.6C53.23 1016.17 66.6615 1029.6 83.23 1029.6H1836.77C1853.34 1029.6 1866.77 1016.17 1866.77 999.6V80.41C1866.77 63.8415 1853.34 50.41 1836.77 50.41Z" fill="#EFEFEF"/>
        <path id="Vector_2_2" d="M1415.06 50.41H1806.17C1839.61 50.41 1866.76 77.56 1866.76 111V999C1866.76 1015.88 1853.05 1029.59 1836.17 1029.59H1415.06V50.41Z" fill="white"/>
        <path id="Vector_3_2" d="M1866.77 131.06H53.23V80.4C53.23 63.84 66.67 50.4 83.23 50.4H1836.77C1853.33 50.4 1866.77 63.84 1866.77 80.4V131.06Z" fill="#3758F9"/>
        <path id="Vector_4_2" d="M217.52 175.02H108.75C103.52 175.02 99.28 179.26 99.28 184.49V202.69C99.28 207.92 103.52 212.16 108.75 212.16H217.52C222.75 212.16 226.99 207.92 226.99 202.69V184.49C226.99 179.26 222.75 175.02 217.52 175.02Z" fill="#3758F9"/>
        <path id="Vector_5_2" d="M372.13 175.02H263.36C258.13 175.02 253.89 179.26 253.89 184.49V202.69C253.89 207.92 258.13 212.16 263.36 212.16H372.13C377.36 212.16 381.6 207.92 381.6 202.69V184.49C381.6 179.26 377.36 175.02 372.13 175.02Z" fill="white"/>
        <path id="Vector_6_2" d="M1342.24 175.02H1233.47C1228.24 175.02 1224 179.26 1224 184.49V202.69C1224 207.92 1228.24 212.16 1233.47 212.16H1342.24C1347.47 212.16 1351.71 207.92 1351.71 202.69V184.49C1351.71 179.26 1347.47 175.02 1342.24 175.02Z" fill="white"/>
        <path id="Vector_7_2" d="M1188.27 175.02H1079.5C1074.27 175.02 1070.03 179.26 1070.03 184.49V202.69C1070.03 207.92 1074.27 212.16 1079.5 212.16H1188.27C1193.5 212.16 1197.74 207.92 1197.74 202.69V184.49C1197.74 179.26 1193.5 175.02 1188.27 175.02Z" fill="white"/>
        <path id="Vector_8_2" d="M1034.3 175.02H925.53C920.3 175.02 916.06 179.26 916.06 184.49V202.69C916.06 207.92 920.3 212.16 925.53 212.16H1034.3C1039.53 212.16 1043.77 207.92 1043.77 202.69V184.49C1043.77 179.26 1039.53 175.02 1034.3 175.02Z" fill="white"/>
        <path id="Vector_9_2" d="M765.57 175.02H558.76C553.74 175.02 549.67 179.09 549.67 184.11V203.07C549.67 208.09 553.74 212.16 558.76 212.16H765.57C770.59 212.16 774.66 208.09 774.66 203.07V184.11C774.66 179.09 770.59 175.02 765.57 175.02Z" fill="#D1D3D4"/>
    </g>
    <g id="Group_3">
        <path id="Vector_10_2" d="M1491.05 256.12H1464.13C1461.31 256.12 1459.02 258.408 1459.02 261.23V288.15C1459.02 290.972 1461.31 293.26 1464.13 293.26H1491.05C1493.87 293.26 1496.16 290.972 1496.16 288.15V261.23C1496.16 258.408 1493.87 256.12 1491.05 256.12Z" fill="#3758F9"/>
        <path id="Vector_11_2" d="M1824.93 256.12H1667.1C1662.69 256.12 1659.11 259.697 1659.11 264.11V285.27C1659.11 289.683 1662.69 293.26 1667.1 293.26H1824.93C1829.34 293.26 1832.92 289.683 1832.92 285.27V264.11C1832.92 259.697 1829.34 256.12 1824.93 256.12Z" fill="#D1D3D4"/>
        <path id="Vector_12_2" d="M1823.83 175.02H1617.02C1612 175.02 1607.93 179.09 1607.93 184.11V203.07C1607.93 208.09 1612 212.16 1617.02 212.16H1823.83C1828.85 212.16 1832.92 208.09 1832.92 203.07V184.11C1832.92 179.09 1828.85 175.02 1823.83 175.02Z" fill="#3758F9"/>
        <path id="Vector_13_2" d="M1825.14 337.21H1466.79C1462.5 337.21 1459.02 340.689 1459.02 344.98V366.58C1459.02 370.871 1462.5 374.35 1466.79 374.35H1825.14C1829.43 374.35 1832.91 370.871 1832.91 366.58V344.98C1832.91 340.689 1829.43 337.21 1825.14 337.21Z" fill="#D1D3D4"/>
        <path id="Vector_14_2" d="M1827.05 418.31H1572.71C1569.47 418.31 1566.85 420.934 1566.85 424.17V458.31C1566.85 461.546 1569.47 464.17 1572.71 464.17H1827.05C1830.29 464.17 1832.91 461.546 1832.91 458.31V424.17C1832.91 420.934 1830.29 418.31 1827.05 418.31Z" fill="#D1D3D4"/>
        <path id="Vector_15_2" d="M1827.05 478.13H1572.71C1569.47 478.13 1566.85 480.754 1566.85 483.99V518.13C1566.85 521.366 1569.47 523.99 1572.71 523.99H1827.05C1830.29 523.99 1832.91 521.366 1832.91 518.13V483.99C1832.91 480.754 1830.29 478.13 1827.05 478.13Z" fill="#D1D3D4"/>
        <path id="Vector_16_2" d="M1827.05 537.96H1572.71C1569.47 537.96 1566.85 540.584 1566.85 543.82V577.96C1566.85 581.196 1569.47 583.82 1572.71 583.82H1827.05C1830.29 583.82 1832.91 581.196 1832.91 577.96V543.82C1832.91 540.584 1830.29 537.96 1827.05 537.96Z" fill="#D1D3D4"/>
        <path id="Vector_17_2" d="M1827.05 597.79H1572.71C1569.47 597.79 1566.85 600.414 1566.85 603.65V637.79C1566.85 641.026 1569.47 643.65 1572.71 643.65H1827.05C1830.29 643.65 1832.91 641.026 1832.91 637.79V603.65C1832.91 600.414 1830.29 597.79 1827.05 597.79Z" fill="#D1D3D4"/>
        <path id="Vector_18_2" d="M1827.05 657.61H1572.71C1569.47 657.61 1566.85 660.234 1566.85 663.47V697.61C1566.85 700.846 1569.47 703.47 1572.71 703.47H1827.05C1830.29 703.47 1832.91 700.846 1832.91 697.61V663.47C1832.91 660.234 1830.29 657.61 1827.05 657.61Z" fill="#D1D3D4"/>
        <path id="Vector_19_2" d="M1827.05 717.44H1572.71C1569.47 717.44 1566.85 720.064 1566.85 723.3V757.44C1566.85 760.676 1569.47 763.3 1572.71 763.3H1827.05C1830.29 763.3 1832.91 760.676 1832.91 757.44V723.3C1832.91 720.064 1830.29 717.44 1827.05 717.44Z" fill="#D1D3D4"/>
        <path id="Vector_20_2" d="M1827.05 777.27H1572.71C1569.47 777.27 1566.85 779.894 1566.85 783.13V817.27C1566.85 820.506 1569.47 823.13 1572.71 823.13H1827.05C1830.29 823.13 1832.91 820.506 1832.91 817.27V783.13C1832.91 779.894 1830.29 777.27 1827.05 777.27Z" fill="#D1D3D4"/>
        <path id="Vector_21_2" d="M1827.05 837.09H1572.71C1569.47 837.09 1566.85 839.714 1566.85 842.95V877.09C1566.85 880.326 1569.47 882.95 1572.71 882.95H1827.05C1830.29 882.95 1832.91 880.326 1832.91 877.09V842.95C1832.91 839.714 1830.29 837.09 1827.05 837.09Z" fill="#D1D3D4"/>
        <path id="Vector_22_2" d="M1827.05 896.92H1572.71C1569.47 896.92 1566.85 899.544 1566.85 902.78V936.92C1566.85 940.156 1569.47 942.78 1572.71 942.78H1827.05C1830.29 942.78 1832.91 940.156 1832.91 936.92V902.78C1832.91 899.544 1830.29 896.92 1827.05 896.92Z" fill="#D1D3D4"/>
        <path id="Vector_23_2" d="M1827.05 956.75H1572.71C1569.47 956.75 1566.85 959.374 1566.85 962.61V996.75C1566.85 999.986 1569.47 1002.61 1572.71 1002.61H1827.05C1830.29 1002.61 1832.91 999.986 1832.91 996.75V962.61C1832.91 959.374 1830.29 956.75 1827.05 956.75Z" fill="#D1D3D4"/>
        <path id="Vector_24_2" d="M1733.88 101.85C1740.02 101.85 1745 96.8714 1745 90.73C1745 84.5886 1740.02 79.61 1733.88 79.61C1727.74 79.61 1722.76 84.5886 1722.76 90.73C1722.76 96.8714 1727.74 101.85 1733.88 101.85Z" fill="#F4F5F7"/>
        <path id="Vector_25_2" d="M1777.84 101.85C1783.98 101.85 1788.96 96.8714 1788.96 90.73C1788.96 84.5886 1783.98 79.61 1777.84 79.61C1771.7 79.61 1766.72 84.5886 1766.72 90.73C1766.72 96.8714 1771.7 101.85 1777.84 101.85Z" fill="#F4F5F7"/>
        <path id="Vector_26_2" d="M1821.8 101.85C1827.94 101.85 1832.92 96.8714 1832.92 90.73C1832.92 84.5886 1827.94 79.61 1821.8 79.61C1815.66 79.61 1810.68 84.5886 1810.68 90.73C1810.68 96.8714 1815.66 101.85 1821.8 101.85Z" fill="#F4F5F7"/>
        <path id="Vector_27_2" d="M259.02 337.21H1207.01C1216.38 337.21 1223.99 344.82 1223.99 354.19V1029.59H242.04V354.19C242.04 344.82 249.65 337.21 259.02 337.21Z" fill="white"/>
    </g>
        <path id="dragged-item" d="M1207.06 337.21H258.98C249.624 337.21 242.04 344.794 242.04 354.15V700.5C242.04 709.856 249.624 717.44 258.98 717.44H1207.06C1216.42 717.44 1224 709.856 1224 700.5V354.15C1224 344.794 1216.42 337.21 1207.06 337.21Z" fill="#3758F9"/>
    </g>
</svg>
