<svg width="700" height="700" viewBox="0 0 700 700" fill="none" xmlns="http://www.w3.org/2000/svg">
    <g clip-path="url(#clip0_2_14)">
        <path d="M305.047 629.453L238.328 610.094C231.328 608.125 227.391 600.797 229.359 593.797L378.656 79.516C380.625 72.516 387.953 68.5785 394.953 70.5472L461.672 89.9066C468.672 91.8753 472.609 99.2034 470.641 106.203L321.344 620.485C319.266 627.485 312.047 631.532 305.047 629.453ZM180.359 506.735L227.937 455.985C232.969 450.625 232.641 442.094 227.062 437.172L127.969 350L227.062 262.828C232.641 257.907 233.078 249.375 227.937 244.016L180.359 193.266C175.437 188.016 167.125 187.688 161.766 192.719L4.15625 340.375C-1.42188 345.516 -1.42188 354.375 4.15625 359.516L161.766 507.282C167.125 512.313 175.437 512.094 180.359 506.735ZM538.234 507.391L695.844 359.625C701.422 354.485 701.422 345.625 695.844 340.485L538.234 192.61C532.984 187.688 524.672 187.907 519.641 193.157L472.062 243.907C467.031 249.266 467.359 257.797 472.938 262.719L572.031 350L472.938 437.172C467.359 442.094 466.922 450.625 472.062 455.985L519.641 506.735C524.562 512.094 532.875 512.313 538.234 507.391Z" fill="#E3EEFE"/>
    </g>
    <defs>
        <clipPath id="clip0_2_14">
            <rect width="700" height="700" fill="white"/>
        </clipPath>
    </defs>
</svg>
