<svg xmlns="http://www.w3.org/2000/svg" width="1120.5" height="557" viewBox="0 0 1120.5 557">
  <g id="Group_13484" data-name="Group 13484" transform="translate(-160 -44)">
    <circle id="Ellipse_9" data-name="Ellipse 9" cx="10" cy="10" r="10" transform="translate(1172 233)" fill="#69f8e8"/>
    <circle id="Ellipse_10" data-name="Ellipse 10" cx="10" cy="10" r="10" transform="translate(1172 271)" fill="#e6e6e6"/>
    <circle id="Ellipse_9-2" data-name="Ellipse 9" cx="10" cy="10" r="10" transform="translate(1260 158)" fill="#69f8e8"/>
    <circle id="Ellipse_12" data-name="Ellipse 12" cx="10" cy="10" r="10" transform="translate(1260 465)" fill="#69f8e8"/>
    <circle id="Ellipse_10-2" data-name="Ellipse 10" cx="10" cy="10" r="10" transform="translate(1260 196)" fill="#e6e6e6"/>
    <circle id="Ellipse_11" data-name="Ellipse 11" cx="10" cy="10" r="10" transform="translate(1260 503)" fill="#e6e6e6"/>
    <circle id="Ellipse_9-3" data-name="Ellipse 9" cx="10" cy="10" r="10" transform="translate(1128 158)" fill="#69f8e8"/>
    <circle id="Ellipse_10-3" data-name="Ellipse 10" cx="10" cy="10" r="10" transform="translate(1128 196)" fill="#e6e6e6"/>
    <circle id="Ellipse_9-4" data-name="Ellipse 9" cx="10" cy="10" r="10" transform="translate(1128 311)" fill="#69f8e8"/>
    <circle id="Ellipse_10-4" data-name="Ellipse 10" cx="10" cy="10" r="10" transform="translate(1128 349)" fill="#e6e6e6"/>
    <circle id="Ellipse_9-5" data-name="Ellipse 9" cx="10" cy="10" r="10" transform="translate(1040 158)" fill="#69f8e8"/>
    <circle id="Ellipse_10-5" data-name="Ellipse 10" cx="10" cy="10" r="10" transform="translate(1040 196)" fill="#e6e6e6"/>
    <circle id="Ellipse_9-6" data-name="Ellipse 9" cx="10" cy="10" r="10" transform="translate(1216 158)" fill="#69f8e8"/>
    <circle id="Ellipse_10-6" data-name="Ellipse 10" cx="10" cy="10" r="10" transform="translate(1216 196)" fill="#e6e6e6"/>
    <circle id="Ellipse_9-7" data-name="Ellipse 9" cx="10" cy="10" r="10" transform="translate(1216 311)" fill="#69f8e8"/>
    <circle id="Ellipse_10-7" data-name="Ellipse 10" cx="10" cy="10" r="10" transform="translate(1216 349)" fill="#e6e6e6"/>
    <circle id="Ellipse_9-8" data-name="Ellipse 9" cx="10" cy="10" r="10" transform="translate(1084 158)" fill="#69f8e8"/>
    <circle id="Ellipse_10-8" data-name="Ellipse 10" cx="10" cy="10" r="10" transform="translate(1084 196)" fill="#e6e6e6"/>
    <circle id="Ellipse_9-9" data-name="Ellipse 9" cx="10" cy="10" r="10" transform="translate(996 158)" fill="#69f8e8"/>
    <circle id="Ellipse_10-9" data-name="Ellipse 10" cx="10" cy="10" r="10" transform="translate(996 196)" fill="#e6e6e6"/>
    <circle id="Ellipse_9-10" data-name="Ellipse 9" cx="10" cy="10" r="10" transform="translate(248 195)" fill="#69f8e8"/>
    <circle id="Ellipse_10-10" data-name="Ellipse 10" cx="10" cy="10" r="10" transform="translate(248 233)" fill="#e6e6e6"/>
    <circle id="Ellipse_9-11" data-name="Ellipse 9" cx="10" cy="10" r="10" transform="translate(248 348)" fill="#69f8e8"/>
    <circle id="Ellipse_17" data-name="Ellipse 17" cx="10" cy="10" r="10" transform="translate(248 465)" fill="#69f8e8"/>
    <circle id="Ellipse_10-11" data-name="Ellipse 10" cx="10" cy="10" r="10" transform="translate(248 386)" fill="#e6e6e6"/>
    <circle id="Ellipse_16" data-name="Ellipse 16" cx="10" cy="10" r="10" transform="translate(248 503)" fill="#e6e6e6"/>
    <circle id="Ellipse_9-12" data-name="Ellipse 9" cx="10" cy="10" r="10" transform="translate(160 388)" fill="#69f8e8"/>
    <circle id="Ellipse_9-13" data-name="Ellipse 9" cx="10" cy="10" r="10" transform="translate(292 158)" fill="#69f8e8"/>
    <circle id="Ellipse_10-12" data-name="Ellipse 10" cx="10" cy="10" r="10" transform="translate(292 196)" fill="#e6e6e6"/>
    <circle id="Ellipse_9-14" data-name="Ellipse 9" cx="10" cy="10" r="10" transform="translate(292 311)" fill="#69f8e8"/>
    <circle id="Ellipse_10-13" data-name="Ellipse 10" cx="10" cy="10" r="10" transform="translate(292 349)" fill="#e6e6e6"/>
    <circle id="Ellipse_9-15" data-name="Ellipse 9" cx="10" cy="10" r="10" transform="translate(380 158)" fill="#69f8e8"/>
    <circle id="Ellipse_10-14" data-name="Ellipse 10" cx="10" cy="10" r="10" transform="translate(380 196)" fill="#e6e6e6"/>
    <circle id="Ellipse_10-15" data-name="Ellipse 10" cx="10" cy="10" r="10" transform="translate(204 196)" fill="#e6e6e6"/>
    <circle id="Ellipse_9-16" data-name="Ellipse 9" cx="10" cy="10" r="10" transform="translate(204 311)" fill="#69f8e8"/>
    <circle id="Ellipse_10-16" data-name="Ellipse 10" cx="10" cy="10" r="10" transform="translate(204 349)" fill="#e6e6e6"/>
    <circle id="Ellipse_9-17" data-name="Ellipse 9" cx="10" cy="10" r="10" transform="translate(336 275)" fill="#69f8e8"/>
    <circle id="Ellipse_10-17" data-name="Ellipse 10" cx="10" cy="10" r="10" transform="translate(336 313)" fill="#e6e6e6"/>
    <circle id="Ellipse_7" data-name="Ellipse 7" cx="10" cy="10" r="10" transform="translate(1172.5 215) rotate(-90)" fill="#1a65e5"/>
    <circle id="Ellipse_7-2" data-name="Ellipse 7" cx="10" cy="10" r="10" transform="translate(1260.5 140) rotate(-90)" fill="#1a65e5"/>
    <circle id="Ellipse_7-3" data-name="Ellipse 7" cx="10" cy="10" r="10" transform="translate(1260.5 293) rotate(-90)" fill="#1a65e5"/>
    <circle id="Ellipse_7-4" data-name="Ellipse 7" cx="10" cy="10" r="10" transform="translate(1128.5 140) rotate(-90)" fill="#1a65e5"/>
    <circle id="Ellipse_7-5" data-name="Ellipse 7" cx="10" cy="10" r="10" transform="translate(1128.5 293) rotate(-90)" fill="#1a65e5"/>
    <circle id="Ellipse_7-6" data-name="Ellipse 7" cx="10" cy="10" r="10" transform="translate(1040.5 140) rotate(-90)" fill="#1a65e5"/>
    <circle id="Ellipse_7-7" data-name="Ellipse 7" cx="10" cy="10" r="10" transform="translate(1040.5 293) rotate(-90)" fill="#1a65e5"/>
    <circle id="Ellipse_7-8" data-name="Ellipse 7" cx="10" cy="10" r="10" transform="translate(1216.5 140) rotate(-90)" fill="#1a65e5"/>
    <circle id="Ellipse_7-9" data-name="Ellipse 7" cx="10" cy="10" r="10" transform="translate(1216.5 293) rotate(-90)" fill="#1a65e5"/>
    <circle id="Ellipse_7-10" data-name="Ellipse 7" cx="10" cy="10" r="10" transform="translate(1216.5 446) rotate(-90)" fill="#1a65e5"/>
    <circle id="Ellipse_7-11" data-name="Ellipse 7" cx="10" cy="10" r="10" transform="translate(1084.5 140) rotate(-90)" fill="#1a65e5"/>
    <circle id="Ellipse_7-12" data-name="Ellipse 7" cx="10" cy="10" r="10" transform="translate(996.5 140) rotate(-90)" fill="#1a65e5"/>
    <circle id="Ellipse_7-13" data-name="Ellipse 7" cx="10" cy="10" r="10" transform="translate(952.5 140) rotate(-90)" fill="#1a65e5"/>
    <circle id="Ellipse_7-14" data-name="Ellipse 7" cx="10" cy="10" r="10" transform="translate(820.5 140) rotate(-90)" fill="#1a65e5"/>
    <circle id="Ellipse_7-15" data-name="Ellipse 7" cx="10" cy="10" r="10" transform="translate(688.5 101) rotate(-90)" fill="#1a65e5"/>
    <circle id="Ellipse_7-16" data-name="Ellipse 7" cx="10" cy="10" r="10" transform="translate(556.5 140) rotate(-90)" fill="#1a65e5"/>
    <circle id="Ellipse_7-17" data-name="Ellipse 7" cx="10" cy="10" r="10" transform="translate(908.5 140) rotate(-90)" fill="#1a65e5"/>
    <circle id="Ellipse_7-18" data-name="Ellipse 7" cx="10" cy="10" r="10" transform="translate(776.5 140) rotate(-90)" fill="#1a65e5"/>
    <circle id="Ellipse_7-19" data-name="Ellipse 7" cx="10" cy="10" r="10" transform="translate(644.5 140) rotate(-90)" fill="#1a65e5"/>
    <circle id="Ellipse_7-20" data-name="Ellipse 7" cx="10" cy="10" r="10" transform="translate(864.5 140) rotate(-90)" fill="#1a65e5"/>
    <circle id="Ellipse_7-21" data-name="Ellipse 7" cx="10" cy="10" r="10" transform="translate(600.5 140) rotate(-90)" fill="#1a65e5"/>
    <circle id="Ellipse_7-22" data-name="Ellipse 7" cx="10" cy="10" r="10" transform="translate(468.5 140) rotate(-90)" fill="#1a65e5"/>
    <circle id="Ellipse_7-23" data-name="Ellipse 7" cx="10" cy="10" r="10" transform="translate(248.5 177) rotate(-90)" fill="#1a65e5"/>
    <circle id="Ellipse_7-24" data-name="Ellipse 7" cx="10" cy="10" r="10" transform="translate(248.5 330) rotate(-90)" fill="#1a65e5"/>
    <circle id="Ellipse_7-25" data-name="Ellipse 7" cx="10" cy="10" r="10" transform="translate(160.5 370) rotate(-90)" fill="#1a65e5"/>
    <circle id="Ellipse_7-26" data-name="Ellipse 7" cx="10" cy="10" r="10" transform="translate(160.5 523) rotate(-90)" fill="#1a65e5"/>
    <circle id="Ellipse_7-27" data-name="Ellipse 7" cx="10" cy="10" r="10" transform="translate(292.5 140) rotate(-90)" fill="#1a65e5"/>
    <circle id="Ellipse_7-28" data-name="Ellipse 7" cx="10" cy="10" r="10" transform="translate(292.5 293) rotate(-90)" fill="#1a65e5"/>
    <circle id="Ellipse_7-29" data-name="Ellipse 7" cx="10" cy="10" r="10" transform="translate(380.5 140) rotate(-90)" fill="#1a65e5"/>
    <circle id="Ellipse_7-30" data-name="Ellipse 7" cx="10" cy="10" r="10" transform="translate(380.5 293) rotate(-90)" fill="#1a65e5"/>
    <circle id="Ellipse_7-31" data-name="Ellipse 7" cx="10" cy="10" r="10" transform="translate(204.5 140) rotate(-90)" fill="#1a65e5"/>
    <circle id="Ellipse_7-32" data-name="Ellipse 7" cx="10" cy="10" r="10" transform="translate(204.5 293) rotate(-90)" fill="#1a65e5"/>
    <circle id="Ellipse_7-33" data-name="Ellipse 7" cx="10" cy="10" r="10" transform="translate(204.5 446) rotate(-90)" fill="#1a65e5"/>
    <circle id="Ellipse_7-34" data-name="Ellipse 7" cx="10" cy="10" r="10" transform="translate(336.5 257) rotate(-90)" fill="#1a65e5"/>
    <circle id="Ellipse_7-35" data-name="Ellipse 7" cx="10" cy="10" r="10" transform="translate(336.5 410) rotate(-90)" fill="#1a65e5"/>
    <circle id="Ellipse_7-36" data-name="Ellipse 7" cx="10" cy="10" r="10" transform="translate(424.5 140) rotate(-90)" fill="#1a65e5"/>
    <circle id="Ellipse_8" data-name="Ellipse 8" cx="10" cy="10" r="10" transform="translate(1172.5 178) rotate(-90)" fill="#fc9620"/>
    <circle id="Ellipse_8-2" data-name="Ellipse 8" cx="10" cy="10" r="10" transform="translate(1172.5 331) rotate(-90)" fill="#fc9620"/>
    <circle id="Ellipse_8-3" data-name="Ellipse 8" cx="10" cy="10" r="10" transform="translate(1260.5 103) rotate(-90)" fill="#fc9620"/>
    <circle id="Ellipse_8-4" data-name="Ellipse 8" cx="10" cy="10" r="10" transform="translate(1260.5 256) rotate(-90)" fill="#fc9620"/>
    <circle id="Ellipse_8-5" data-name="Ellipse 8" cx="10" cy="10" r="10" transform="translate(1128.5 103) rotate(-90)" fill="#fc9620"/>
    <circle id="Ellipse_8-6" data-name="Ellipse 8" cx="10" cy="10" r="10" transform="translate(1128.5 256) rotate(-90)" fill="#fc9620"/>
    <circle id="Ellipse_8-7" data-name="Ellipse 8" cx="10" cy="10" r="10" transform="translate(1040.5 103) rotate(-90)" fill="#fc9620"/>
    <circle id="Ellipse_8-8" data-name="Ellipse 8" cx="10" cy="10" r="10" transform="translate(1040.5 256) rotate(-90)" fill="#fc9620"/>
    <circle id="Ellipse_8-9" data-name="Ellipse 8" cx="10" cy="10" r="10" transform="translate(1216.5 103) rotate(-90)" fill="#fc9620"/>
    <circle id="Ellipse_8-10" data-name="Ellipse 8" cx="10" cy="10" r="10" transform="translate(1216.5 256) rotate(-90)" fill="#fc9620"/>
    <circle id="Ellipse_8-11" data-name="Ellipse 8" cx="10" cy="10" r="10" transform="translate(1216.5 409) rotate(-90)" fill="#fc9620"/>
    <circle id="Ellipse_8-12" data-name="Ellipse 8" cx="10" cy="10" r="10" transform="translate(1084.5 103) rotate(-90)" fill="#fc9620"/>
    <circle id="Ellipse_8-13" data-name="Ellipse 8" cx="10" cy="10" r="10" transform="translate(1084.5 256) rotate(-90)" fill="#fc9620"/>
    <circle id="Ellipse_8-14" data-name="Ellipse 8" cx="10" cy="10" r="10" transform="translate(952.5 103) rotate(-90)" fill="#fc9620"/>
    <circle id="Ellipse_8-15" data-name="Ellipse 8" cx="10" cy="10" r="10" transform="translate(820.5 103) rotate(-90)" fill="#fc9620"/>
    <circle id="Ellipse_8-16" data-name="Ellipse 8" cx="10" cy="10" r="10" transform="translate(688.5 64) rotate(-90)" fill="#fc9620"/>
    <circle id="Ellipse_8-17" data-name="Ellipse 8" cx="10" cy="10" r="10" transform="translate(556.5 103) rotate(-90)" fill="#fc9620"/>
    <circle id="Ellipse_8-18" data-name="Ellipse 8" cx="10" cy="10" r="10" transform="translate(776.5 103) rotate(-90)" fill="#fc9620"/>
    <circle id="Ellipse_8-19" data-name="Ellipse 8" cx="10" cy="10" r="10" transform="translate(644.5 103) rotate(-90)" fill="#fc9620"/>
    <circle id="Ellipse_8-20" data-name="Ellipse 8" cx="10" cy="10" r="10" transform="translate(512.5 140) rotate(-90)" fill="#fc9620"/>
    <circle id="Ellipse_8-21" data-name="Ellipse 8" cx="10" cy="10" r="10" transform="translate(864.5 103) rotate(-90)" fill="#fc9620"/>
    <circle id="Ellipse_8-22" data-name="Ellipse 8" cx="10" cy="10" r="10" transform="translate(732.5 103) rotate(-90)" fill="#fc9620"/>
    <circle id="Ellipse_8-23" data-name="Ellipse 8" cx="10" cy="10" r="10" transform="translate(468.5 103) rotate(-90)" fill="#fc9620"/>
    <circle id="Ellipse_8-24" data-name="Ellipse 8" cx="10" cy="10" r="10" transform="translate(248.5 140) rotate(-90)" fill="#fc9620"/>
    <circle id="Ellipse_8-25" data-name="Ellipse 8" cx="10" cy="10" r="10" transform="translate(248.5 293) rotate(-90)" fill="#fc9620"/>
    <circle id="Ellipse_8-26" data-name="Ellipse 8" cx="10" cy="10" r="10" transform="translate(160.5 333) rotate(-90)" fill="#fc9620"/>
    <circle id="Ellipse_8-27" data-name="Ellipse 8" cx="10" cy="10" r="10" transform="translate(160.5 486) rotate(-90)" fill="#fc9620"/>
    <circle id="Ellipse_15" data-name="Ellipse 15" cx="10" cy="10" r="10" transform="translate(160.5 601) rotate(-90)" fill="#fc9620"/>
    <circle id="Ellipse_8-28" data-name="Ellipse 8" cx="10" cy="10" r="10" transform="translate(292.5 103) rotate(-90)" fill="#fc9620"/>
    <circle id="Ellipse_8-29" data-name="Ellipse 8" cx="10" cy="10" r="10" transform="translate(292.5 256) rotate(-90)" fill="#fc9620"/>
    <circle id="Ellipse_8-30" data-name="Ellipse 8" cx="10" cy="10" r="10" transform="translate(380.5 103) rotate(-90)" fill="#fc9620"/>
    <circle id="Ellipse_8-31" data-name="Ellipse 8" cx="10" cy="10" r="10" transform="translate(380.5 256) rotate(-90)" fill="#fc9620"/>
    <circle id="Ellipse_8-32" data-name="Ellipse 8" cx="10" cy="10" r="10" transform="translate(204.5 103) rotate(-90)" fill="#fc9620"/>
    <circle id="Ellipse_8-33" data-name="Ellipse 8" cx="10" cy="10" r="10" transform="translate(204.5 256) rotate(-90)" fill="#fc9620"/>
    <circle id="Ellipse_8-34" data-name="Ellipse 8" cx="10" cy="10" r="10" transform="translate(204.5 409) rotate(-90)" fill="#fc9620"/>
    <circle id="Ellipse_8-35" data-name="Ellipse 8" cx="10" cy="10" r="10" transform="translate(336.5 220) rotate(-90)" fill="#fc9620"/>
    <circle id="Ellipse_8-36" data-name="Ellipse 8" cx="10" cy="10" r="10" transform="translate(336.5 373) rotate(-90)" fill="#fc9620"/>
    <circle id="Ellipse_8-37" data-name="Ellipse 8" cx="10" cy="10" r="10" transform="translate(424.5 103) rotate(-90)" fill="#fc9620"/>
    <circle id="Ellipse_9-18" data-name="Ellipse 9" cx="10" cy="10" r="10" transform="translate(424 158)" fill="#69f8e8"/>
    <circle id="Ellipse_10-18" data-name="Ellipse 10" cx="10" cy="10" r="10" transform="translate(424 196)" fill="#e6e6e6"/>
  </g>
</svg>
