<svg xmlns="http://www.w3.org/2000/svg" width="75.874" height="113.361" viewBox="0 0 75.874 113.361">
  <g id="Group_12970" data-name="Group 12970" transform="translate(-1231.104 -136.105)">
    <g id="Group_12969" data-name="Group 12969" transform="translate(-6.896 -6.896)">
      <circle id="Ellipse_1308" data-name="Ellipse 1308" cx="37.937" cy="37.937" r="37.937" transform="translate(1238 143)" fill="#f07"/>
      <g id="Group_12968" data-name="Group 12968" transform="translate(1258.776 171.11)">
        <path id="Path_25813" data-name="Path 25813" d="M-14955.511-12613.02l-3.529-5.1a8.513,8.513,0,0,0-7.152-3.709h-9.078" transform="translate(14990.288 12633.896)" fill="none" stroke="#fff" stroke-linecap="square" stroke-width="6"/>
        <path id="Path_25815" data-name="Path 25815" d="M-14975.271-12613.02l3.529-5.1a8.513,8.513,0,0,1,7.152-3.709h9.078" transform="translate(14975.723 12633.896)" fill="none" stroke="#fff" stroke-linecap="square" stroke-width="6"/>
        <path id="Path_25814" data-name="Path 25814" d="M-15039.112-12553.882h34.775" transform="translate(15039.112 12555.882)" fill="none" stroke="#fff" stroke-linecap="square" stroke-width="6"/>
      </g>
    </g>
    <path id="Path_25816" data-name="Path 25816" d="M-56.518.422h-.518V-4.206h.518Zm-.534,4.66a3.209,3.209,0,0,1-.955,2.362,3.209,3.209,0,0,1-2.362.955H-74.949a3.209,3.209,0,0,1-2.362-.955,3.209,3.209,0,0,1-.955-2.362v-9.4h6.634V3.755h7.945V-12.312h6.634Zm10.874,1a2.557,2.557,0,0,1-.777,1.877,2.557,2.557,0,0,1-1.877.777,2.557,2.557,0,0,1-1.877-.777,2.557,2.557,0,0,1-.777-1.877A2.552,2.552,0,0,1-50.7,4.216a2.552,2.552,0,0,1,1.869-.785,2.557,2.557,0,0,1,1.877.777A2.557,2.557,0,0,1-46.179,6.085Zm2.395-8.964a3.176,3.176,0,0,1-.963,2.346A3.216,3.216,0,0,1-47.1.422H-57.57V-4.206H-50.4v-7.945h6.618Zm28.64,3.3h-.518V-4.206h.518Zm-.518,4.66a3.209,3.209,0,0,1-.955,2.362,3.209,3.209,0,0,1-2.362.955H-35.548a3.209,3.209,0,0,1-2.362-.955,3.209,3.209,0,0,1-.955-2.362V-4.749h6.634v8.5H-22.3V.422h-6.618V-4.206h13.252ZM-2.393-2.879A3.176,3.176,0,0,1-3.355-.533,3.216,3.216,0,0,1-5.71.422H-16.179V-4.206h7.168v-7.945h6.618Zm-9.806-6.5a2.557,2.557,0,0,1-.777,1.877,2.557,2.557,0,0,1-1.877.777,2.552,2.552,0,0,1-1.869-.785,2.552,2.552,0,0,1-.785-1.869,2.557,2.557,0,0,1,.777-1.877,2.557,2.557,0,0,1,1.877-.777,2.557,2.557,0,0,1,1.877.777A2.557,2.557,0,0,1-12.2-9.384Zm-5.324,0A2.557,2.557,0,0,1-18.3-7.507a2.557,2.557,0,0,1-1.877.777,2.552,2.552,0,0,1-1.869-.785,2.552,2.552,0,0,1-.785-1.869,2.557,2.557,0,0,1,.777-1.877,2.557,2.557,0,0,1,1.877-.777,2.557,2.557,0,0,1,1.877.777A2.557,2.557,0,0,1-17.522-9.384Z" transform="translate(1309.371 240.729)" fill="#606060"/>
  </g>
</svg>
