<svg xmlns="http://www.w3.org/2000/svg" width="123.584" height="46.039" viewBox="0 0 123.584 46.039">
  <g id="Group_12983" data-name="Group 12983" transform="translate(-1155.105 -147.961)">
    <g id="Group_12969" data-name="Group 12969" transform="translate(1232.65 147.96)">
      <circle id="Ellipse_1308" data-name="Ellipse 1308" cx="23.02" cy="23.02" r="23.02" fill="#f07"/>
      <g id="Group_12968" data-name="Group 12968" transform="translate(12.607 18.271)">
        <path id="Path_25813" data-name="Path 25813" d="M-14963.281-12616.484l-2.143-3.1a5.161,5.161,0,0,0-4.338-2.25h-5.51" transform="translate(14984.384 12627.938)" fill="none" stroke="#fff" stroke-linecap="square" stroke-width="4"/>
        <path id="Path_25815" data-name="Path 25815" d="M-14975.271-12616.484l2.143-3.1a5.166,5.166,0,0,1,4.34-2.25h5.508" transform="translate(14975.546 12627.938)" fill="none" stroke="#fff" stroke-linecap="square" stroke-width="4"/>
        <path id="Path_25814" data-name="Path 25814" d="M-15039.113-12553.882h21.1" transform="translate(15039.113 12553.882)" fill="none" stroke="#fff" stroke-linecap="square" stroke-width="4"/>
      </g>
    </g>
    <path id="Path_25816" data-name="Path 25816" d="M-59.071-1.073h-.457V-5.157h.457Zm-.471,4.113a2.832,2.832,0,0,1-.843,2.085,2.832,2.832,0,0,1-2.085.843H-75.338a2.832,2.832,0,0,1-2.085-.843,2.832,2.832,0,0,1-.843-2.085v-8.3h5.856V1.87H-65.4V-12.312h5.856Zm9.6.885a2.257,2.257,0,0,1-.686,1.657,2.257,2.257,0,0,1-1.657.686,2.257,2.257,0,0,1-1.657-.686,2.257,2.257,0,0,1-.686-1.657,2.253,2.253,0,0,1,.693-1.65,2.253,2.253,0,0,1,1.65-.693,2.257,2.257,0,0,1,1.657.686A2.257,2.257,0,0,1-49.944,3.926Zm2.114-7.912a2.8,2.8,0,0,1-.85,2.071,2.839,2.839,0,0,1-2.078.843H-60V-5.157h6.327V-12.17h5.841Zm25.279,2.914h-.457V-5.157h.457Zm-.457,4.113a2.832,2.832,0,0,1-.843,2.085,2.832,2.832,0,0,1-2.085.843H-40.561a2.832,2.832,0,0,1-2.085-.843,2.832,2.832,0,0,1-.843-2.085V-5.636h5.856V1.87h8.769V-1.073h-5.841V-5.157h11.7ZM-11.3-3.986a2.8,2.8,0,0,1-.85,2.071,2.839,2.839,0,0,1-2.078.843h-9.241V-5.157h6.327V-12.17H-11.3Zm-8.655-5.741a2.257,2.257,0,0,1-.686,1.657,2.257,2.257,0,0,1-1.657.686,2.253,2.253,0,0,1-1.65-.693,2.253,2.253,0,0,1-.693-1.65,2.257,2.257,0,0,1,.686-1.657,2.257,2.257,0,0,1,1.657-.686,2.257,2.257,0,0,1,1.657.686A2.257,2.257,0,0,1-19.952-9.727Zm-4.7,0a2.257,2.257,0,0,1-.686,1.657,2.257,2.257,0,0,1-1.657.686,2.253,2.253,0,0,1-1.65-.693,2.253,2.253,0,0,1-.693-1.65,2.257,2.257,0,0,1,.686-1.657,2.257,2.257,0,0,1,1.657-.686,2.257,2.257,0,0,1,1.657.686A2.257,2.257,0,0,1-24.651-9.727Z" transform="translate(1233.371 173.915)" fill="#606060"/>
  </g>
</svg>
