<svg xmlns="http://www.w3.org/2000/svg" width="82" height="79" viewBox="0 0 82 79">
    <g fill="none" fill-rule="nonzero">
        <path fill="#FB944D" d="M50.126 48.021a19.344 19.344 0 0 0 12.064-18.21c0-10.963-9.473-19.881-21.116-19.881-11.644 0-21.116 8.918-21.116 19.882a19.343 19.343 0 0 0 12.064 18.21l.164.088 1.117 1.834a4.175 4.175 0 0 0-.985 6.435 4.204 4.204 0 0 0 3.125 7.038h11.262a4.205 4.205 0 0 0 3.124-7.038 4.174 4.174 0 0 0-.985-6.435l1.118-1.834.164-.089zm-3.422 12.581H35.443a1.408 1.408 0 1 1 0-2.815h11.261a1.408 1.408 0 1 1 0 2.815zm0-5.63H35.443a1.408 1.408 0 1 1 0-2.815h11.261a1.408 1.408 0 1 1 0 2.815zm2.144-9.46l-.563.305c-.218.119-.4.293-.53.505l-1.841 3.02h-.617V38.664l6.626-6.626-1.99-1.99-7.04 7.038a1.408 1.408 0 0 0-.412.995v11.26h-2.815v-11.26c0-.374-.149-.731-.413-.995l-7.038-7.038-1.99 1.99 6.625 6.626v10.678h-.617l-1.84-3.02a1.415 1.415 0 0 0-.53-.505l-.564-.306a1.51 1.51 0 0 0-.138-.065 16.574 16.574 0 0 1-10.388-15.634c0-9.41 8.21-17.067 18.3-17.067 10.092 0 18.301 7.656 18.301 17.067a16.575 16.575 0 0 1-10.387 15.634c-.048.02-.094.041-.14.065zM10.881 12.596l1.26-2.517 8.445 4.222-1.259 2.518zM61.225 13.607l8.958-2.988.89 2.67-8.957 2.988z"/>
        <path fill="#FB944D" fill-opacity=".423" d="M5.88 28.228h8.446v2.815H5.88zM67.82 28.228h8.446v2.815H67.82z"/>
        <path fill="#FB944D" d="M10.881 49.488l8.446-4.222 1.26 2.518-8.446 4.222zM61.56 47.789l1.258-2.518 8.446 4.222-1.26 2.518z"/>
        <path fill="#FB944D" fill-opacity=".423" d="M39.666.077h2.815v7.038h-2.815z"/>
        <path fill="#555" d="M81.898 66.232v-2.815c-18.366 0-37.882 4.44-38.008 12.668h-5.633C38.132 67.856 18.615 63.417.25 63.417v2.815c20.623 0 35.023 5.176 35.185 9.853H.25v2.816h81.648v-2.816H46.712c.162-4.677 14.563-9.853 35.186-9.853z"/>
        <path fill="#555" d="M.175 73.27l.148-2.811 26.752 1.409-.148 2.811zM55.074 71.868l26.751-1.412.148 2.812-26.751 1.411z"/>
    </g>
</svg>
