<svg xmlns="http://www.w3.org/2000/svg" width="46" height="38" viewBox="0 0 46 38">
    <path fill="#FB944D" fill-rule="nonzero" stroke="#FB944D" d="M45.02 13.266v16.51a1 1 0 1 1-2 0V16.129a3.603 3.603 0 0 1-.051.024l-3.897 1.832c-.004 3.232-.235 6.855-.692 10.869a7 7 0 0 1-2.969 4.962c-2.98 2.065-7.114 3.08-12.392 3.08-5.343 0-9.496-1.04-12.443-3.16a7 7 0 0 1-2.853-4.754c-.465-3.47-.7-7.128-.704-10.972l-3.95-1.857a3.6 3.6 0 0 1 0-6.516l15.81-7.431c1.49-.7 2.167-.947 2.985-1.098a6.261 6.261 0 0 1 2.31 0c.818.151 1.496.398 2.985 1.098l15.81 7.431a3.602 3.602 0 0 1 2.05 3.63zm-7.956 5.662l-9.905 4.655c-1.49.7-2.167.947-2.985 1.098a6.261 6.261 0 0 1-2.31 0c-.818-.15-1.496-.398-2.985-1.098l-9.854-4.631c.039 3.412.266 6.667.68 9.763a5 5 0 0 0 2.038 3.397c2.563 1.842 6.317 2.782 11.276 2.782 4.903 0 8.65-.92 11.253-2.723a5 5 0 0 0 2.12-3.544c.405-3.554.629-6.788.672-9.7zm5.821-5.353a1.6 1.6 0 0 0-.767-2.129l-15.81-7.431c-1.347-.633-1.878-.827-2.496-.94-.54-.1-1.047-.1-1.586 0-.617.113-1.149.307-2.496.94L3.92 11.446a1.6 1.6 0 0 0 0 2.896l15.81 7.431c1.347.634 1.879.827 2.496.94.54.1 1.047.1 1.586 0 .618-.113 1.15-.306 2.496-.94l15.81-7.43a1.6 1.6 0 0 0 .767-.768z"/>
</svg>
