<svg xmlns="http://www.w3.org/2000/svg" width="82" height="80" viewBox="0 0 82 80">
    <g fill="none" fill-rule="nonzero">
        <path fill="#FB944D" d="M80.799 47.333H67.815a1.2 1.2 0 0 0-1.197 1.294c.083 1.131.684 2.16 1.609 2.752a4.633 4.633 0 0 1 2.119 4.15c-.127 2.291-2.014 4.198-4.295 4.342a4.557 4.557 0 0 1-3.448-1.241 4.581 4.581 0 0 1-1.453-3.367c0-1.574.79-3.022 2.116-3.877a3.625 3.625 0 0 0 1.622-2.756 1.207 1.207 0 0 0-1.198-1.297H50.78c-.664 0-1.202.54-1.202 1.205v10.66a6.96 6.96 0 0 0-5.428-2.592 7.021 7.021 0 0 0-6.991 7.476c.221 3.544 3.055 6.366 6.592 6.563a7.012 7.012 0 0 0 5.827-2.581v10.585c0 .665.538 1.205 1.201 1.205h14.115c.663 0 1.2-.54 1.2-1.205s-.537-1.205-1.2-1.205H51.98V65.708a1.206 1.206 0 0 0-1.324-1.198 3.525 3.525 0 0 0-2.633 1.605 4.606 4.606 0 0 1-4.138 2.125c-2.284-.128-4.185-2.02-4.328-4.308a4.596 4.596 0 0 1 1.239-3.461 4.552 4.552 0 0 1 3.354-1.455c1.568 0 3.013.793 3.865 2.12a3.553 3.553 0 0 0 2.638 1.616c.34.036.677-.074.93-.302.253-.229.397-.554.397-.896V49.743h9.448a6.99 6.99 0 0 0-2.68 5.52c0 1.932.805 3.8 2.21 5.123a6.937 6.937 0 0 0 5.243 1.89c3.534-.223 6.347-3.066 6.543-6.614a7.054 7.054 0 0 0-2.67-5.919h9.524v21c0 3.695-2.998 6.701-6.682 6.701h-3.219c-.663 0-1.2.54-1.2 1.205s.537 1.205 1.2 1.205h3.22c5.008 0 9.083-4.088 9.083-9.112V48.538c0-.665-.538-1.205-1.201-1.205z"/>
        <path fill="#555" d="M24.591 41.94c1.569 0 3.014.792 3.865 2.119a3.553 3.553 0 0 0 2.639 1.617 1.2 1.2 0 0 0 1.327-1.198V32.666h9.448a6.99 6.99 0 0 0-2.68 5.52c0 1.933.805 3.8 2.21 5.123a6.923 6.923 0 0 0 5.242 1.89c3.534-.223 6.347-3.065 6.544-6.613a7.053 7.053 0 0 0-2.67-5.92H61.24c.664 0 1.201-.54 1.201-1.204V9.257c0-5.024-4.074-9.11-9.083-9.11H16.906c-.663 0-1.201.539-1.201 1.204 0 .665.538 1.205 1.201 1.205H30.02v11.888a1.2 1.2 0 0 0 1.324 1.199 3.526 3.526 0 0 0 2.633-1.606 4.617 4.617 0 0 1 4.138-2.126c1.856.103 3.46 1.373 4.072 3.073a4.464 4.464 0 0 1 .257 1.237 4.596 4.596 0 0 1-1.24 3.46 4.552 4.552 0 0 1-3.354 1.456 4.58 4.58 0 0 1-3.866-2.124 3.559 3.559 0 0 0-2.637-1.615 1.196 1.196 0 0 0-.93.302 1.206 1.206 0 0 0-.397.896v11.66h-1.883c-.663 0-1.201.54-1.201 1.206 0 .665.538 1.204 1.201 1.204h1.883v9.455a6.96 6.96 0 0 0-5.429-2.592 7.022 7.022 0 0 0-6.99 7.476c.22 3.545 3.055 6.366 6.591 6.563a7.009 7.009 0 0 0 5.827-2.581v9.38H9.084c-3.684 0-6.682-3.006-6.682-6.701v-21H14.17a1.2 1.2 0 0 0 1.19-1.365 3.55 3.55 0 0 0-1.586-2.53 4.63 4.63 0 0 1-2.119-4.147c.127-2.291 2.014-4.198 4.295-4.342a4.557 4.557 0 0 1 3.45 1.241 4.578 4.578 0 0 1 1.45 3.364c0 1.575-.79 3.025-2.115 3.88a3.595 3.595 0 0 0-1.595 2.528 1.207 1.207 0 0 0 1.19 1.371h5.004c.663 0 1.201-.54 1.201-1.204 0-.666-.538-1.205-1.201-1.205H20.76a6.993 6.993 0 0 0 2.492-5.37 7.062 7.062 0 0 0-2.209-5.12 6.937 6.937 0 0 0-5.244-1.89c-3.533.222-6.347 3.065-6.543 6.613a7.053 7.053 0 0 0 2.485 5.767H2.402v-21c0-3.695 2.998-6.701 6.682-6.701h3.018c.663 0 1.2-.54 1.2-1.205s-.537-1.205-1.2-1.205H9.084C4.074.146 0 4.233 0 9.257v44.409c0 5.024 4.075 9.111 9.084 9.111H31.22c.663 0 1.2-.54 1.2-1.205v-12.94a1.206 1.206 0 0 0-1.324-1.199 3.526 3.526 0 0 0-2.633 1.606 4.609 4.609 0 0 1-4.138 2.124c-2.284-.127-4.185-2.02-4.328-4.308a4.596 4.596 0 0 1 1.24-3.46 4.553 4.553 0 0 1 3.353-1.456zm7.83-20.988a6.96 6.96 0 0 0 5.429 2.595 7.02 7.02 0 0 0 5.104-2.215 6.987 6.987 0 0 0 1.887-5.261c-.221-3.546-3.055-6.369-6.593-6.566a7.02 7.02 0 0 0-5.826 2.584V2.556h20.936c3.684 0 6.681 3.006 6.681 6.701v21H48.257a1.2 1.2 0 0 0-1.198 1.294c.083 1.13.685 2.159 1.61 2.751a4.633 4.633 0 0 1 2.118 4.15c-.127 2.291-2.013 4.198-4.295 4.342a4.555 4.555 0 0 1-3.448-1.241 4.58 4.58 0 0 1-1.452-3.367c0-1.573.79-3.022 2.116-3.876a3.625 3.625 0 0 0 1.621-2.756 1.207 1.207 0 0 0-1.197-1.297h-11.71v-9.305z"/>
    </g>
</svg>
