<svg xmlns="http://www.w3.org/2000/svg" width="74" height="82" viewBox="0 0 74 82">
    <g fill="none" fill-rule="nonzero">
        <path fill="#555" d="M71.119 0H24.935a2.803 2.803 0 0 0-2.797 2.803V33.53L7.515 17.217a2.36 2.36 0 0 0-1.643-.787 2.356 2.356 0 0 0-1.716.607L.868 19.996a2.39 2.39 0 0 0-.18 3.366l20.656 23.043c.225.251.496.446.794.58v18.541h-4.66a1.2 1.2 0 0 0-1.198 1.202 1.2 1.2 0 0 0 1.199 1.2h33.046c.22 0 .4.18.4.401v2.47c0 3.564 1.67 6.745 4.268 8.798H12.719c-4.842 0-8.781-3.947-8.781-8.8V68.33c0-.22.179-.4.4-.4h7.92a1.2 1.2 0 0 0 0-2.403h-7.92A2.803 2.803 0 0 0 1.54 68.33v2.469c0 6.176 5.015 11.201 11.18 11.201h50.017c6.164 0 11.179-5.025 11.179-11.201V38.11a1.2 1.2 0 1 0-2.398 0v32.687c0 4.852-3.94 8.8-8.781 8.8h-.634c-4.842 0-8.781-3.947-8.781-8.8V68.33a2.803 2.803 0 0 0-2.797-2.803h-25.99V47.854l3.42 1.704a1.897 1.897 0 0 0 2.123-.29 1.903 1.903 0 0 0 .514-2.084l-1.838-4.981a2.37 2.37 0 0 0-.583-1.943l-3.636-4.055V2.803c0-.221.18-.4.4-.4h46.184c.22 0 .4.179.4.4v15.664a1.2 1.2 0 1 0 2.397 0V2.803A2.803 2.803 0 0 0 71.119 0zM5.744 18.836l1.423 1.588-3.26 2.935-1.423-1.588 3.26-2.935zm-.235 6.31l.739-.665 17.605 19.64-.738.665-17.606-19.64zM25.655 45.73l1.384-1.246.876 2.371-2.26-1.125zm-.018-3.213L8.03 22.876l.738-.664 17.606 19.64-.738.664z"/>
        <path fill="#555" d="M72.717 22.497a1.2 1.2 0 0 0-1.199 1.201v9.182a1.2 1.2 0 1 0 2.398 0v-9.182a1.2 1.2 0 0 0-1.199-1.201z"/>
        <path fill="#FB944D" d="M34.23 24.12a4.11 4.11 0 0 0 0 8.22 4.11 4.11 0 0 0 0-8.22zm0 5.818a1.707 1.707 0 0 1 0-3.415 1.708 1.708 0 0 1 0 3.415zM41.938 29.69h5.874a1.2 1.2 0 0 0 0-2.403h-5.874a1.2 1.2 0 0 0 0 2.403zM62.413 30.166H41.938a1.2 1.2 0 1 0 0 2.402h20.475a1.2 1.2 0 0 0 0-2.402zM41.945 26.295h.008a1.2 1.2 0 0 0-.008-2.402h-.02A1.194 1.194 0 0 0 40.74 25.1c.004.661.546 1.194 1.205 1.194zM34.23 36.809a4.11 4.11 0 0 0 0 8.22 4.11 4.11 0 0 0 0-8.22zm0 5.818a1.707 1.707 0 0 1 0-3.416 1.708 1.708 0 0 1 0 3.416zM41.938 42.378h5.874a1.2 1.2 0 0 0 0-2.402h-5.874a1.2 1.2 0 0 0 0 2.402zM62.413 42.855H41.938a1.2 1.2 0 1 0 0 2.402h20.475a1.2 1.2 0 0 0 0-2.402zM41.945 38.983h.008a1.2 1.2 0 1 0-.007-2.402H41.924a1.195 1.195 0 0 0-1.185 1.208 1.204 1.204 0 0 0 1.205 1.194zM34.23 49.498a4.11 4.11 0 0 0 0 8.22 4.11 4.11 0 0 0 0-8.22zm0 5.817a1.707 1.707 0 0 1 0-3.415 1.708 1.708 0 0 1 0 3.415zM41.938 55.067h5.874a1.2 1.2 0 0 0 0-2.402h-5.874a1.2 1.2 0 0 0 0 2.402zM41.938 57.946h20.475a1.2 1.2 0 0 0 0-2.402H41.938a1.2 1.2 0 1 0 0 2.402zM41.945 51.672h.008a1.2 1.2 0 0 0-.008-2.402h-.02a1.194 1.194 0 0 0-1.185 1.209c.004.66.546 1.193 1.205 1.193zM65.406 15.74V8.774a1.2 1.2 0 0 0-1.199-1.201h-32.36a1.2 1.2 0 0 0-1.199 1.201v6.966a1.2 1.2 0 0 0 1.199 1.202h32.36a1.2 1.2 0 0 0 1.2-1.202zm-2.397-1.2H33.046V9.974h29.963v4.564z"/>
    </g>
</svg>
