<svg xmlns="http://www.w3.org/2000/svg" width="82" height="79" viewBox="0 0 82 79">
    <g fill="none" fill-rule="nonzero">
        <path fill="#FB944D" d="M46.37 13.983c-3.924-3.901-9.14-6.05-14.688-6.05-5.549 0-10.765 2.149-14.688 6.05-8.099 8.054-8.099 21.16 0 29.214 3.923 3.902 9.14 6.05 14.688 6.05s10.764-2.148 14.688-6.05c3.923-3.902 6.083-9.09 6.083-14.607 0-5.518-2.16-10.705-6.083-14.607zm-27.703 1.664c3.476-3.457 8.098-5.361 13.015-5.361 4.916 0 9.538 1.904 13.014 5.36 2.744 2.73 4.514 6.168 5.139 9.9l-6.448 6.27a4.22 4.22 0 0 0-5.569 1.327l-9.477-2.957.002-.082c0-2.312-1.891-4.192-4.215-4.192-2.325 0-4.216 1.88-4.216 4.192 0 .756.203 1.465.556 2.078l-4.972 5.126c-3.773-6.938-2.717-15.806 3.17-21.661zm24.505 19.822c0 1.015-.83 1.84-1.85 1.84s-1.85-.825-1.85-1.84c0-1.014.83-1.84 1.85-1.84s1.85.826 1.85 1.84zm-17.194-5.365c0 1.014-.83 1.84-1.85 1.84s-1.85-.826-1.85-1.84c0-1.015.83-1.84 1.85-1.84s1.85.825 1.85 1.84zm18.719 11.43c-3.477 3.457-8.099 5.36-13.015 5.36-4.917 0-9.539-1.903-13.015-5.36a18.392 18.392 0 0 1-1.872-2.177l5.376-5.542a4.22 4.22 0 0 0 5.461-1.385l9.477 2.957-.002.082c0 2.312 1.891 4.193 4.216 4.193 2.324 0 4.215-1.881 4.215-4.193 0-.712-.18-1.383-.496-1.971l5.046-4.907c0 4.889-1.915 9.485-5.391 12.943z"/>
        <path fill="#555" d="M21.207 16.59l1.552 1.775c3.668-3.17 8.811-4.148 13.423-2.55l.778-2.222c-5.41-1.874-11.446-.726-15.753 2.997zM39.996 15.018l-1.23 2.01c.625.379 1.226.814 1.785 1.292l1.543-1.784a15.978 15.978 0 0 0-2.098-1.518zM34.512 41.828a13.709 13.709 0 0 1-7.911-.678l-.88 2.183A16.051 16.051 0 0 0 35 44.13l-.488-2.302z"/>
        <path fill="#555" d="M61.313 47.49l-1.717 1.708-4.261-4.53c5.043-7.331 6.257-16.503 3.64-24.72l3.382-3.289c.594.32 1.274.501 1.996.501 2.325 0 4.216-1.88 4.216-4.192 0-.684-.167-1.33-.461-1.902l7.258-7.058v3.648h2.365V.036H70.07V2.39h3.578l-7.162 6.965a4.206 4.206 0 0 0-2.131-.578c-2.325 0-4.216 1.88-4.216 4.192 0 .74.194 1.435.534 2.039l-2.591 2.52a28.328 28.328 0 0 0-6.141-9.083c-11.17-11.11-29.346-11.109-40.516 0-9.95 9.895-11.037 25.32-3.26 36.422L6.172 46.92a4.206 4.206 0 0 0-1.957-.48C1.891 46.439 0 48.319 0 50.63c0 2.311 1.891 4.192 4.215 4.192 2.325 0 4.216-1.88 4.216-4.192 0-.756-.203-1.465-.557-2.078l1.74-1.794c.567.68 1.17 1.34 1.81 1.978 5.585 5.554 12.921 8.331 20.258 8.331a28.73 28.73 0 0 0 16.102-4.912l4.271 4.54-1.776 1.767 20.687 20.5L82 67.992 61.313 47.49zm3.04-36.362c1.02 0 1.85.826 1.85 1.84 0 1.014-.83 1.84-1.85 1.84s-1.85-.826-1.85-1.84c0-1.014.83-1.84 1.85-1.84zM4.216 52.47c-1.02 0-1.85-.825-1.85-1.84 0-1.014.83-1.84 1.85-1.84s1.85.826 1.85 1.84c0 1.015-.83 1.84-1.85 1.84zm8.881-5.397C2.85 36.882 2.85 20.3 13.096 10.107c5.124-5.096 11.855-7.643 18.586-7.643 6.73 0 13.461 2.548 18.585 7.643 10.248 10.192 10.248 26.775 0 36.966-10.248 10.191-26.923 10.191-37.17 0zm36.6 3.672a28.796 28.796 0 0 0 4.2-4.162l4.026 4.28-4.193 4.17-4.033-4.288zM70.963 75.64L53.628 58.46l7.688-7.646 17.335 17.18-7.688 7.646z"/>
        <path fill="#000" d="M61.315 54.23l-3.385 3.366 1.673 1.663 1.712-1.703 6.529 6.493 1.673-1.663zM69.872 66.062l1.673-1.663 1.753 1.743-1.673 1.664z"/>
        <path fill="#FB944D" d="M12.817 58.273h2.366v2.563h-2.366zM12.817 72.64h2.366v2.563h-2.366zM32.3 63.217h2.366v2.563H32.3zM66.203 42.058h2.366v2.563h-2.366zM68.887 21.643h2.366v2.563h-2.366zM76.727 32.453h2.366v2.563h-2.366z"/>
    </g>
</svg>
