<svg xmlns="http://www.w3.org/2000/svg" width="67.212" height="94.293" viewBox="0 0 67.212 94.293">
  <g id="Group_13182" data-name="Group 13182" transform="translate(-1306.272 -18.701)">
    <g id="Group_12811" data-name="Group 12811" transform="translate(1312.204 91.906)">
      <path id="Path_25589" data-name="Path 25589" d="M-212.98-42.942-213.323-44a.757.757,0,0,1,.807-1.081h9.239c.273,0,1.5-.011,2.435-.011,1.6.019,1.7-1.3.78-2.217-.821-.821-2.012-1.444-3.1-2.631a2.649,2.649,0,0,1,.765-4.325l7.454-2.834s.828-.281.828.582V-55.3c0,.513,0,.834-.767,1.121l-6.263,2.341c.97,1.174,6,5.41,6.46,5.81a2.71,2.71,0,0,0,2.01.947h.6c0,.738-.083,2.027-.083,2.943a5.044,5.044,0,0,1-4.478-1.811c-.929,1.34-1.949,1.8-4.979,1.8h-10.32A1.044,1.044,0,0,1-212.98-42.942Zm20.689.784c-.362,0-.414-2.927-.067-2.927h2.465c1.447,0,1.083-1.528.942-2.229-.088-.439-.364-1.375-.634-2.287a.8.8,0,0,1,.51-1.087c.667-.227.807-.286,1.272-.437a.789.789,0,0,1,1.065.538c.3.977.492,1.831.873,3.239a3.981,3.981,0,0,1-4.029,5.178C-192.874-42.12-192.29-42.158-192.29-42.158Zm11.465-.011h-3.081a.636.636,0,0,1-.684-.834c.162-.746.249-1.043.353-1.4a.88.88,0,0,1,.984-.679c.994,0,2.648-.011,3.541-.011,1.081,0,2.679-.767,1.694-2.474-.462-1.024-.9-1.873-2.069-4.267a.8.8,0,0,1,.375-1.1c.675-.313.653-.3,1.216-.556a.66.66,0,0,1,.961.335,77.749,77.749,0,0,0,3.423,7.128,1.541,1.541,0,0,0,1.353.944c.311,0,.143,2.927-.183,2.927a3.522,3.522,0,0,1-2.96-1.519C-176.857-42.577-178.645-42.169-180.826-42.169Zm16.754.011h-.111a3.7,3.7,0,0,1-3.06-1.264,4.284,4.284,0,0,1-3.249,1.264h-2.4c-.362,0-.347-2.927,0-2.927h2.34a2.5,2.5,0,0,0,1.314-.272,1.174,1.174,0,0,0,.527-.826,4.639,4.639,0,0,0,.067-.843q0-.543-.033-1.02l-.037-.614a.718.718,0,0,1,.649-.835c.774-.132.785-.13,1.247-.2a.642.642,0,0,1,.811.644l.157,2.387a1.809,1.809,0,0,0,.455,1.208,1.75,1.75,0,0,0,1.231.366h.089A15.493,15.493,0,0,1-164.072-42.158Zm-5.307-11.786.762-.762a.764.764,0,0,1,1.226.015l.711.711a.751.751,0,0,1,.044,1.208l-.761.761a.756.756,0,0,1-1.182.022l-.79-.79A.741.741,0,0,1-169.379-53.944Zm5.13,11.786c-.362,0-.347-2.927,0-2.927h1.361a5.218,5.218,0,0,0,.71-.044,3.3,3.3,0,0,0,.576-.133,1.758,1.758,0,0,0,.455-.233,2.111,2.111,0,0,0,.355-.322,1.738,1.738,0,0,0,.238-.432,2.55,2.55,0,0,0,.139-.532,5.86,5.86,0,0,0,.044-.643v-9.193a.67.67,0,0,1,.564-.676l1.631-.344a.451.451,0,0,1,.62.484v9.8a5.117,5.117,0,0,1-1.386,3.869,5.532,5.532,0,0,1-4,1.33Z" transform="translate(213.387 57.665)" fill="#fff"/>
      <g id="Group_12475" data-name="Group 12475" transform="translate(21.301 17.793)">
        <path id="Path_25595" data-name="Path 25595" d="M-135.106-51.861l.762-.762a.764.764,0,0,1,1.226.015l.711.711a.751.751,0,0,1,.044,1.208l-.761.761a.756.756,0,0,1-1.182.022l-.79-.79A.741.741,0,0,1-135.106-51.861Z" transform="translate(138.192 52.925)" fill="#fff"/>
        <path id="Path_25596" data-name="Path 25596" d="M-135.106-51.861l.762-.762a.764.764,0,0,1,1.226.015l.711.711a.751.751,0,0,1,.044,1.208l-.761.761a.756.756,0,0,1-1.182.022l-.79-.79A.741.741,0,0,1-135.106-51.861Z" transform="translate(135.389 52.925)" fill="#fff"/>
      </g>
    </g>
    <g id="Group_12816" data-name="Group 12816" transform="translate(1306.272 18.702)">
      <path id="Path_25603" data-name="Path 25603" d="M4.152,0H34.285c2.293,0,4.152,4.209,4.152,9.4v34.11H0V9.4C0,4.209,1.859,0,4.152,0Z" transform="translate(28.775)" fill="#1658bb"/>
      <rect id="Rectangle_1" data-name="Rectangle 1" width="19.218" height="19.218" transform="translate(28.775 19.218)" fill="#3081e9"/>
      <path id="Path_25602" data-name="Path 25602" d="M4.152,0H34.285a4.152,4.152,0,0,1,4.152,4.152V19.218H0V4.152A4.152,4.152,0,0,1,4.152,0Z" transform="translate(28.775)" fill="#3f98ee"/>
      <rect id="Rectangle_3" data-name="Rectangle 3" width="19.218" height="19.218" transform="translate(47.994 19.218)" fill="#2070d9"/>
      <path id="Path_2" data-name="Path 2" d="M1022.281,576.99h0Z" transform="translate(-973.422 -538.554)" fill="#1658bb"/>
      <path id="Path_3" data-name="Path 3" d="M784.351,577v4.8a14.414,14.414,0,0,1-14.414,14.414H731.5A14.414,14.414,0,0,0,745.914,581.8V577Z" transform="translate(-717.138 -538.563)" fill="#1658bb"/>
      <path id="Path_4" data-name="Path 4" d="M663.239,596.217H624.854A14.414,14.414,0,0,1,610.44,581.8v-.652A4.152,4.152,0,0,1,614.592,577h30.133a4.152,4.152,0,0,1,4.152,4.152v.652A14.413,14.413,0,0,0,663.239,596.217Z" transform="translate(-610.44 -538.563)" fill="#0ef" opacity="0.87"/>
    </g>
  </g>
</svg>
