<svg xmlns="http://www.w3.org/2000/svg" xmlns:xlink="http://www.w3.org/1999/xlink" width="0" height="0" style="position:absolute">
	
		<symbol id="all-posts" viewBox="0 0 28 28">
			<path d="M10 13H3c-1.7 0-3-1.3-3-3V3c0-1.7 1.3-3 3-3h7c1.7 0 3 1.3 3 3v7c0 1.7-1.3 3-3 3zM3 2c-.6 0-1 .4-1 1v7c0 .6.4 1 1 1h7c.6 0 1-.4 1-1V3c0-.6-.4-1-1-1H3zM25 13h-7c-1.7 0-3-1.3-3-3V3c0-1.7 1.3-3 3-3h7c1.7 0 3 1.3 3 3v7c0 1.7-1.3 3-3 3zM18 2c-.6 0-1 .4-1 1v7c0 .6.4 1 1 1h7c.6 0 1-.4 1-1V3c0-.6-.4-1-1-1h-7zM10 28H3c-1.7 0-3-1.3-3-3v-7c0-1.7 1.3-3 3-3h7c1.7 0 3 1.3 3 3v7c0 1.7-1.3 3-3 3zM3 17c-.6 0-1 .4-1 1v7c0 .6.4 1 1 1h7c.6 0 1-.4 1-1v-7c0-.6-.4-1-1-1H3zM25 28h-7c-1.7 0-3-1.3-3-3v-7c0-1.7 1.3-3 3-3h7c1.7 0 3 1.3 3 3v7c0 1.7-1.3 3-3 3zm-7-11c-.6 0-1 .4-1 1v7c0 .6.4 1 1 1h7c.6 0 1-.4 1-1v-7c0-.6-.4-1-1-1h-7z"></path>
		</symbol>
	
		<symbol id="arrow-down" viewBox="0 0 14.9 8.9">
			<g transform="rotate(-45 2.414 -1)" fill="#8A9BAF"><path d="M-.7 9.2c-.2-.1-.3-.4-.3-.7V0c0-.6.4-1 1-1s1 .4 1 1v8.5c0 .6-.4 1-1 1-.3 0-.5-.1-.7-.3z"></path><path d="M-.7 9.2c-.2-.1-.3-.4-.3-.7 0-.6.4-1 1-1h8.5c.6 0 1 .4 1 1s-.4 1-1 1H0c-.3 0-.5-.1-.7-.3z"></path></g>
		</symbol>
	
		<symbol id="arrow-left" viewBox="0 0 23.1 14.1">
			<path d="M22.1 8.1h-20c-.6 0-1-.4-1-1s.4-1 1-1h20c.6 0 1 .4 1 1s-.5 1-1 1z"></path><path d="M1.4 8.1c-.2 0-.5-.1-.7-.3-.4-.4-.4-1 0-1.4L6.4.7c.4-.4 1-.4 1.4 0s.4 1 0 1.4L2.1 7.8c-.2.2-.4.3-.7.3z"></path><path d="M7.1 13.7c-.3 0-.5-.1-.7-.3L.7 7.8c-.4-.4-.4-1 0-1.4s1-.4 1.4 0L7.8 12c.4.4.4 1 0 1.4-.2.2-.5.3-.7.3z"></path>
		</symbol>
	
		<symbol id="arrow-left-small" viewBox="0 0 13.686 11.731">
			<path d="M12.685 6.749H2.281a1 1 0 0 1 0-2h10.404a1 1 0 1 1 0 2z"></path><path d="M5.867 11.316a.997.997 0 0 1-.707-.293L0 5.865 5.16.707a.999.999 0 1 1 1.414 1.414L2.829 5.865l3.746 3.744a.999.999 0 0 1-.708 1.707z"></path>
		</symbol>
	
		<symbol id="campaign" viewBox="0 0 29.891 29.735">
			<path fill="#F5F7FA" d="M15.892 14.485h.782a3 3 0 0 1 3.001 3.001v9.256a3 3 0 0 1-3.001 3.001h-.782a3 3 0 0 1-3.001-3.001v-9.256a3.002 3.002 0 0 1 3.001-3.001z"></path><path d="M16.675 29.742h-.782c-1.654 0-3-1.347-3-3.001v-9.256c0-1.654 1.346-3 3-3h.782c1.654 0 3 1.346 3 3v9.256a3.004 3.004 0 0 1-3 3.001zm-.782-13.258c-.552 0-1 .449-1 1.001v9.256c0 .552.449 1.001 1 1.001h.782c.552 0 1-.449 1-1.001v-9.256c0-.552-.448-1.001-1-1.001h-.782z"></path><path fill="#F5F7FA" d="M6.452 21.123l4.472-16.678 14.624 7.591c.113.073.83.562 1.195 1.439.384.922.199 1.891.178 1.989l-1.348 5.029c-.065.159-.399.93-1.024 1.505a2.665 2.665 0 0 1-1.308.641L6.452 21.123z"></path><path d="M11.568 5.906L7.726 20.234l15.461 1.396c.143-.04.442-.145.684-.368.384-.353.651-.858.752-1.092l1.324-4.939c.015-.089.119-.778-.128-1.371a2.365 2.365 0 0 0-.782-.961L11.568 5.906M10.28 2.984l15.762 8.181s1.085.629 1.624 1.924c.539 1.295.226 2.612.226 2.612l-1.368 5.101s-.399 1.101-1.298 1.929a3.612 3.612 0 0 1-1.968.911L5.178 22.01 10.28 2.984z"></path><path fill="#F5F7FA" d="M8.916.777l.755.203a3 3 0 0 1 2.121 3.675L7.324 21.322a3 3 0 0 1-3.675 2.121l-.756-.203a3 3 0 0 1-2.121-3.675L5.241 2.898A3 3 0 0 1 8.916.777z"></path><path d="M4.431 23.546c-.261 0-.523-.034-.782-.104l-.755-.202a2.975 2.975 0 0 1-1.822-1.398 2.974 2.974 0 0 1-.299-2.276L5.241 2.898a2.984 2.984 0 0 1 1.398-1.822A2.975 2.975 0 0 1 8.915.777l.755.202a2.982 2.982 0 0 1 1.822 1.398c.4.694.506 1.502.299 2.277L7.323 21.321a2.98 2.98 0 0 1-1.398 1.822 2.979 2.979 0 0 1-1.494.403zM8.137 2.674a.998.998 0 0 0-.964.741L2.704 20.083a1.001 1.001 0 0 0 .707 1.226l.755.202a1.001 1.001 0 0 0 1.226-.707L9.86 4.137a.992.992 0 0 0-.1-.759.988.988 0 0 0-.607-.467l-.755-.202a1.012 1.012 0 0 0-.261-.035z"></path>
		</symbol>
	
		<symbol id="checked" viewBox="0 0 54.1 54.1">
			<path fill="#3F98EE" d="M27 54.1c-14.9 0-27-12.1-27-27S12.1 0 27 0s27 12.1 27 27-12.1 27.1-27 27.1z"></path><path fill="#FAFBFD" d="M24.2 35.4l-7.8-7.8c-.6-.6-.6-1.5 0-2.1s1.5-.6 2.1 0l5.7 5.7L36 19.4c.6-.6 1.5-.6 2.1 0s.6 1.5 0 2.1L24.2 35.4z"></path>
		</symbol>
	
		<symbol id="close" viewBox="0 0 14 14">
			<path d="M14 1.4L12.6 0 7 5.6 1.4 0 0 1.4 5.6 7 0 12.6 1.4 14 7 8.4l5.6 5.6 1.4-1.4L8.4 7 14 1.4z"></path>
		</symbol>
	
		<symbol id="done" viewBox="0 0 22 22">
			<g transform="translate(-1266 -3675)" fill="none" stroke="#8a9baf" stroke-width="2"><path data-name="Path 26134" d="M1282.148 3682.572l-5.628 7.637-4.02-3.216" stroke-linecap="round" stroke-linejoin="round"></path><circle data-name="Ellipse 1420" cx="10" cy="10" r="10" transform="translate(1267 3676)"></circle></g>
		</symbol>
	
		<symbol id="dropdown" viewBox="0 0 14 8">
			<path d="M7 8c-.3 0-.5-.1-.7-.3l-6-6C-.1 1.3-.1.7.3.3s1-.4 1.4 0L7 5.6 12.3.3c.4-.4 1-.4 1.4 0s.4 1 0 1.4l-6 6c-.2.2-.4.3-.7.3z"></path>
		</symbol>
	
		<symbol id="filter" viewBox="0 0 31.766 31.767">
			<path d="M30.525 0H1.241C.556 0 0 .556 0 1.241a12.12 12.12 0 0 0 4.064 9.051l5.436 4.83a4.422 4.422 0 0 1 1.483 3.3v12.1a1.241 1.241 0 0 0 1.929 1.032l7.321-4.881a1.24 1.24 0 0 0 .553-1.032v-7.22a4.422 4.422 0 0 1 1.483-3.3l5.434-4.83a12.12 12.12 0 0 0 4.064-9.051A1.241 1.241 0 0 0 30.525 0zm-4.472 8.436l-5.434 4.831a6.906 6.906 0 0 0-2.319 5.157v6.556l-4.839 3.226v-9.782a6.908 6.908 0 0 0-2.316-5.157l-5.432-4.83a9.642 9.642 0 0 1-3.151-5.955H29.2a9.637 9.637 0 0 1-3.147 5.954z"></path>
		</symbol>
	
		<symbol id="happy-face" viewBox="0 0 29 29">
			<path d="M14.5 29C6.505 29 0 22.495 0 14.5S6.505 0 14.5 0 29 6.505 29 14.5 22.495 29 14.5 29zm0-27C7.607 2 2 7.607 2 14.5S7.607 27 14.5 27 27 21.393 27 14.5 21.393 2 14.5 2z"></path><circle cx="10" cy="12" r="2"></circle><circle cx="19" cy="12" r="2"></circle><path d="M14.349 22.937c-2.464-.118-4.687-1.127-6.34-2.842a1 1 0 0 1 1.439-1.389 7.295 7.295 0 0 0 4.916 2.232c1.687-.062 3.371-.862 4.537-2.196a1 1 0 0 1 1.506 1.316 8.467 8.467 0 0 1-6.058 2.879z"></path>
		</symbol>
	
		<symbol id="heart" viewBox="0 0 1792 1536">
			<path fill="#B2B2B2" d="M896 1536c-17.3 0-32-6-44-18L228 916c-6.7-5.3-15.8-14-27.5-26s-30.2-33.8-55.5-65.5c-25.3-31.7-48-64.2-68-97.5s-37.8-73.7-53.5-121S0 512.7 0 468c0-146.7 42.3-261.3 127-344S328.7 0 478 0c41.3 0 83.5 7.2 126.5 21.5s83 33.7 120 58 68.8 47.2 95.5 68.5 52 44 76 68c24-24 49.3-46.7 76-68 26.7-21.3 58.5-44.2 95.5-68.5s77-43.7 120-58S1272.7 0 1314 0c149.3 0 266.3 41.3 351 124s127 197.3 127 344c0 147.3-76.3 297.3-229 450l-623 600c-12 12-26.7 18-44 18"></path>
		</symbol>
	
		<symbol id="heart-fill" viewBox="0 0 21.926 18.91">
			<path data-name="Path 26096" d="M18.724.771a6.19 6.19 0 0 0-7.759 1.473A6.194 6.194 0 0 0 0 6.197a6.107 6.107 0 0 0 .306 1.91c1.063 4.778 10.659 10.8 10.659 10.8s9.59-6.02 10.654-10.8a6.112 6.112 0 0 0 .307-1.91A6.2 6.2 0 0 0 18.724.771z"></path>
		</symbol>
	
		<symbol id="heart-outline" viewBox="0 0 21.256 18.91">
			<path d="M10.628 18.911a1.246 1.246 0 0 1-.822-.309c-.859-.751-1.687-1.456-2.417-2.079a44.952 44.952 0 0 1-5.277-4.953A7.911 7.911 0 0 1 0 6.388a6.643 6.643 0 0 1 1.686-4.537A5.716 5.716 0 0 1 5.938 0a5.346 5.346 0 0 1 3.34 1.153 6.833 6.833 0 0 1 1.35 1.41 6.833 6.833 0 0 1 1.35-1.41A5.346 5.346 0 0 1 15.318 0a5.716 5.716 0 0 1 4.252 1.851 6.643 6.643 0 0 1 1.686 4.537 7.911 7.911 0 0 1-2.108 5.178 44.942 44.942 0 0 1-5.277 4.953 225.32 225.32 0 0 0-2.421 2.083 1.247 1.247 0 0 1-.822.309zM5.938 1.245A4.484 4.484 0 0 0 2.6 2.695a5.4 5.4 0 0 0-1.355 3.693 6.657 6.657 0 0 0 1.822 4.384 44.235 44.235 0 0 0 5.126 4.8c.733.625 1.564 1.333 2.429 2.09.87-.758 1.7-1.467 2.437-2.093a44.242 44.242 0 0 0 5.126-4.8 6.657 6.657 0 0 0 1.822-4.384 5.4 5.4 0 0 0-1.357-3.693 4.484 4.484 0 0 0-3.336-1.449 4.129 4.129 0 0 0-2.578.893A6.042 6.042 0 0 0 11.3 3.8a.786.786 0 0 1-1.35 0 6.036 6.036 0 0 0-1.434-1.662 4.129 4.129 0 0 0-2.578-.893zm0 0"></path>
		</symbol>
	
		<symbol id="hourglass" viewBox="0 0 16.502 22">
			<g transform="translate(-1268.266 -3675)"><g transform="translate(1263.25 3672.25)" fill="none" stroke="#c5c5c5" stroke-linecap="round" stroke-linejoin="round" stroke-width="2"><path data-name="Path 26415" d="M6.042 5.845c.674 3.89 3.042 6.554 7.227 7.905 4.184-1.35 6.552-4.016 7.231-7.905a1.818 1.818 0 0 0-1.812-2.095H7.849a1.818 1.818 0 0 0-1.807 2.095z"></path><path data-name="Path 26416" d="M7.849 23.75a1.818 1.818 0 0 1-1.807-2.093c.674-3.89 3.042-6.554 7.227-7.907 4.184 1.353 6.553 4.017 7.227 7.907a1.818 1.818 0 0 1-1.808 2.093z"></path></g><path data-name="Path 26417" d="M1273.412 3683.561l3.03 2.314s7.495-4.048 5.836-4.347-9.5-.508-11.717 0 2.851 2.033 2.851 2.033z" fill="#c5c5c5"></path><path data-name="Path 26418" d="M1276.442 3693.659c2.346.01 5.836 1.868 5.836 1.868h-11.717s3.539-1.878 5.881-1.868z" fill="#c5c5c5"></path></g>
		</symbol>
	
		<symbol id="instagram" viewBox="0 0 20.4 20.4">
			<path d="M14.9 0H5.5C2.5 0 0 2.5 0 5.5v9.4c0 3 2.5 5.5 5.5 5.5h9.4c3 0 5.5-2.5 5.5-5.5V5.5c0-3-2.5-5.5-5.5-5.5zm3.8 14.9c0 2.1-1.7 3.9-3.9 3.9H5.5c-2.1 0-3.9-1.7-3.9-3.9V5.5c0-2.1 1.7-3.9 3.9-3.9h9.4c2.1 0 3.9 1.7 3.9 3.9l-.1 9.4z"></path><path d="M14.7 9.5C14.4 7 12 5.3 9.6 5.6c-2.5.4-4.3 2.7-3.9 5.2.3 2.2 2.2 3.9 4.5 3.9h.7c2.5-.4 4.2-2.7 3.8-5.2zm-4 3.5c-1.6.2-3.1-.9-3.4-2.5-.2-1.5.9-3 2.5-3.2 1.6-.2 3.1.9 3.3 2.5.3 1.5-.8 3-2.4 3.2zM14.5 4.2c-.5.5-.5 1.2 0 1.7s1.2.5 1.7 0c.2-.2.4-.5.4-.9 0-.3-.1-.6-.4-.9-.5-.4-1.3-.4-1.7.1z"></path>
		</symbol>
	
		<symbol id="learning" viewBox="0 0 29.905 25.831">
			<path fill="none" d="M5.366 7.947h19.47v12.255c0 2.552-2.988 5.63-9.586 5.63s-9.884-3.078-9.884-5.63V7.947z"></path><path d="M7.366 9.947v10.255c0 .515.413 1.338 1.571 2.104 1.488.984 3.73 1.526 6.313 1.526 3.273 0 5.139-.817 6.129-1.502.913-.632 1.457-1.427 1.457-2.128V9.947H7.366m-2-2h19.47v12.255c0 2.552-2.988 5.63-9.586 5.63s-9.884-3.077-9.884-5.63V7.947z"></path><path fill="#F5F7FA" d="M1.932 9.347l13.622-8.166 12.32 8.138-12.805 8.042L1.932 9.347z"></path><path d="M26.027 9.298L15.528 2.363 3.865 9.355l11.196 6.83 10.966-6.887m3.693.042l-14.644 9.197L0 9.34 15.58 0l14.14 9.34z"></path><circle cx="27.906" cy="23.148" r="2"></circle><path d="M27.062 12.613l1.867-1.195.016 11.145h-1.9l.017-9.95z"></path>
		</symbol>
	
		<symbol id="linkedin" viewBox="0 0 93.06 93.06">
			<path d="M11.185.08C5.004.08.001 5.092 0 11.259c0 6.173 5.003 11.184 11.186 11.184 6.166 0 11.176-5.011 11.176-11.184C22.362 5.091 17.351.08 11.185.08zM1.538 30.926h19.287V92.98H1.538zM69.925 29.383c-9.382 0-15.673 5.144-18.248 10.022h-.258v-8.479H32.92v62.053h19.27V62.281c0-8.093 1.541-15.932 11.575-15.932 9.89 0 10.022 9.256 10.022 16.451v30.178H93.06V58.942c0-16.707-3.605-29.559-23.135-29.559z" data-original="#000000" class="active-path" data-old_color="#000000"></path>
		</symbol>
	
		<symbol id="message" viewBox="0 0 22.7 17.4">
			<path d="M18.7 0H4C1.8 0 0 1.8 0 4v9.4c0 2.2 1.8 4 4 4h14.7c2.2 0 4-1.8 4-4V4c0-2.2-1.8-4-4-4zM4 1.6h14.7c.8 0 1.6.4 2 1.1l-9.4 5.8L2 2.7c.4-.7 1.2-1.1 2-1.1zm14.7 14.2H4c-1.3 0-2.4-1.1-2.4-2.4v-9l9.4 5.8c.1.1.3.1.4.1.1 0 .3 0 .4-.1l9.3-5.8v9c0 1.3-1 2.4-2.4 2.4z"></path>
		</symbol>
	
		<symbol id="offers" viewBox="0 0 29 29">
			<path d="M14.5 29C6.505 29 0 22.495 0 14.5S6.505 0 14.5 0 29 6.505 29 14.5 22.495 29 14.5 29zm0-27C7.607 2 2 7.607 2 14.5S7.607 27 14.5 27 27 21.393 27 14.5 21.393 2 14.5 2z"></path><path d="M8.49 19.597L19.096 8.99l1.414 1.414L9.904 21.011z"></path><circle cx="10" cy="11" r="2"></circle><circle cx="19" cy="19" r="2"></circle>
		</symbol>
	
		<symbol id="phone" viewBox="0 0 16.394 16.393">
			<path d="M6.789 9.605a6.616 6.616 0 0 1-2-3.756.562.562 0 0 1 .161-.47l1.269-1.267a.565.565 0 0 0 .08-.7L4.282.282A.565.565 0 0 0 3.55.076L.313 1.601a.562.562 0 0 0-.31.561 15.645 15.645 0 0 0 4.764 9.464 15.641 15.641 0 0 0 9.464 4.764.562.562 0 0 0 .562-.311l1.524-3.237a.565.565 0 0 0-.2-.731l-3.131-2.016a.565.565 0 0 0-.7.079L11.02 11.44a.562.562 0 0 1-.47.161 6.616 6.616 0 0 1-3.756-2z" fill="currentColor"></path><path data-name="Shape" d="M13.002 8.762a.565.565 0 0 1-.565-.565 4.244 4.244 0 0 0-4.24-4.24.566.566 0 0 1 0-1.131 5.376 5.376 0 0 1 5.37 5.37.565.565 0 0 1-.565.566z" fill="currentColor"></path><path data-name="Shape" d="M15.832 8.762a.565.565 0 0 1-.565-.565 7.074 7.074 0 0 0-7.066-7.066.566.566 0 0 1 0-1.131 8.206 8.206 0 0 1 8.2 8.2.565.565 0 0 1-.565.565z" fill="currentColor"></path>
		</symbol>
	
		<symbol id="phone-call" viewBox="0 0 24.613 24.648">
			<g transform="translate(-.344)"><path data-name="Path 31349" d="M19.807 15.269a2.424 2.424 0 0 0-1.758-.806 2.507 2.507 0 0 0-1.779.8l-1.644 1.639c-.135-.073-.271-.14-.4-.208-.187-.094-.364-.182-.515-.276a17.867 17.867 0 0 1-4.281-3.9 10.541 10.541 0 0 1-1.4-2.216c.427-.39.822-.8 1.207-1.186.146-.146.291-.3.437-.442a2.387 2.387 0 0 0 0-3.6l-1.42-1.42a22.55 22.55 0 0 1-.484-.494c-.312-.323-.64-.655-.978-.968a2.463 2.463 0 0 0-1.743-.765 2.548 2.548 0 0 0-1.769.765l-.01.01-1.775 1.784A3.806 3.806 0 0 0 .366 6.405a9.12 9.12 0 0 0 .666 3.86 22.4 22.4 0 0 0 3.98 6.638 24.481 24.481 0 0 0 8.152 6.383 12.7 12.7 0 0 0 4.578 1.353c.109.005.224.01.328.01a3.92 3.92 0 0 0 3-1.29c.005-.01.016-.016.021-.026a11.828 11.828 0 0 1 .91-.942c.224-.213.453-.437.676-.671a2.6 2.6 0 0 0 .786-1.8 2.5 2.5 0 0 0-.8-1.784zm1.862 5.478c-.005 0-.005.005 0 0-.2.218-.411.416-.635.635a13.679 13.679 0 0 0-1 1.04 2.508 2.508 0 0 1-1.956.827c-.078 0-.161 0-.239-.005a11.283 11.283 0 0 1-4.058-1.217A23.109 23.109 0 0 1 6.1 16.013a21.12 21.12 0 0 1-3.746-6.237A7.428 7.428 0 0 1 1.77 6.52a2.388 2.388 0 0 1 .718-1.545L4.262 3.2a1.183 1.183 0 0 1 .791-.369 1.113 1.113 0 0 1 .76.364l.016.016c.317.3.619.6.936.931.161.166.328.333.494.5l1.42 1.42a.993.993 0 0 1 0 1.613l-.447.447c-.437.447-.853.864-1.306 1.269-.01.01-.021.016-.026.026a1.061 1.061 0 0 0-.271 1.181l.016.047a11.4 11.4 0 0 0 1.68 2.742l.005.005a19.094 19.094 0 0 0 4.62 4.2 7.1 7.1 0 0 0 .64.349c.187.094.364.182.515.276.021.01.042.026.062.036a1.128 1.128 0 0 0 .515.13 1.112 1.112 0 0 0 .791-.359l1.779-1.779a1.177 1.177 0 0 1 .786-.39 1.059 1.059 0 0 1 .749.38l.01.01 2.867 2.875a1.029 1.029 0 0 1 .005 1.627z"></path><path data-name="Path 31350" d="M13.647 5.863a6.7 6.7 0 0 1 5.452 5.452.7.7 0 0 0 .692.583.93.93 0 0 0 .12-.01.7.7 0 0 0 .577-.812 8.1 8.1 0 0 0-6.6-6.6.706.706 0 0 0-.812.572.7.7 0 0 0 .571.815z"></path><path data-name="Path 31351" d="M24.946 10.873A13.331 13.331 0 0 0 14.084.011a.701.701 0 1 0-.229 1.384 11.907 11.907 0 0 1 9.708 9.705.7.7 0 0 0 .692.583.929.929 0 0 0 .12-.01.689.689 0 0 0 .571-.8z"></path></g>
		</symbol>
	
		<symbol id="reply" viewBox="0 0 18.476 17.369">
			<g transform="translate(-.012)"><path data-name="Path 26094" d="M6.15 11.222l-4.494-4.51a.718.718 0 0 1 0-1.013l4.492-4.473A.717.717 0 0 0 5.136.209L.642 4.683a2.154 2.154 0 0 0 0 3.042l4.493 4.509a.717.717 0 0 0 1.015-1.012z"></path><path data-name="Path 26095" d="M11.936 5.487H4.275a.718.718 0 1 0 0 1.435h7.657c2.759 0 5.117 1.757 5.117 4.516s-2.359 4.5-5.117 4.5a.718.718 0 1 0 0 1.435c3.55 0 6.552-2.381 6.552-5.931s-2.998-5.955-6.548-5.955z"></path></g>
		</symbol>
	
		<symbol id="tel" viewBox="0 0 19.6 19.6">
			<path d="M15.7 19.6h-.2c-1 0-2-.2-2.9-.6-2.7-1.1-5.1-2.7-7.1-4.8-2.1-2-3.7-4.4-4.8-7.1C-.2 4.8-.2 3 .8 2l.2-.3C1.8.9 2.7-.1 4 0c1.1.1 2 .7 2.5 1.6 2.4 2.9 1.1 4.2 0 5.3l-.1.2s-.1.8 2.7 3.5c.8.8 1.6 1.6 2.6 2.2.6.4.9.4 1 .4l.1-.2c1.1-1.1 2.3-2.4 5.3 0 .8.5 1.4 1.4 1.6 2.5.1 1.3-.9 2.2-1.7 3l-.3.3c-.7.5-1.4.8-2 .8zM3.9 1.6c-.5 0-1.1.6-1.6 1.2l-.4.4c-.4.3-.4 1.6.3 3.3 1 2.5 2.5 4.6 4.5 6.5 1.9 1.9 4.1 3.4 6.5 4.5 1.7.6 2.9.6 3.3.3l.4-.3c.6-.6 1.2-1.2 1.2-1.7-.1-.5-.4-1-.9-1.3-1.9-1.5-2.3-1.2-3.2-.2l-.2.2c-.5.5-1.4.8-3-.3-1-.7-2-1.5-2.8-2.4-2-2-4-4.4-2.7-5.8l.2-.2c1-1 1.3-1.3-.1-3.2-.5-.5-.9-.9-1.5-1z"></path>
		</symbol>
	
		<symbol id="telegram" viewBox="0 0 22.951 22.355">
			<path data-name="Path 26092" d="M22.527.768A1.98 1.98 0 0 0 20.937 0a2.728 2.728 0 0 0-1.268.34L1.372 9.934a2.156 2.156 0 0 0 .214 4.087l2.338.925a3.987 3.987 0 0 0 1.474.266c.084 0 .165-.011.249-.016-.032.041-.071.073-.1.116a2.605 2.605 0 0 0-.063 2.487l.018.044a201.585 201.585 0 0 1 1.554 3.5 1.575 1.575 0 0 0 1.454 1.011c.987 0 1.28-.475 2.895-3.1a2.655 2.655 0 0 0 .453-1.211l.518.208 2.591 1.056c.519.212.974.4 1.213.5a1.611 1.611 0 0 0 .234.118 1.556 1.556 0 0 0 .573.109c1.178 0 1.461-1.021 1.612-1.567.075-.27.178-.645.289-1.058l3.951-14.524a2.35 2.35 0 0 0-.312-2.117zM10.1 18.424a26.4 26.4 0 0 1-1.591 2.386s-.005 0-.007-.005c-.144-.387-1.592-3.6-1.592-3.6-.267-.643-.219-1.195.24-1.195a.967.967 0 0 1 .363.085l1.125.585a3.105 3.105 0 0 0 .618.328l.057.022.106.053c.869.465 1.145.631.681 1.341zM21.349 2.479L17.4 16.997c-.223.818-.409 1.487-.413 1.487s-.008-.017-.008-.02-.644-.269-1.431-.591l-2.592-1.056c-.787-.319-2.078-.835-2.87-1.139l-.131-.053-.484-.251a.944.944 0 0 1-.04-1.488l8.02-8.587c.322-.344.444-.521.374-.521a1.847 1.847 0 0 0-.531.348l-10.147 8a2.958 2.958 0 0 1-1.747.538 2.493 2.493 0 0 1-.906-.158l-2.337-.924c-.79-.313-.82-.89-.068-1.286l18.3-9.6a1.225 1.225 0 0 1 .549-.162c.392.01.571.355.411.945z"></path>
		</symbol>
	
		<symbol id="templates2" viewBox="0 0 28.635 26">
			<path d="M19.833 25.94h-.9v-2h.9c1.166 0 1.257-1.384 1.257-1.808V3.879c0-.523-.122-1.74-1.257-1.74h-.9v-2h.9c1.918 0 3.257 1.538 3.257 3.74v18.254c0 2.242-1.339 3.807-3.257 3.807zM25.429 25.94h-.877v-2h.877c1.119 0 1.206-1.384 1.206-1.808V3.879c0-.408-.087-1.74-1.206-1.74h-.877v-2h.877c1.888 0 3.206 1.538 3.206 3.74v18.254c0 2.242-1.319 3.807-3.206 3.807zM12.446 26H5c-2.757 0-5-2.243-5-5V5c0-2.757 2.243-5 5-5h7.446c2.757 0 5 2.243 5 5v16c0 2.757-2.243 5-5 5zM5 2C3.346 2 2 3.346 2 5v16c0 1.654 1.346 3 3 3h7.446c1.654 0 3-1.346 3-3V5c0-1.654-1.346-3-3-3H5z"></path>
		</symbol>
	
		<symbol id="tick" viewBox="0 0 11.6 9.6">
			<path d="M5 9.6c-.2 0-.4-.1-.6-.2l-4-3.2c-.4-.3-.5-1-.2-1.4.3-.4 1-.5 1.4-.2l3.2 2.6 5-6.8c.3-.4 1-.5 1.4-.2.4.3.5 1 .2 1.4L5.8 9.2c-.1.2-.4.4-.6.4H5z"></path>
		</symbol>
	
		<symbol id="twitter" viewBox="0 0 27.966 22.668">
			<path data-name="twitter (1)" d="M27.456 3.356c-1.688.078-1.651.071-1.842.087l1-2.854s-3.12 1.148-3.911 1.353a6.26 6.26 0 0 0-7.377-.593 5.106 5.106 0 0 0-2.454 5.25 13.618 13.618 0 0 1-8.818-4.967L3.313.743 2.76 1.759a6.138 6.138 0 0 0-.654 4.132 5.936 5.936 0 0 0 .575 1.613l-.635-.246-.075 1.065a5.661 5.661 0 0 0 .96 3.365 5.984 5.984 0 0 0 .748.922l-.328-.05.4 1.216a5.91 5.91 0 0 0 3.038 3.52c-1.417.6-2.561.985-4.442 1.6l-1.721.565 1.59.869A16.685 16.685 0 0 0 7.08 22.1c4.7.738 10 .137 13.565-3.074 3-2.7 3.988-6.552 3.784-10.555a2.5 2.5 0 0 1 .468-1.629c.665-.889 2.555-3.48 2.559-3.486zM23.639 5.9a4.074 4.074 0 0 0-.779 2.65c.207 4.038-.892 7.17-3.266 9.308-2.773 2.5-7.246 3.478-12.271 2.689a12.169 12.169 0 0 1-2.629-.781 41.689 41.689 0 0 0 4.762-1.957l2.746-1.3-3.032-.194a4.287 4.287 0 0 1-3.4-1.939 5.437 5.437 0 0 0 1.154-.192l2.891-.805-2.919-.714a4.342 4.342 0 0 1-2.653-1.842 4.447 4.447 0 0 1-.575-1.268 7.278 7.278 0 0 0 1.183.189l2.7.267L5.412 8.34a4.5 4.5 0 0 1-1.706-4.742 15.64 15.64 0 0 0 11.02 4.743 9.307 9.307 0 0 0-.161-1.333 3.609 3.609 0 0 1 1.586-4.321 4.7 4.7 0 0 1 5.539.459 1.407 1.407 0 0 0 1.291.345 10.864 10.864 0 0 0 1.064-.323l-.678 1.936h.865zm0 0"></path>
		</symbol>
	
		<symbol id="update" viewBox="0 0 29 35.235">
			<path d="M13.451 22.746l-5.413-5.412 1.768-1.768 3.645 3.645 6.616-6.617 1.768 1.768z"></path><path d="M14.5 32.445c-7.995 0-14.5-6.505-14.5-14.5s6.505-14.5 14.5-14.5S29 9.95 29 17.945s-6.505 14.5-14.5 14.5zm0-27c-6.893 0-12.5 5.607-12.5 12.5s5.607 12.5 12.5 12.5S27 24.838 27 17.945s-5.607-12.5-12.5-12.5z"></path><path fill="#F5F7FA" d="M6.967 32.885l2.628-5.394 4.495 2.19-2.628 5.394zM13.086 7.127l2.622-6.49 4.636 1.873L17.722 9z"></path><path d="M16.375 35.152l-5.1-3.489a.47.47 0 0 1 0-.777l5.1-3.489a.47.47 0 0 1 .736.388v6.978a.471.471 0 0 1-.736.389zM11.808.083l5.1 3.489a.47.47 0 0 1 0 .777l-5.1 3.489a.47.47 0 0 1-.736-.388V.472a.471.471 0 0 1 .736-.389z"></path>
		</symbol>
	
</svg>
