<svg xmlns="http://www.w3.org/2000/svg" width="50" height="50" viewBox="0 0 50 50">
  <g id="Group_13931" data-name="Group 13931" transform="translate(-788 -2349)">
    <circle id="Ellipse_1388" data-name="Ellipse 1388" cx="25" cy="25" r="25" transform="translate(788 2349)" fill="#ffbd6f"/>
    <path id="Path_26070" data-name="Path 26070" d="M-2.139-13.724A2.865,2.865,0,0,0,.844-11.705a2.064,2.064,0,0,0,2.019-1.054,10.2,10.2,0,0,0,.66-4.316v-.254h.254l2.285.013h.254v.254q-.013.965-.063,1.8a8.825,8.825,0,0,1-1.435,4.8A4.382,4.382,0,0,1,1.149-8.823a6.007,6.007,0,0,1-2.336-.394,48.219,48.219,0,0,1,.368,5.8V-.152H-3.6v-3.3q0-8.074-2.387-12.911l-.127-.254.267-.1,2.095-.736.241-.076.076.229Z" transform="translate(813 2383)" fill="#fff"/>
  </g>
</svg>
