<svg xmlns="http://www.w3.org/2000/svg" width="50" height="50" viewBox="0 0 50 50">
  <g id="Group_13932" data-name="Group 13932" transform="translate(-470 -2349)">
    <circle id="Ellipse_1389" data-name="Ellipse 1389" cx="25" cy="25" r="25" transform="translate(470 2349)" fill="#76dece"/>
    <path id="Path_26071" data-name="Path 26071" d="M-2.691-3.415V-.152h-2.78v-3.3q0-8.074-2.387-12.911l-.127-.254.267-.1,2.095-.736.241-.076.076.229,1.4,4a2.086,2.086,0,0,0,2.2,1.4A1.336,1.336,0,0,0-.482-12.53a3.689,3.689,0,0,0,.419-2.006L-.051-16.4v-.241l.241-.013,2.019-.063h.254v.254l.051,1.828q.051,2.818,1.739,2.818a1.045,1.045,0,0,0,1.117-.889,12.383,12.383,0,0,0,.267-2.882v-1.942H8.392v.254l-.013,1.65q-.013,3.669-1.1,5.23A3.261,3.261,0,0,1,6.5-9.61a3.327,3.327,0,0,1-.99.47,3.8,3.8,0,0,1-1.181.152,4.519,4.519,0,0,1-1.193-.152A3.98,3.98,0,0,1,2.069-9.6a4.512,4.512,0,0,1-.9-.724A3.6,3.6,0,0,1-1.562-8.976a3.963,3.963,0,0,1-1.5-.241A48.654,48.654,0,0,1-2.691-3.415Z" transform="translate(495 2383)" fill="#fff"/>
  </g>
</svg>
