<svg xmlns="http://www.w3.org/2000/svg" width="50" height="50" viewBox="0 0 50 50">
  <g id="Group_13930" data-name="Group 13930" transform="translate(-162 -2349)">
    <circle id="Ellipse_1390" data-name="Ellipse 1390" cx="25" cy="25" r="25" transform="translate(162 2349)" fill="#b19bef"/>
    <path id="Path_26069" data-name="Path 26069" d="M6.106-16.707l-.546,2.2-.076.279-.267-.1a5.124,5.124,0,0,0-1.942-.381,3.4,3.4,0,0,0-2.044.6A3.693,3.693,0,0,0-.317-11.489.52.52,0,0,0-.14-11.1a2.879,2.879,0,0,0,.711.5,3.888,3.888,0,0,0,1,.317,7.269,7.269,0,0,0,1.358.114,9.075,9.075,0,0,0,1.676-.152,8.455,8.455,0,0,0,1.562-.457l.3-.127.038.33L6.8-8.366l.025.19L6.665-8.1q-.368.165-.673.267-.33.114-.673.2t-.686.14q-.355.051-.711.089t-.736.025A7.151,7.151,0,0,1-1.485-8.747q.19,1.409.279,2.729.089,1.435.089,2.6V-.152H-3.9v-3.3q0-8.074-2.387-12.911l-.127-.254.267-.1,2.095-.736.241-.089.076.241q.2.584.419,1.193t.432,1.27q.216.66.457,1.346A6.083,6.083,0,0,1-.5-16.44a5.167,5.167,0,0,1,3.453-1.193A7.3,7.3,0,0,1,5.967-17l.19.089Z" transform="translate(187 2383)" fill="#fff"/>
  </g>
</svg>
