<svg xmlns="http://www.w3.org/2000/svg" width="110" height="126.105" viewBox="0 0 110 126.105">
  <g id="Group_13537" data-name="Group 13537" transform="translate(-665 -1913.395)">
    <g id="cup" transform="translate(665 1929.5)">
      <path id="Path_25717" data-name="Path 25717" d="M110,55a55.026,55.026,0,0,1-76.439,50.663,54.268,54.268,0,0,1-6.524-3.293A55,55,0,1,1,110,55Z" fill="#683cd0"/>
      <path id="Path_25718" data-name="Path 25718" d="M133.911,45.992a46.014,46.014,0,0,1-63.92,42.365A45.417,45.417,0,0,1,64.536,85.6a45.995,45.995,0,1,1,69.375-39.612Z" transform="translate(-32.919)" fill="#4f2cad"/>
    </g>
    <g id="gift_1_" data-name="gift (1)" transform="translate(674 1913.395)">
      <path id="Path_25807" data-name="Path 25807" d="M111.753,192.645v44.116a13.66,13.66,0,0,1-13.647,13.646H43.647A13.662,13.662,0,0,1,30,236.761V192.645Zm0,0" transform="translate(-24.574 -157.801)" fill="#ffbf00"/>
      <path id="Path_25808" data-name="Path 25808" d="M296.877,192.645v44.116a13.66,13.66,0,0,1-13.646,13.646H256V192.645Zm0,0" transform="translate(-209.697 -157.801)" fill="#f90"/>
      <path id="Path_25809" data-name="Path 25809" d="M92.606,109.075V116.2a7.382,7.382,0,0,1-7.374,7.373H7.374A7.382,7.382,0,0,1,0,116.2v-7.126A7.383,7.383,0,0,1,7.374,101.7H85.232A7.382,7.382,0,0,1,92.606,109.075Zm0,0" transform="translate(0 -83.305)" fill="#ffdb28"/>
      <path id="Path_25810" data-name="Path 25810" d="M302.3,109.071V116.2a7.382,7.382,0,0,1-7.374,7.373H256V101.7h38.929A7.383,7.383,0,0,1,302.3,109.071Zm0,0" transform="translate(-209.697 -83.302)" fill="#ffbf00"/>
      <path id="Path_25811" data-name="Path 25811" d="M165.212,5.569a11.524,11.524,0,0,0-15.833-3.9,14,14,0,0,0-4.1,4.636,53.542,53.542,0,0,0-3.116,6.082q-.283.63-.545,1.244-.263-.614-.545-1.244c-1.669-3.735-4.234-8.911-7.216-10.718a11.533,11.533,0,0,0-11.94,19.735c.921.559,3.725,2.257,15.3,2.413.61.009,1.178.013,1.691.014V92.606h5.426V23.833c.488,0,1.029-.006,1.606-.013,11.643-.148,14.457-1.852,15.382-2.413A11.551,11.551,0,0,0,165.212,5.569ZM137.287,18.394c-9.369-.126-11.983-1.277-12.559-1.628a6.107,6.107,0,1,1,6.318-10.454c.311.19,2.026,1.478,5.057,8.256.608,1.357,1.154,2.684,1.607,3.831Zm21.22-1.628c-.58.353-3.207,1.508-12.639,1.628l-.343.006c.454-1.148,1-2.474,1.607-3.831,3.032-6.778,4.746-8.066,5.059-8.256a6.107,6.107,0,0,1,6.316,10.454Zm0,0" transform="translate(-95.315 0)" fill="#ff415b"/>
      <path id="Path_25812" data-name="Path 25812" d="M30,346.316h81.753v5.426H30Zm0,0" transform="translate(-24.574 -283.678)" fill="#ff415b"/>
    </g>
  </g>
</svg>
