<svg id="food" xmlns="http://www.w3.org/2000/svg" width="85.449" height="85.448" viewBox="0 0 85.449 85.448">
  <path id="Path_25778" data-name="Path 25778" d="M131.257,337.3l16.571-11.837a4.2,4.2,0,0,1,5.86.973c.067.093.129.188.187.285h0a4.2,4.2,0,0,1-1.172,5.589l-17.586,14.577a8.686,8.686,0,0,1-5.544,2H93.6V331.508l7.078-5.9a5.794,5.794,0,0,1,3.709-1.342h18.9a3.62,3.62,0,0,1,3.621,3.621h0a3.62,3.62,0,0,1-3.621,3.621h-9.414a2.9,2.9,0,0,0-2.9,2.9h0a2.9,2.9,0,0,0,2.9,2.9Z" transform="translate(-77.716 -269.232)" fill="#f7c8a5"/>
  <rect id="Rectangle_5313" data-name="Rectangle 5313" width="15.886" height="24.621" transform="translate(0 60.828)" fill="#e81270"/>
  <circle id="Ellipse_1330" data-name="Ellipse 1330" cx="2.897" cy="2.897" r="2.897" transform="translate(4.345 73.862)" fill="#e5e5e5"/>
  <path id="Path_25779" data-name="Path 25779" d="M8.533,273.067h84a8.689,8.689,0,0,1-8.69,8.69H17.223a8.689,8.689,0,0,1-8.69-8.69Z" transform="translate(-7.085 -226.722)" fill="#b4b4b4"/>
  <path id="Path_25780" data-name="Path 25780" d="M115.081,88.855H42.667V87.407A36.207,36.207,0,0,1,78.874,51.2h0a36.207,36.207,0,0,1,36.207,36.207Z" transform="translate(-35.426 -42.51)" fill="#d1d1d1"/>
  <g id="Group_12930" data-name="Group 12930" transform="translate(16.845 13.034)">
    <path id="Path_25781" data-name="Path 25781" d="M101.668,145.229l-2.417-1.593a32.109,32.109,0,0,1,2.786-3.621l2.165,1.923A29.358,29.358,0,0,0,101.668,145.229Z" transform="translate(-99.251 -129.286)" fill="#fff"/>
    <path id="Path_25782" data-name="Path 25782" d="M129.548,87.553l-1.983-2.11a31.728,31.728,0,0,1,21.8-8.643v2.9A28.845,28.845,0,0,0,129.548,87.553Z" transform="translate(-122.76 -76.8)" fill="#fff"/>
  </g>
  <path id="Path_25783" data-name="Path 25783" d="M239.09,0H230.4V2.9h2.9V8.69h2.9V2.9h2.9Z" transform="translate(-191.297)" fill="#d1d1d1"/>
  <path id="Path_25784" data-name="Path 25784" d="M255.111,273.067a94.808,94.808,0,0,1-25.563,8.69h37.8a8.689,8.689,0,0,0,8.69-8.69Z" transform="translate(-190.588 -226.722)" fill="#aca6a6"/>
  <path id="Path_25785" data-name="Path 25785" d="M210.1,135.769a36.1,36.1,0,0,0-11.359-26.321c-10.158,14.5-28.548,23.159-41.632,27.769H210.1Z" transform="translate(-130.443 -90.872)" fill="#bebcbc"/>
  <g id="Group_12931" data-name="Group 12931" transform="translate(21.1 55.034)">
    <path id="Path_25786" data-name="Path 25786" d="M407.73,329.214a4,4,0,0,0-.21-.434,4.2,4.2,0,0,0-5.761-1.445c-.1.058-.193.12-.285.187l-2.378,1.693h8.635Z" transform="translate(-352.461 -326.317)" fill="#f7bb8f"/>
    <path id="Path_25787" data-name="Path 25787" d="M152.345,327.163a3.62,3.62,0,0,0-3.547-2.9h-18.9a5.8,5.8,0,0,0-3.709,1.342l-1.864,1.554h28.023Z" transform="translate(-124.322 -324.266)" fill="#f7bb8f"/>
  </g>
</svg>
