<svg xmlns="http://www.w3.org/2000/svg" width="133.451" height="91.658" viewBox="0 0 133.451 91.658">
  <g id="quotes" transform="translate(0 -80.25)">
    <path id="Path_26015" data-name="Path 26015" d="M29.294,113.58A29.164,29.164,0,1,1,.13,142.744L0,138.578A58.328,58.328,0,0,1,58.328,80.25V96.915a41.39,41.39,0,0,0-29.46,12.2,42.267,42.267,0,0,0-4.144,4.82A29.381,29.381,0,0,1,29.294,113.58Zm74.993,0a29.164,29.164,0,1,1-29.164,29.164l-.13-4.166A58.328,58.328,0,0,1,133.321,80.25V96.915a41.39,41.39,0,0,0-29.46,12.2,42.243,42.243,0,0,0-4.144,4.82A29.382,29.382,0,0,1,104.287,113.58Z"/>
  </g>
</svg>
