<?xml version="1.0" encoding="utf-8"?>
<!-- Generator: Adobe Illustrator 22.1.0, SVG Export Plug-In . SVG Version: 6.00 Build 0)  -->
<svg version="1.1" id="Layer_1" xmlns="http://www.w3.org/2000/svg" xmlns:xlink="http://www.w3.org/1999/xlink" x="0px" y="0px"
	 viewBox="0 0 1438.4 900" style="enable-background:new 0 0 1438.4 900;" xml:space="preserve">
<style type="text/css">
	.st0{fill:url(#Rectangle_5270_1_);}
	.st1{fill:url(#Path_25679_1_);}
	.st2{fill:url(#Path_25680_1_);}
	.st3{fill:none;}
	.st4{opacity:0.116;}
	.st5{fill:#F9FBFC;}
</style>
<g id="Group_13538" transform="translate(65.485 31.305)">
	
		<linearGradient id="Rectangle_5270_1_" gradientUnits="userSpaceOnUse" x1="11.1073" y1="454.1843" x2="11.3593" y2="453.0423" gradientTransform="matrix(1439.582 0 0 -900 -15601.0762 408435.6875)">
		<stop  offset="0" style="stop-color:#7818FA"/>
		<stop  offset="1" style="stop-color:#391C87"/>
	</linearGradient>
	<rect id="Rectangle_5270" x="-66.6" y="-31.3" class="st0" width="1439.6" height="900"/>
	
		<linearGradient id="Path_25679_1_" gradientUnits="userSpaceOnUse" x1="10.9498" y1="454.2286" x2="11.1978" y2="453.4696" gradientTransform="matrix(675.449 0 0 -651.519 -7279.4512 295776.875)">
		<stop  offset="0" style="stop-color:#7818FA"/>
		<stop  offset="1" style="stop-color:#391C87"/>
	</linearGradient>
	<path id="Path_25679" class="st1" d="M-37-31.3h645.8c-59.6,47.2-122.2,109.1-180.5,190C281.6,362.2,188.9,583.2-66.6,620.2V-1.6
		C-66.6-18-53.3-31.3-37-31.3z"/>
	
		<linearGradient id="Path_25680_1_" gradientUnits="userSpaceOnUse" x1="12.6573" y1="453.0253" x2="10.6583" y2="453.8113" gradientTransform="matrix(554.45 0 0 -564.025 -5076.6069 256443.9844)">
		<stop  offset="0" style="stop-color:#7818FA"/>
		<stop  offset="0.217" style="stop-color:#6119D1"/>
		<stop  offset="0.433" style="stop-color:#4F1AB0"/>
		<stop  offset="0.639" style="stop-color:#431B99"/>
		<stop  offset="0.833" style="stop-color:#3B1B8B"/>
		<stop  offset="1" style="stop-color:#391C87"/>
	</linearGradient>
	<path id="Path_25680" class="st2" d="M1296.6,304.7c25.6,0,51.1,2,76.3,6.1V839c0,16.4-13.3,29.7-29.7,29.7H826.2
		c-5.1-28.3-7.7-57.1-7.7-85.9C818.5,518.7,1032.6,304.7,1296.6,304.7z"/>
	<rect id="Rectangle_5100" x="-66.6" y="-31.3" class="st3" width="1440" height="900"/>
	<g id="Group_12748" transform="translate(-65.485 -31.305)" class="st4">
		<path id="Rectangle_5279" class="st5" d="M128.4-31.3h153.9c3.9,0,7,3.1,7,7v153.9c0,3.9-3.1,7-7,7H128.4c-3.9,0-7-3.1-7-7V-24.3
			C121.4-28.2,124.6-31.3,128.4-31.3z"/>
		<path id="Rectangle_5280" class="st5" d="M297.3,216.1h51.3c1.3,0,2.3,1,2.3,2.3v51.3c0,1.3-1,2.3-2.3,2.3h-51.3
			c-1.3,0-2.3-1-2.3-2.3v-51.3C294.9,217.1,296,216.1,297.3,216.1z"/>
		<path id="Rectangle_5281" class="st5" d="M-34,273.2h78c2,0,3.5,1.6,3.5,3.5v78c0,2-1.6,3.5-3.5,3.5h-78c-2,0-3.5-1.6-3.5-3.5v-78
			C-37.5,274.8-35.9,273.2-34,273.2z"/>
		<path id="Rectangle_5282" class="st5" d="M160.9,172.4h80c2,0,3.6,1.6,3.6,3.6v80c0,2-1.6,3.6-3.6,3.6h-80c-2,0-3.6-1.6-3.6-3.6
			v-80C157.3,174.1,158.9,172.4,160.9,172.4z"/>
		<path id="Rectangle_5283" class="st5" d="M97.2,292.2H130c0.8,0,1.5,0.7,1.5,1.5v32.8c0,0.8-0.7,1.5-1.5,1.5H97.2
			c-0.8,0-1.5-0.7-1.5-1.5v-32.8C95.7,292.9,96.4,292.2,97.2,292.2z"/>
		<path id="Rectangle_5284" class="st5" d="M447.2,115.3h49.3c1.2,0,2.2,1,2.2,2.2v49.3c0,1.2-1,2.2-2.2,2.2h-49.3
			c-1.2,0-2.2-1-2.2-2.2v-49.3C444.9,116.3,445.9,115.3,447.2,115.3z"/>
		<path id="Rectangle_5285" class="st5" d="M403.9,52.7h32.8c0.8,0,1.5,0.7,1.5,1.5V87c0,0.8-0.7,1.5-1.5,1.5h-32.8
			c-0.8,0-1.5-0.7-1.5-1.5V54.1C402.4,53.3,403.1,52.7,403.9,52.7z"/>
		<path id="Rectangle_5286" class="st5" d="M-59.6,76.2H94.3c3.9,0,7,3.1,7,7v153.9c0,3.9-3.1,7-7,7H-59.6c-3.9,0-7-3.1-7-7V83.2
			C-66.6,79.3-63.5,76.2-59.6,76.2z"/>
	</g>
	<path id="Rectangle_5287" class="st3" d="M-57.8-31.3h1365.9c4.9,0,8.8,4,8.8,8.8v882.3c0,4.9-4,8.8-8.8,8.8H-57.8
		c-4.9,0-8.8-4-8.8-8.8V-22.5C-66.6-27.4-62.7-31.3-57.8-31.3z"/>
</g>
</svg>
