<svg xmlns="http://www.w3.org/2000/svg" width="110" height="125.449" viewBox="0 0 110 125.449">
  <g id="Group_13537" data-name="Group 13537" transform="translate(-665 -984.051)">
    <g id="cup" transform="translate(665 999.5)">
      <path id="Path_25717" data-name="Path 25717" d="M110,55a55.026,55.026,0,0,1-76.439,50.663,54.268,54.268,0,0,1-6.524-3.293A55,55,0,1,1,110,55Z" fill="#683cd0"/>
      <path id="Path_25718" data-name="Path 25718" d="M133.911,45.992a46.014,46.014,0,0,1-63.92,42.365A45.417,45.417,0,0,1,64.536,85.6a45.995,45.995,0,1,1,69.375-39.612Z" transform="translate(-32.919)" fill="#4f2cad"/>
    </g>
    <g id="trophy_1_" data-name="trophy (1)" transform="translate(671 984.051)">
      <path id="Path_25813" data-name="Path 25813" d="M223.042,360.8H204.8l3.109-6.633,2.695-6.219h6.633l2.695,6.219Z" transform="translate(-164.171 -278.923)" fill="#f90"/>
      <path id="Path_25814" data-name="Path 25814" d="M165.064,412.735h-36.07a3.618,3.618,0,0,0-3.607,3.607v11.723h43.1V416.342A3.361,3.361,0,0,0,165.064,412.735Z" transform="translate(-97.512 -330.855)" fill="#ffbf00"/>
      <path id="Path_25815" data-name="Path 25815" d="M232.5,353.332a52.967,52.967,0,0,1-4.975,2.28l-1.036.207-1.037-.415a53.041,53.041,0,0,1-4.975-2.28l2.695-6.219h6.426Z" transform="translate(-176.735 -278.085)" fill="#ffbf00"/>
      <g id="Group_12942" data-name="Group 12942">
        <path id="Path_25816" data-name="Path 25816" d="M0,57.469v8.5a49.964,49.964,0,0,0,30.886,46.019,47.863,47.863,0,0,0,18.864,3.731,47.863,47.863,0,0,0,18.864-3.731A49.963,49.963,0,0,0,99.5,65.968v-8.5Zm91.208,8.5a41,41,0,0,1-9.535,26.326A41.719,41.719,0,0,1,49.75,107.426,41.056,41.056,0,0,1,17.827,92.294,41.737,41.737,0,0,1,8.292,65.968v-.207H91v.207Z" transform="translate(0 -46.068)" fill="#f90"/>
        <path id="Path_25817" data-name="Path 25817" d="M142.395,0H77.72a2.521,2.521,0,0,0-2.488,2.488A2.571,2.571,0,0,0,77.72,5.182h64.675a2.521,2.521,0,0,0,2.488-2.488A2.571,2.571,0,0,0,142.395,0Z" transform="translate(-60.307)" fill="#f90"/>
      </g>
      <path id="Path_25818" data-name="Path 25818" d="M152.447,26.122V48.509a50.517,50.517,0,0,1-32.337,47.055A50.793,50.793,0,0,1,87.772,48.3V26.122Z" transform="translate(-70.359 -20.94)" fill="#ffdb28"/>
      <path id="Path_25819" data-name="Path 25819" d="M177.066,73.143l4.353,13.267h13.889L184.114,94.7l4.146,13.267-11.194-8.292-11.194,8.292L170.018,94.7,158.824,86.41h13.889Z" transform="translate(-127.316 -58.633)" fill="#ff415b"/>
    </g>
  </g>
</svg>
