<svg xmlns="http://www.w3.org/2000/svg" width="82.35" height="73.763" viewBox="0 0 82.35 73.763">
  <g id="Group_12945" data-name="Group 12945" transform="translate(-683 -2311)">
    <g id="playstation" transform="translate(683 2311)">
      <path id="Path_25792" data-name="Path 25792" d="M95.568,96.6H23.246a1.519,1.519,0,0,0-1.519,1.519v3.95a1.52,1.52,0,0,0,1.519,1.519H95.568a1.519,1.519,0,0,0,1.519-1.519v-3.95A1.519,1.519,0,0,0,95.568,96.6Z" transform="translate(-18.232 -85.352)" fill="#5a5a5a"/>
      <g id="Group_12932" data-name="Group 12932" transform="translate(0 0)">
        <path id="Path_25793" data-name="Path 25793" d="M59.407,96.6H23.246a1.519,1.519,0,0,0-1.519,1.519v3.95a1.52,1.52,0,0,0,1.519,1.519H59.407Z" transform="translate(-18.232 -85.352)" fill="#958f8f"/>
        <path id="Path_25794" data-name="Path 25794" d="M80.07,26.691H2.279A2.379,2.379,0,0,0,0,29.158v8.224A2.379,2.379,0,0,0,2.279,39.85H80.07a2.379,2.379,0,0,0,2.279-2.467V29.158A2.379,2.379,0,0,0,80.07,26.691Z" transform="translate(0 -26.691)" fill="#958f8f"/>
      </g>
      <g id="Group_12933" data-name="Group 12933" transform="translate(0 0)">
        <path id="Path_25795" data-name="Path 25795" d="M41.175,26.691H2.279A2.387,2.387,0,0,0,0,29.174v8.275a2.387,2.387,0,0,0,2.279,2.483h38.9Z" transform="translate(0 -26.691)" fill="#b7b2b2"/>
        <path id="Path_25796" data-name="Path 25796" d="M80.07,118.263H2.279A2.279,2.279,0,0,0,0,120.542v20.813a2.279,2.279,0,0,0,2.279,2.279H80.07a2.279,2.279,0,0,0,2.279-2.279V120.542A2.279,2.279,0,0,0,80.07,118.263Z" transform="translate(0 -103.535)" fill="#b7b2b2"/>
      </g>
      <path id="Path_25797" data-name="Path 25797" d="M41.175,118.263H2.279A2.279,2.279,0,0,0,0,120.542v20.813a2.279,2.279,0,0,0,2.279,2.279h38.9Z" transform="translate(0 -103.535)" fill="#d1d1d1"/>
      <path id="Path_25798" data-name="Path 25798" d="M44.434,172.049H39.608a1.608,1.608,0,1,0,0,3.217h4.825a1.608,1.608,0,1,0,0-3.217Z" transform="translate(-31.888 -148.67)" fill="#fff"/>
    </g>
    <g id="Group_12934" data-name="Group 12934" transform="translate(686.859 2339.56)">
      <g id="Group_12934-2" data-name="Group 12934" transform="translate(11.742 0)">
        <path id="Path_25799" data-name="Path 25799" d="M362.238,216.049h-4.825a2.413,2.413,0,0,0,0,4.825h4.825a2.413,2.413,0,1,0,0-4.825Z" transform="translate(-313.503 -216.049)" fill="#aa0d52"/>
        <path id="Path_25800" data-name="Path 25800" d="M104.238,216.049H99.413a2.413,2.413,0,1,0,0,4.825h4.825a2.413,2.413,0,1,0,0-4.825Z" transform="translate(-97 -216.049)" fill="#aa0d52"/>
      </g>
      <path id="Path_25801" data-name="Path 25801" d="M98.481,258.531l-5.569-25.223a11.8,11.8,0,0,0-14.062-8.975l-5.817,1.284H49.586l-5.818-1.284a11.8,11.8,0,0,0-14.061,8.975l-5.568,25.224a6.073,6.073,0,0,0,4.621,7.239A12.572,12.572,0,0,0,43.747,256.2l.576-2.61a8.293,8.293,0,0,0,13.361-3.527l7.3-.007a8.294,8.294,0,0,0,13.279,3.4l.606,2.745a12.586,12.586,0,0,0,12.249,9.867,12.73,12.73,0,0,0,2.738-.3,6.072,6.072,0,0,0,4.621-7.239Z" transform="translate(-23.994 -220.868)" fill="#e81270"/>
      <g id="Group_12935" data-name="Group 12935" transform="translate(53.721 11.546)">
        <ellipse id="Ellipse_1331" data-name="Ellipse 1331" cx="2.332" cy="2.332" rx="2.332" ry="2.332" transform="translate(3.699)" fill="#fff"/>
        <ellipse id="Ellipse_1332" data-name="Ellipse 1332" cx="2.332" cy="2.332" rx="2.332" ry="2.332" transform="translate(3.699 7.399)" fill="#fff"/>
        <ellipse id="Ellipse_1333" data-name="Ellipse 1333" cx="2.332" cy="2.332" rx="2.332" ry="2.332" transform="translate(7.399 3.699)" fill="#fff"/>
        <ellipse id="Ellipse_1334" data-name="Ellipse 1334" cx="2.332" cy="2.332" rx="2.332" ry="2.332" transform="translate(0 3.699)" fill="#fff"/>
      </g>
      <path id="Path_25803" data-name="Path 25803" d="M216.607,266.259h-15.2A1.407,1.407,0,0,1,200,264.852v-6.836a1.407,1.407,0,0,1,1.407-1.407h15.2a1.407,1.407,0,0,1,1.407,1.407v6.836A1.407,1.407,0,0,1,216.607,266.259Z" transform="translate(-171.691 -248.19)" fill="#f7c8a5"/>
      <path id="Path_25806" data-name="Path 25806" d="M4.76,0A4.76,4.76,0,1,1,0,4.76,4.76,4.76,0,0,1,4.76,0Z" transform="translate(21.075 21.759)" fill="#aa0d52"/>
      <g id="Group_12936" data-name="Group 12936" transform="translate(11.691 11.804)">
        <ellipse id="Ellipse_1336" data-name="Ellipse 1336" cx="4.76" cy="4.76" rx="4.76" ry="4.76" transform="translate(32.346 9.794)" fill="#aa0d52"/>
        <path id="Path_25804" data-name="Path 25804" d="M105.237,280.374h-1.658a.531.531,0,0,1-.531-.531v-1.658a.531.531,0,0,0-.531-.531H99.935a.531.531,0,0,0-.531.531v1.658a.531.531,0,0,1-.531.531H97.214a.531.531,0,0,0-.531.531v2.582a.531.531,0,0,0,.531.531h1.658a.531.531,0,0,1,.531.531v1.658a.531.531,0,0,0,.531.531h2.582a.531.531,0,0,0,.531-.531v-1.658a.531.531,0,0,1,.531-.531h1.658a.531.531,0,0,0,.531-.531V280.9A.531.531,0,0,0,105.237,280.374Z" transform="translate(-96.683 -277.653)" fill="#fff"/>
      </g>
    </g>
  </g>
</svg>
