<svg width="26" height="28" viewBox="0 0 26 28" fill="none" xmlns="http://www.w3.org/2000/svg">
<path d="M18.6127 3.99892C21.0372 3.99892 22.9868 5.961 22.9868 8.37298C22.9868 10.735 21.1122 12.6595 18.7752 12.747C18.6672 12.7345 18.5582 12.7345 18.4503 12.747M21.0247 23.9946C21.9245 23.8071 22.7743 23.4447 23.4742 22.9073C25.4238 21.4452 25.4238 19.0332 23.4742 17.571C22.7868 17.0461 21.9495 16.6962 21.0622 16.4962M9.55219 12.5846C9.42721 12.5721 9.27725 12.5721 9.13978 12.5846C7.70534 12.5359 6.34618 11.9308 5.35013 10.8974C4.35408 9.86401 3.79936 8.48352 3.80343 7.04826C3.80343 3.98642 6.2779 1.49946 9.35223 1.49946C10.8222 1.47294 12.2425 2.03146 13.3007 3.05214C14.3589 4.07282 14.9682 5.47206 14.9948 6.94203C15.0213 8.41201 14.4628 9.83231 13.4421 10.8905C12.4214 11.9487 11.0222 12.558 9.55219 12.5846ZM3.30354 17.1961C0.279192 19.2206 0.279192 22.5199 3.30354 24.532C6.7403 26.8315 12.3766 26.8315 15.8133 24.532C18.8377 22.5074 18.8377 19.2081 15.8133 17.1961C12.3891 14.9091 6.75279 14.9091 3.30354 17.1961Z" stroke="" stroke-width="1.5" stroke-linecap="round" stroke-linejoin="round"/>
</svg>
