<svg width="32" height="32" viewBox="0 0 32 32" fill="none" xmlns="http://www.w3.org/2000/svg">
<path d="M16.4374 3.25533L16.3986 3.34583L12.6494 12.0465H8.96489C8.08577 12.0465 7.24543 12.2275 6.48267 12.5507L8.74511 7.14673L8.79682 7.01745L8.88732 6.8106C8.91318 6.73303 8.93903 6.65546 8.97782 6.59082C10.6714 2.67356 12.5848 1.78151 16.4374 3.25533Z" stroke="" stroke-width="1.5" stroke-linecap="round" stroke-linejoin="round"/>
<path d="M23.4058 12.3051C22.8241 12.1241 22.2035 12.0465 21.583 12.0465H12.6495L16.3987 3.34583L16.4375 3.25533C16.6314 3.31997 16.8124 3.41047 17.0064 3.48804L19.8635 4.69037C21.4537 5.34971 22.5655 6.0349 23.2378 6.86231C23.367 7.01745 23.4705 7.15966 23.561 7.32773C23.6773 7.50872 23.7678 7.68972 23.8195 7.88364C23.8713 8 23.91 8.11635 23.9359 8.21978C24.285 9.30575 24.0781 10.6374 23.4058 12.3051Z" stroke="" stroke-width="1.5" stroke-linecap="round" stroke-linejoin="round"/>
<path d="M27.8945 18.3555V20.8765C27.8945 21.1351 27.8816 21.3937 27.8687 21.6522C27.623 26.1642 25.102 28.4395 20.3186 28.4395H10.2345C9.92425 28.4395 9.61397 28.4137 9.31662 28.3749C5.20544 28.1034 3.00764 25.9056 2.73615 21.7944C2.69737 21.4971 2.67151 21.1868 2.67151 20.8765V18.3555C2.67151 15.7569 4.24875 13.5204 6.49827 12.5507C7.27396 12.2275 8.10137 12.0465 8.98049 12.0465H21.5985C22.2319 12.0465 22.8525 12.137 23.4213 12.3051C25.9941 13.0937 27.8945 15.4984 27.8945 18.3555Z" stroke="" stroke-width="1.5" stroke-linecap="round" stroke-linejoin="round"/>
<path d="M8.74521 7.14673L6.48277 12.5507C5.34781 13.039 4.38064 13.8489 3.7006 14.8804C3.02057 15.9119 2.65743 17.12 2.65601 18.3555V14.5675C2.65601 10.8959 5.26751 7.83193 8.74521 7.14673ZM27.8906 14.5675V18.3555C27.8906 15.5113 26.0031 13.0937 23.4175 12.318C24.0897 10.6374 24.2837 9.31868 23.9605 8.21978C23.9346 8.10342 23.8958 7.98707 23.8441 7.88364C26.2488 9.12475 27.8906 11.6716 27.8906 14.5675Z" stroke="" stroke-width="1.5" stroke-linecap="round" stroke-linejoin="round"/>
</svg>
