<svg width="23" height="7" viewBox="0 0 23 7" fill="none" xmlns="http://www.w3.org/2000/svg">
<path fill-rule="evenodd" clip-rule="evenodd" d="M5.41755 3.62314C5.41755 5.11916 4.20479 6.33192 2.70877 6.33192C1.21276 6.33192 0 5.11916 0 3.62314C0 2.12713 1.21276 0.914368 2.70877 0.914368C4.20479 0.914368 5.41755 2.12713 5.41755 3.62314ZM14.0857 3.62315C14.0857 5.11916 12.8729 6.33192 11.3769 6.33192C9.88089 6.33192 8.66813 5.11916 8.66813 3.62315C8.66813 2.12713 9.88089 0.914374 11.3769 0.914374C12.8729 0.914374 14.0857 2.12713 14.0857 3.62315ZM20.045 6.33192C21.541 6.33192 22.7538 5.11916 22.7538 3.62315C22.7538 2.12713 21.541 0.914374 20.045 0.914374C18.549 0.914374 17.3362 2.12713 17.3362 3.62315C17.3362 5.11916 18.549 6.33192 20.045 6.33192Z" fill="#8A8A8A"/>
</svg>
