<svg width="21" height="21" viewBox="0 0 21 21" fill="none" xmlns="http://www.w3.org/2000/svg">
<path d="M13.8839 13.8839C13.1831 14.5847 12.3511 15.1407 11.4354 15.5199C10.5197 15.8992 9.53834 16.0944 8.54722 16.0944C6.54557 16.0944 4.62591 15.2993 3.21053 13.8839C1.79515 12.4685 1 10.5489 1 8.54722C1 6.54557 1.79515 4.62591 3.21053 3.21053C4.62591 1.79515 6.54557 1 8.54722 1C9.53834 1 10.5197 1.19521 11.4354 1.5745C12.3511 1.95378 13.1831 2.50971 13.8839 3.21053C14.5847 3.91135 15.1407 4.74335 15.5199 5.65902C15.8992 6.5747 16.0944 7.55611 16.0944 8.54722C16.0944 9.53834 15.8992 10.5197 15.5199 11.4354C15.1407 12.3511 14.5847 13.1831 13.8839 13.8839ZM13.8839 13.8839L20 20" stroke="" stroke-width="2" stroke-linecap="round" stroke-linejoin="round"/>
</svg>
