<?xml version="1.0" encoding="utf-8"?>
<!-- Generator: Adobe Illustrator 22.1.0, SVG Export Plug-In . SVG Version: 6.00 Build 0)  -->
<svg version="1.1" id="Layer_1" xmlns="http://www.w3.org/2000/svg" xmlns:xlink="http://www.w3.org/1999/xlink" x="0px" y="0px"
	 viewBox="0 0 106.1 77.1" style="enable-background:new 0 0 106.1 77.1;" xml:space="preserve">
<style type="text/css">
	.st0{enable-background:new    ;}
	.st1{fill:#808080;}
	.st2{fill:none;}
	.st3{fill:none;stroke:#F26D8C;stroke-width:3;}
	.st4{fill:#FFFFFF;}
	.st5{fill:none;stroke:#F26D8C;stroke-width:2;}
	.st6{fill:none;stroke:#F26D8C;stroke-width:2;stroke-linecap:round;stroke-dasharray:0.1,5.2;}
</style>
<g class="st0">
	<path class="st1" d="M46.3,48.6h-1.2c-1.9,0-3.3-0.8-4.1-2.3c-0.8,1.5-2.2,2.3-4.2,2.3c-2.1,0-3.5-0.8-4.3-2.5
		c-0.7,1.7-1.9,2.5-3.6,2.5c-1.3,0-2.3-0.2-2.9-0.7c0,3.5-0.9,6.4-2.6,8.7c-2.1,2.6-5.1,3.9-9,3.9c-3.5,0-6.1-1.1-7.8-3.4
		c-1.4-1.8-2-4-2-6.6c0-4,0.9-6,2.8-6c1,0,1.5,0.6,1.5,1.8c0,0.4-0.1,1-0.2,1.8s-0.2,1.4-0.2,1.8c0,1.9,0.6,3.4,1.7,4.4
		c1.1,1,2.6,1.5,4.6,1.5c2.4,0,4.2-0.6,5.5-1.8c1.4-1.3,2.1-3.1,2.1-5.4c0-0.7-0.3-1.8-0.8-3.1s-0.8-2.3-0.8-2.8
		c0-1.4,0.7-2.1,2.1-2.1c0.5,0,1.1,0.3,1.5,0.9c0.7,0.9,1.2,1.5,1.4,1.6c0.7,0.6,1.7,0.9,2.9,0.9c1.2,0,2-0.8,2.3-2.4
		c0.2-1.3,0.8-2,1.8-2c1,0,1.6,0.7,1.7,2c0.2,1.6,1,2.4,2.4,2.4c1.5,0,2.4-0.8,2.6-2.5c0.2-1.3,0.7-1.9,1.6-1.9c1,0,1.6,0.7,1.8,2
		c0.2,0.9,0.4,1.5,0.8,1.8c0.4,0.3,1.1,0.5,2,0.5h0.8V48.6z"/>
	<path class="st1" d="M67.7,48.6h-1.4c-3.4,0-6.2-1.6-8.5-4.8c-0.5,2.1-1.9,3.5-4.1,4.2c-1.4,0.4-3.9,0.7-7.4,0.7h-1.2v-4.8h1.8
		c2.7,0,4.3,0,4.8-0.1c2-0.2,2.9-0.8,2.9-1.7c0-0.7-1.1-2.1-3.4-4c-2.6-2.2-4.1-3.7-4.6-4.6c-0.3-0.5-0.4-1.1-0.4-1.9
		c0-1.6,0.6-2.8,1.8-3.6c2.6-1.6,6.8-3.1,12.5-4.4c0.4-0.1,0.7-0.1,0.9-0.1c1.6,0,2.3,0.7,2.3,2c0,1-0.6,1.6-1.8,1.9
		c-3.9,0.9-7.5,2-10.9,3.3c-0.3,0.1-0.5,0.3-0.5,0.6c0,0.3,0.1,0.5,0.4,0.8c1.7,1.4,3.7,3.2,6.1,5.5c0.7,0.7,1.9,2,3.9,3.9
		c1.6,1.6,3.4,2.4,5.2,2.4h1.7V48.6z"/>
	<path class="st1" d="M78.7,48.6h-1.3c-0.9,0-1.8-0.2-2.6-0.7c-0.9-0.5-1.5-1.1-1.8-1.9c-0.9,1.7-2.6,2.6-5.2,2.6h-1.4v-4.8h1.3
		c1.4,0,2.2-0.4,2.6-1.2c0.3-0.5,0.4-1.6,0.4-3.1l-0.3-13.6c0-0.7,0.2-1.3,0.5-1.7c0.4-0.5,0.9-0.8,1.6-0.8c0.6,0,1.1,0.2,1.5,0.7
		c0.4,0.5,0.5,1,0.5,1.7v12.9c0,3.4,1,5.1,3.1,5.1h1V48.6z"/>
	<path class="st1" d="M86.5,41.1c0,2.3-0.6,4.1-1.9,5.4s-3.1,2-5.4,2h-1.6v-4.8h1.9c2,0,3.1-0.7,3.1-2.1c0-0.4-0.1-1-0.3-1.8
		c-0.2-0.8-0.3-1.4-0.3-1.8c0-0.6,0.2-1,0.5-1.5s0.8-0.6,1.4-0.6C85.6,36,86.5,37.7,86.5,41.1z M83.3,55c0,0.7-0.2,1.2-0.7,1.7
		s-1,0.7-1.7,0.7s-1.2-0.2-1.7-0.7s-0.7-1-0.7-1.7s0.2-1.2,0.7-1.7s1-0.7,1.7-0.7c0.6,0,1.2,0.2,1.7,0.7S83.3,54.3,83.3,55z M89,55
		c0,0.7-0.2,1.2-0.7,1.7s-1,0.7-1.7,0.7s-1.2-0.2-1.7-0.7s-0.7-1-0.7-1.7c0-0.6,0.2-1.2,0.7-1.7s1-0.7,1.7-0.7
		c0.7,0,1.2,0.2,1.7,0.7S89,54.3,89,55z"/>
	<path class="st1" d="M105.9,39.7c0,0.5,0.1,1,0.1,1.5c0,3.7-1.1,6.9-3.3,9.5c-2.1,2.5-4.9,4.3-8.6,5.3c-0.3,0.1-0.6,0.1-0.9,0.1
		c-1.4,0-2-0.6-2-1.8c0-1,0.6-1.8,1.9-2.4c3.2-1.4,5.3-2.8,6.5-4c1.4-1.4,2-3.4,2-5.8c0-0.3,0-0.7-0.1-1.2s-0.1-1-0.1-1.2
		c0-2.2,0.7-3.4,2-3.4C104.9,36.2,105.7,37.4,105.9,39.7z"/>
</g>
<g id="Group_13624" transform="translate(1269.107 117)">
	<g id="Ellipse_1508">
		<circle class="st2" cx="-1176.5" cy="-103.5" r="13.5"/>
		<circle class="st3" cx="-1176.5" cy="-103.5" r="12"/>
	</g>
	<g id="Ellipse_1509" transform="translate(12.166 12.166)">
		<circle class="st4" cx="-1188.6" cy="-115.6" r="1.4"/>
		<circle class="st5" cx="-1188.6" cy="-115.6" r="0.4"/>
	</g>
	<g id="Ellipse_1510" transform="translate(6.759 6.759)">
		<circle class="st2" cx="-1183.2" cy="-110.2" r="6.8"/>
		<circle class="st6" cx="-1183.2" cy="-110.2" r="5.8"/>
	</g>
</g>
</svg>
