<svg xmlns="http://www.w3.org/2000/svg" xmlns:xlink="http://www.w3.org/1999/xlink" width="807.188" height="651.543" viewBox="0 0 807.188 651.543" data-inject-url="http://localhost:5080/other/test/public/media/editor.svg">
  <defs>
    <clipPath id="clip-path--inject-1">
      <rect width="807.189" height="651.544" fill="none"></rect>
    </clipPath>
    <filter id="Path_25726--inject-1" x="0" y="22.309" width="796.254" height="629.234" filterUnits="userSpaceOnUse">
      <feOffset dy="45" input="SourceAlpha"></feOffset>
      <feGaussianBlur stdDeviation="49.5" result="blur"></feGaussianBlur>
      <feFlood flood-color="#8a9baf" flood-opacity="0.451"></feFlood>
      <feComposite operator="in" in2="blur"></feComposite>
      <feComposite in="SourceGraphic"></feComposite>
    </filter>
    <filter id="Rectangle_5527--inject-1" x="341.46" y="296.23" width="257.644" height="47.488" filterUnits="userSpaceOnUse">
      <feOffset dx="-10" dy="12" input="SourceAlpha"></feOffset>
      <feGaussianBlur stdDeviation="5" result="blur-2"></feGaussianBlur>
      <feFlood flood-color="#376599" flood-opacity="0.051"></feFlood>
      <feComposite operator="in" in2="blur-2"></feComposite>
      <feComposite in="SourceGraphic"></feComposite>
    </filter>
    <filter id="Rectangle_5528--inject-1" x="341.46" y="333.051" width="257.644" height="35.213" filterUnits="userSpaceOnUse">
      <feOffset dx="-10" dy="12" input="SourceAlpha"></feOffset>
      <feGaussianBlur stdDeviation="5" result="blur-3"></feGaussianBlur>
      <feFlood flood-color="#376599" flood-opacity="0.051"></feFlood>
      <feComposite operator="in" in2="blur-3"></feComposite>
      <feComposite in="SourceGraphic"></feComposite>
    </filter>
    <filter id="Rectangle_5529--inject-1" x="341.46" y="348.906" width="257.644" height="35.213" filterUnits="userSpaceOnUse">
      <feOffset dx="-10" dy="12" input="SourceAlpha"></feOffset>
      <feGaussianBlur stdDeviation="5" result="blur-4"></feGaussianBlur>
      <feFlood flood-color="#376599" flood-opacity="0.051"></feFlood>
      <feComposite operator="in" in2="blur-4"></feComposite>
      <feComposite in="SourceGraphic"></feComposite>
    </filter>
    <filter id="Rectangle_5530--inject-1" x="414.425" y="364.762" width="184.68" height="35.213" filterUnits="userSpaceOnUse">
      <feOffset dx="-10" dy="12" input="SourceAlpha"></feOffset>
      <feGaussianBlur stdDeviation="5" result="blur-5"></feGaussianBlur>
      <feFlood flood-color="#376599" flood-opacity="0.051"></feFlood>
      <feComposite operator="in" in2="blur-5"></feComposite>
      <feComposite in="SourceGraphic"></feComposite>
    </filter>
    <pattern id="pattern--inject-1" preserveAspectRatio="xMidYMid slice" width="100%" height="100%" viewBox="0 0 5184 3456">
      <image width="5184" height="3456" xlink:href="https://landik.ir/wp-content/themes/landik/public/media/home/intro.jpg"></image>
    </pattern>
    <filter id="ines-alvarez-fdez-493717-unsplash--inject-1" x="6.526" y="141.9" width="402.677" height="390.678" filterUnits="userSpaceOnUse">
      <feOffset dx="-12" dy="22" input="SourceAlpha"></feOffset>
      <feGaussianBlur stdDeviation="35" result="blur-6"></feGaussianBlur>
      <feFlood flood-color="#8a9baf" flood-opacity="0.251"></feFlood>
      <feComposite operator="in" in2="blur-6"></feComposite>
      <feComposite in="SourceGraphic"></feComposite>
    </filter>
    <filter id="Path_25765--inject-1" x="167.09" y="355.928" width="204.167" height="117.1" filterUnits="userSpaceOnUse">
      <feOffset dx="-5" dy="9" input="SourceAlpha"></feOffset>
      <feGaussianBlur stdDeviation="12.5" result="blur-7"></feGaussianBlur>
      <feFlood flood-color="#8a9baf" flood-opacity="0.251"></feFlood>
      <feComposite operator="in" in2="blur-7"></feComposite>
      <feComposite in="SourceGraphic"></feComposite>
    </filter>
    <filter id="Ellipse_1293--inject-1" x="530.01" y="238.049" width="69.094" height="69.094" filterUnits="userSpaceOnUse">
      <feOffset dx="-10" dy="12" input="SourceAlpha"></feOffset>
      <feGaussianBlur stdDeviation="5" result="blur-8"></feGaussianBlur>
      <feFlood flood-color="#376599" flood-opacity="0.071"></feFlood>
      <feComposite operator="in" in2="blur-8"></feComposite>
      <feComposite in="SourceGraphic"></feComposite>
    </filter>
    <filter id="Path_25725--inject-1" x="41.026" y="0" width="766.163" height="346.576" filterUnits="userSpaceOnUse">
      <feOffset dx="-12" dy="36" input="SourceAlpha"></feOffset>
      <feGaussianBlur stdDeviation="43.5" result="blur-9"></feGaussianBlur>
      <feFlood flood-color="#8a9baf" flood-opacity="0.251"></feFlood>
      <feComposite operator="in" in2="blur-9"></feComposite>
      <feComposite in="SourceGraphic"></feComposite>
    </filter>
  <pattern id="pattern--inject-1" preserveAspectRatio="xMidYMid slice" width="100%" height="100%" viewBox="0 0 5184 3456">
      <image width="5184" height="3456" xlink:href="https://landik.ir/wp-content/themes/landik/public/media/home/intro.jpg"></image>
    </pattern></defs>
  <g id="Component_6_1--inject-1" data-name="Component 6 – 1" transform="translate(0 0)" clip-path="url(#clip-path--inject-1)">
    <g id="Group_12827--inject-1" data-name="Group 12827" transform="translate(123.526 125.808)">
      <g id="Group_12816--inject-1" data-name="Group 12816" transform="translate(0 0)">
        <g transform="matrix(1, 0, 0, 1, -123.53, -125.81)" filter="url(#Path_25726--inject-1)">
          <path id="Path_25726-2--inject-1" data-name="Path 25726" d="M16.636,0H482.619a16.636,16.636,0,0,1,16.636,16.636V315.6a16.636,16.636,0,0,1-16.636,16.636H16.636A16.636,16.636,0,0,1,0,315.6V16.636A16.636,16.636,0,0,1,16.636,0Z" transform="translate(148.5 125.81)" fill="#FFFFFF" opacity="0.7"></path>
        </g>
        <g transform="matrix(1, 0, 0, 1, -123.53, -125.81)" filter="url(#Rectangle_5527--inject-1)">
          <rect id="Rectangle_5527-2--inject-1" data-name="Rectangle 5527" width="227.644" height="17.489" transform="translate(366.46 299.23)" fill="#C1CAD4"></rect>
        </g>
        <g transform="matrix(1, 0, 0, 1, -123.53, -125.81)" filter="url(#Rectangle_5528--inject-1)">
          <rect id="Rectangle_5528-2--inject-1" data-name="Rectangle 5528" width="227.644" height="5.212" transform="translate(366.46 336.05)" fill="#C1CAD4"></rect>
        </g>
        <g transform="matrix(1, 0, 0, 1, -123.53, -125.81)" filter="url(#Rectangle_5529--inject-1)">
          <rect id="Rectangle_5529-2--inject-1" data-name="Rectangle 5529" width="227.644" height="5.212" transform="translate(366.46 351.91)" fill="#C1CAD4"></rect>
        </g>
        <g transform="matrix(1, 0, 0, 1, -123.53, -125.81)" filter="url(#Rectangle_5530--inject-1)">
          <rect id="Rectangle_5530-2--inject-1" data-name="Rectangle 5530" width="154.68" height="5.212" transform="translate(439.43 367.76)" fill="#C1CAD4"></rect>
        </g>
        <g transform="matrix(1, 0, 0, 1, -123.53, -125.81)" filter="url(#ines-alvarez-fdez-493717-unsplash--inject-1)">
          <rect id="ines-alvarez-fdez-493717-unsplash-2--inject-1" data-name="ines-alvarez-fdez-493717-unsplash" width="192.677" height="180.677" rx="7" transform="translate(123.53 224.9)" fill="url(&quot;#pattern--inject-1&quot;)"></rect>
        </g>
        <g id="Group_12854--inject-1" data-name="Group 12854" transform="translate(86.064 258.619)">
          <g transform="matrix(1, 0, 0, 1, -209.59, -384.43)" filter="url(#Path_25765--inject-1)">
            <path id="Path_25765-2--inject-1" data-name="Path 25765" d="M7,0H122.167a7,7,0,0,1,7,7V35.1a7,7,0,0,1-7,7H7a7,7,0,0,1-7-7V7A7,7,0,0,1,7,0Z" transform="translate(209.59 384.43)" fill="#3F98EE"></path>
          </g>
          <g id="baseline-open_with-24px--inject-1" transform="translate(11.296 10.253)">
            <path id="Path_25687--inject-1" data-name="Path 25687" d="M8.944,8.061h3.531V5.413h2.648L10.709,1,6.3,5.413H8.944Zm-.883.883H5.413V6.3L1,10.709l4.413,4.413V12.475H8.061Zm12.357,1.765L16.005,6.3V8.944H13.357v3.531h2.648v2.648Zm-7.944,2.648H8.944v2.648H6.3l4.413,4.413,4.413-4.413H12.475Z" transform="translate(-0.117 -0.117)" fill="#FFFFFF"></path>
            <path id="Path_25688--inject-1" data-name="Path 25688" d="M0,0H21.184V21.184H0Z" fill="none"></path>
          </g>
          <g id="baseline-more_horiz-24px--inject-1" transform="translate(96.032 10.253)">
            <path id="Path_25689--inject-1" data-name="Path 25689" d="M0,0H21.184V21.184H0Z" fill="none"></path>
            <path id="Path_25690--inject-1" data-name="Path 25690" d="M5.765,10a1.765,1.765,0,1,0,1.765,1.765A1.771,1.771,0,0,0,5.765,10Zm10.592,0a1.765,1.765,0,1,0,1.765,1.765A1.771,1.771,0,0,0,16.357,10Zm-5.3,0a1.765,1.765,0,1,0,1.765,1.765A1.771,1.771,0,0,0,11.061,10Z" transform="translate(-0.469 -1.173)" fill="#FFFFFF"></path>
          </g>
          <g id="baseline-color_lens-24px--inject-1" transform="translate(53.664 10.253)">
            <path id="Path_25691--inject-1" data-name="Path 25691" d="M10.944,3a7.944,7.944,0,1,0,0,15.888,1.325,1.325,0,0,0,.98-2.216,1.319,1.319,0,0,1,.989-2.2h1.562a4.415,4.415,0,0,0,4.413-4.413C18.888,6.16,15.331,3,10.944,3ZM6.089,10.944A1.324,1.324,0,1,1,7.413,9.62,1.322,1.322,0,0,1,6.089,10.944ZM8.737,7.413a1.324,1.324,0,1,1,1.324-1.324A1.322,1.322,0,0,1,8.737,7.413Zm4.413,0a1.324,1.324,0,1,1,1.324-1.324A1.322,1.322,0,0,1,13.151,7.413ZM15.8,10.944A1.324,1.324,0,1,1,17.123,9.62,1.322,1.322,0,0,1,15.8,10.944Z" transform="translate(-0.352 -0.352)" fill="#FFFFFF"></path>
            <path id="Path_25692--inject-1" data-name="Path 25692" d="M0,0H21.184V21.184H0Z" fill="none"></path>
          </g>
        </g>
        <g transform="matrix(1, 0, 0, 1, -123.53, -125.81)" filter="url(#Ellipse_1293--inject-1)">
          <ellipse id="Ellipse_1293-2--inject-1" data-name="Ellipse 1293" cx="19.547" cy="19.547" rx="19.547" ry="19.547" transform="translate(555.01 241.05)" fill="#C1CAD4"></ellipse>
        </g>
        <g id="Group_13329--inject-1" data-name="Group 13329" transform="translate(442.819 126.598)">
          <path id="Path_25666--inject-1" data-name="Path 25666" d="M0,0H15.986V15.986H0Z" fill="none"></path>
          <g id="Group_13140--inject-1" data-name="Group 13140" transform="translate(0.5 0.5)">
            <path id="Path_25846--inject-1" data-name="Path 25846" d="M13.933,1H3.054A2.056,2.056,0,0,0,1,3.054V13.933a2.056,2.056,0,0,0,2.054,2.054H13.933a2.057,2.057,0,0,0,2.054-2.054V3.054A2.056,2.056,0,0,0,13.933,1ZM3.054,2H13.933a1.056,1.056,0,0,1,1.055,1.055v8.23L11.344,7.641a.5.5,0,0,0-.706,0L7.417,10.862l-2.163-1.3a.5.5,0,0,0-.548.022L2,11.519V3.054A1.056,1.056,0,0,1,3.054,2ZM13.933,14.988H3.054A1.056,1.056,0,0,1,2,13.933V12.747L5.02,10.589l2.217,1.33a.5.5,0,0,0,.61-.075L10.991,8.7l4,4v1.236A1.056,1.056,0,0,1,13.933,14.988Z" transform="translate(-1 -1)" fill="#FFFFFF"></path>
            <path id="Path_25847--inject-1" data-name="Path 25847" d="M9,11A2,2,0,1,0,7,9,2,2,0,0,0,9,11ZM9,8A1,1,0,1,1,8,9,1,1,0,0,1,9,8Z" transform="translate(-4.003 -4.003)" fill="#FFFFFF"></path>
          </g>
        </g>
      </g>
    </g>
    <g id="Group_12853--inject-1" data-name="Group 12853" transform="translate(183.462 94.464)">
      <g id="Group_12812--inject-1" data-name="Group 12812" transform="translate(0 0)">
        <g transform="matrix(1, 0, 0, 1, -183.46, -94.46)" filter="url(#Path_25725--inject-1)">
          <path id="Path_25725-2--inject-1" data-name="Path 25725" d="M7.333,0h490.5c4.05,0,7.332,3.724,7.332,8.318v68.94c0,4.594-3.283,8.318-7.332,8.318H7.333C3.283,85.575,0,81.851,0,77.257V8.318C0,3.724,3.283,0,7.333,0Z" transform="translate(183.53 94.5)" fill="#FFFFFF"></path>
        </g>
        <line id="Line_1853--inject-1" data-name="Line 1853" x1="505.08" transform="translate(0.294 43.948)" fill="none" stroke="#8A9BAF" stroke-width="1" opacity="0.2"></line>
        <g id="Group_12760--inject-1" data-name="Group 12760" transform="translate(14.031 9.687)">
          <rect id="Rectangle_5297--inject-1" data-name="Rectangle 5297" width="56.532" height="23.961" rx="4" transform="translate(0 0)" fill="#3F98EE"></rect>
        </g>
        <g id="Group_12785--inject-1" data-name="Group 12785" transform="translate(76.394 9.687)">
          <g id="Group_12823--inject-1" data-name="Group 12823">
            <rect id="Rectangle_5297-2--inject-1" data-name="Rectangle 5297" width="56.532" height="23.961" rx="4" fill="#EEF4FB"></rect>
          </g>
        </g>
        <g id="Group_12727--inject-1" data-name="Group 12727" transform="translate(475.996 13.273)">
          <g id="baseline-keyboard_backspace-24px--inject-1" transform="translate(0 0)">
            <path id="Path_25673--inject-1" data-name="Path 25673" d="M16.152,0H0V16.152H16.152Z" fill="none"></path>
            <path id="Path_25674--inject-1" data-name="Path 25674" d="M3,9.365h9.536L10.127,6.949,11.076,6l4.038,4.038-4.038,4.038-.949-.949,2.409-2.416H3Z" transform="translate(-0.981 -1.962)" fill="#B8C2CE"></path>
          </g>
        </g>
        <line id="Line_1884--inject-1" data-name="Line 1884" y2="43.508" transform="translate(463.107)" fill="none" stroke="#8A9BAF" stroke-width="1" opacity="0.15"></line>
        <line id="Line_1885--inject-1" data-name="Line 1885" y2="43.508" transform="translate(420.931)" fill="none" stroke="#8A9BAF" stroke-width="1" opacity="0.15"></line>
        <g id="baseline-settings-20px--inject-1" transform="translate(434.157 13.506)">
          <path id="Path_25653--inject-1" data-name="Path 25653" d="M0,0H16.152V16.152H0Z" fill="none"></path>
          <path id="Path_25654--inject-1" data-name="Path 25654" d="M12.652,8.633a4.9,4.9,0,0,0,.038-.589,3.705,3.705,0,0,0-.046-.589l1.284-1A.311.311,0,0,0,14,6.072L12.789,3.979a.31.31,0,0,0-.372-.136l-1.512.6a4.457,4.457,0,0,0-1.026-.589l-.228-1.6A.3.3,0,0,0,9.347,2H6.916a.3.3,0,0,0-.3.257l-.228,1.6a4.577,4.577,0,0,0-1.026.589l-1.512-.6a.3.3,0,0,0-.372.136L2.266,6.072a.292.292,0,0,0,.076.385l1.284,1a3.54,3.54,0,0,0-.008,1.178l-1.284,1a.311.311,0,0,0-.076.385l1.216,2.093a.31.31,0,0,0,.372.136l1.512-.6a4.457,4.457,0,0,0,1.026.589l.228,1.6a.309.309,0,0,0,.3.257H9.347a.29.29,0,0,0,.3-.257l.228-1.6a4.577,4.577,0,0,0,1.026-.589l1.512.6a.3.3,0,0,0,.372-.136L14,10.015a.292.292,0,0,0-.076-.385ZM8.131,10.31a2.266,2.266,0,1,1,2.279-2.266A2.279,2.279,0,0,1,8.131,10.31Z" transform="translate(-0.054 0.019)" fill="#B8C2CE"></path>
        </g>
        <g id="Group_12821--inject-1" data-name="Group 12821" transform="translate(218.495 9.379)">
          <path id="Path_25706--inject-1" data-name="Path 25706" d="M2.148,0H66.04a2.339,2.339,0,0,1,2.148,2.491V22.423a2.339,2.339,0,0,1-2.148,2.491H2.148A2.339,2.339,0,0,1,0,22.423V2.491A2.339,2.339,0,0,1,2.148,0Z" transform="translate(0)" fill="#EEF5FB"></path>
          <path id="Path_25703--inject-1" data-name="Path 25703" d="M0,0H14.108V14.949H0Z" transform="translate(48.79 4.983)" fill="none"></path>
          <path id="Path_25707--inject-1" data-name="Path 25707" d="M2.131,0H34.094V24.915H2.131A2.332,2.332,0,0,1,0,22.423V2.491A2.332,2.332,0,0,1,2.131,0Z" transform="translate(0)" fill="#B2BFCD"></path>
          <path id="Path_25704--inject-1" data-name="Path 25704" d="M0,0H14.108V14.949H0Z" transform="translate(11.757 4.983)" fill="none"></path>
        </g>
        <g id="Group_13130--inject-1" data-name="Group 13130" transform="translate(229.258 16.47)">
          <rect id="Rectangle_5719--inject-1" data-name="Rectangle 5719" width="11.989" height="7.493" rx="1" fill="none" stroke="#FFFFFF" stroke-width="1"></rect>
          <line id="Line_1920--inject-1" data-name="Line 1920" x2="5.995" transform="translate(3.247 10.741)" fill="none" stroke="#FFFFFF" stroke-width="1"></line>
          <line id="Line_1921--inject-1" data-name="Line 1921" y1="2.997" transform="translate(6.244 7.743)" fill="none" stroke="#FFFFFF" stroke-width="1"></line>
        </g>
        <g id="Group_13131--inject-1" data-name="Group 13131" transform="translate(265.98 16.47)">
          <rect id="Rectangle_5720--inject-1" data-name="Rectangle 5720" width="6.994" height="10.741" rx="1" fill="none" stroke="#B2BFCD" stroke-width="1"></rect>
          <circle id="Ellipse_1317--inject-1" data-name="Ellipse 1317" cx="0.749" cy="0.749" r="0.749" transform="translate(2.748 8.445)" fill="#B2BFCD"></circle>
        </g>
        <g id="Group_13169--inject-1" data-name="Group 13169" transform="translate(68.064 54.941)">
          <g id="Group_13168--inject-1" data-name="Group 13168" transform="translate(353.688 0.999)">
            <g id="Group_13094--inject-1" data-name="Group 13094">
              <path id="Path_25663--inject-1" data-name="Path 25663" d="M0,0H15.986V15.986H0Z" fill="none"></path>
              <g id="Path_25664--inject-1" data-name="Path 25664" transform="translate(0.5 1.499)">
                <path id="Path_25825--inject-1" data-name="Path 25825" d="M2.236,15.489A1.24,1.24,0,0,1,1,14.267V11.219A1.24,1.24,0,0,1,2.233,9.994H14.754a1.239,1.239,0,0,1,1.233,1.222v3.048a1.241,1.241,0,0,1-1.233,1.225Zm0-6.994A1.24,1.24,0,0,1,1,7.273V4.225A1.24,1.24,0,0,1,2.233,3H14.754a1.239,1.239,0,0,1,1.233,1.222V7.27A1.24,1.24,0,0,1,14.754,8.5Z" transform="translate(-1 -3)" fill="#3F98EE"></path>
              </g>
            </g>
          </g>
          <line id="Line_1922--inject-1" data-name="Line 1922" y2="10.784" transform="translate(328.46 3.245)" fill="none" stroke="#E8EBEF" stroke-linecap="round" stroke-width="1"></line>
          <g id="Group_13167--inject-1" data-name="Group 13167">
            <g id="Group_13095--inject-1" data-name="Group 13095" transform="translate(245.783 0.999)">
              <g id="Group_13095-2--inject-1" data-name="Group 13095">
                <path id="Path_25668--inject-1" data-name="Path 25668" d="M0,0H15.986V15.986H0Z" fill="none"></path>
              </g>
              <g id="Group_13096--inject-1" data-name="Group 13096" transform="translate(0.999 2.498)">
                <rect id="Rectangle_5714--inject-1" data-name="Rectangle 5714" width="13.988" height="0.999" fill="#B2BFCD"></rect>
              </g>
              <g id="Group_13097--inject-1" data-name="Group 13097" transform="translate(0.999 5.995)">
                <rect id="Rectangle_5715--inject-1" data-name="Rectangle 5715" width="13.988" height="0.999" fill="#B2BFCD"></rect>
              </g>
              <g id="Group_13098--inject-1" data-name="Group 13098" transform="translate(0.999 9.492)">
                <rect id="Rectangle_5716--inject-1" data-name="Rectangle 5716" width="13.988" height="0.999" fill="#B2BFCD"></rect>
              </g>
              <g id="Group_13099--inject-1" data-name="Group 13099" transform="translate(7.993 12.989)">
                <rect id="Rectangle_5717--inject-1" data-name="Rectangle 5717" width="6.994" height="0.999" fill="#B2BFCD"></rect>
              </g>
            </g>
            <g id="Group_13105--inject-1" data-name="Group 13105" transform="translate(81.928 0.999)">
              <path id="Path_25678--inject-1" data-name="Path 25678" d="M0,0H15.986V15.986H0Z" fill="none"></path>
              <g id="Union_1--inject-1" data-name="Union 1" transform="translate(1.499 2.498)">
                <path id="Path_25826--inject-1" data-name="Path 25826" d="M9.49,17.989A6.491,6.491,0,0,1,3,11.5v-.008a6.494,6.494,0,1,1,6.494,6.494ZM9.494,6a5.5,5.5,0,0,0-5.5,5.5V11.5a5.491,5.491,0,0,0,5.492,5.487h0A5.5,5.5,0,1,0,9.494,6Z" transform="translate(-3 -5)" fill="#B2BFCD"></path>
              </g>
              <g id="Path_25683--inject-1" data-name="Path 25683" transform="translate(7.493 4.996)">
                <path id="Path_25827--inject-1" data-name="Path 25827" d="M17.551,15.823,15,14.1V10h1v3.565L18.111,15Z" transform="translate(-15 -10)" fill="#B2BFCD"></path>
              </g>
              <g id="Group_13105-2--inject-1" data-name="Group 13105" transform="translate(5.495 0.5)">
                <rect id="Rectangle_5718--inject-1" data-name="Rectangle 5718" width="4.996" height="0.999" fill="#B2BFCD"></rect>
              </g>
            </g>
            <g id="Group_13106--inject-1" data-name="Group 13106" transform="translate(286.747 0.999)">
              <path id="Path_25666-2--inject-1" data-name="Path 25666" d="M0,0H15.986V15.986H0Z" fill="none"></path>
              <g id="Group_13106-2--inject-1" data-name="Group 13106" transform="translate(0.5 0.5)">
                <path id="Path_25828--inject-1" data-name="Path 25828" d="M13.933,1H3.054A2.056,2.056,0,0,0,1,3.054V13.933a2.056,2.056,0,0,0,2.054,2.054H13.933a2.057,2.057,0,0,0,2.054-2.054V3.054A2.056,2.056,0,0,0,13.933,1Zm1.055,12.933a1.056,1.056,0,0,1-1.055,1.055H3.054A1.056,1.056,0,0,1,2,13.933V3.054A1.056,1.056,0,0,1,3.054,2H13.933a1.056,1.056,0,0,1,1.055,1.055Z" transform="translate(-1 -1)" fill="#B2BFCD"></path>
              </g>
              <path id="Path_25829--inject-1" data-name="Path 25829" d="M7.5,15.97l1.249-2.5h4.878l1.249,2.5h1.117L11.634,7.254a.521.521,0,0,0-.894,0L6.382,15.97Zm3.688-7.376,1.939,3.879H9.247Z" transform="translate(-3.194 -3.503)" fill="#B2BFCD"></path>
            </g>
            <g id="Group_13117--inject-1" data-name="Group 13117" transform="translate(163.856 0.999)">
              <g id="Group_13115--inject-1" data-name="Group 13115">
                <path id="Path_25666-3--inject-1" data-name="Path 25666" d="M0,0H15.986V15.986H0Z" fill="none"></path>
              </g>
              <g id="Group_13116--inject-1" data-name="Group 13116" transform="translate(0.5 0.865)">
                <path id="Path_25831--inject-1" data-name="Path 25831" d="M12.816,16.01a.5.5,0,0,1-.232-.057L8.494,13.8,4.4,15.952a.5.5,0,0,1-.725-.526l.781-4.554L1.151,7.646a.5.5,0,0,1,.277-.852L6,6.13,8.046,1.987a.519.519,0,0,1,.9,0L10.986,6.13l4.573.664a.5.5,0,0,1,.277.852l-3.309,3.226.781,4.554a.5.5,0,0,1-.493.583ZM8.494,12.739a.5.5,0,0,1,.233.057l3.426,1.8L11.5,10.782a.5.5,0,0,1,.143-.442l2.772-2.7-3.831-.557a.5.5,0,0,1-.376-.273L8.494,3.336,6.78,6.808a.5.5,0,0,1-.376.273l-3.831.557,2.772,2.7a.5.5,0,0,1,.143.442L4.835,14.6l3.426-1.8A.5.5,0,0,1,8.494,12.739Z" transform="translate(-1 -1.731)" fill="#B2BFCD"></path>
              </g>
            </g>
            <g id="Group_13119--inject-1" data-name="Group 13119" transform="translate(0 0.999)">
              <path id="Path_25682--inject-1" data-name="Path 25682" d="M15.986,15.986H0V0H15.986Z" fill="none"></path>
              <g id="Ellipse_1--inject-1" data-name="Ellipse 1" transform="translate(0.999 0.999)">
                <path id="Path_25832--inject-1" data-name="Path 25832" d="M8.994,15.988a6.994,6.994,0,1,1,6.994-6.994A7,7,0,0,1,8.994,15.988ZM8.994,3a5.995,5.995,0,1,0,5.995,5.995A6,6,0,0,0,8.994,3Z" transform="translate(-2 -2)" fill="#B2BFCD"></path>
              </g>
              <g id="Ellipse_2--inject-1" data-name="Ellipse 2" transform="translate(5.495 5.495)">
                <path id="Path_25833--inject-1" data-name="Path 25833" d="M13.5,16A2.5,2.5,0,1,1,16,13.5,2.5,2.5,0,0,1,13.5,16Zm0-4A1.5,1.5,0,1,0,15,13.5,1.5,1.5,0,0,0,13.5,12Z" transform="translate(-11 -11)" fill="#B2BFCD"></path>
              </g>
            </g>
            <g id="Group_13122--inject-1" data-name="Group 13122" transform="translate(40.964 0.999)">
              <path id="Path_25680--inject-1" data-name="Path 25680" d="M0,0H15.986V15.986H0Z" fill="none"></path>
              <g id="Path_25681--inject-1" data-name="Path 25681" transform="translate(1.998 0.5)">
                <path id="Path_25834--inject-1" data-name="Path 25834" d="M5.866,15.987A1.891,1.891,0,0,1,4,14.089L4.007,2.9A1.89,1.89,0,0,1,5.87,1h5.5a.5.5,0,0,1,.356.149l4.121,4.2a.5.5,0,0,1,.143.35v8.393a1.9,1.9,0,0,1-1.872,1.9ZM5.867,2A.889.889,0,0,0,5,2.9L4.992,14.089a.889.889,0,0,0,.871.9h8.252a.894.894,0,0,0,.875-.9V6.5h-3.5a.5.5,0,0,1-.5-.5V2Zm6.126,3.5h2.6l-2.6-2.646Zm1,6.994H7v-1h5.995Zm0-3H7v-1h5.995Z" transform="translate(-4 -1)" fill="#B2BFCD"></path>
              </g>
            </g>
            <g id="Group_13123--inject-1" data-name="Group 13123" transform="translate(122.892 0.999)">
              <path id="Path_25666-4--inject-1" data-name="Path 25666" d="M0,0H15.986V15.986H0Z" fill="none"></path>
              <g id="Group_13124--inject-1" data-name="Group 13124" transform="translate(0.5 0.5)">
                <path id="Path_25837--inject-1" data-name="Path 25837" d="M13.933,1H3.054A2.056,2.056,0,0,0,1,3.054V13.933a2.056,2.056,0,0,0,2.054,2.054H13.933a2.057,2.057,0,0,0,2.054-2.054V3.054A2.056,2.056,0,0,0,13.933,1Zm1.055,12.933a1.056,1.056,0,0,1-1.055,1.055H3.054A1.056,1.056,0,0,1,2,13.933V3.054A1.056,1.056,0,0,1,3.054,2H13.933a1.056,1.056,0,0,1,1.055,1.055Z" transform="translate(-1 -1)" fill="#B2BFCD"></path>
              </g>
              <g id="Group_13125--inject-1" data-name="Group 13125" transform="translate(5.495 4.496)">
                <path id="Path_25838--inject-1" data-name="Path 25838" d="M11.5,15.994a.5.5,0,0,1-.5-.5V9.5a.5.5,0,0,1,.757-.428l5,3a.5.5,0,0,1,0,.856l-5,3A.5.5,0,0,1,11.5,15.994Zm.5-5.612v4.229L15.525,12.5Z" transform="translate(-11 -9)" fill="#B2BFCD"></path>
              </g>
            </g>
            <g id="Group_13140-2--inject-1" data-name="Group 13140" transform="translate(204.819)">
              <path id="Path_25666-5--inject-1" data-name="Path 25666" d="M0,0H15.986V15.986H0Z" fill="none"></path>
              <g id="Group_13140-3--inject-1" data-name="Group 13140" transform="translate(0.5 0.5)">
                <path id="Path_25846-2--inject-1" data-name="Path 25846" d="M13.933,1H3.054A2.056,2.056,0,0,0,1,3.054V13.933a2.056,2.056,0,0,0,2.054,2.054H13.933a2.057,2.057,0,0,0,2.054-2.054V3.054A2.056,2.056,0,0,0,13.933,1ZM3.054,2H13.933a1.056,1.056,0,0,1,1.055,1.055v8.23L11.344,7.641a.5.5,0,0,0-.706,0L7.417,10.862l-2.163-1.3a.5.5,0,0,0-.548.022L2,11.519V3.054A1.056,1.056,0,0,1,3.054,2ZM13.933,14.988H3.054A1.056,1.056,0,0,1,2,13.933V12.747L5.02,10.589l2.217,1.33a.5.5,0,0,0,.61-.075L10.991,8.7l4,4v1.236A1.056,1.056,0,0,1,13.933,14.988Z" transform="translate(-1 -1)" fill="#B2BFCD"></path>
                <path id="Path_25847-2--inject-1" data-name="Path 25847" d="M9,11A2,2,0,1,0,7,9,2,2,0,0,0,9,11ZM9,8A1,1,0,1,1,8,9,1,1,0,0,1,9,8Z" transform="translate(-4.003 -4.003)" fill="#B2BFCD"></path>
              </g>
            </g>
          </g>
        </g>
      </g>
    </g>
  </g>
</svg>