<svg xmlns="http://www.w3.org/2000/svg" xmlns:xlink="http://www.w3.org/1999/xlink" width="527.549" height="568.859" viewBox="0 0 527.549 568.859"><defs><linearGradient id="a" x1="-0.359" y1="1.601" x2="1.213" y2="-0.08" gradientUnits="objectBoundingBox"><stop offset="0" stop-color="#3081e9"/><stop offset="1" stop-color="#1b4899"/></linearGradient><linearGradient id="b" x1="0.609" y1="1.256" x2="0.314" y2="-0.287" xlink:href="#a"/><linearGradient id="c" x1="1.244" y1="0.487" x2="-0.135" y2="0.512" xlink:href="#a"/></defs><g transform="translate(-1775 1036)"><g transform="translate(1474.949 -1351.59)"><path d="M488,884.41c-34.71.11-69,0-102.46-.5-81.29-1.31-108.72-40.12-64.39-116.51L583.42,315.59l66,113.76-210,359.44C411.49,841.67,440.47,867.93,488,884.41Z" fill-rule="evenodd" fill="url(#a)"/><path d="M797.82,685.14l29.32,50.79,85.46,148H831.14c-41.48,0-61.84-11.88-80.09-50.94l-13.87-29.68-20.67-44.22C745.13,703.1,768.86,681,797.82,685.14Z" transform="translate(-85 0.519)" fill-rule="evenodd" fill="url(#b)"/><path d="M763.7,626.17l15.19,26.18,18.93,32.79c-29-4.11-52.69,18-81.31,74L666.2,845.17c-17.62,30.16-37.86,38.45-72.15,38.63-35.34.2-70.87.5-106,.61-47.56-16.48-76.54-42.74-48.62-95.62H542.2c22.12,0,34-9.63,45.18-28.83q40-68.51,80.07-137C693.9,577.68,737.66,581.32,763.7,626.17Z" transform="translate(-43 -0.48)" fill-rule="evenodd" fill="url(#c)"/></g></g></svg>