<svg xmlns="http://www.w3.org/2000/svg" xmlns:xlink="http://www.w3.org/1999/xlink" width="774.981" height="622.036" viewBox="0 0 774.981 622.036"><defs><clipPath id="a"><rect width="774.981" height="622.036" fill="none"/></clipPath><filter id="b" x="0" y="6.96" width="774.981" height="615.079" filterUnits="userSpaceOnUse"><feOffset dy="45" input="SourceAlpha"/><feGaussianBlur stdDeviation="49.5" result="c"/><feFlood flood-color="#8a9baf" flood-opacity="0.451"/><feComposite operator="in" in2="c"/><feComposite in="SourceGraphic"/></filter><filter id="d" x="7.711" y="0" width="453.162" height="378.452" filterUnits="userSpaceOnUse"><feOffset dx="25" dy="25" input="SourceAlpha"/><feGaussianBlur stdDeviation="35" result="e"/><feFlood flood-color="#8a9baf" flood-opacity="0.251"/><feComposite operator="in" in2="e"/><feComposite in="SourceGraphic"/></filter><filter id="f" x="413.159" y="41.552" width="331.168" height="537.368" filterUnits="userSpaceOnUse"><feOffset dx="-12" dy="12" input="SourceAlpha"/><feGaussianBlur stdDeviation="35" result="g"/><feFlood flood-color="#8a9baf" flood-opacity="0.451"/><feComposite operator="in" in2="g"/><feComposite in="SourceGraphic"/></filter></defs><g transform="translate(-7150.598 -237)"><g transform="translate(7150.598 237)" clip-path="url(#a)"><g transform="matrix(1, 0, 0, 1, 0, 0)" filter="url(#b)"><path d="M15.927,0H462.054a15.927,15.927,0,0,1,15.927,15.927V302.152a15.927,15.927,0,0,1-15.927,15.927H15.927A15.927,15.927,0,0,1,0,302.152V15.927A15.927,15.927,0,0,1,15.927,0Z" transform="translate(148.5 110.46)" fill="#fff" opacity="0.7"/></g><path d="M0,0H30.214V30.214H0Z" transform="translate(210.281 277.538)" fill="none"/><g transform="translate(183.766 269.717)"><path d="M7,2A5.006,5.006,0,0,0,2,7v94.634a5.006,5.006,0,0,0,5,5H149.815a5.006,5.006,0,0,0,5-5V7a5.006,5.006,0,0,0-5-5H7M7,0H149.815a7,7,0,0,1,7,7v94.634a7,7,0,0,1-7,7H7a7,7,0,0,1-7-7V7A7,7,0,0,1,7,0Z" fill="#d2d9df"/><rect width="69.962" height="6.474" transform="translate(72.614 41.753)" fill="#ccd4db"/><rect width="69.727" height="2.677" transform="translate(72.849 54.81)" fill="#ccd4db"/><rect width="53.987" height="2.677" transform="translate(88.588 60.972)" fill="#ccd4db"/><circle cx="7.113" cy="7.113" r="7.113" transform="translate(128.35 20.233)" fill="#ccd4db"/><path d="M16.529,13.882V5.412A1.416,1.416,0,0,0,15.117,4H2.412A1.416,1.416,0,0,0,1,5.412v8.47a1.416,1.416,0,0,0,1.412,1.412h12.7A1.416,1.416,0,0,0,16.529,13.882ZM6.294,10l1.765,2.125,2.47-3.183L13.7,13.177H3.823Z" transform="translate(26.308 45.273)" fill="#ccd4db"/><rect width="29.248" height="8.356" rx="2" transform="translate(113.575 73.885)" fill="#ccd4db"/></g><g transform="translate(87.711 80)"><g transform="matrix(1, 0, 0, 1, -87.71, -80)" filter="url(#d)"><path d="M12,0H231.162a12,12,0,0,1,12,12V156.452a12,12,0,0,1-12,12H12a12,12,0,0,1-12-12V12A12,12,0,0,1,12,0Z" transform="translate(87.71 80)" fill="#fff"/></g><rect width="75.155" height="114.029" rx="5" transform="translate(23.212 27.752)" fill="rgba(0,0,0,0)"/><rect width="99.501" height="10.038" transform="translate(121.582 64.743)" fill="#c4cdd7"/><rect width="99.137" height="4.15" transform="translate(121.946 84.99)" fill="#c4cdd7"/><rect width="83.715" height="4.15" transform="translate(137.368 94.546)" fill="#c4cdd7"/><circle cx="11.029" cy="11.029" r="11.029" transform="translate(199.024 31.373)" fill="#c4cdd7"/><rect width="45.352" height="12.958" rx="2" transform="translate(176.114 114.569)" fill="#c4cdd7"/><rect width="45.352" height="12.958" rx="2" transform="translate(124.283 114.569)" fill="#c4cdd7"/></g><g transform="translate(353.403 146.877)"><path d="M7,2A5.006,5.006,0,0,0,2,7v94.634a5.006,5.006,0,0,0,5,5H149.815a5.006,5.006,0,0,0,5-5V7a5.006,5.006,0,0,0-5-5H7M7,0H149.815a7,7,0,0,1,7,7v94.634a7,7,0,0,1-7,7H7a7,7,0,0,1-7-7V7A7,7,0,0,1,7,0Z" fill="#d2d9df"/><g transform="translate(14.133 17.897)"><rect width="53.046" height="6.474" transform="translate(75.396 36.39)" fill="#c9d1da"/><rect width="52.834" height="2.677" transform="translate(75.608 49.447)" fill="#c9d1da"/><rect width="41.991" height="2.677" transform="translate(86.451 55.61)" fill="#c9d1da"/><circle cx="7.113" cy="7.113" r="7.113" transform="translate(114.217 14.87)" fill="#c9d1da"/><rect width="48.467" height="73.537" rx="5" fill="#edf0f3"/><rect width="15.25" height="2.677" transform="translate(17.092 11.555)" fill="#c9d1da"/><rect width="26.114" height="2.677" transform="translate(11.243 17.404)" fill="#c9d1da"/><rect width="25.905" height="8.356" rx="2" transform="translate(10.863 56.683)" fill="#c9d1da"/><path d="M2,1A1,1,0,0,0,1,2V5.521a1,1,0,0,0,1,1H34.768a1,1,0,0,0,1-1V2a1,1,0,0,0-1-1H2M2,0H34.768a2,2,0,0,1,2,2V5.521a2,2,0,0,1-2,2H2a2,2,0,0,1-2-2V2A2,2,0,0,1,2,0Z" transform="translate(5.85 39.83)" fill="#cdd5de"/><path d="M2,1A1,1,0,0,0,1,2V5.521a1,1,0,0,0,1,1H34.768a1,1,0,0,0,1-1V2a1,1,0,0,0-1-1H2M2,0H34.768a2,2,0,0,1,2,2V5.521a2,2,0,0,1-2,2H2a2,2,0,0,1-2-2V2A2,2,0,0,1,2,0Z" transform="translate(5.85 28.131)" fill="#cdd5de"/></g></g><g transform="translate(353.33 269.717)"><path d="M7,2A5.006,5.006,0,0,0,2,7v94.634a5.006,5.006,0,0,0,5,5H149.815a5.006,5.006,0,0,0,5-5V7a5.006,5.006,0,0,0-5-5H7M7,0H149.815a7,7,0,0,1,7,7v94.634a7,7,0,0,1-7,7H7a7,7,0,0,1-7-7V7A7,7,0,0,1,7,0Z" fill="#d2d9df"/><rect width="48.032" height="6.474" transform="translate(54.317 12.505)" fill="#cdd5de"/><rect width="118.446" height="2.677" transform="translate(19.22 24.727)" fill="#cdd5de"/><rect width="88.421" height="2.677" transform="translate(34.262 30.889)" fill="#cdd5de"/><path d="M5,0H51.824a5,5,0,0,1,5,5V50.988a5,5,0,0,1-5,5H5a5,5,0,0,1-5-5V5A5,5,0,0,1,5,0Z" transform="translate(50.138 42.131)" fill="#eff1f3"/><rect width="15.25" height="2.677" transform="translate(71.03 49.273)" fill="#cdd5de"/><rect width="25.905" height="8.356" rx="2" transform="translate(65.18 83.078)" fill="#cdd5de"/><path d="M2,1A1,1,0,0,0,1,2V5.521a1,1,0,0,0,1,1H42.412a1,1,0,0,0,1-1V2a1,1,0,0,0-1-1H2M2,0H42.412a2,2,0,0,1,2,2V5.521a2,2,0,0,1-2,2H2a2,2,0,0,1-2-2V2A2,2,0,0,1,2,0Z" transform="translate(55.989 69.707)" fill="#cdd5de"/><path d="M2,1A1,1,0,0,0,1,2V5.521a1,1,0,0,0,1,1H42.412a1,1,0,0,0,1-1V2a1,1,0,0,0-1-1H2M2,0H42.412a2,2,0,0,1,2,2V5.521a2,2,0,0,1-2,2H2a2,2,0,0,1-2-2V2A2,2,0,0,1,2,0Z" transform="translate(55.989 58.008)" fill="#cdd5de"/></g><g transform="translate(530.159 134.552)"><g transform="matrix(1, 0, 0, 1, -530.16, -134.55)" filter="url(#f)"><path d="M9.192,0H111.976c5.077,0,9.192,3.689,9.192,8.24V319.128c0,4.551-4.115,8.24-9.192,8.24H9.192c-5.077,0-9.192-3.689-9.192-8.24V8.24C0,3.689,4.115,0,9.192,0Z" transform="translate(530.16 134.55)" fill="#3f98ee"/></g><g transform="translate(26.6 80.3)"><g transform="translate(0 -23)"><path d="M58,.5H0v-1H58Z" transform="translate(3.741 105.648)" fill="#b2d6f8"/><path d="M51,.5H0v-1H51Z" transform="translate(8.741 109.648)" fill="#b2d6f8"/></g><g transform="translate(0 -107)"><path d="M58,.5H0v-1H58Z" transform="translate(3.741 105.648)" fill="#b2d6f8"/><path d="M51,.5H0v-1H51Z" transform="translate(8.741 109.648)" fill="#b2d6f8"/></g><g transform="translate(0 23)"><path d="M58,.5H0v-1H58Z" transform="translate(3.741 105.648)" fill="#b2d6f8"/><path d="M51,.5H0v-1H51Z" transform="translate(8.741 109.648)" fill="#b2d6f8"/></g></g></g></g><text transform="translate(7720 497)" fill="#fff" font-size="13" font-family="Vazir"><tspan x="0" y="0">القوالب</tspan></text></g></svg>