<svg xmlns="http://www.w3.org/2000/svg" width="90" height="90" viewBox="0 0 90 90">
  <g id="Group_14044" data-name="Group 14044" transform="translate(-675 -1069)">
    <circle id="Ellipse_1372" data-name="Ellipse 1372" cx="45" cy="45" r="45" transform="translate(675 1069)" fill="#ffffff"/>
    <g id="Group_13639" data-name="Group 13639" transform="translate(0 4)">
      <g id="like" transform="translate(700.547 1070.152)">
        <g id="Group_13635" data-name="Group 13635" transform="translate(0 29.836)">
          <path id="Path_26031" data-name="Path 26031" d="M35.69,33.177a9.7,9.7,0,0,0-15.482,1.114,14.761,14.761,0,0,0-.958,1.554,14.749,14.749,0,0,0-.958-1.554A9.7,9.7,0,0,0,2.809,33.177,11.67,11.67,0,0,0,0,40.928c0,3.2,1.251,6.183,3.936,9.377a87.626,87.626,0,0,0,9.851,9.2c1.49,1.27,3.03,2.582,4.671,4.018l.049.043a1.128,1.128,0,0,0,1.486,0l.049-.043c1.64-1.435,3.181-2.748,4.671-4.018a87.614,87.614,0,0,0,9.851-9.2c2.685-3.194,3.936-6.173,3.936-9.377A11.67,11.67,0,0,0,35.69,33.177ZM23.249,57.791c-1.284,1.094-2.606,2.221-4,3.432-1.394-1.211-2.715-2.338-4-3.432C7.425,51.124,2.256,46.719,2.256,40.928A9.418,9.418,0,0,1,4.5,34.669a7.529,7.529,0,0,1,5.725-2.577,7.6,7.6,0,0,1,6.224,3.5,13.372,13.372,0,0,1,1.727,3.433,1.128,1.128,0,0,0,2.145,0A13.374,13.374,0,0,1,22.049,35.6,7.444,7.444,0,0,1,34,34.669a9.418,9.418,0,0,1,2.246,6.259C36.243,46.719,31.074,51.124,23.249,57.791Z" transform="translate(0 -29.836)" fill="#f26d8c" stroke="#f26d8c" stroke-width="0.5"/>
        </g>
      </g>
      <line id="Line_1654" data-name="Line 1654" y1="4.192" x2="5" transform="translate(727.383 1089.308)" fill="none" stroke="#f26d8c" stroke-linecap="round" stroke-width="2"/>
      <line id="Line_1656" data-name="Line 1656" y1="7.137" transform="translate(720 1085.363)" fill="none" stroke="#f26d8c" stroke-linecap="round" stroke-width="2"/>
      <line id="Line_1655" data-name="Line 1655" x1="5" y1="4.192" transform="translate(707.801 1089.308)" fill="none" stroke="#f26d8c" stroke-linecap="round" stroke-width="2"/>
    </g>
  </g>
</svg>
