<svg xmlns="http://www.w3.org/2000/svg" width="90" height="90" viewBox="0 0 90 90">
  <g id="Group_14043" data-name="Group 14043" transform="translate(-323 -1069)">
    <circle id="Ellipse_1372" data-name="Ellipse 1372" cx="45" cy="45" r="45" transform="translate(323 1069)" fill="#f26d8c"/>
    <g id="Group_13640" data-name="Group 13640" transform="translate(0 6)">
      <g id="Rectangle_5981" data-name="Rectangle 5981" transform="translate(348 1105.106)" fill="none" stroke="#ffffff" stroke-width="2">
        <rect width="39.738" height="25.894" rx="2" stroke="none"/>
        <rect x="1" y="1" width="37.738" height="23.894" rx="1" fill="none"/>
      </g>
      <g id="Path_26033" data-name="Path 26033" transform="translate(345 1094)" fill="none">
        <path d="M2,0H44a2,2,0,0,1,2,2v9a2,2,0,0,1-2,2H2a2,2,0,0,1-2-2V2A2,2,0,0,1,2,0Z" stroke="none"/>
        <path d="M 2 2 L 2 11 L 44 11 L 44 2 L 2 2 M 2 0 L 44 0 C 45.10456848144531 0 46 0.8954296112060547 46 2 L 46 11 C 46 12.10457038879395 45.10456848144531 13 44 13 L 2 13 C 0.8954315185546875 13 0 12.10457038879395 0 11 L 0 2 C 0 0.8954296112060547 0.8954315185546875 0 2 0 Z" stroke="none" fill="#ffffff"/>
      </g>
      <g id="Rectangle_5982" data-name="Rectangle 5982" transform="translate(362 1094)" fill="#f26d8c" stroke="#ffffff" stroke-width="2">
        <rect width="13" height="37" stroke="none"/>
        <rect x="1" y="1" width="11" height="35" fill="none"/>
      </g>
      <g id="Ellipse_1513" data-name="Ellipse 1513" transform="translate(363 1085)" fill="none" stroke="#ffffff" stroke-width="2">
        <circle cx="5.5" cy="5.5" r="5.5" stroke="none"/>
        <circle cx="5.5" cy="5.5" r="4.5" fill="none"/>
      </g>
    </g>
  </g>
</svg>
