<?xml version="1.0" encoding="UTF-8"?>
<svg id="Layer_1" data-name="Layer 1" xmlns="http://www.w3.org/2000/svg" viewBox="0 0 352.1 612.82">
  <defs>
    <style>
      .cls-1 {
        fill: #3758f9;
      }
    </style>
  </defs>
  <path class="cls-1" d="m352.1,456.45l-.03-35.43c0-5.12-2.04-10.05-5.64-13.66l-45.61-45.61c-7.56-7.56-19.83-7.56-27.35-.03l-67.6,67.6-65.92-65.92h0s60.93-60.94,60.93-60.94l132.68-132.68c3.63-3.63,5.67-8.54,5.67-13.66v-91.16c0-5.13-2.04-10.05-5.67-13.67l-45.62-45.62c-7.55-7.55-19.8-7.55-27.34,0l-89.12,89.12L7.74,258.52l-2.07,2.07c-.5.5-.98,1.04-1.41,1.58-.19.22-.36.44-.52.67-.19.25-.37.52-.55.78-.07.1-.15.21-.21.33-.22.34-.41.68-.61,1.02-.41.74-.78,1.52-1.08,2.32-.15.38-.3.77-.4,1.17-.07.19-.13.37-.16.58-.16.49-.28,1.02-.37,1.52-.01.04-.03.09-.03.15-.1.49-.16.96-.21,1.45-.01.07-.03.15-.03.24l-.04.58c-.04.43-.06.86-.04,1.29-.01.07-.01.13-.01.22l2.07,180.1v.21s0,.06.01.07c0,.53.01,1.05.07,1.58,0,.09.01.19.03.3.07.61.16,1.23.31,1.85.1.61.27,1.21.47,1.81.13.49.33.98.52,1.46.04.13.1.28.18.41.09.24.21.47.31.7.95,1.95,2.2,3.74,3.74,5.28.04.04.09.08.13.12l138.78,138.78c3.61,3.61,8.54,5.64,13.66,5.64,22.6.03,38.95.03,56.99,0h34.17c5.15.03,10.05-2.04,13.66-5.64l45.64-45.64,35.68-35.68c3.61-3.61,5.67-8.51,5.67-13.63,0-22.14,0-38.24,0-55.75Zm-64.98-53.69l26.27,26.27v75.12l-16.34,16.34-63.83-63.83,53.91-53.91Zm-12.86-356.08l26.28,26.28v75.14l-94.52,94.52-1.45-126.24,69.69-69.69Zm-107.94,107.94l1.45,126.24-55.18,55.18h0s-63.85-63.85-63.85-63.85h0s117.57-117.57,117.57-117.57Zm-81.07,208.77h0s0,0,0,0h0Zm131.99,210.77c-15.82-.03-30.31-.03-48.94-.03l-119.55-119.55h0s63.83-63.83,63.83-63.83l157.11,157.11-26.27,26.27-26.18.03Z"/>
</svg>