<svg xmlns="http://www.w3.org/2000/svg" width="120.56" height="32.924" viewBox="0 0 120.56 32.924">
  <g id="Group_13466" data-name="Group 13466" transform="translate(-1230.978 -228.803)">
    <g id="Group_13465" data-name="Group 13465" transform="translate(188 4)">
      <path id="Path_26069" data-name="Path 26069" d="M-80.674,8.713a11.077,11.077,0,0,1-3.489-.587,7.382,7.382,0,0,1-2.628-1.565,6.69,6.69,0,0,1-1.657-2.5A9.315,9.315,0,0,1-89.022.678a12.178,12.178,0,0,1,.176-2.041,16.786,16.786,0,0,1,.47-2.015A16,16,0,0,1-87.7-5.23,13.763,13.763,0,0,1-86.9-6.8l1.67,1.226a8.266,8.266,0,0,0-.535,1.03,12.98,12.98,0,0,0-.561,1.513A16.528,16.528,0,0,0-86.765-1.2,10.642,10.642,0,0,0-86.948.757a8.709,8.709,0,0,0,.1,1.265,5.6,5.6,0,0,0,.359,1.3,5.186,5.186,0,0,0,.711,1.22,4.62,4.62,0,0,0,1.154,1.037,6.241,6.241,0,0,0,1.683.737,9.446,9.446,0,0,0,2.309.32h.352A9.093,9.093,0,0,0-77.393,6.2a6.027,6.027,0,0,0,2.25-1.317,5.734,5.734,0,0,0,1.428-2.139,7.666,7.666,0,0,0,.489-2.8,10.413,10.413,0,0,0-.228-2.2A15.226,15.226,0,0,0-74-4.2a13.554,13.554,0,0,0-.659-1.552Q-75-6.417-75.222-6.77l1.813-1.161q.117.183.333.567t.463.933q.248.548.509,1.239a14.553,14.553,0,0,1,.47,1.5,17.188,17.188,0,0,1,.346,1.709,12.387,12.387,0,0,1,.137,1.865,9.508,9.508,0,0,1-.7,3.73,8.009,8.009,0,0,1-1.97,2.83,8.3,8.3,0,0,1-3.013,1.748,10.224,10.224,0,0,1-3.352.535Q-80.439,8.726-80.674,8.713Zm2.609-17.165-1.917,1.917L-81.9-8.452l1.917-1.917Zm10.9,8.191q.13-2.139.189-4t.059-3.646q0-2.439-.085-4.48t-.2-3.587q-.117-1.546-.228-2.563t-.163-1.435l2.048-.313q.078.548.157,1.278t.137,1.546q.059.815.111,1.657t.1,1.591q.046.75.072,1.35t.039.939q.026.913.046,1.911t.02,2.133q0,1.761-.052,3.672t-.2,4.063Zm11.7-.013A8.825,8.825,0,0,1-56.85-.4,15.5,15.5,0,0,1-58.441-.75,12.77,12.77,0,0,1-59.9-1.239a4.124,4.124,0,0,1-1.011-.548l.874-2a8.775,8.775,0,0,0,1.07.522,11.676,11.676,0,0,0,1.265.437,12.546,12.546,0,0,0,1.37.307,8.4,8.4,0,0,0,1.383.117,7.513,7.513,0,0,0,.946-.059,4.54,4.54,0,0,0,.887-.2,3.568,3.568,0,0,0,.789-.378,2.559,2.559,0,0,0,.639-.587A1.747,1.747,0,0,0-51.3-4.761q0-.1-.052-.554a4.652,4.652,0,0,0-.489-1.337,11.2,11.2,0,0,0-1.128-1.8,19.321,19.321,0,0,0-1.461-1.715,17.233,17.233,0,0,0-1.52-1.415,9.413,9.413,0,0,0-1.285-.913l.848-1.9a11.14,11.14,0,0,1,1.454.959,15.4,15.4,0,0,1,1.441,1.265,19.984,19.984,0,0,1,1.35,1.48,16.426,16.426,0,0,1,1.167,1.6,13.3,13.3,0,0,1,.9,1.643,8.691,8.691,0,0,1,.561,1.6,7.228,7.228,0,0,1,.13.9q.013.2.013.4a5.825,5.825,0,0,1-.039.62,3.182,3.182,0,0,1-.209.8,2.76,2.76,0,0,1-.483.8,4.768,4.768,0,0,1-1.076.952,6.262,6.262,0,0,1-1.3.639,7.634,7.634,0,0,1-1.461.359A10.556,10.556,0,0,1-55.461-.274Zm15.73.013a8.145,8.145,0,0,1-2.126-.254,4.006,4.006,0,0,1-1.591-.815,3.58,3.58,0,0,1-1-1.454,6.035,6.035,0,0,1-.346-2.172q0-.965.007-2.152t.007-2.465q0-1.278-.02-2.6t-.059-2.563q-.039-1.246-.117-2.354t-.2-1.983l2.035-.365q.117.691.2,1.63t.13,2.022q.052,1.083.072,2.25t.02,2.289q0,1.6.013,3.091v1q0,.991-.013,1.983a5.9,5.9,0,0,0,.137,1.4,1.848,1.848,0,0,0,.47.88,1.8,1.8,0,0,0,.88.463,6.11,6.11,0,0,0,1.383.13h.378V-.261ZM-28.357-2.3V-.261h-.261A4.294,4.294,0,0,1-30.743-.75a4.851,4.851,0,0,1-1.474-1.259,5.133,5.133,0,0,1-.985.77A5.579,5.579,0,0,1-34.441-.7a9.328,9.328,0,0,1-1.578.326,16.29,16.29,0,0,1-2.015.111h-1.957V-2.3h1.957a10.219,10.219,0,0,0,2.263-.215,4.116,4.116,0,0,0,1.513-.639,2.447,2.447,0,0,0,.841-1.057,3.865,3.865,0,0,0,.261-1.48,10.8,10.8,0,0,0-.1-1.435,12.139,12.139,0,0,0-.359-1.657q.548-.143,1-.28t.959-.28q.1.391.183.789t.137.835q.059.437.111.959t.1,1.161a8.95,8.95,0,0,0,.157,1.1,3.658,3.658,0,0,0,.391,1.07,2.364,2.364,0,0,0,.743.809,2.114,2.114,0,0,0,1.213.32ZM-34.33-14.452l-1.9,1.9-1.93-1.917,1.9-1.917Zm4.63.026-1.891,1.9-1.93-1.93,1.9-1.9ZM-28.617-2.3a3.174,3.174,0,0,0,1.376-.293,4.138,4.138,0,0,0,1.122-.783,5.691,5.691,0,0,0,.893-1.135,9.906,9.906,0,0,0,.685-1.357,12.939,12.939,0,0,0,.5-1.428q.2-.717.333-1.37l2.048.4-.248.835q-.143.483-.274,1.017t-.222,1.083a6.284,6.284,0,0,0-.091,1.03,4.225,4.225,0,0,0,.072.776,1.871,1.871,0,0,0,.261.678,1.432,1.432,0,0,0,.515.476,1.666,1.666,0,0,0,.822.183,2.306,2.306,0,0,0,1.246-.346,3.64,3.64,0,0,0,.985-.92,6.517,6.517,0,0,0,.75-1.3A13.981,13.981,0,0,0-17.3-6.241q.235-.763.385-1.5t.241-1.311q.548.1,1.011.2t.972.183v.013q-.052.274-.137.73t-.163.978q-.078.522-.13,1.057t-.052.965a5.862,5.862,0,0,0,.091,1.05,2.418,2.418,0,0,0,.339.887,1.847,1.847,0,0,0,.672.62,2.2,2.2,0,0,0,1.076.235,2.317,2.317,0,0,0,.991-.2,1.834,1.834,0,0,0,.685-.541,2.345,2.345,0,0,0,.4-.809,3.718,3.718,0,0,0,.13-1.011,7.367,7.367,0,0,0-.176-1.539A16.274,16.274,0,0,0-11.4-7.859q-.261-.8-.554-1.507t-.528-1.174l1.813-.965q.117.235.307.646t.4.939q.215.528.437,1.154t.4,1.3A12.983,12.983,0,0,1-8.824-6.1a8.681,8.681,0,0,1,.111,1.363,5.916,5.916,0,0,1-.293,1.917A3.833,3.833,0,0,1-9.893-1.35a3.919,3.919,0,0,1-1.493.933A5.871,5.871,0,0,1-13.4-.1h-.091a2.962,2.962,0,0,1-.952-.163,4.251,4.251,0,0,1-.939-.457,5.316,5.316,0,0,1-.854-.685,5.168,5.168,0,0,1-.7-.848A7.46,7.46,0,0,1-18.783-.685,4,4,0,0,1-20.83-.1a3.5,3.5,0,0,1-.946-.137,3.852,3.852,0,0,1-.946-.411,4,4,0,0,1-.841-.678,3.236,3.236,0,0,1-.62-.939,8.808,8.808,0,0,1-.893.828,5.3,5.3,0,0,1-1,.633,5.378,5.378,0,0,1-1.161.4,6.2,6.2,0,0,1-1.383.143h-.261V-2.3ZM-4.591-.261q.13-2.139.189-4T-4.343-7.9q0-2.439-.085-4.48t-.2-3.587q-.117-1.546-.228-2.563t-.163-1.435l2.048-.313q.078.548.157,1.278t.137,1.546q.059.815.111,1.657t.1,1.591q.046.75.072,1.35t.039.939q.026.913.046,1.911t.02,2.133q0,1.761-.052,3.672t-.2,4.063Z" transform="translate(1132 249)" fill="#404040"/>
      <g id="book-with-bookmarker" transform="translate(1140.93 224.902)">
        <path id="Path_25965" data-name="Path 25965" d="M114.8,3.911h-1.831V2.333A1.564,1.564,0,0,0,111.353.718h-3.874V.645A.641.641,0,0,0,106.834,0h-7a.641.641,0,0,0-.645.645V.751H95.816A2.278,2.278,0,0,0,93.556,2.9v24.4h0v.037a2.249,2.249,0,0,0,2.26,2.26h17.156a3.231,3.231,0,0,0,3.193-3.552V5.237A1.358,1.358,0,0,0,114.8,3.911ZM100.517,1.289h5.636V13.242l-2.406-2.047c-.073-.037-.106-.073-.179-.106h0a.45.45,0,0,0-.216-.037h0a.211.211,0,0,0-.143.037h-.073c-.073.037-.143.073-.216.106l-2.406,1.867V1.289h0ZM94.882,3.084V3.011a.952.952,0,0,1,.934-.934h3.373V14.421a.7.7,0,0,0,.359.611.654.654,0,0,0,.681-.073l3.05-2.369,3.087,2.618c.037.037.106.073.143.106h.037a.211.211,0,0,0,.143.037h.219c.073,0,.106-.037.179-.037a.661.661,0,0,0,.4-.611V2.044h3.874c.286,0,.286.143.286.286V24.543c0,.465-.179.538-.4.575H95.563a.26.26,0,0,0-.143.037h-.106c-.073,0-.106.037-.179.037H95.1c-.073.037-.106.037-.179.073h-.037a.036.036,0,0,0-.037.037V3.084Zm19.954,23a1.945,1.945,0,0,1-1.9,2.226H95.816a.952.952,0,0,1-.934-.934v-.037a.863.863,0,0,1,.179-.5.036.036,0,0,1,.037-.037c.037-.037.037-.073.073-.106s.073-.037.073-.073l.037-.037c.037-.037.073-.037.143-.073h.037a.211.211,0,0,1,.143-.037h.037c.073,0,.106-.037.179-.037h15.538a1.58,1.58,0,0,0,1.615-1.688V5.234h1.867V26.088Z" transform="translate(-93.556)" fill="gray"/>
      </g>
    </g>
    <path id="Path_25966" data-name="Path 25966" d="M4138.71-6230.851l3.586-2.956,3.375,2.956v-13.9h-6.961Z" transform="translate(-2803.512 6474.357)" fill="none" stroke="#c0657b" stroke-linecap="round" stroke-linejoin="round" stroke-width="1.6"/>
  </g>
</svg>
