<svg xmlns="http://www.w3.org/2000/svg" width="80" height="80" viewBox="0 0 80 80">
  <g id="Group_13906" data-name="Group 13906" transform="translate(-1033 -1158)">
    <circle id="Ellipse_1372" data-name="Ellipse 1372" cx="40" cy="40" r="40" transform="translate(1033 1158)" fill="#ef94a7"/>
    <g id="briefcase" transform="translate(1056 1141.93)">
      <g id="Group_13468" data-name="Group 13468" transform="translate(0 42.666)">
        <g id="Group_13467" data-name="Group 13467" transform="translate(0 0)">
          <path id="Path_25967" data-name="Path 25967" d="M29.778,46.727H23.011V45.373A2.71,2.71,0,0,0,20.3,42.666H12.182a2.71,2.71,0,0,0-2.707,2.707v1.354H2.707A2.71,2.71,0,0,0,0,49.434v4.061A2.71,2.71,0,0,0,2.707,56.2H13.536v-.677a.676.676,0,0,1,.677-.677h4.061a.676.676,0,0,1,.677.677V56.2H29.778a2.71,2.71,0,0,0,2.707-2.707V49.434A2.71,2.71,0,0,0,29.778,46.727Zm-9.475,0H12.182V45.373H20.3Z" transform="translate(0 -42.666)" fill="#fff"/>
          <path id="Path_25968" data-name="Path 25968" d="M32.11,266.455a.678.678,0,0,0-.71.067,2.672,2.672,0,0,1-1.622.557H18.95v2.03a.676.676,0,0,1-.677.677H14.212a.676.676,0,0,1-.677-.677v-2.03H2.707a2.673,2.673,0,0,1-1.622-.557A.676.676,0,0,0,0,267.061v9.492a2.71,2.71,0,0,0,2.707,2.707H29.778a2.71,2.71,0,0,0,2.707-2.707v-9.492A.677.677,0,0,0,32.11,266.455Z" transform="translate(0 -252.189)" fill="#fff"/>
        </g>
      </g>
    </g>
  </g>
</svg>
