<svg xmlns="http://www.w3.org/2000/svg" xmlns:xlink="http://www.w3.org/1999/xlink" width="355" height="213.224" viewBox="0 0 355 213.224">
  <defs>
    <linearGradient id="linear-gradient" x1="0.059" y1="0.229" x2="1.08" y2="0.88" gradientUnits="objectBoundingBox">
      <stop offset="0" stop-color="#ff41b8"/>
      <stop offset="1" stop-color="#30b3ff"/>
    </linearGradient>
    <filter id="Path_25928" x="0" y="0" width="355" height="206" filterUnits="userSpaceOnUse">
      <feOffset dy="3" input="SourceAlpha"/>
      <feGaussianBlur stdDeviation="20.5" result="blur"/>
      <feFlood flood-opacity="0.369"/>
      <feComposite operator="in" in2="blur"/>
      <feComposite in="SourceGraphic"/>
    </filter>
    <filter id="Path_25927" x="95.592" y="100.507" width="162.925" height="112.717" filterUnits="userSpaceOnUse">
      <feOffset dy="3" input="SourceAlpha"/>
      <feGaussianBlur stdDeviation="11" result="blur-2"/>
      <feFlood flood-opacity="0.161"/>
      <feComposite operator="in" in2="blur-2"/>
      <feComposite in="SourceGraphic"/>
    </filter>
  </defs>
  <g id="logo" transform="translate(-497.524 -149.414)">
    <g transform="matrix(1, 0, 0, 1, 497.52, 149.41)" filter="url(#Path_25928)">
      <path id="Path_25928-2" data-name="Path 25928" d="M5,0H204a28,28,0,0,1,28,28V78a5,5,0,0,1-5,5H28A28,28,0,0,1,0,55V5A5,5,0,0,1,5,0Z" transform="translate(61.5 58.5)" fill="url(#linear-gradient)"/>
    </g>
    <path id="Path_25890" data-name="Path 25890" d="M-177.282-16.681c-2.45,5.152-6.471,7.79-12.125,7.853a13.724,13.724,0,0,1-9.487-3.455A13.191,13.191,0,0,1-203.48-21.2h32.167V-23.78A17.113,17.113,0,0,0-176.4-35.843a18.481,18.481,0,0,0-12.44-5.906,17.552,17.552,0,0,0-13.885,5.4,18.123,18.123,0,0,0-5.654,13.822A18.11,18.11,0,0,0-202.6-9.393a17.792,17.792,0,0,0,13,5.34,18.463,18.463,0,0,0,10.618-3.455,18.173,18.173,0,0,0,6.785-9.173Zm-26.2-8.921a13.674,13.674,0,0,1,4.838-8.23,13.634,13.634,0,0,1,9.047-3.078,13.663,13.663,0,0,1,8.859,3.2,14.011,14.011,0,0,1,4.712,8.1Zm87.957-.754c0-4.461-1.319-8.1-3.9-10.806a14.134,14.134,0,0,0-9.487-4.335c-5.215-.44-9.361,1.822-12.44,6.66-3.078-4.838-7.225-7.1-12.44-6.66a13.851,13.851,0,0,0-9.424,4.335c-2.576,2.7-3.832,6.345-3.832,10.806V-4.932h4.963V-26.921a10.85,10.85,0,0,1,2.325-7.1,7.624,7.624,0,0,1,6.22-2.953,9.82,9.82,0,0,1,6.785,2.576,8.109,8.109,0,0,1,2.89,6.408V-4.932h5.026V-27.99A8.254,8.254,0,0,1-136-34.4a10.088,10.088,0,0,1,6.848-2.576,7.744,7.744,0,0,1,6.283,2.953,11.012,11.012,0,0,1,2.387,7.1V-4.932h4.963Zm41.9,3.707V-22.9a17.074,17.074,0,0,0-5.026-12.942,17.934,17.934,0,0,0-12.816-5.78,17.134,17.134,0,0,0-13.382,5.34,18.412,18.412,0,0,0-5.592,13.445,18.282,18.282,0,0,0,5.215,13A17.7,17.7,0,0,0-92.592-4.116a17.469,17.469,0,0,0,14.324-6.408v5.592h4.649Zm-27.895-10.3a13.183,13.183,0,0,1,9.738-4.021,12.459,12.459,0,0,1,9.361,4.021,13.913,13.913,0,0,1,4.021,9.675,14.107,14.107,0,0,1-4.084,10.366A12.505,12.505,0,0,1-92.529-8.828a13.145,13.145,0,0,1-9.361-4.461,13.884,13.884,0,0,1-3.707-9.927A13.486,13.486,0,0,1-101.513-32.953Zm37.57,6.6a10.779,10.779,0,0,1,1.194-5.529,13.094,13.094,0,0,1,2.827-2.953,8.726,8.726,0,0,1,5.4-1.822v-4.775a11.033,11.033,0,0,0-5.529,1.319,10.538,10.538,0,0,0-4.461,4.461v-5.089H-68.97V-4.932h5.026Zm27.015,3.644,13.633-18.031h-5.968L-45.85-19.257V-41.534h-4.963v36.6h5.152V-11.78l5.717-7.225L-28.321-4.932h6.22Z" transform="translate(790.064 272.972)" fill="#fff"/>
    <g transform="matrix(1, 0, 0, 1, 497.52, 149.41)" filter="url(#Path_25927)">
      <path id="Path_25927-2" data-name="Path 25927" d="M20,0H91.925a5,5,0,0,1,5,5V26.717a20,20,0,0,1-20,20H5a5,5,0,0,1-5-5V20A20,20,0,0,1,20,0Z" transform="translate(128.59 130.51)" fill="#fff"/>
    </g>
    <path id="Path_25926" data-name="Path 25926" d="M-52.646-1.958H-60.83l6.688-6.4a5.269,5.269,0,0,0,1.76-3.828c0-.22,0-.44-.022-.682A5.086,5.086,0,0,0-54.1-16.214a5.07,5.07,0,0,0-3.52-1.364,5.278,5.278,0,0,0-3.806,1.5,4.869,4.869,0,0,0-1.606,3.7v.572h1.672v-.572a3.318,3.318,0,0,1,1.1-2.508A3.712,3.712,0,0,1-57.64-15.95a3.568,3.568,0,0,1,2.486,1.012A3.626,3.626,0,0,1-54.032-12.5,3.859,3.859,0,0,1-55.4-9.416L-63.14-1.98V-.4h10.494Zm16.83-.748A8.608,8.608,0,0,0-33.2-9a8.112,8.112,0,0,0-2.684-6.094,8.861,8.861,0,0,0-6.292-2.464A8.5,8.5,0,0,0-48.4-14.938,8.554,8.554,0,0,0-50.974-8.69,8.148,8.148,0,0,0-48.334-2.6a8.868,8.868,0,0,0,6.27,2.508A8.51,8.51,0,0,0-35.816-2.706Zm-1.144-1.1a6.97,6.97,0,0,1-5.148,2.09,7.04,7.04,0,0,1-5.038-2.112,6.769,6.769,0,0,1-2.112-4.994,6.832,6.832,0,0,1,2.09-4.994,6.866,6.866,0,0,1,5.038-2.112,7.129,7.129,0,0,1,5.1,2.046,6.762,6.762,0,0,1,2.178,4.994A6.763,6.763,0,0,1-36.96-3.806Zm15.884,1.848H-29.26l6.688-6.4a5.269,5.269,0,0,0,1.76-3.828c0-.22,0-.44-.022-.682a5.086,5.086,0,0,0-1.694-3.344,5.07,5.07,0,0,0-3.52-1.364,5.278,5.278,0,0,0-3.806,1.5,4.869,4.869,0,0,0-1.606,3.7v.572h1.672v-.572a3.318,3.318,0,0,1,1.1-2.508A3.712,3.712,0,0,1-26.07-15.95a3.568,3.568,0,0,1,2.486,1.012A3.626,3.626,0,0,1-22.462-12.5a3.859,3.859,0,0,1-1.364,3.08L-31.57-1.98V-.4h10.494Zm16.83-.748A8.608,8.608,0,0,0-1.628-9a8.112,8.112,0,0,0-2.684-6.094A8.861,8.861,0,0,0-10.6-17.556a8.5,8.5,0,0,0-6.226,2.618A8.554,8.554,0,0,0-19.4-8.69,8.148,8.148,0,0,0-16.764-2.6a8.868,8.868,0,0,0,6.27,2.508A8.51,8.51,0,0,0-4.246-2.706Zm-1.144-1.1a6.97,6.97,0,0,1-5.148,2.09,7.04,7.04,0,0,1-5.038-2.112,6.769,6.769,0,0,1-2.112-4.994,6.832,6.832,0,0,1,2.09-4.994,6.866,6.866,0,0,1,5.038-2.112,7.129,7.129,0,0,1,5.1,2.046A6.762,6.762,0,0,1-3.278-8.888,6.763,6.763,0,0,1-5.39-3.806Z" transform="translate(707.024 312.914)" fill="#1e1e1e"/>
  </g>
</svg>
