<svg xmlns="http://www.w3.org/2000/svg" width="1756.108" height="357.059" viewBox="0 0 1756.108 357.059">
  <path id="Path_25890" data-name="Path 25890" d="M84.314,194.433c-23.057,48.479-60.894,73.309-114.1,73.9-34.29.591-63.85-10.642-89.271-32.516s-39.611-50.252-43.158-83.951h302.7V127.627q0-62.963-47.887-113.511C59.484-20.173,20.464-38.5-24.467-41.457c-50.252-2.956-93.41,14.189-130.656,50.843-36.654,36.063-54.39,79.812-53.208,130.065.591,47.887,18.919,88.68,54.391,123.561,35.472,34.29,76.265,50.843,122.379,50.252,36.655-.591,69.762-11.233,99.913-32.516s51.435-50.252,63.85-86.316Zm-246.532-83.951c6.5-31.925,21.283-57.938,45.523-77.448S-64.078,3.475-31.562,4.066s60.3,10.642,83.36,30.151,37.837,44.931,44.34,76.265Zm827.684-7.094c0-41.975-12.416-76.265-36.655-101.687-23.057-24.239-52.617-37.837-89.272-40.793-49.07-4.139-88.089,17.145-117.058,62.667C393.513-21.947,354.494-43.23,305.424-39.092Q250.442-34.658,216.744,1.7C192.5,27.123,180.681,61.412,180.681,103.388v201.6h46.7V98.067c0-26.6,7.095-48.479,21.875-66.806S283.55,3.475,307.789,3.475c24.83,0,46.113,8.277,63.85,24.239,18.327,15.963,27.2,36.063,27.2,60.3V304.988h47.3V88.017q0-36.359,26.6-60.3c18.328-15.962,39.61-24.239,64.441-24.239,24.239,0,44.34,9.459,59.12,27.786s22.466,40.793,22.466,66.806V304.988h46.705ZM1059.8,138.269V135.9c1.774-46.705-14.189-87.5-47.3-121.788C979.395-20.765,939.193-38.5,891.9-40.274c-49.07-1.774-91.045,14.78-125.926,50.252C731.09,44.859,713.354,87.425,713.354,136.5c0,47.3,16.554,88.089,49.07,122.379s72.127,52.026,118.832,53.8q79.812,2.66,134.794-60.3v52.617H1059.8ZM797.3,41.312C822.726,15.89,852.878,3.475,888.941,3.475c34.29,0,63.85,12.415,88.089,37.837s37.246,55.573,37.836,91.045c.592,37.246-11.824,69.762-38.428,97.548-26.013,27.2-57.346,40.2-94.592,38.428-34.29-1.774-63.85-15.371-88.089-41.975s-35.472-57.938-34.881-93.41C759.467,96.885,771.883,66.733,797.3,41.312Zm353.539,62.076c0-21.875,3.547-39.019,11.233-52.026,4.729-7.686,13.6-17.145,26.6-27.786s30.151-16.554,50.843-17.145V-38.5c-17.736-.591-34.881,3.547-52.026,12.415-18.327,10.05-32.516,23.648-41.975,41.975V-32h-41.976V304.988h47.3Zm254.217,34.29L1533.352-32h-56.164L1321.11,170.194V-39.443h-46.705V304.988h48.479V240.547l53.8-67.988,109.373,132.429h58.529Z" transform="translate(209.387 42.779)" fill="none" stroke="#fff" stroke-width="2" opacity="0.05"/>
</svg>
