<svg xmlns="http://www.w3.org/2000/svg" width="76" height="76" viewBox="0 0 76 76">
  <g id="Group_13567" data-name="Group 13567" transform="translate(-586 -1577.754)">
    <g id="Group_13297" data-name="Group 13297" transform="translate(-720 -19)">
      <g id="coin" transform="translate(1306 1596.754)">
        <g id="Group_13297-2" data-name="Group 13297" transform="translate(0)">
          <path id="Path_25989" data-name="Path 25989" d="M64.875,11.125a38.007,38.007,0,0,0-53.75,53.75,38.007,38.007,0,0,0,53.75-53.75ZM38,72.119A34.119,34.119,0,1,1,72.119,38,34.167,34.167,0,0,1,38,72.119Z" transform="translate(0)" fill="#0635c9"/>
        </g>
      </g>
      <path id="Subtraction_2" data-name="Subtraction 2" d="M30.107,68.075A34.17,34.17,0,0,1,9.976,10a34.025,34.025,0,0,1,37.9-7.079,34.6,34.6,0,0,0-3.95-.227A34.1,34.1,0,0,0,9.861,36.848,34.163,34.163,0,0,0,30.107,68.073Z" transform="translate(1309.999 1600.672)" fill="#d4e1f4"/>
    </g>
    <path id="heart" d="M17.843,31.749a2.093,2.093,0,0,1-1.38-.518c-1.442-1.261-2.832-2.445-4.058-3.49l-.006-.005a75.47,75.47,0,0,1-8.86-8.316C1.125,16.505,0,13.743,0,10.725A11.154,11.154,0,0,1,2.831,3.107,9.6,9.6,0,0,1,9.969,0a8.976,8.976,0,0,1,5.607,1.936A11.472,11.472,0,0,1,17.843,4.3,11.473,11.473,0,0,1,20.11,1.936,8.976,8.976,0,0,1,25.717,0a9.6,9.6,0,0,1,7.138,3.107,11.154,11.154,0,0,1,2.831,7.618c0,3.018-1.124,5.781-3.539,8.694a75.453,75.453,0,0,1-8.859,8.316c-1.228,1.047-2.621,2.233-4.065,3.5A2.094,2.094,0,0,1,17.843,31.749ZM9.969,2.09a7.529,7.529,0,0,0-5.6,2.433,9.073,9.073,0,0,0-2.277,6.2c0,2.538.943,4.808,3.059,7.361a74.265,74.265,0,0,0,8.606,8.059l.007.005c1.231,1.049,2.626,2.238,4.078,3.508,1.461-1.272,2.858-2.463,4.092-3.514a74.279,74.279,0,0,0,8.606-8.058c2.115-2.552,3.058-4.822,3.058-7.361a9.073,9.073,0,0,0-2.277-6.2,7.528,7.528,0,0,0-5.6-2.433,6.933,6.933,0,0,0-4.328,1.5A10.144,10.144,0,0,0,18.976,6.38a1.32,1.32,0,0,1-2.267,0A10.134,10.134,0,0,0,14.3,3.589,6.933,6.933,0,0,0,9.969,2.09Zm0,0" transform="translate(606.073 1599.957)" fill="#1ae5be" stroke="#1ae5be" stroke-width="1"/>
  </g>
</svg>
