<svg id="medicine" xmlns="http://www.w3.org/2000/svg" width="76.971" height="82" viewBox="0 0 76.971 82">
  <path id="Path_25990" data-name="Path 25990" d="M125.3,251.6V235.988h12.909l1.143,25.206-1.951-2.121-2.792-2.088Z" transform="translate(-97.939 -198.193)" fill="#d4e1f4"/>
  <path id="Path_25998" data-name="Path 25998" d="M130.337,113.5l8.328-11.1V96h6.214V102.4c-2.356,14.942-2.391,13.561-2.391,14.947v1.068H129.056v-1.068A6.412,6.412,0,0,1,130.337,113.5Z" transform="translate(-101.691 -80.621)" fill="#d4e1f4"/>
  <path id="Path_25999" data-name="Path 25999" d="M143.445,20.569V13.2c0-1.77,1.108-3.2,2.476-3.2h12.626c1.368,0,2.476,1.433,2.476,3.2v7.367c0,1.77-1.108,3.2-2.476,3.2H145.921C144.553,23.772,143.445,22.339,143.445,20.569Z" transform="translate(-109.674 -8.398)" fill="#d4e1f4"/>
  <path id="Path_26002" data-name="Path 26002" d="M127.3,279.393h4.8v-4.8a1.6,1.6,0,1,1,3.2,0v4.8h4.8a1.6,1.6,0,0,1,0,3.2h-4.8v4.8a1.6,1.6,0,0,1-3.2,0v-4.8h-4.8a1.6,1.6,0,0,1,0-3.2Z" transform="translate(-82.358 -229.266)" fill="#1ae5be"/>
  <path id="Path_26003" data-name="Path 26003" d="M34.92,46.879l6.505,3.756V36.727a8.064,8.064,0,0,1,1.6-4.8l8.007-10.676V16.7a4.812,4.812,0,0,1-3.2-4.529V4.8a4.81,4.81,0,0,1,4.8-4.8H81.462a4.81,4.81,0,0,1,4.8,4.8v7.367a4.812,4.812,0,0,1-3.2,4.529v4.546l8.008,10.677a8.064,8.064,0,0,1,1.6,4.8V67.743a8.016,8.016,0,0,1-8.007,8.007H58.928a12.8,12.8,0,0,1-17.4,4.529L22.108,69.069A12.812,12.812,0,0,1,34.92,46.879Zm24.2,16.06H89.47V39.4H44.628V52.483l9.709,5.606A12.717,12.717,0,0,1,59.117,62.938ZM83.064,4.8a1.6,1.6,0,0,0-1.6-1.6H52.636a1.6,1.6,0,0,0-1.6,1.6v7.367a1.6,1.6,0,0,0,1.6,1.6H81.462a1.6,1.6,0,0,0,1.6-1.6S83.064,4.8,83.064,4.8ZM80.181,22.741a1.6,1.6,0,0,1-.32-.961v-4.8H54.237v3.2H68.65a1.6,1.6,0,1,1,0,3.2H53.436L45.59,33.843a4.846,4.846,0,0,0-.928,2.35H89.436a4.843,4.843,0,0,0-.927-2.349Zm9.289,45V66.125h-29.1a12.832,12.832,0,0,1-.077,6.422H84.665A4.81,4.81,0,0,0,89.47,67.743ZM43.126,77.505a9.609,9.609,0,1,0,9.609-16.643l-8.693-5.019L34.433,72.486ZM23.71,66.295l7.95,4.59,9.609-16.643-7.95-4.59A9.609,9.609,0,1,0,23.71,66.295Z" transform="translate(-15.702)" fill="#0635c9"/>
</svg>
