<svg id="Group_13397" data-name="Group 13397" xmlns="http://www.w3.org/2000/svg" width="53.612" height="62.865" viewBox="0 0 53.612 62.865">
  <g id="Group_13396" data-name="Group 13396">
    <path id="Path_25903" data-name="Path 25903" d="M90.32,10.855A104.573,104.573,0,0,1,65.16.183a1.322,1.322,0,0,0-1.344,0A101.71,101.71,0,0,1,38.654,10.855a1.322,1.322,0,0,0-.973,1.275V25.643a38.872,38.872,0,0,0,11.8,28.4c5.8,5.681,12.551,8.822,15,8.822s9.2-3.141,15-8.822a38.872,38.872,0,0,0,11.8-28.4V12.131A1.322,1.322,0,0,0,90.32,10.855ZM88.648,25.642a36.279,36.279,0,0,1-11.01,26.511c-5.7,5.586-11.8,8.066-13.151,8.066s-7.45-2.48-13.152-8.066a36.28,36.28,0,0,1-11.01-26.511V13.134A104.147,104.147,0,0,0,64.488,2.855,107.443,107.443,0,0,0,88.648,13.134Z" transform="translate(-37.681 0)" fill="#868686"/>
    <path id="Path_25904" data-name="Path 25904" d="M90.176,99.781a1.322,1.322,0,0,0-1.715-.746c-2.362.931-4.787,1.788-7.207,2.547a1.323,1.323,0,0,0-.927,1.262v5.107a1.322,1.322,0,1,0,2.645,0v-4.14c2.171-.7,4.339-1.479,6.458-2.314A1.322,1.322,0,0,0,90.176,99.781Z" transform="translate(-75.091 -86.794)" fill="#868686"/>
    <path id="Path_25905" data-name="Path 25905" d="M171.528,88.858a1.323,1.323,0,0,0,.53-.111l.024-.011a1.322,1.322,0,1,0-1.068-2.42l-.021.009a1.322,1.322,0,0,0,.535,2.532Z" transform="translate(-153.931 -75.62)" fill="#868686"/>
    <path id="Path_25906" data-name="Path 25906" d="M313.275,345.744a1.323,1.323,0,0,0-1.83.384,32.186,32.186,0,0,1-3.8,4.747,33.781,33.781,0,0,1-3.793,3.375,1.322,1.322,0,1,0,1.6,2.1,36.452,36.452,0,0,0,4.091-3.64,34.8,34.8,0,0,0,4.113-5.138A1.322,1.322,0,0,0,313.275,345.744Z" transform="translate(-270.713 -303.103)" fill="#868686"/>
    <path id="Path_25907" data-name="Path 25907" d="M277.3,432.147l-.076.045a1.322,1.322,0,1,0,1.325,2.289l.088-.051a1.322,1.322,0,1,0-1.336-2.282Z" transform="translate(-247.232 -378.928)" fill="#868686"/>
    <path id="Path_25908" data-name="Path 25908" d="M130.16,164.35a4.3,4.3,0,1,0-6.081,6.082l7.809,7.808a4.3,4.3,0,0,0,6.081,0l16.3-16.3a4.3,4.3,0,0,0-6.082-6.081l-13.26,13.26Zm19.9-6.622a1.655,1.655,0,1,1,2.341,2.341l-16.3,16.3a1.657,1.657,0,0,1-2.341,0l-7.808-7.808a1.655,1.655,0,0,1,2.341-2.341l5.7,5.7a1.322,1.322,0,0,0,1.87,0Z" transform="translate(-112.367 -135.617)" fill="#868686"/>
  </g>
</svg>
