<svg id="high-five" xmlns="http://www.w3.org/2000/svg" width="68.193" height="62.865" viewBox="0 0 68.193 62.865">
  <g id="Group_13371" data-name="Group 13371" transform="translate(32.763 0)">
    <g id="Group_13370" data-name="Group 13370">
      <path id="Path_25891" data-name="Path 25891" d="M247.319,20a1.332,1.332,0,0,0-1.332,1.332v7.924a1.332,1.332,0,0,0,2.664,0V21.332A1.332,1.332,0,0,0,247.319,20Z" transform="translate(-245.987 -20)" fill="#868686"/>
    </g>
  </g>
  <g id="Group_13373" data-name="Group 13373" transform="translate(21.088 7.798)">
    <g id="Group_13372" data-name="Group 13372">
      <path id="Path_25892" data-name="Path 25892" d="M163.79,82.124,160.6,78.94a1.332,1.332,0,1,0-1.883,1.884l3.187,3.184a1.332,1.332,0,0,0,1.883-1.884Z" transform="translate(-158.33 -78.55)" fill="#868686"/>
    </g>
  </g>
  <g id="Group_13375" data-name="Group 13375" transform="translate(41.053 7.801)">
    <g id="Group_13374" data-name="Group 13374">
      <path id="Path_25893" data-name="Path 25893" d="M313.894,78.963a1.332,1.332,0,0,0-1.884,0l-3.388,3.391a1.332,1.332,0,0,0,1.884,1.883l3.388-3.391A1.332,1.332,0,0,0,313.894,78.963Z" transform="translate(-308.233 -78.573)" fill="#868686"/>
    </g>
  </g>
  <g id="Group_13377" data-name="Group 13377" transform="translate(0 20.012)">
    <g id="Group_13376" data-name="Group 13376">
      <path id="Path_25894" data-name="Path 25894" d="M59.469,185.4H58.394a6.749,6.749,0,0,0,1.4-4.121V179.4a6.785,6.785,0,1,0-13.57,0v1.461L36.2,170.842a2.008,2.008,0,0,0-2.108-.469,2.008,2.008,0,0,0-2.108.469l-10.02,10.02V179.4a6.785,6.785,0,0,0-13.57,0v1.88A6.749,6.749,0,0,0,9.8,185.4H8.724A8.734,8.734,0,0,0,0,194.126v17.648a1.332,1.332,0,0,0,1.332,1.332H6.959a1.331,1.331,0,0,0,.383-.056,1.331,1.331,0,0,0,.383.056H22.642a1.332,1.332,0,0,0,1.332-1.332v-4.528a1.332,1.332,0,0,0-2.664,0v3.2H9.057V195.265a1.332,1.332,0,0,0-2.664,0v15.177H2.664V194.126a6.067,6.067,0,0,1,6.06-6.06h9.257a1.328,1.328,0,0,0,.939-.388l0,0,13.834-13.834a14.666,14.666,0,0,1-2.5,7.734l-8.717,12.946a1.333,1.333,0,0,0-.227.744v1.458a1.332,1.332,0,1,0,2.664,0v-1.052l8.49-12.609a17.431,17.431,0,0,0,1.633-3.038,17.422,17.422,0,0,0,1.633,3.038l8.49,12.609v16.1a1.332,1.332,0,0,0,1.332,1.332H60.468a1.331,1.331,0,0,0,.383-.056,1.331,1.331,0,0,0,.383.056h5.627a1.332,1.332,0,0,0,1.332-1.332V194.126A8.734,8.734,0,0,0,59.469,185.4ZM19.3,181.281a4.121,4.121,0,1,1-8.243,0V179.4a4.121,4.121,0,1,1,8.243,0Zm29.583-1.88a4.121,4.121,0,0,1,8.243,0v1.88a4.121,4.121,0,1,1-8.243,0Zm16.641,31.041H61.8v-9.856a1.332,1.332,0,0,0-2.664,0v9.856H46.883V195.265a1.332,1.332,0,0,0-.227-.744l-8.717-12.946a14.666,14.666,0,0,1-2.5-7.734l13.834,13.834c.018.018.034.032.05.046a1.325,1.325,0,0,0,.892.345h9.257a6.067,6.067,0,0,1,6.06,6.06v16.315Z" transform="translate(0 -170.252)" fill="#868686"/>
    </g>
  </g>
  <g id="Group_13379" data-name="Group 13379" transform="translate(59.136 43.693)">
    <g id="Group_13378" data-name="Group 13378">
      <path id="Path_25895" data-name="Path 25895" d="M446.273,348.44a1.331,1.331,0,1,0,.39.942A1.341,1.341,0,0,0,446.273,348.44Z" transform="translate(-444 -348.05)" fill="#868686"/>
    </g>
  </g>
  <g id="Group_13381" data-name="Group 13381" transform="translate(21.31 50.745)">
    <g id="Group_13380" data-name="Group 13380">
      <path id="Path_25896" data-name="Path 25896" d="M162.273,401.39a1.331,1.331,0,1,0,.39.942A1.341,1.341,0,0,0,162.273,401.39Z" transform="translate(-160 -401)" fill="#868686"/>
    </g>
  </g>
</svg>
