<svg xmlns="http://www.w3.org/2000/svg" width="26.617" height="31.134" viewBox="0 0 26.617 31.134">
  <g id="Group_13419" data-name="Group 13419" transform="translate(0.25 0.26)">
    <g id="Group_13396" data-name="Group 13396">
      <path id="Path_25903" data-name="Path 25903" d="M63.324,5.288A50.942,50.942,0,0,1,51.067.089a.644.644,0,0,0-.655,0,49.547,49.547,0,0,1-12.257,5.2.644.644,0,0,0-.474.621v6.582a18.936,18.936,0,0,0,5.75,13.835c2.824,2.767,6.114,4.3,7.308,4.3s4.484-1.53,7.308-4.3A18.936,18.936,0,0,0,63.8,12.491V5.909A.644.644,0,0,0,63.324,5.288Zm-.814,7.2a17.673,17.673,0,0,1-5.363,12.915c-2.777,2.721-5.747,3.929-6.406,3.929s-3.629-1.208-6.407-3.929a17.673,17.673,0,0,1-5.363-12.915V6.4A50.734,50.734,0,0,0,50.74,1.39,52.34,52.34,0,0,0,62.509,6.4Z" transform="translate(-37.681 0)" fill="#0dc8d0" stroke="#0dc9d0" stroke-width="0.5"/>
      <path id="Path_25904" data-name="Path 25904" d="M85.125,99.351a.644.644,0,0,0-.836-.363c-1.151.453-2.332.871-3.511,1.241a.644.644,0,0,0-.451.615v2.488a.644.644,0,1,0,1.288,0v-2.017c1.057-.342,2.114-.721,3.146-1.127A.644.644,0,0,0,85.125,99.351Z" transform="translate(-77.776 -93.025)" fill="#0dc8d0" stroke="#0dc9d0" stroke-width="0.5"/>
      <path id="Path_25905" data-name="Path 25905" d="M170.848,87.5a.644.644,0,0,0,.258-.054l.012-.005a.644.644,0,1,0-.52-1.179l-.01,0a.644.644,0,0,0,.26,1.233Z" transform="translate(-162.276 -81.049)" fill="#0dc8d0" stroke="#0dc9d0" stroke-width="0.5"/>
      <path id="Path_25906" data-name="Path 25906" d="M308.175,345.633a.644.644,0,0,0-.892.187,15.68,15.68,0,0,1-1.851,2.312,16.458,16.458,0,0,1-1.848,1.644.644.644,0,1,0,.781,1.025,17.759,17.759,0,0,0,1.993-1.773,16.955,16.955,0,0,0,2-2.5A.644.644,0,0,0,308.175,345.633Z" transform="translate(-287.441 -324.861)" fill="#0dc8d0" stroke="#0dc9d0" stroke-width="0.5"/>
      <path id="Path_25907" data-name="Path 25907" d="M276.922,432.054l-.037.022a.644.644,0,1,0,.645,1.115l.043-.025a.644.644,0,1,0-.651-1.112Z" transform="translate(-262.275 -406.129)" fill="#0dc8d0" stroke="#0dc9d0" stroke-width="0.5"/>
      <path id="Path_25908" data-name="Path 25908" d="M126.4,159.349a2.095,2.095,0,0,0-2.962,2.963l3.8,3.8a2.1,2.1,0,0,0,2.963,0l7.941-7.941a2.095,2.095,0,0,0-2.963-2.962l-6.46,6.46Zm9.693-3.226a.806.806,0,1,1,1.14,1.14l-7.941,7.941a.807.807,0,0,1-1.141,0l-3.8-3.8a.806.806,0,0,1,1.14-1.141l2.778,2.778a.644.644,0,0,0,.911,0Z" transform="translate(-117.729 -145.352)" fill="#0dc8d0" stroke="#0dc9d0" stroke-width="0.5"/>
    </g>
  </g>
</svg>
